<?xml version="1.0" encoding="UTF-8"?>
<!DOCTYPE svg PUBLIC "-//W3C//DTD SVG 1.1//EN" "http://www.w3.org/Graphics/SVG/1.1/DTD/svg11.dtd">
<!-- Creator: CorelDRAW -->
<svg xmlns="http://www.w3.org/2000/svg" xml:space="preserve" width="512px" height="512px" version="1.1" style="shape-rendering:geometricPrecision; text-rendering:geometricPrecision; image-rendering:optimizeQuality; fill-rule:evenodd; clip-rule:evenodd"
viewBox="0 0 512 512"
 xmlns:xlink="http://www.w3.org/1999/xlink"
 xmlns:xodm="http://www.corel.com/coreldraw/odm/2003">
 <defs>
  <style type="text/css">
   <![CDATA[
    .fil0 {fill:black}
   ]]>
  </style>
 </defs>
 <g id="Layer_x0020_1">
  <metadata id="CorelCorpID_0Corel-Layer"/>
  <g id="_1782677051376">
   <path class="fil0" d="M392.62 511.96l-291.1 0c-0.16,0 -0.33,-0.01 -0.49,-0.03 -38.97,-3.84 -67.3,-15.21 -84.21,-33.77 -2.99,-3.28 -5.39,-6.54 -7.32,-9.68l77.3 0c2.77,0 5,-2.24 5,-5 0,-0.35 -0.03,-0.69 -0.1,-1.02 10,8.2 22.78,13.14 36.69,13.14 24.23,0 45.02,-14.94 53.66,-36.09 8.64,21.15 29.43,36.09 53.66,36.09 24.22,0 45.02,-14.94 53.66,-36.09 8.63,21.15 29.43,36.09 53.65,36.09 31.95,0 57.93,-25.99 57.93,-57.93 0,-1.74 -0.08,-3.45 -0.23,-5.14 7.63,-0.9 16.27,-6.15 18.93,-15.16 3.56,-12.07 2.97,-25.58 1.79,-38.38 -0.76,-8.39 -2.97,-14.45 -5.52,-21.48 -3.8,-10.47 -8.11,-22.35 -8.11,-44.14 0,-19.92 16.2,-36.13 36.12,-36.13l12.45 0c30.22,0 54.8,24.59 54.8,54.81 0,2.76 -2.24,5 -5,5l-47.85 0c-0.7,0 -1.36,-0.01 -1.96,-0.02 0.13,0.4 0.27,0.81 0.41,1.22l0.17 0.52c2.98,8.89 5.94,16.77 8.55,23.72 10.81,28.85 17.96,47.91 11.08,91.72 -0.99,8.65 -3.18,16.77 -6.51,24.27l-53.05 0c-2.76,0 -5,2.24 -5,5 0,2.76 2.24,5 5,5l47.72 0c-7.64,12.14 -18.72,22.32 -32.94,30.14 -19.44,10.69 -37.75,13.19 -38.52,13.29 -0.22,0.03 -0.44,0.05 -0.66,0.05zm-305.27 -53.45c-0.18,-0.02 -0.36,-0.03 -0.55,-0.03l-82.21 0c-2.36,-6.33 -2.84,-11.28 -2.94,-13.4l-0.12 -2.95c-0.64,-14.47 -1.82,-41.4 1.75,-52.12l11.92 -35.77c0.68,-2.04 2.59,-3.41 4.74,-3.41l30.49 0c2.76,0 5,2.23 5,4.99l0 24.15c0,13.71 7.63,21.63 16.18,26.21 -0.75,3.71 -1.15,7.55 -1.15,11.49 0,15.92 6.46,30.36 16.89,40.84zm384.54 -165.33l-7.84 0c-2.77,0 -5,-2.23 -5,-5 0,-2.76 2.23,-4.99 5,-4.99l7.84 0c2.76,0 5,2.23 5,4.99 0,2.77 -2.24,5 -5,5z"/>
   <path class="fil0" d="M128.39 465.6c-26.43,0 -47.93,-21.51 -47.93,-47.93 0,-26.43 21.5,-47.94 47.93,-47.94 26.43,0 47.93,21.51 47.93,47.94 0,26.42 -21.5,47.93 -47.93,47.93zm0 -24.68c-12.82,0 -23.25,-10.43 -23.25,-23.25 0,-12.83 10.43,-23.26 23.25,-23.26 12.83,0 23.26,10.43 23.26,23.26 0,12.82 -10.43,23.25 -23.26,23.25zm0 -36.51c-7.31,0 -13.25,5.95 -13.25,13.26 0,7.31 5.94,13.25 13.25,13.25 7.31,0 13.26,-5.95 13.26,-13.25 0,-7.31 -5.95,-13.26 -13.26,-13.26zm107.32 36.51c-12.83,0 -23.26,-10.43 -23.26,-23.25 0,-12.83 10.43,-23.26 23.26,-23.26 12.82,0 23.25,10.43 23.25,23.26 0,12.82 -10.43,23.25 -23.25,23.25zm0 -36.51c-7.31,0 -13.26,5.95 -13.26,13.26 0,7.31 5.95,13.25 13.26,13.25 7.31,0 13.25,-5.95 13.25,-13.25 0,-7.31 -5.94,-13.26 -13.25,-13.26zm107.31 36.51c-12.82,0 -23.25,-10.43 -23.25,-23.25 0,-12.83 10.43,-23.26 23.25,-23.26 12.83,0 23.26,10.43 23.26,23.26 0,12.82 -10.43,23.25 -23.26,23.25zm0 -36.51c-7.31,0 -13.25,5.95 -13.25,13.26 0,7.31 5.94,13.25 13.25,13.25 7.31,0 13.26,-5.95 13.26,-13.25 0,-7.31 -5.95,-13.26 -13.26,-13.26zm0 61.19c-26.43,0 -47.93,-21.51 -47.93,-47.93 0,-26.43 21.5,-47.94 47.93,-47.94 26.43,0 47.93,21.51 47.93,47.94 0,26.42 -21.5,47.93 -47.93,47.93zm-107.31 0c-26.43,0 -47.93,-21.51 -47.93,-47.93 0,-26.43 21.5,-47.94 47.93,-47.94 26.43,0 47.93,21.51 47.93,47.94 0,26.42 -21.5,47.93 -47.93,47.93z"/>
   <path class="fil0" d="M219.12 362.16l0 -55.61 33.18 -0.87 0 56.47c-5.26,-1.57 -10.83,-2.42 -16.59,-2.42 -5.77,0 -11.33,0.85 -16.59,2.43z"/>
   <path class="fil0" d="M227.99 75.7l0 -67.04c0,-2.76 2.24,-5 5,-5 2.76,0 5,2.24 5,5l0 69.33c-3.27,-0.91 -6.61,-1.67 -10,-2.29z"/>
   <path class="fil0" d="M305.9 59.84c-0.01,0 -0.02,0 -0.02,0l-57.89 0 0 -51.18c0,-3.21 -1.01,-6.18 -2.72,-8.62l60.61 0c1.95,0 3.72,1.14 4.54,2.91 0.82,1.78 0.52,3.86 -0.75,5.34l-18.89 22.04 18.59 20.91c0.94,0.91 1.53,2.19 1.53,3.6 0,2.76 -2.24,5 -5,5z"/>
   <path class="fil0" d="M268.74 189.75c0,-57.47 -46,-104.39 -103.11,-105.88 40.47,18.1 68.74,58.75 68.74,105.88 0,47.12 -28.27,87.77 -68.74,105.87 57.11,-1.49 103.11,-48.41 103.11,-105.87z"/>
   <path class="fil0" d="M209.99 83.87c40.47,18.1 68.75,58.75 68.75,105.88 0,47.12 -28.28,87.77 -68.75,105.87 57.11,-1.49 103.11,-48.41 103.11,-105.87 0,-57.47 -46,-104.39 -103.11,-105.88z"/>
   <path class="fil0" d="M254.35 83.87c40.48,18.1 68.75,58.75 68.75,105.88 0,47.12 -28.27,87.77 -68.74,105.87 57.11,-1.49 103.11,-48.41 103.11,-105.87 0,-57.47 -46,-104.39 -103.12,-105.88z"/>
  </g>
 </g>
</svg>
