<?xml version="1.0" encoding="UTF-8"?>
<svg id="Layer_1" data-name="Layer 1" xmlns="http://www.w3.org/2000/svg" viewBox="0 0 128 128">
  <defs>
    <style>
      .cls-1 {
        stroke-width: 0px;
      }
    </style>
  </defs>
  <path class="cls-1" d="m36.88,111.14c.69-8.26,3.35-16.23,7.81-23.28,4.75-7.51,11.32-13.63,19.1-17.84,7.79,4.2,14.35,10.33,19.1,17.84,4.46,7.05,7.12,15.02,7.81,23.28h-53.82Z"/>
  <rect class="cls-1" x="20.13" y="123.54" width="87.32" height="4.23"/>
  <rect class="cls-1" x="20.13" y="-.23" width="87.32" height="4.23"/>
  <path class="cls-1" d="m98.69,118.96H28.88v-3.51c0-10.74,2.37-21.02,6.85-29.73,2.33-4.52,5.23-8.65,8.62-12.26,3.52-3.74,7.58-6.95,12.09-9.54.05-.03.09-.09.09-.16h0c0-.07-.03-.13-.09-.16-4.51-2.59-8.57-5.8-12.09-9.54-3.39-3.61-6.29-7.73-8.62-12.26-4.48-8.71-6.85-18.99-6.85-29.73v-3.51h69.81v3.51c0,10.74-2.37,21.02-6.85,29.73-2.33,4.52-5.23,8.65-8.62,12.25-3.52,3.74-7.58,6.95-12.09,9.54-.05.03-.09.09-.09.16s.03.13.09.16c4.51,2.59,8.57,5.8,12.09,9.54,3.39,3.61,6.29,7.73,8.62,12.25,4.48,8.71,6.85,18.99,6.85,29.73v3.51Zm-65.34-4.47h60.87c-.14-9.68-2.32-18.9-6.35-26.72-4.4-8.54-10.78-15.26-18.97-19.97-1.43-.82-2.32-2.37-2.32-4.03s.89-3.2,2.32-4.03c8.19-4.71,14.57-11.43,18.97-19.97,4.03-7.82,6.22-17.04,6.35-26.72h-60.87c.14,9.68,2.32,18.9,6.35,26.72,4.4,8.54,10.78,15.26,18.97,19.97,1.43.82,2.32,2.37,2.32,4.03s-.89,3.2-2.32,4.03c-8.19,4.71-14.57,11.43-18.97,19.97-4.03,7.82-6.22,17.04-6.35,26.72Z"/>
</svg>