<?xml version="1.0" encoding="UTF-8"?>
<svg id="Layer_1" data-name="Layer 1" xmlns="http://www.w3.org/2000/svg" viewBox="0 0 128 128">
  <defs>
    <style>
      .cls-1 {
        fill: #231f20;
        stroke-width: 0px;
      }
    </style>
  </defs>
  <path class="cls-1" d="m85.39,57.79c3.61-3.17,8.09-7.12,11.74-13.57,4.25-7.5,6.31-16.55,6.31-27.68v-6.39h4.93c1.48,0,2.68-1.2,2.68-2.68V2.68c0-1.48-1.2-2.68-2.68-2.68H19.63c-1.48,0-2.68,1.2-2.68,2.68v4.8c0,1.48,1.2,2.68,2.68,2.68h4.93v6.39c0,11.13,2.06,20.19,6.31,27.68,3.65,6.44,8.14,10.39,11.74,13.57,3.26,2.87,5.1,4.57,5.1,6.27s-1.84,3.4-5.1,6.27c-3.61,3.17-8.09,7.12-11.74,13.57-4.25,7.5-6.31,16.55-6.31,27.68v6.26h-4.93c-1.48,0-2.68,1.2-2.68,2.68v4.8c0,1.48,1.2,2.68,2.68,2.68h88.74c1.48,0,2.68-1.2,2.68-2.68v-4.8c0-1.48-1.2-2.68-2.68-2.68h-4.93v-6.26c0-11.13-2.06-20.19-6.31-27.68-3.65-6.44-8.14-10.39-11.74-13.57-3.26-2.87-5.1-4.57-5.1-6.27s1.84-3.4,5.1-6.27Zm-9.74-.57c-1.75,2.2-2.61,4.44-2.61,6.84s.85,4.64,2.61,6.84c1.33,1.68,3.09,3.22,4.95,4.86,6.58,5.79,15.6,13.73,15.6,35.82v6.26H31.79v-6.26c0-22.09,9.02-30.02,15.6-35.82,1.86-1.64,3.62-3.19,4.95-4.86,1.75-2.2,2.61-4.44,2.61-6.84s-.85-4.64-2.61-6.84c-1.33-1.68-3.09-3.22-4.95-4.86-6.58-5.79-15.6-13.73-15.6-35.82v-6.39h64.41v6.39c0,22.09-9.02,30.02-15.6,35.82-1.86,1.64-3.62,3.19-4.95,4.86Z"/>
  <path class="cls-1" d="m42.2,37.81c2.57,4.53,5.85,7.42,9.01,10.21,4.24,3.73,11.83,8.38,11.76,16.05-.24,25.75-25.4,32.94-25.4,41.76v6.37h52.83v-6.37c0-8.82-25.34-16.01-25.34-41.76,0-7.67,7.46-12.32,11.71-16.05,3.17-2.79,6.45-5.67,9.01-10.21h-43.59Z"/>
</svg>