<?xml version="1.0" encoding="UTF-8"?>
<svg id="Layer_1" data-name="Layer 1" xmlns="http://www.w3.org/2000/svg" viewBox="0 0 128 128">
  <defs>
    <style>
      .cls-1 {
        fill: #231f20;
        stroke-width: 0px;
      }
    </style>
  </defs>
  <g id="NewGroupe3">
    <g id="NewGroup38-1">
      <g>
        <path class="cls-1" d="m112.76,53.64c-.9,1.04-6.09,6.71-10.66,10.86-1.99-6.38-5.09-12.31-9.01-17.22,7.07-3.31,16.77-8.85,20.28-15.57,3.99-7.63,4.03-16.35,4.05-22.11,0-1.58.02-3.62.16-4.75,1.34,1.24,3.88,5.77,5.21,11.3,3.37,13.98-2.85,29.24-10.05,37.49h0Zm-8.89,50.17c1.24.59,2.05,2.03,2.05,3.67v11.19c0,2.18-1.44,3.95-3.21,3.95H24.88c-1.77,0-3.22-1.77-3.22-3.95v-11.19c0-1.62.78-3.04,1.99-3.65.02,0,.04-.02.06-.03.35-.17.72-.26,1.1-.27.03,0,.06,0,.09,0-.02,0-.03,0-.03,0h77.82s.03,0,.05,0c.39,0,.76.1,1.11.27h0ZM14.81,53.64C7.62,45.39,1.4,30.13,4.77,16.15c1.33-5.54,3.87-10.06,5.21-11.3.15,1.12.16,3.16.16,4.74.03,5.77.06,14.48,4.05,22.12,3.44,6.58,12.48,11.79,20.5,15.31-3.72,4.59-6.69,10.02-8.73,15.97-4.72-3.57-10.14-8.18-11.15-9.34h0Zm25.04-5.75c.08-.09.17-.18.27-.28,1.52-1.56,5.63-4.5,9.53-7.02v58h-22.85v-16.11c0-5.17.7-10.23,2.08-15.04,0,0,0,0,0,0,0,0,0-.01,0-.02.05-.18.1-.35.16-.53v-.03c2.2-7.33,5.93-13.88,10.81-18.97h0Zm13.84-9.46c0-.4.02-.82.05-1.22.01-.14.02-.27.04-.42.03-.29.07-.57.12-.85.95-5.73,5.11-9.89,9.89-9.89,2.7,0,5.23,1.29,7.13,3.62,1.41,1.73,2.36,3.9,2.76,6.29.07.4.12.82.15,1.25.03.39.05.8.05,1.22v60.16h-20.18v-60.16h0Zm24.22,2.51c3.89,2.37,7.99,5.08,9.54,6.67.19.19.37.38.55.58,0,0,.01.01.02.02.64.67,1.28,1.41,1.92,2.19,3.78,4.64,6.75,10.33,8.58,16.46.23.77.44,1.53.62,2.27,0,0,0,0,0,.01,0,0,0,0,0,.01,1.08,4.29,1.62,8.78,1.62,13.33v16.11h-22.86v-57.65h0ZM122.74,4.57c-2.17-3.8-4.29-5.45-6.32-4.89-1.04.28-2.37,1.27-2.8,4.32-.21,1.5-.22,3.39-.23,5.57-.02,5.5-.06,13.04-3.42,19.46-2.37,4.54-9.9,9.92-20.23,14.49-2.71-2.59-9.05-6.45-12.07-8.23-.02-.11-.03-.22-.05-.33-.55-3.33-1.89-6.38-3.85-8.79-2.67-3.27-6.21-5.07-9.99-5.07-6.65,0-12.45,5.77-13.82,13.72-3.64,2.26-9.18,5.98-11.84,8.42-10.64-4.39-18.1-9.54-20.54-14.2-3.36-6.42-3.39-13.96-3.42-19.47,0-2.18-.02-4.06-.23-5.56C13.52.94,12.19-.04,11.15-.32,6.46-1.61,2.22,9.27.9,14.75c-1.74,7.23-1.43,15.28.9,23.3,2.09,7.19,5.73,14.02,10.26,19.21,1.34,1.54,7.52,6.76,12.5,10.47-1.19,4.75-1.79,9.71-1.79,14.75v16.5c-.15.06-.3.12-.44.18-.03.01-.05.02-.08.03-2.81,1.34-4.62,4.59-4.62,8.29v11.19c0,4.91,3.25,8.9,7.25,8.9h77.82c4,0,7.25-3.99,7.25-8.9v-11.19c0-3.7-1.81-6.95-4.62-8.29-.17-.08-.35-.16-.52-.22v-16.49c0-4.43-.47-8.81-1.39-13.04,4.99-4.35,11.1-11.04,12.1-12.19,4.53-5.19,8.17-12.01,10.26-19.21,2.33-8.02,2.64-16.08.9-23.31-.85-3.54-2.33-7.34-3.94-10.17h0Z"/>
        <path class="cls-1" d="m83.25,113.76c-.24.94-.94,1.57-1.75,1.57s-1.5-.63-1.75-1.58c-.05-.21-.08-.43-.08-.66,0-1.24.82-2.24,1.83-2.24s1.83,1.01,1.83,2.24c0,.23-.03.46-.09.68h0Zm-1.75-7.87c-3.23,0-5.86,3.23-5.86,7.2,0,.75.09,1.48.27,2.17.77,3.01,3.02,5.03,5.59,5.03s4.82-2.02,5.59-5.03c.18-.7.27-1.43.27-2.17,0-3.97-2.63-7.2-5.87-7.2h0Z"/>
        <path class="cls-1" d="m31.79,113.76c-.24.94-.94,1.57-1.74,1.57s-1.5-.63-1.75-1.57c-.06-.22-.08-.45-.08-.68,0-1.24.82-2.24,1.83-2.24s1.83,1.01,1.83,2.24c0,.23-.03.46-.09.68h0Zm-1.74-7.87c-3.24,0-5.87,3.23-5.87,7.2,0,.74.09,1.47.27,2.17.77,3.01,3.02,5.03,5.6,5.03s4.82-2.02,5.59-5.03c.18-.7.27-1.43.27-2.17,0-3.97-2.63-7.2-5.86-7.2h0Z"/>
        <path class="cls-1" d="m65.96,113.76c-.24.94-.94,1.57-1.74,1.57s-1.5-.63-1.74-1.57c-.06-.22-.08-.45-.08-.68,0-1.24.82-2.24,1.83-2.24s1.83,1.01,1.83,2.24c0,.23-.03.46-.09.68h0Zm-1.74-7.87c-3.23,0-5.86,3.23-5.86,7.2,0,.74.09,1.47.27,2.17.77,3.01,3.02,5.03,5.59,5.03s4.82-2.02,5.59-5.03c.18-.7.27-1.43.27-2.17,0-3.97-2.63-7.2-5.87-7.2h0Z"/>
        <path class="cls-1" d="m99.56,113.76c-.24.94-.94,1.57-1.74,1.57s-1.5-.63-1.74-1.57c-.06-.22-.08-.45-.08-.68,0-1.24.82-2.24,1.83-2.24s1.83,1.01,1.83,2.24c0,.23-.03.46-.09.68h0Zm-1.74-7.87c-3.23,0-5.86,3.23-5.86,7.2,0,.74.09,1.46.27,2.17.77,3.01,3.02,5.03,5.59,5.03s4.82-2.02,5.59-5.03c.18-.7.27-1.43.27-2.17,0-3.97-2.63-7.2-5.87-7.2h0Z"/>
        <path class="cls-1" d="m49.08,113.76c-.24.94-.94,1.57-1.74,1.57s-1.5-.63-1.75-1.57c-.06-.22-.08-.45-.08-.68,0-1.24.82-2.24,1.83-2.24s1.83,1.01,1.83,2.24c0,.23-.03.46-.09.68h0Zm-1.74-7.87c-3.24,0-5.87,3.23-5.87,7.2,0,.74.09,1.47.27,2.17.77,3.01,3.02,5.03,5.6,5.03s4.82-2.02,5.59-5.03c.18-.7.27-1.43.27-2.17,0-3.97-2.63-7.2-5.86-7.2h0Z"/>
        <path class="cls-1" d="m63.67,46.86c-1.38,0-2.5-1.38-2.5-3.07s1.12-3.07,2.5-3.07,2.5,1.38,2.5,3.07-1.12,3.07-2.5,3.07h0Zm0-11.09c-3.61,0-6.54,3.6-6.54,8.02s2.93,8.02,6.54,8.02,6.54-3.6,6.54-8.02-2.93-8.02-6.54-8.02h0Z"/>
        <path class="cls-1" d="m63.67,66.56c-1.38,0-2.5-1.38-2.5-3.07s1.12-3.07,2.5-3.07,2.5,1.38,2.5,3.07-1.12,3.07-2.5,3.07h0Zm0-11.09c-3.61,0-6.54,3.6-6.54,8.02s2.93,8.02,6.54,8.02,6.54-3.6,6.54-8.02-2.93-8.02-6.54-8.02h0Z"/>
        <path class="cls-1" d="m63.67,87.92c-1.38,0-2.5-1.38-2.5-3.07s1.12-3.07,2.5-3.07,2.5,1.38,2.5,3.07-1.12,3.07-2.5,3.07h0Zm0-11.09c-3.61,0-6.54,3.6-6.54,8.02s2.93,8.02,6.54,8.02,6.54-3.6,6.54-8.02-2.93-8.02-6.54-8.02h0Z"/>
      </g>
    </g>
  </g>
</svg>