<?xml version="1.0" encoding="UTF-8"?>
<svg id="Layer_1" data-name="Layer 1" xmlns="http://www.w3.org/2000/svg" xmlns:xlink="http://www.w3.org/1999/xlink" viewBox="0 0 128 128">
  <defs>
    <style>
      .cls-1 {
        fill: url(#_Áåçûìÿííûé_ãðàäèåíò_14);
      }

      .cls-1, .cls-2, .cls-3, .cls-4, .cls-5, .cls-6, .cls-7, .cls-8, .cls-9, .cls-10, .cls-11, .cls-12, .cls-13 {
        stroke-width: 0px;
      }

      .cls-2 {
        fill: url(#_Áåçûìÿííûé_ãðàäèåíò_108-3);
      }

      .cls-2, .cls-9, .cls-10, .cls-11 {
        mix-blend-mode: multiply;
      }

      .cls-3 {
        fill: #020202;
      }

      .cls-14 {
        filter: url(#luminosity-noclip-7);
      }

      .cls-15 {
        filter: url(#luminosity-noclip-5);
      }

      .cls-16 {
        mask: url(#mask-2);
      }

      .cls-17 {
        mask: url(#mask-3);
      }

      .cls-4 {
        fill: #ff9671;
      }

      .cls-18 {
        mask: url(#mask-5);
      }

      .cls-19 {
        opacity: .4;
      }

      .cls-5, .cls-6 {
        fill: #fff;
      }

      .cls-6 {
        opacity: .6;
      }

      .cls-20 {
        opacity: .57;
      }

      .cls-21 {
        mask: url(#mask-4);
      }

      .cls-7 {
        fill: url(#_Áåçûìÿííûé_ãðàäèåíò_40-2);
      }

      .cls-8 {
        fill: url(#_Áåçûìÿííûé_ãðàäèåíò_40-3);
      }

      .cls-9 {
        fill: url(#_Áåçûìÿííûé_ãðàäèåíò_108-2);
      }

      .cls-22 {
        mask: url(#mask-6);
      }

      .cls-10 {
        fill: url(#_Áåçûìÿííûé_ãðàäèåíò_111);
      }

      .cls-23 {
        filter: url(#luminosity-noclip);
      }

      .cls-24 {
        mask: url(#mask-1);
      }

      .cls-25 {
        mask: url(#mask);
      }

      .cls-26 {
        mask: url(#mask-7);
      }

      .cls-11 {
        fill: url(#_Áåçûìÿííûé_ãðàäèåíò_108);
      }

      .cls-12 {
        fill: url(#_Áåçûìÿííûé_ãðàäèåíò_40);
      }

      .cls-13 {
        fill: #171421;
      }

      .cls-27 {
        filter: url(#luminosity-noclip-3);
      }
    </style>
    <filter id="luminosity-noclip" x="23.09" y="8.51" width="73.14" height="109.36" color-interpolation-filters="sRGB" filterUnits="userSpaceOnUse">
      <feFlood flood-color="#fff" result="bg"/>
      <feBlend in="SourceGraphic" in2="bg"/>
    </filter>
    <filter id="luminosity-noclip-2" x="23.09" y="-8256" width="73.14" height="32766" color-interpolation-filters="sRGB" filterUnits="userSpaceOnUse">
      <feFlood flood-color="#fff" result="bg"/>
      <feBlend in="SourceGraphic" in2="bg"/>
    </filter>
    <mask id="mask-1" x="23.09" y="-8256" width="73.14" height="32766" maskUnits="userSpaceOnUse"/>
    <linearGradient id="_Áåçûìÿííûé_ãðàäèåíò_111" data-name="Áåçûìÿííûé ãðàäèåíò 111" x1="91.28" y1="100.45" x2="21.54" y2="30.72" gradientUnits="userSpaceOnUse">
      <stop offset="0" stop-color="#fff"/>
      <stop offset="1" stop-color="#000"/>
    </linearGradient>
    <mask id="mask" x="23.09" y="8.51" width="73.14" height="109.36" maskUnits="userSpaceOnUse">
      <g class="cls-23">
        <g class="cls-24">
          <path class="cls-10" d="m35.37,107.18c-7.75-5.03-9.75-15.52-9.26-24.74.49-9.22,2.73-18.58.63-27.57-.95-4.04-2.75-7.87-3.39-11.97-2.13-13.66,9.26-26.08,21.85-31.77,3.25-1.47,6.71-2.66,10.27-2.61,10.43.15,17.52,10.28,22.78,19.29,3.91,6.69,7.81,13.37,11.72,20.06,1.75,2.99,3.51,6.02,4.59,9.31,1.55,4.73,1.61,9.8,1.66,14.78.09,8.94.07,18.33-4.23,26.17-4.15,7.56-11.69,12.57-19.18,16.83-2.4,1.37-4.93,2.72-7.69,2.9-4.1.27-9.88-4.76-13.85-6.19-5.29-1.91-10.92-1.27-15.89-4.49Z"/>
        </g>
      </g>
    </mask>
    <linearGradient id="_Áåçûìÿííûé_ãðàäèåíò_14" data-name="Áåçûìÿííûé ãðàäèåíò 14" x1="91.28" y1="100.45" x2="21.54" y2="30.72" gradientUnits="userSpaceOnUse">
      <stop offset="0" stop-color="#000"/>
      <stop offset="1" stop-color="#00c9a7"/>
    </linearGradient>
    <filter id="luminosity-noclip-3" x="22.06" y="15.76" width="9.68" height="46.31" color-interpolation-filters="sRGB" filterUnits="userSpaceOnUse">
      <feFlood flood-color="#fff" result="bg"/>
      <feBlend in="SourceGraphic" in2="bg"/>
    </filter>
    <filter id="luminosity-noclip-4" x="22.06" y="-8256" width="9.68" height="32766" color-interpolation-filters="sRGB" filterUnits="userSpaceOnUse">
      <feFlood flood-color="#fff" result="bg"/>
      <feBlend in="SourceGraphic" in2="bg"/>
    </filter>
    <mask id="mask-3" x="22.06" y="-8256" width="9.68" height="32766" maskUnits="userSpaceOnUse"/>
    <radialGradient id="_Áåçûìÿííûé_ãðàäèåíò_108" data-name="Áåçûìÿííûé ãðàäèåíò 108" cx="26.9" cy="38.91" fx="26.9" fy="38.91" r="16.73" gradientUnits="userSpaceOnUse">
      <stop offset="0" stop-color="#fff"/>
      <stop offset="1" stop-color="#333"/>
    </radialGradient>
    <mask id="mask-2" x="22.06" y="15.76" width="9.68" height="46.31" maskUnits="userSpaceOnUse">
      <g class="cls-27">
        <g class="cls-17">
          <path class="cls-11" d="m31.74,15.76s-21.13,18.34-.93,46.31c0,0-9.01-23.93.93-46.31Z"/>
        </g>
      </g>
    </mask>
    <radialGradient id="_Áåçûìÿííûé_ãðàäèåíò_40" data-name="Áåçûìÿííûé ãðàäèåíò 40" cx="26.9" cy="38.91" fx="26.9" fy="38.91" r="16.73" gradientUnits="userSpaceOnUse">
      <stop offset="0" stop-color="#fff"/>
      <stop offset="1" stop-color="#fff"/>
    </radialGradient>
    <filter id="luminosity-noclip-5" x="47.59" y="4.08" width="26.11" height="13.23" color-interpolation-filters="sRGB" filterUnits="userSpaceOnUse">
      <feFlood flood-color="#fff" result="bg"/>
      <feBlend in="SourceGraphic" in2="bg"/>
    </filter>
    <filter id="luminosity-noclip-6" x="47.59" y="-8256" width="26.11" height="32766" color-interpolation-filters="sRGB" filterUnits="userSpaceOnUse">
      <feFlood flood-color="#fff" result="bg"/>
      <feBlend in="SourceGraphic" in2="bg"/>
    </filter>
    <mask id="mask-5" x="47.59" y="-8256" width="26.11" height="32766" maskUnits="userSpaceOnUse"/>
    <radialGradient id="_Áåçûìÿííûé_ãðàäèåíò_108-2" data-name="Áåçûìÿííûé ãðàäèåíò 108" cx="60.64" cy="10.7" fx="60.64" fy="10.7" r="10.35" xlink:href="#_Áåçûìÿííûé_ãðàäèåíò_108"/>
    <mask id="mask-4" x="47.59" y="4.08" width="26.11" height="13.23" maskUnits="userSpaceOnUse">
      <g class="cls-15">
        <g class="cls-18">
          <path class="cls-9" d="m47.59,5.5s13.36-7.46,26.11,11.81c0,0-13.05-13.36-26.11-11.81Z"/>
        </g>
      </g>
    </mask>
    <radialGradient id="_Áåçûìÿííûé_ãðàäèåíò_40-2" data-name="Áåçûìÿííûé ãðàäèåíò 40" cx="60.64" cy="10.7" fx="60.64" fy="10.7" r="10.35" xlink:href="#_Áåçûìÿííûé_ãðàäèåíò_40"/>
    <filter id="luminosity-noclip-7" x="71.83" y="68.9" width="27.72" height="52.21" color-interpolation-filters="sRGB" filterUnits="userSpaceOnUse">
      <feFlood flood-color="#fff" result="bg"/>
      <feBlend in="SourceGraphic" in2="bg"/>
    </filter>
    <filter id="luminosity-noclip-8" x="71.83" y="-8256" width="27.72" height="32766" color-interpolation-filters="sRGB" filterUnits="userSpaceOnUse">
      <feFlood flood-color="#fff" result="bg"/>
      <feBlend in="SourceGraphic" in2="bg"/>
    </filter>
    <mask id="mask-7" x="71.83" y="-8256" width="27.72" height="32766" maskUnits="userSpaceOnUse"/>
    <radialGradient id="_Áåçûìÿííûé_ãðàäèåíò_108-3" data-name="Áåçûìÿííûé ãðàäèåíò 108" cx="85.69" cy="95.01" fx="85.69" fy="95.01" r="20.9" xlink:href="#_Áåçûìÿííûé_ãðàäèåíò_108"/>
    <mask id="mask-6" x="71.83" y="68.9" width="27.72" height="52.21" maskUnits="userSpaceOnUse">
      <g class="cls-14">
        <g class="cls-26">
          <path class="cls-2" d="m98.87,68.9s7.46,37.92-27.04,52.21c0,0,25.17-16.78,27.04-52.21Z"/>
        </g>
      </g>
    </mask>
    <radialGradient id="_Áåçûìÿííûé_ãðàäèåíò_40-3" data-name="Áåçûìÿííûé ãðàäèåíò 40" cx="85.69" cy="95.01" fx="85.69" fy="95.01" r="20.9" xlink:href="#_Áåçûìÿííûé_ãðàäèåíò_40"/>
  </defs>
  <path class="cls-3" d="m39.93,116.2c-8.89-5.77-11.19-17.81-10.62-28.39.56-10.58,3.13-21.31.72-31.63-1.08-4.64-3.15-9.03-3.88-13.73-2.44-15.67,10.62-29.92,25.07-36.45,3.72-1.68,7.7-3.05,11.78-3,11.97.17,20.1,11.8,26.13,22.13,4.48,7.67,8.96,15.34,13.45,23.01,2.01,3.44,4.03,6.9,5.27,10.69,1.77,5.43,1.85,11.25,1.9,16.96.1,10.26.08,21.03-4.86,30.02-4.76,8.67-13.41,14.42-22.01,19.31-2.76,1.57-5.66,3.12-8.83,3.33-4.7.31-11.34-5.46-15.89-7.1-6.07-2.19-12.53-1.46-18.22-5.15Z"/>
  <path class="cls-4" d="m31.8,113.65c-8.89-5.77-11.19-17.81-10.62-28.39.56-10.58,3.13-21.31.72-31.63-1.08-4.64-3.15-9.03-3.88-13.73-2.44-15.67,10.62-29.92,25.07-36.45,3.72-1.68,7.7-3.05,11.78-3,11.97.17,20.1,11.8,26.13,22.13,4.48,7.67,8.96,15.34,13.45,23.01,2.01,3.44,4.03,6.9,5.27,10.69,1.77,5.43,1.85,11.25,1.9,16.96.1,10.26.08,21.03-4.86,30.02-4.76,8.67-13.41,14.42-22.01,19.31-2.76,1.57-5.66,3.12-8.83,3.33-4.7.31-11.34-5.46-15.89-7.1-6.07-2.19-12.53-1.46-18.22-5.15Z"/>
  <g class="cls-20">
    <g class="cls-25">
      <path class="cls-1" d="m35.37,107.18c-7.75-5.03-9.75-15.52-9.26-24.74.49-9.22,2.73-18.58.63-27.57-.95-4.04-2.75-7.87-3.39-11.97-2.13-13.66,9.26-26.08,21.85-31.77,3.25-1.47,6.71-2.66,10.27-2.61,10.43.15,17.52,10.28,22.78,19.29,3.91,6.69,7.81,13.37,11.72,20.06,1.75,2.99,3.51,6.02,4.59,9.31,1.55,4.73,1.61,9.8,1.66,14.78.09,8.94.07,18.33-4.23,26.17-4.15,7.56-11.69,12.57-19.18,16.83-2.4,1.37-4.93,2.72-7.69,2.9-4.1.27-9.88-4.76-13.85-6.19-5.29-1.91-10.92-1.27-15.89-4.49Z"/>
    </g>
  </g>
  <g class="cls-19">
    <path class="cls-5" d="m38.22,29.79s.47,4.49,1.08,11.2c.29,3.36.63,7.28.99,11.47.38,4.2.68,8.67,1.02,13.14.18,2.24.41,4.47.67,6.67.26,2.2.49,4.36.55,6.46.07,2.1,0,4.13-.15,6.05-.13,1.93-.31,3.75-.54,5.44-.22,1.69-.48,3.23-.75,4.61-.26,1.37-.56,2.57-.81,3.56-.25.99-.49,1.77-.67,2.3-.17.53-.28.82-.28.82l-.81.03s-.13-.28-.33-.8c-.21-.52-.49-1.28-.81-2.25-.31-.97-.69-2.15-1.02-3.51-.35-1.36-.7-2.89-1.01-4.57-.32-1.68-.6-3.49-.82-5.42-.24-1.92-.4-3.96-.43-6.06-.02-2.11.12-4.29.29-6.5.17-2.21.34-4.46.44-6.71.1-2.25.21-4.49.31-6.71.09-2.21.25-4.39.38-6.49.14-2.11.26-4.14.41-6.07.15-1.93.29-3.75.42-5.44.55-6.74,1.04-11.22,1.04-11.22h.81Z"/>
    <path class="cls-5" d="m38.07,29.84s2.19,1.21,5.38,3.14c1.59.97,3.45,2.1,5.4,3.35.98.62,2,1.25,3.01,1.94.24.16.54.36.72.47.17.1.25.08.09-.03-.08-.05-.23-.12-.43-.15-.08-.01-.04-.02-.21-.02h.06s-.07-.01-.1-.01c-.19,0-.2,0-.29.02-.27.04-.24.03-.07-.12.39-.34.99-.75,1.37-1.12.42-.37.85-.78,1.26-1.18.83-.81,1.63-1.6,2.48-2.26.85-.66,1.74-1.21,2.62-1.7.88-.5,1.73-.94,2.56-1.33.82-.4,1.62-.73,2.35-1.02.72-.3,1.41-.51,1.97-.7.57-.18,1.04-.31,1.38-.39.33-.08.52-.11.52-.11l.6.54s-.02.19-.07.53c-.06.34-.15.84-.33,1.43-.17.59-.4,1.31-.74,2.07-.34.76-.76,1.59-1.3,2.44-.54.85-1.17,1.72-1.92,2.57-.73.87-1.6,1.69-2.59,2.41-.99.72-2.14,1.29-3.32,1.83-1.18.52-2.38,1.05-3.58,1.58-.36.16-.88.44-1.74.62-.23.04-.4.07-.74.09h-.22s-.06,0-.06,0c-.25,0-.29-.02-.44-.03-.51-.06-.95-.22-1.32-.38-.72-.35-1.14-.73-1.44-1.01-.29-.28-.46-.47-.68-.7-.85-.87-1.64-1.77-2.43-2.63-1.57-1.71-3-3.35-4.23-4.74-2.45-2.81-4.02-4.76-4.02-4.76l.52-.62Z"/>
    <path class="cls-5" d="m38.94,101.29s.3-.45.82-1.23c.53-.8,1.34-1.88,2.35-3.16,1.03-1.27,2.27-2.72,3.71-4.18,1.41-1.5,3.06-2.95,4.75-4.36l.64-.54c.29-.22.57-.43.94-.67.37-.23.82-.47,1.4-.67.57-.2,1.3-.33,2.09-.29.2,0,.4.04.59.06-.01,0,.27.07.15.04h.01s.02,0,.02,0h.05s.15.03.27.07c.29.08.43.13.61.2.17.06.34.13.48.21.62.29,1.06.61,1.41.86.25.2.5.41.75.61.19.15.38.34.55.49.58.54,1.17,1.23,1.66,1.88.51.65.97,1.31,1.4,1.95.85,1.28,1.54,2.49,2.01,3.45.24.47.42.86.54,1.15.12.29.18.44.18.44l-.38.71s-.17.03-.48.09c-.32.06-.76.1-1.32.11-.55,0-1.23,0-1.97-.13-.74-.11-1.56-.29-2.41-.58-.85-.29-1.74-.67-2.62-1.18-.9-.51-1.73-1.1-2.56-1.93-.18-.19-.34-.37-.5-.56-.22-.26-.28-.37-.33-.45-.03-.08.01-.08.18-.05l.14.03.25.06c.07.02.16.03.09,0l-.04-.02h-.02s-.01-.02-.01-.02c-.12-.03.15.04.13.03.07,0,.15,0,.21,0,.59-.06.69-.32.47-.3-.1-.01-.27.04-.43.09l-.69.3c-1.85.85-3.65,1.83-5.38,2.71-1.7.92-3.31,1.8-4.66,2.61-1.36.79-2.49,1.5-3.28,1.98-.8.5-1.25.78-1.25.78l-.56-.58Z"/>
  </g>
  <g>
    <path class="cls-13" d="m41.8,29.79s.27,4.48.67,11.21c.19,3.36.42,7.28.66,11.48.22,4.2.46,8.68.7,13.15.12,2.24.28,4.48.46,6.68.18,2.2.33,4.37.4,6.47.05,2.1.03,4.13-.04,6.06-.05,1.93-.17,3.75-.29,5.43-.11,1.68-.27,3.23-.41,4.6-.16,1.37-.31,2.57-.46,3.55-.3,1.97-.56,3.1-.56,3.1l-.5.02s-.33-1.11-.75-3.06c-.22-.98-.44-2.16-.68-3.52-.22-1.36-.47-2.9-.67-4.58-.21-1.68-.42-3.5-.57-5.42-.17-1.93-.27-3.96-.32-6.06-.06-4.21.29-8.71.36-13.2.11-4.49.2-8.98.37-13.19.14-4.21.33-8.14.5-11.5.32-6.73.63-11.21.63-11.21h.5Z"/>
    <path class="cls-13" d="m41.7,29.96s2.07,1.35,5.11,3.45c1.53,1.04,3.31,2.26,5.19,3.6.94.67,1.92,1.35,2.9,2.07l.71.51c.19.13.34.19.35.17,0-.01-.03-.04-.1-.05-.03,0,0,0-.09-.01.05,0,.09,0,.01,0-.09,0-.07,0-.1,0-.05,0,.07-.07.27-.22.99-.69,1.92-1.41,2.81-2.16.89-.77,1.76-1.5,2.63-2.18,1.76-1.33,3.52-2.43,5.06-3.39,1.54-.96,2.9-1.72,3.89-2.24.5-.26.9-.46,1.18-.58.29-.13.44-.19.44-.19l.37.34s-.78,2.62-3.15,5.67c-1.18,1.51-2.71,3.19-4.64,4.61-.97.7-2.05,1.33-3.16,1.91-1.12.57-2.26,1.14-3.4,1.72-.32.16-.75.39-1.4.53-.17.03-.31.06-.55.07-.15,0-.18,0-.22,0-.17,0-.21-.01-.32-.02-.37-.04-.71-.16-.99-.28-.56-.26-.91-.57-1.19-.81l-.68-.65c-.88-.84-1.72-1.68-2.54-2.5-1.64-1.62-3.15-3.17-4.44-4.49-2.6-2.63-4.28-4.44-4.28-4.44l.32-.39Z"/>
    <path class="cls-13" d="m42.77,101.4s.33-.42.9-1.15c.58-.74,1.45-1.75,2.53-2.94,1.09-1.18,2.4-2.53,3.89-3.89,1.47-1.38,3.15-2.74,4.87-4.05l.65-.5c.26-.19.52-.37.85-.57.62-.36,1.53-.79,2.74-.72.15,0,.3.03.44.05l.1.02h.01s.02,0,.02,0h.05s.11.03.21.06c.37.11.57.19.82.31.47.22.82.49,1.11.71.28.22.53.45.68.58l.54.5c.63.6,1.26,1.26,1.82,1.89.58.63,1.12,1.23,1.63,1.81,1.01,1.15,1.86,2.17,2.46,2.94.6.76.93,1.26.93,1.26l-.24.45s-.15,0-.43-.01c-.28,0-.68-.05-1.18-.13-.5-.08-1.09-.21-1.76-.41-.67-.19-1.4-.46-2.17-.82-.77-.35-1.58-.79-2.39-1.33-.82-.53-1.61-1.14-2.39-1.92-.18-.19-.35-.36-.51-.55-.21-.23-.31-.37-.4-.48-.09-.11-.14-.17-.12-.2.03,0,0-.03.11,0,.03,0,.08.01.02,0l-.05-.02h-.02s-.01-.01-.01-.01c-.08-.02.09.02.08.02.02,0,.04,0,.06-.01.17-.06.04-.16-.27-.06-.15.03-.34.11-.53.2l-.68.35c-1.82.96-3.59,2.02-5.26,3.02-1.65,1.02-3.19,2.01-4.48,2.9-2.59,1.77-4.28,3.07-4.28,3.07l-.35-.36Z"/>
  </g>
  <g class="cls-16">
    <path class="cls-12" d="m31.74,15.76s-21.13,18.34-.93,46.31c0,0-9.01-23.93.93-46.31Z"/>
  </g>
  <g class="cls-21">
    <path class="cls-7" d="m47.59,5.5s13.36-7.46,26.11,11.81c0,0-13.05-13.36-26.11-11.81Z"/>
  </g>
  <g class="cls-22">
    <path class="cls-8" d="m98.87,68.9s7.46,37.92-27.04,52.21c0,0,25.17-16.78,27.04-52.21Z"/>
  </g>
  <ellipse class="cls-6" cx="34.85" cy="22.75" rx="9.79" ry="7.46" transform="translate(-2.28 41.55) rotate(-60)"/>
  <path class="cls-6" d="m27.39,37.82c0,2.23-1.38,4.04-3.08,4.04s-3.08-1.81-3.08-4.04,1.38-4.04,3.08-4.04,3.08,1.81,3.08,4.04Z"/>
</svg>