<?xml version="1.0" encoding="UTF-8"?>
<svg id="Layer_1" data-name="Layer 1" xmlns="http://www.w3.org/2000/svg" xmlns:xlink="http://www.w3.org/1999/xlink" viewBox="0 0 128 128">
  <defs>
    <style>
      .cls-1 {
        fill: url(#_Áåçûìÿííûé_ãðàäèåíò_14);
      }

      .cls-1, .cls-2, .cls-3, .cls-4, .cls-5, .cls-6, .cls-7, .cls-8, .cls-9, .cls-10, .cls-11, .cls-12, .cls-13 {
        stroke-width: 0px;
      }

      .cls-2 {
        fill: url(#_Áåçûìÿííûé_ãðàäèåíò_108-3);
      }

      .cls-2, .cls-9, .cls-10, .cls-11 {
        mix-blend-mode: multiply;
      }

      .cls-3 {
        fill: #020202;
      }

      .cls-14 {
        filter: url(#luminosity-noclip-7);
      }

      .cls-15 {
        filter: url(#luminosity-noclip-5);
      }

      .cls-16 {
        mask: url(#mask-2);
      }

      .cls-17 {
        mask: url(#mask-3);
      }

      .cls-18 {
        mask: url(#mask-5);
      }

      .cls-19 {
        opacity: .4;
      }

      .cls-4, .cls-6 {
        fill: #fff;
      }

      .cls-5 {
        fill: #ff6f91;
      }

      .cls-6 {
        opacity: .6;
      }

      .cls-20 {
        opacity: .57;
      }

      .cls-21 {
        mask: url(#mask-4);
      }

      .cls-7 {
        fill: url(#_Áåçûìÿííûé_ãðàäèåíò_40-2);
      }

      .cls-8 {
        fill: url(#_Áåçûìÿííûé_ãðàäèåíò_40-3);
      }

      .cls-9 {
        fill: url(#_Áåçûìÿííûé_ãðàäèåíò_108-2);
      }

      .cls-22 {
        mask: url(#mask-6);
      }

      .cls-10 {
        fill: url(#_Áåçûìÿííûé_ãðàäèåíò_111);
      }

      .cls-23 {
        filter: url(#luminosity-noclip);
      }

      .cls-24 {
        mask: url(#mask-1);
      }

      .cls-25 {
        mask: url(#mask);
      }

      .cls-26 {
        mask: url(#mask-7);
      }

      .cls-11 {
        fill: url(#_Áåçûìÿííûé_ãðàäèåíò_108);
      }

      .cls-12 {
        fill: url(#_Áåçûìÿííûé_ãðàäèåíò_40);
      }

      .cls-13 {
        fill: #171421;
      }

      .cls-27 {
        filter: url(#luminosity-noclip-3);
      }
    </style>
    <filter id="luminosity-noclip" x="22.85" y="5.87" width="75.4" height="113.08" color-interpolation-filters="sRGB" filterUnits="userSpaceOnUse">
      <feFlood flood-color="#fff" result="bg"/>
      <feBlend in="SourceGraphic" in2="bg"/>
    </filter>
    <filter id="luminosity-noclip-2" x="22.85" y="-8256" width="75.4" height="32766" color-interpolation-filters="sRGB" filterUnits="userSpaceOnUse">
      <feFlood flood-color="#fff" result="bg"/>
      <feBlend in="SourceGraphic" in2="bg"/>
    </filter>
    <mask id="mask-1" x="22.85" y="-8256" width="75.4" height="32766" maskUnits="userSpaceOnUse"/>
    <linearGradient id="_Áåçûìÿííûé_ãðàäèåíò_111" data-name="Áåçûìÿííûé ãðàäèåíò 111" x1="101.5" y1="92.97" x2="32.73" y2="24.2" gradientUnits="userSpaceOnUse">
      <stop offset="0" stop-color="#fff"/>
      <stop offset="1" stop-color="#000"/>
    </linearGradient>
    <mask id="mask" x="22.85" y="5.87" width="75.4" height="113.08" maskUnits="userSpaceOnUse">
      <g class="cls-23">
        <g class="cls-24">
          <path class="cls-10" d="m22.99,55.24c-.59-10.86.47-23.26,8.95-30.08,2.37-1.91,5.15-3.21,7.9-4.5,7.13-3.34,14.27-6.69,21.4-10.03,6.88-3.23,14.76-6.5,21.82-3.69,7.94,3.16,11.16,12.46,13.46,20.69,1.12,3.99,2.24,8.14,1.5,12.22-.62,3.43-2.5,6.48-4.07,9.6-4.7,9.36-6.68,19.81-8.6,30.11-1.46,7.8-2.47,34.98-9.31,38.64-6.23,3.33-19.9-5.13-25.3-8.58-19.15-12.21-26.55-32.54-27.74-54.36Z"/>
        </g>
      </g>
    </mask>
    <linearGradient id="_Áåçûìÿííûé_ãðàäèåíò_14" data-name="Áåçûìÿííûé ãðàäèåíò 14" x1="101.5" y1="92.97" x2="32.73" y2="24.2" gradientUnits="userSpaceOnUse">
      <stop offset="0" stop-color="#000"/>
      <stop offset="1" stop-color="#00c9a7"/>
    </linearGradient>
    <filter id="luminosity-noclip-3" x="21.19" y="17.07" width="21.6" height="42.79" color-interpolation-filters="sRGB" filterUnits="userSpaceOnUse">
      <feFlood flood-color="#fff" result="bg"/>
      <feBlend in="SourceGraphic" in2="bg"/>
    </filter>
    <filter id="luminosity-noclip-4" x="21.19" y="-8256" width="21.6" height="32766" color-interpolation-filters="sRGB" filterUnits="userSpaceOnUse">
      <feFlood flood-color="#fff" result="bg"/>
      <feBlend in="SourceGraphic" in2="bg"/>
    </filter>
    <mask id="mask-3" x="21.19" y="-8256" width="21.6" height="32766" maskUnits="userSpaceOnUse"/>
    <radialGradient id="_Áåçûìÿííûé_ãðàäèåíò_108" data-name="Áåçûìÿííûé ãðàäèåíò 108" cx="31.99" cy="38.46" fx="31.99" fy="38.46" r="16.95" gradientUnits="userSpaceOnUse">
      <stop offset="0" stop-color="#fff"/>
      <stop offset="1" stop-color="#333"/>
    </radialGradient>
    <mask id="mask-2" x="21.19" y="17.07" width="21.6" height="42.79" maskUnits="userSpaceOnUse">
      <g class="cls-27">
        <g class="cls-17">
          <path class="cls-11" d="m42.78,17.07s-25.29,4.5-21.14,42.79c0,0,1.73-31.53,21.14-42.79Z"/>
        </g>
      </g>
    </mask>
    <radialGradient id="_Áåçûìÿííûé_ãðàäèåíò_40" data-name="Áåçûìÿííûé ãðàäèåíò 40" cx="31.99" cy="38.46" fx="31.99" fy="38.46" r="16.95" gradientUnits="userSpaceOnUse">
      <stop offset="0" stop-color="#fff"/>
      <stop offset="1" stop-color="#fff"/>
    </radialGradient>
    <filter id="luminosity-noclip-5" x="55.43" y="112" width="26.51" height="10.34" color-interpolation-filters="sRGB" filterUnits="userSpaceOnUse">
      <feFlood flood-color="#fff" result="bg"/>
      <feBlend in="SourceGraphic" in2="bg"/>
    </filter>
    <filter id="luminosity-noclip-6" x="55.43" y="-8256" width="26.51" height="32766" color-interpolation-filters="sRGB" filterUnits="userSpaceOnUse">
      <feFlood flood-color="#fff" result="bg"/>
      <feBlend in="SourceGraphic" in2="bg"/>
    </filter>
    <mask id="mask-5" x="55.43" y="-8256" width="26.51" height="32766" maskUnits="userSpaceOnUse"/>
    <radialGradient id="_Áåçûìÿííûé_ãðàäèåíò_108-2" data-name="Áåçûìÿííûé ãðàäèåíò 108" cx="68.68" cy="117.18" fx="68.68" fy="117.18" r="10.06" xlink:href="#_Áåçûìÿííûé_ãðàäèåíò_108"/>
    <mask id="mask-4" x="55.43" y="112" width="26.51" height="10.34" maskUnits="userSpaceOnUse">
      <g class="cls-15">
        <g class="cls-18">
          <path class="cls-9" d="m55.43,115.82s22.87,16.98,26.51-3.81c0,0-5.02,14.38-26.51,3.81Z"/>
        </g>
      </g>
    </mask>
    <radialGradient id="_Áåçûìÿííûé_ãðàäèåíò_40-2" data-name="Áåçûìÿííûé ãðàäèåíò 40" cx="68.68" cy="117.18" fx="68.68" fy="117.18" r="10.06" xlink:href="#_Áåçûìÿííûé_ãðàäèåíò_40"/>
    <filter id="luminosity-noclip-7" x="66.69" y="2.06" width="27.55" height="10.68" color-interpolation-filters="sRGB" filterUnits="userSpaceOnUse">
      <feFlood flood-color="#fff" result="bg"/>
      <feBlend in="SourceGraphic" in2="bg"/>
    </filter>
    <filter id="luminosity-noclip-8" x="66.69" y="-8256" width="27.55" height="32766" color-interpolation-filters="sRGB" filterUnits="userSpaceOnUse">
      <feFlood flood-color="#fff" result="bg"/>
      <feBlend in="SourceGraphic" in2="bg"/>
    </filter>
    <mask id="mask-7" x="66.69" y="-8256" width="27.55" height="32766" maskUnits="userSpaceOnUse"/>
    <radialGradient id="_Áåçûìÿííûé_ãðàäèåíò_108-3" data-name="Áåçûìÿííûé ãðàäèåíò 108" cx="80.46" cy="7.4" fx="80.46" fy="7.4" r="10.44" xlink:href="#_Áåçûìÿííûé_ãðàäèåíò_108"/>
    <mask id="mask-6" x="66.69" y="2.06" width="27.55" height="10.68" maskUnits="userSpaceOnUse">
      <g class="cls-14">
        <g class="cls-26">
          <path class="cls-2" d="m66.69,4.25s19.4-8.66,27.55,8.49c0,0-8.66-12.99-27.55-8.49Z"/>
        </g>
      </g>
    </mask>
    <radialGradient id="_Áåçûìÿííûé_ãðàäèåíò_40-3" data-name="Áåçûìÿííûé ãðàäèåíò 40" cx="80.46" cy="7.4" fx="80.46" fy="7.4" r="10.44" xlink:href="#_Áåçûìÿííûé_ãðàäèåíò_40"/>
  </defs>
  <path class="cls-3" d="m26.23,58.19c-.65-11.95.52-25.57,9.84-33.07,2.6-2.09,5.66-3.53,8.68-4.95,7.84-3.68,15.69-7.36,23.53-11.03,7.56-3.55,16.23-7.15,23.99-4.06,8.73,3.48,12.27,13.7,14.8,22.75,1.23,4.38,2.46,8.95,1.65,13.43-.68,3.78-2.75,7.13-4.48,10.55-5.17,10.29-7.34,21.78-9.45,33.1-1.6,8.57-2.72,38.46-10.24,42.49-6.85,3.67-21.88-5.64-27.82-9.43-21.06-13.43-29.19-35.78-30.5-59.78Z"/>
  <path class="cls-5" d="m19.25,54.53c-.65-11.95.52-25.57,9.84-33.07,2.6-2.09,5.66-3.53,8.68-4.95,7.84-3.68,15.69-7.36,23.53-11.03,7.56-3.55,16.23-7.15,23.99-4.06,8.73,3.48,12.27,13.7,14.8,22.75,1.23,4.38,2.46,8.95,1.65,13.43-.68,3.78-2.75,7.13-4.48,10.55-5.17,10.29-7.34,21.78-9.45,33.1-1.6,8.57-2.72,38.46-10.24,42.49-6.85,3.67-21.88-5.64-27.82-9.43-21.06-13.43-29.19-35.78-30.5-59.78Z"/>
  <g class="cls-20">
    <g class="cls-25">
      <path class="cls-1" d="m22.99,55.24c-.59-10.86.47-23.26,8.95-30.08,2.37-1.91,5.15-3.21,7.9-4.5,7.13-3.34,14.27-6.69,21.4-10.03,6.88-3.23,14.76-6.5,21.82-3.69,7.94,3.16,11.16,12.46,13.46,20.69,1.12,3.99,2.24,8.14,1.5,12.22-.62,3.43-2.5,6.48-4.07,9.6-4.7,9.36-6.68,19.81-8.6,30.11-1.46,7.8-2.47,34.98-9.31,38.64-6.23,3.33-19.9-5.13-25.3-8.58-19.15-12.21-26.55-32.54-27.74-54.36Z"/>
    </g>
  </g>
  <g class="cls-19">
    <path class="cls-4" d="m70.71,13.92l-2.33,2.18-2.15,2.27-2.05,2.38-1.96,2.46-1.87,2.53-1.8,2.59c-1.17,1.75-2.32,3.52-3.45,5.3l-3.38,5.4c-1.13,1.81-2.29,3.61-3.48,5.4l-1.83,2.67-1.91,2.64-2.01,2.6-2.12,2.54-2.15-4.98,16.7-.66c2.78-.12,5.57-.22,8.35-.38l8.35-.48,8.36-.48-4.86,7.39c-.62.94-1.22,1.88-1.86,2.81-.63.93-1.24,1.87-1.88,2.79-1.27,1.85-2.53,3.7-3.86,5.51-1.31,1.82-2.65,3.62-4.01,5.41l-4.1,5.35c-2.76,3.56-5.56,7.09-8.44,10.59-1.45,1.75-2.9,3.5-4.41,5.21-.74.87-1.49,1.73-2.27,2.58-.76.86-1.54,1.71-2.35,2.54l-.77-.46c.72-2.2,1.52-4.37,2.41-6.49.86-2.14,1.79-4.23,2.76-6.31,1.94-4.15,4.06-8.2,6.32-12.18,1.13-1.98,2.3-3.95,3.49-5.89,1.2-1.94,2.43-3.86,3.72-5.74,1.28-1.89,2.64-3.72,4.01-5.54,1.39-1.81,2.81-3.59,4.27-5.35l3.5,6.91-8.35-.41c-2.78-.14-5.57-.22-8.35-.31l-16.7-.52-6.88-.22,4.73-4.76,2.16-2.17,2.09-2.28,2.03-2.36,1.98-2.43c2.61-3.28,5.18-6.65,7.8-10.02,1.32-1.68,2.65-3.36,4.02-5.01l2.09-2.45,2.17-2.39,2.25-2.31,2.37-2.2,2.49-2.08,2.57-1.89.58.69Z"/>
  </g>
  <path class="cls-13" d="m76.15,13.79l-2.37,2.13-2.22,2.23-2.11,2.35-2.01,2.43-1.92,2.51-1.85,2.56c-1.21,1.73-2.39,3.48-3.55,5.25l-3.48,5.33c-1.16,1.79-2.35,3.56-3.57,5.32l-1.86,2.62-1.94,2.59-2.03,2.53-2.13,2.46-1.32-3.04c11.13-.32,22.27-.6,33.4-1.04l5.32-.21-3.13,4.53-3.84,5.55c-1.28,1.85-2.58,3.69-3.89,5.51-.64.92-1.31,1.83-1.97,2.74-.66.91-1.3,1.83-1.98,2.73l-3.99,5.45-8.05,10.89c-1.37,1.8-2.71,3.63-4.1,5.42-1.36,1.81-2.77,3.6-4.2,5.38l-.48-.29c1.77-4.21,3.79-8.3,5.89-12.34,1.08-2,2.16-4.01,3.27-5.99,1.14-1.97,2.28-3.94,3.44-5.89,2.38-3.88,4.79-7.73,7.39-11.47l1.96-2.79,2.02-2.75c1.37-1.82,2.76-3.62,4.17-5.4l2.19,4.32c-11.14-.35-22.27-.53-33.41-.76l-4.14-.09,2.83-2.96,2.15-2.25,2.07-2.34,2-2.42,1.95-2.48c2.56-3.34,5.07-6.76,7.62-10.17,1.28-1.7,2.58-3.39,3.91-5.07l2.04-2.48,2.11-2.42,2.2-2.34,2.31-2.23,2.43-2.11,2.52-1.95.36.43Z"/>
  <g class="cls-16">
    <path class="cls-12" d="m42.78,17.07s-25.29,4.5-21.14,42.79c0,0,1.73-31.53,21.14-42.79Z"/>
  </g>
  <g class="cls-21">
    <path class="cls-7" d="m55.43,115.82s22.87,16.98,26.51-3.81c0,0-5.02,14.38-26.51,3.81Z"/>
  </g>
  <g class="cls-22">
    <path class="cls-8" d="m66.69,4.25s19.4-8.66,27.55,8.49c0,0-8.66-12.99-27.55-8.49Z"/>
  </g>
  <path class="cls-6" d="m29.14,39.01c-.05.28-.09.59.08.82.15.2.43.26.68.3,2.02.34,4.14.42,6.09-.22,4.15-1.36,6.66-5.56,8.15-9.67.65-1.8,1.13-3.95,0-5.49-.76-1.03-2.06-1.49-3.28-1.9-3.48-1.16-5.84,3.07-7.5,5.63-2.07,3.19-3.52,6.78-4.22,10.52Z"/>
  <path class="cls-6" d="m31.5,43.08c-.1-.16-.27-.26-.43-.34-.75-.39-1.57-.64-2.41-.73-.22-.03-.46-.04-.66.08-.23.14-.32.42-.4.68-.24.8-.49,1.62-.43,2.45.05.83.46,1.69,1.21,2.05l.67.23c.84.09,1.63-.51,2.01-1.26s.46-1.61.53-2.45c.02-.24.03-.49-.09-.7Z"/>
</svg>