<?xml version="1.0" encoding="UTF-8"?>
<svg id="Layer_1" data-name="Layer 1" xmlns="http://www.w3.org/2000/svg" xmlns:xlink="http://www.w3.org/1999/xlink" viewBox="0 0 128 128">
  <defs>
    <style>
      .cls-1 {
        fill: url(#_Áåçûìÿííûé_ãðàäèåíò_14);
      }

      .cls-1, .cls-2, .cls-3, .cls-4, .cls-5, .cls-6, .cls-7, .cls-8, .cls-9 {
        stroke-width: 0px;
      }

      .cls-2 {
        fill: #fff;
        opacity: .4;
      }

      .cls-3 {
        fill: #020202;
      }

      .cls-4 {
        fill: #845ec2;
      }

      .cls-10 {
        filter: url(#luminosity-noclip-5);
      }

      .cls-11 {
        mask: url(#mask-2);
      }

      .cls-5 {
        fill: url(#_Áåçûìÿííûé_ãðàäèåíò_111-2);
      }

      .cls-5, .cls-7, .cls-8 {
        mix-blend-mode: multiply;
      }

      .cls-12 {
        mask: url(#mask-3);
      }

      .cls-13 {
        mask: url(#mask-5);
      }

      .cls-14 {
        opacity: .57;
      }

      .cls-15 {
        mask: url(#mask-4);
      }

      .cls-6 {
        fill: url(#_Áåçûìÿííûé_ãðàäèåíò_14-2);
      }

      .cls-7 {
        fill: url(#_Áåçûìÿííûé_ãðàäèåíò_111);
      }

      .cls-16 {
        filter: url(#luminosity-noclip);
      }

      .cls-17 {
        mask: url(#mask-1);
      }

      .cls-18 {
        mask: url(#mask);
      }

      .cls-8 {
        fill: url(#_Áåçûìÿííûé_ãðàäèåíò_108);
      }

      .cls-9 {
        fill: url(#_Áåçûìÿííûé_ãðàäèåíò_40);
      }

      .cls-19 {
        filter: url(#luminosity-noclip-3);
      }
    </style>
    <filter id="luminosity-noclip" x="18.29" y="1.67" width="78.54" height="118.12" color-interpolation-filters="sRGB" filterUnits="userSpaceOnUse">
      <feFlood flood-color="#fff" result="bg"/>
      <feBlend in="SourceGraphic" in2="bg"/>
    </filter>
    <filter id="luminosity-noclip-2" x="18.29" y="-8256" width="78.54" height="32766" color-interpolation-filters="sRGB" filterUnits="userSpaceOnUse">
      <feFlood flood-color="#fff" result="bg"/>
      <feBlend in="SourceGraphic" in2="bg"/>
    </filter>
    <mask id="mask-1" x="18.29" y="-8256" width="78.54" height="32766" maskUnits="userSpaceOnUse"/>
    <linearGradient id="_Áåçûìÿííûé_ãðàäèåíò_111" data-name="Áåçûìÿííûé ãðàäèåíò 111" x1="18.29" y1="60.73" x2="96.82" y2="60.73" gradientUnits="userSpaceOnUse">
      <stop offset="0" stop-color="#fff"/>
      <stop offset="1" stop-color="#000"/>
    </linearGradient>
    <mask id="mask" x="18.29" y="1.67" width="78.54" height="118.12" maskUnits="userSpaceOnUse">
      <g class="cls-16">
        <g class="cls-17">
          <path class="cls-7" d="m18.29,71.74c0-14.83.09-30.08,5.99-43.82C30.18,14.18,43.38,2.15,59.09,1.68c3.81-.11,7.7.47,11.11,2.09,4.24,2.01,7.49,5.49,10.3,9.1,16,20.57,20.66,48.56,12.11,72.77-6.21,17.59-26.67,42.1-45.94,31.64-18.75-10.17-28.38-25.12-28.38-45.54Z"/>
        </g>
      </g>
    </mask>
    <linearGradient id="_Áåçûìÿííûé_ãðàäèåíò_14" data-name="Áåçûìÿííûé ãðàäèåíò 14" x1="18.29" y1="60.73" x2="96.82" y2="60.73" gradientUnits="userSpaceOnUse">
      <stop offset="0" stop-color="#000"/>
      <stop offset="1" stop-color="#00c9a7"/>
    </linearGradient>
    <filter id="luminosity-noclip-3" x="22.02" y="7.29" width="71.06" height="106.88" color-interpolation-filters="sRGB" filterUnits="userSpaceOnUse">
      <feFlood flood-color="#fff" result="bg"/>
      <feBlend in="SourceGraphic" in2="bg"/>
    </filter>
    <filter id="luminosity-noclip-4" x="22.02" y="-8256" width="71.06" height="32766" color-interpolation-filters="sRGB" filterUnits="userSpaceOnUse">
      <feFlood flood-color="#fff" result="bg"/>
      <feBlend in="SourceGraphic" in2="bg"/>
    </filter>
    <mask id="mask-3" x="22.02" y="-8256" width="71.06" height="32766" maskUnits="userSpaceOnUse"/>
    <linearGradient id="_Áåçûìÿííûé_ãðàäèåíò_111-2" data-name="Áåçûìÿííûé ãðàäèåíò 111" x1="88.53" y1="91.71" x2="25.5" y2="28.68" xlink:href="#_Áåçûìÿííûé_ãðàäèåíò_111"/>
    <mask id="mask-2" x="22.02" y="7.29" width="71.06" height="106.88" maskUnits="userSpaceOnUse">
      <g class="cls-19">
        <g class="cls-12">
          <path class="cls-5" d="m22.02,70.69c0-13.41.08-27.22,5.42-39.65,5.34-12.43,17.29-23.32,31.5-23.74,3.45-.1,6.97.43,10.05,1.89,3.84,1.82,6.77,4.97,9.32,8.23,14.48,18.61,18.7,43.94,10.96,65.84-5.62,15.92-24.14,38.09-41.57,28.63-16.97-9.21-25.68-22.73-25.68-41.21Z"/>
        </g>
      </g>
    </mask>
    <linearGradient id="_Áåçûìÿííûé_ãðàäèåíò_14-2" data-name="Áåçûìÿííûé ãðàäèåíò 14" x1="88.53" y1="91.71" x2="25.5" y2="28.68" xlink:href="#_Áåçûìÿííûé_ãðàäèåíò_14"/>
    <filter id="luminosity-noclip-5" x="40.7" y="99.59" width="42.58" height="16.94" color-interpolation-filters="sRGB" filterUnits="userSpaceOnUse">
      <feFlood flood-color="#fff" result="bg"/>
      <feBlend in="SourceGraphic" in2="bg"/>
    </filter>
    <filter id="luminosity-noclip-6" x="40.7" y="-8256" width="42.58" height="32766" color-interpolation-filters="sRGB" filterUnits="userSpaceOnUse">
      <feFlood flood-color="#fff" result="bg"/>
      <feBlend in="SourceGraphic" in2="bg"/>
    </filter>
    <mask id="mask-5" x="40.7" y="-8256" width="42.58" height="32766" maskUnits="userSpaceOnUse"/>
    <radialGradient id="_Áåçûìÿííûé_ãðàäèåíò_108" data-name="Áåçûìÿííûé ãðàäèåíò 108" cx="61.99" cy="108.06" fx="61.99" fy="108.06" r="16.2" gradientUnits="userSpaceOnUse">
      <stop offset="0" stop-color="#fff"/>
      <stop offset="1" stop-color="#333"/>
    </radialGradient>
    <mask id="mask-4" x="40.7" y="99.59" width="42.58" height="16.94" maskUnits="userSpaceOnUse">
      <g class="cls-10">
        <g class="cls-13">
          <path class="cls-8" d="m40.7,112.17s20.56,15.73,42.58-12.59c0,0-20.98,21.81-42.58,12.59Z"/>
        </g>
      </g>
    </mask>
    <radialGradient id="_Áåçûìÿííûé_ãðàäèåíò_40" data-name="Áåçûìÿííûé ãðàäèåíò 40" cx="61.99" cy="108.06" fx="61.99" fy="108.06" r="16.2" gradientUnits="userSpaceOnUse">
      <stop offset="0" stop-color="#fff"/>
      <stop offset="1" stop-color="#fff"/>
    </radialGradient>
  </defs>
  <path class="cls-3" d="m25.1,77.72c0-14.83.09-30.08,5.99-43.82,5.9-13.74,19.1-25.77,34.82-26.24,3.81-.11,7.7.47,11.11,2.09,4.24,2.01,7.49,5.49,10.3,9.1,16,20.57,20.66,48.56,12.11,72.77-6.21,17.59-26.67,42.1-45.94,31.64-18.75-10.17-28.38-25.12-28.38-45.54Z"/>
  <path class="cls-4" d="m18.29,71.74c0-14.83.09-30.08,5.99-43.82C30.18,14.18,43.38,2.15,59.09,1.68c3.81-.11,7.7.47,11.11,2.09,4.24,2.01,7.49,5.49,10.3,9.1,16,20.57,20.66,48.56,12.11,72.77-6.21,17.59-26.67,42.1-45.94,31.64-18.75-10.17-28.38-25.12-28.38-45.54Z"/>
  <g class="cls-14">
    <g class="cls-18">
      <path class="cls-1" d="m18.29,71.74c0-14.83.09-30.08,5.99-43.82C30.18,14.18,43.38,2.15,59.09,1.68c3.81-.11,7.7.47,11.11,2.09,4.24,2.01,7.49,5.49,10.3,9.1,16,20.57,20.66,48.56,12.11,72.77-6.21,17.59-26.67,42.1-45.94,31.64-18.75-10.17-28.38-25.12-28.38-45.54Z"/>
    </g>
  </g>
  <g class="cls-14">
    <g class="cls-11">
      <path class="cls-6" d="m22.02,70.69c0-13.41.08-27.22,5.42-39.65,5.34-12.43,17.29-23.32,31.5-23.74,3.45-.1,6.97.43,10.05,1.89,3.84,1.82,6.77,4.97,9.32,8.23,14.48,18.61,18.7,43.94,10.96,65.84-5.62,15.92-24.14,38.09-41.57,28.63-16.97-9.21-25.68-22.73-25.68-41.21Z"/>
    </g>
  </g>
  <path class="cls-2" d="m30.13,22.58c1.45-2.66,2.96-5.39,5.36-7.28,2.4-1.89,5.95-2.76,8.82-1.3.7.35,1.34.84,1.79,1.46.56.78.81,1.72.96,2.64.86,5.26-1.04,10.74-4.95,14.24-2.84,2.55-8.91,4.94-11.34,1.18-2.37-3.66-2.63-7.29-.64-10.95Z"/>
  <path class="cls-2" d="m23.8,38.76c.53-.97,1.09-1.97,2.05-2.62.96-.65,2.45-.86,3.71-.21.31.16.6.37.81.62.27.32.4.69.49,1.05.54,2.05-.09,4.09-1.64,5.31-1.13.89-3.63,1.61-4.79.08-1.13-1.48-1.36-2.88-.63-4.23Z"/>
  <g class="cls-15">
    <path class="cls-9" d="m40.7,112.17s20.56,15.73,42.58-12.59c0,0-20.98,21.81-42.58,12.59Z"/>
  </g>
</svg>