<?xml version="1.0" encoding="UTF-8"?>
<svg id="Layer_1" data-name="Layer 1" xmlns="http://www.w3.org/2000/svg" xmlns:xlink="http://www.w3.org/1999/xlink" viewBox="0 0 128 128">
  <defs>
    <style>
      .cls-1 {
        fill: url(#_Áåçûìÿííûé_ãðàäèåíò_14);
      }

      .cls-1, .cls-2, .cls-3, .cls-4, .cls-5, .cls-6, .cls-7, .cls-8, .cls-9, .cls-10, .cls-11, .cls-12, .cls-13, .cls-14, .cls-15 {
        stroke-width: 0px;
      }

      .cls-2 {
        fill: url(#_Áåçûìÿííûé_ãðàäèåíò_108-3);
      }

      .cls-2, .cls-9, .cls-10, .cls-12, .cls-13 {
        mix-blend-mode: multiply;
      }

      .cls-3 {
        fill: #020202;
      }

      .cls-16 {
        filter: url(#luminosity-noclip-7);
      }

      .cls-4 {
        fill: #845ec2;
      }

      .cls-17 {
        filter: url(#luminosity-noclip-5);
      }

      .cls-18 {
        mask: url(#mask-2);
      }

      .cls-19 {
        mask: url(#mask-3);
      }

      .cls-20 {
        mask: url(#mask-9);
      }

      .cls-21 {
        mask: url(#mask-5);
      }

      .cls-22 {
        opacity: .4;
      }

      .cls-5, .cls-6 {
        fill: #fff;
      }

      .cls-23 {
        filter: url(#luminosity-noclip-9);
      }

      .cls-6 {
        opacity: .6;
      }

      .cls-24 {
        opacity: .57;
      }

      .cls-25 {
        mask: url(#mask-8);
      }

      .cls-26 {
        mask: url(#mask-4);
      }

      .cls-7 {
        fill: url(#_Áåçûìÿííûé_ãðàäèåíò_40-2);
      }

      .cls-8 {
        fill: url(#_Áåçûìÿííûé_ãðàäèåíò_40-3);
      }

      .cls-9 {
        fill: url(#_Áåçûìÿííûé_ãðàäèåíò_108-2);
      }

      .cls-27 {
        mask: url(#mask-6);
      }

      .cls-10 {
        fill: url(#_Áåçûìÿííûé_ãðàäèåíò_111);
      }

      .cls-28 {
        filter: url(#luminosity-noclip);
      }

      .cls-29 {
        mask: url(#mask-1);
      }

      .cls-30 {
        mask: url(#mask);
      }

      .cls-31 {
        mask: url(#mask-7);
      }

      .cls-11 {
        fill: url(#_Áåçûìÿííûé_ãðàäèåíò_40-4);
      }

      .cls-12 {
        fill: url(#_Áåçûìÿííûé_ãðàäèåíò_108);
      }

      .cls-13 {
        fill: url(#_Áåçûìÿííûé_ãðàäèåíò_108-4);
      }

      .cls-14 {
        fill: url(#_Áåçûìÿííûé_ãðàäèåíò_40);
      }

      .cls-15 {
        fill: #171421;
      }

      .cls-32 {
        filter: url(#luminosity-noclip-3);
      }
    </style>
    <filter id="luminosity-noclip" x="25.19" y="7.94" width="78.29" height="109.92" color-interpolation-filters="sRGB" filterUnits="userSpaceOnUse">
      <feFlood flood-color="#fff" result="bg"/>
      <feBlend in="SourceGraphic" in2="bg"/>
    </filter>
    <filter id="luminosity-noclip-2" x="25.19" y="-8256" width="78.29" height="32766" color-interpolation-filters="sRGB" filterUnits="userSpaceOnUse">
      <feFlood flood-color="#fff" result="bg"/>
      <feBlend in="SourceGraphic" in2="bg"/>
    </filter>
    <mask id="mask-1" x="25.19" y="-8256" width="78.29" height="32766" maskUnits="userSpaceOnUse"/>
    <linearGradient id="_Áåçûìÿííûé_ãðàäèåíò_111" data-name="Áåçûìÿííûé ãðàäèåíò 111" x1="95.66" y1="93.95" x2="32.37" y2="30.67" gradientUnits="userSpaceOnUse">
      <stop offset="0" stop-color="#fff"/>
      <stop offset="1" stop-color="#000"/>
    </linearGradient>
    <mask id="mask" x="25.19" y="7.94" width="78.29" height="109.92" maskUnits="userSpaceOnUse">
      <g class="cls-28">
        <g class="cls-29">
          <path class="cls-10" d="m31.12,91.04c-10.01-19.35-6.69-43.84,4.99-62.23,8.02-12.64,22.28-23.61,36.87-20.26,13.84,3.18,21.86,17.67,25.75,31.34,3.68,12.93,5.24,26.47,4.61,39.9-.13,2.69-.37,5.48-1.74,7.79-1.22,2.05-3.19,3.52-5.13,4.92-8.94,6.45-28.66,25.09-39.9,25.36-10.29.25-21.26-18.74-25.44-26.81Z"/>
        </g>
      </g>
    </mask>
    <linearGradient id="_Áåçûìÿííûé_ãðàäèåíò_14" data-name="Áåçûìÿííûé ãðàäèåíò 14" x1="95.66" y1="93.95" x2="32.37" y2="30.67" gradientUnits="userSpaceOnUse">
      <stop offset="0" stop-color="#000"/>
      <stop offset="1" stop-color="#00c9a7"/>
    </linearGradient>
    <filter id="luminosity-noclip-3" x="23.89" y="4.65" width="43.41" height="48.58" color-interpolation-filters="sRGB" filterUnits="userSpaceOnUse">
      <feFlood flood-color="#fff" result="bg"/>
      <feBlend in="SourceGraphic" in2="bg"/>
    </filter>
    <filter id="luminosity-noclip-4" x="23.89" y="-8256" width="43.41" height="32766" color-interpolation-filters="sRGB" filterUnits="userSpaceOnUse">
      <feFlood flood-color="#fff" result="bg"/>
      <feBlend in="SourceGraphic" in2="bg"/>
    </filter>
    <mask id="mask-3" x="23.89" y="-8256" width="43.41" height="32766" maskUnits="userSpaceOnUse"/>
    <radialGradient id="_Áåçûìÿííûé_ãðàäèåíò_108" data-name="Áåçûìÿííûé ãðàäèåíò 108" cx="45.59" cy="28.94" fx="45.59" fy="28.94" r="23.03" gradientUnits="userSpaceOnUse">
      <stop offset="0" stop-color="#fff"/>
      <stop offset="1" stop-color="#333"/>
    </radialGradient>
    <mask id="mask-2" x="23.89" y="4.65" width="43.41" height="48.58" maskUnits="userSpaceOnUse">
      <g class="cls-32">
        <g class="cls-19">
          <path class="cls-12" d="m67.3,4.65s-28.6.34-43.41,48.58c0,0,12.4-34.8,43.41-48.58Z"/>
        </g>
      </g>
    </mask>
    <radialGradient id="_Áåçûìÿííûé_ãðàäèåíò_40" data-name="Áåçûìÿííûé ãðàäèåíò 40" cx="45.59" cy="28.94" fx="45.59" fy="28.94" r="23.03" gradientUnits="userSpaceOnUse">
      <stop offset="0" stop-color="#fff"/>
      <stop offset="1" stop-color="#fff"/>
    </radialGradient>
    <filter id="luminosity-noclip-5" x="91.07" y="74.59" width="14.97" height="26.53" color-interpolation-filters="sRGB" filterUnits="userSpaceOnUse">
      <feFlood flood-color="#fff" result="bg"/>
      <feBlend in="SourceGraphic" in2="bg"/>
    </filter>
    <filter id="luminosity-noclip-6" x="91.07" y="-8256" width="14.97" height="32766" color-interpolation-filters="sRGB" filterUnits="userSpaceOnUse">
      <feFlood flood-color="#fff" result="bg"/>
      <feBlend in="SourceGraphic" in2="bg"/>
    </filter>
    <mask id="mask-5" x="91.07" y="-8256" width="14.97" height="32766" maskUnits="userSpaceOnUse"/>
    <radialGradient id="_Áåçûìÿííûé_ãðàäèåíò_108-2" data-name="Áåçûìÿííûé ãðàäèåíò 108" cx="98.56" cy="87.85" fx="98.56" fy="87.85" r="10.77" xlink:href="#_Áåçûìÿííûé_ãðàäèåíò_108"/>
    <mask id="mask-4" x="91.07" y="74.59" width="14.97" height="26.53" maskUnits="userSpaceOnUse">
      <g class="cls-17">
        <g class="cls-21">
          <path class="cls-9" d="m105.89,74.59s2.76,14.82-14.82,26.53c0,0,13.09-17.57,14.82-26.53Z"/>
        </g>
      </g>
    </mask>
    <radialGradient id="_Áåçûìÿííûé_ãðàäèåíò_40-2" data-name="Áåçûìÿííûé ãðàäèåíò 40" cx="98.56" cy="87.85" fx="98.56" fy="87.85" r="10.77" xlink:href="#_Áåçûìÿííûé_ãðàäèåíò_40"/>
    <filter id="luminosity-noclip-7" x="37.67" y="107.32" width="38.24" height="14.09" color-interpolation-filters="sRGB" filterUnits="userSpaceOnUse">
      <feFlood flood-color="#fff" result="bg"/>
      <feBlend in="SourceGraphic" in2="bg"/>
    </filter>
    <filter id="luminosity-noclip-8" x="37.67" y="-8256" width="38.24" height="32766" color-interpolation-filters="sRGB" filterUnits="userSpaceOnUse">
      <feFlood flood-color="#fff" result="bg"/>
      <feBlend in="SourceGraphic" in2="bg"/>
    </filter>
    <mask id="mask-7" x="37.67" y="-8256" width="38.24" height="32766" maskUnits="userSpaceOnUse"/>
    <radialGradient id="_Áåçûìÿííûé_ãðàäèåíò_108-3" data-name="Áåçûìÿííûé ãðàäèåíò 108" cx="56.79" cy="114.37" fx="56.79" fy="114.37" r="14.41" xlink:href="#_Áåçûìÿííûé_ãðàäèåíò_108"/>
    <mask id="mask-6" x="37.67" y="107.32" width="38.24" height="14.09" maskUnits="userSpaceOnUse">
      <g class="cls-16">
        <g class="cls-31">
          <path class="cls-2" d="m37.67,107.32s12.75,27.91,38.24,5.17c0,0-21.02,13.09-38.24-5.17Z"/>
        </g>
      </g>
    </mask>
    <radialGradient id="_Áåçûìÿííûé_ãðàäèåíò_40-3" data-name="Áåçûìÿííûé ãðàäèåíò 40" cx="56.79" cy="114.37" fx="56.79" fy="114.37" r="14.41" xlink:href="#_Áåçûìÿííûé_ãðàäèåíò_40"/>
    <filter id="luminosity-noclip-9" x="70.23" y="4.47" width="33.94" height="46.34" color-interpolation-filters="sRGB" filterUnits="userSpaceOnUse">
      <feFlood flood-color="#fff" result="bg"/>
      <feBlend in="SourceGraphic" in2="bg"/>
    </filter>
    <filter id="luminosity-noclip-10" x="70.23" y="-8256" width="33.94" height="32766" color-interpolation-filters="sRGB" filterUnits="userSpaceOnUse">
      <feFlood flood-color="#fff" result="bg"/>
      <feBlend in="SourceGraphic" in2="bg"/>
    </filter>
    <mask id="mask-9" x="70.23" y="-8256" width="33.94" height="32766" maskUnits="userSpaceOnUse"/>
    <radialGradient id="_Áåçûìÿííûé_ãðàäèåíò_108-4" data-name="Áåçûìÿííûé ãðàäèåíò 108" cx="87.2" cy="27.64" fx="87.2" fy="27.64" r="20.31" xlink:href="#_Áåçûìÿííûé_ãðàäèåíò_108"/>
    <mask id="mask-8" x="70.23" y="4.47" width="33.94" height="46.34" maskUnits="userSpaceOnUse">
      <g class="cls-23">
        <g class="cls-20">
          <path class="cls-13" d="m70.23,4.47s25.67-1.21,33.94,46.34c0,0-12.4-43.41-33.94-46.34Z"/>
        </g>
      </g>
    </mask>
    <radialGradient id="_Áåçûìÿííûé_ãðàäèåíò_40-4" data-name="Áåçûìÿííûé ãðàäèåíò 40" cx="87.2" cy="27.64" fx="87.2" fy="27.64" r="20.31" xlink:href="#_Áåçûìÿííûé_ãðàäèåíò_40"/>
  </defs>
  <path class="cls-3" d="m35.36,98.21c-11.35-21.93-7.59-49.69,5.65-70.53C50.1,13.36,66.27.92,82.8,4.71c15.69,3.6,24.78,20.03,29.18,35.52,4.17,14.66,5.94,30,5.22,45.23-.14,3.04-.42,6.21-1.98,8.83-1.38,2.33-3.62,3.99-5.81,5.57-10.13,7.31-32.49,28.44-45.22,28.74-11.66.28-24.1-21.24-28.83-30.39Z"/>
  <path class="cls-4" d="m26.69,94.8c-11.35-21.93-7.59-49.69,5.65-70.53C41.43,9.94,57.6-2.5,74.13,1.3c15.69,3.6,24.78,20.03,29.18,35.52,4.17,14.66,5.94,30,5.22,45.23-.14,3.04-.42,6.21-1.98,8.83-1.38,2.33-3.62,3.99-5.81,5.57-10.13,7.31-32.49,28.44-45.22,28.74-11.66.28-24.1-21.24-28.83-30.39Z"/>
  <g class="cls-24">
    <g class="cls-30">
      <path class="cls-1" d="m31.12,91.04c-10.01-19.35-6.69-43.84,4.99-62.23,8.02-12.64,22.28-23.61,36.87-20.26,13.84,3.18,21.86,17.67,25.75,31.34,3.68,12.93,5.24,26.47,4.61,39.9-.13,2.69-.37,5.48-1.74,7.79-1.22,2.05-3.19,3.52-5.13,4.92-8.94,6.45-28.66,25.09-39.9,25.36-10.29.25-21.26-18.74-25.44-26.81Z"/>
    </g>
  </g>
  <g class="cls-22">
    <path class="cls-5" d="m45.76,22.5s.21,1.29.57,3.56c.37,2.26.84,5.51,1.38,9.41.26,1.95.54,4.06.83,6.3.3,2.23.55,4.6.85,7.04.27,2.44.58,4.97.81,7.53.24,2.57.49,5.18.73,7.79.23,2.61.54,5.22.84,7.79.31,2.57.57,5.1.65,7.56.06,2.46,0,4.83-.19,7.09-.16,2.25-.39,4.38-.67,6.35-.27,1.97-.6,3.77-.93,5.36-.32,1.6-.69,2.99-1,4.13-.31,1.14-.6,2.04-.81,2.65-.21.61-.34.94-.34.94h-.9s-.13-.33-.34-.94c-.21-.61-.5-1.51-.82-2.65-.31-1.14-.7-2.52-1.04-4.11-.35-1.59-.7-3.37-1.01-5.32-.32-1.95-.6-4.06-.83-6.29-.24-2.23-.42-4.59-.44-7.02-.03-2.44.12-4.96.29-7.53.17-2.57.31-5.17.39-7.78.12-5.22.24-10.43.36-15.32.12-4.9.24-9.47.34-13.39.23-7.85.39-13.09.39-13.09l.89-.06Z"/>
    <path class="cls-5" d="m46.2,22.66c2.71,1.94,5.66,3.55,8.55,5.29l8.66,5.2,8.65,5.18c2.87,1.69,5.76,3.23,8.71,4.46l2.23.93-1.17,2.3c-.51,1-1.25,1.88-2.03,2.56-.79.69-1.61,1.2-2.4,1.64-1.58.87-3.07,1.48-4.25,2.16l-.22.13-.05.03h-.01c-.05.04.06-.03.05-.02h0s-.03.02-.03.02l-.13.08c-.16.1-.37.22-.48.31-.23.16-.49.35-.76.56-.53.42-1.05.89-1.57,1.39-1.04,1-2.06,2.15-3.17,3.33l-.85.9-.88.89c-.56.56-1.21,1.19-1.81,1.74-1.23,1.14-2.52,2.24-3.89,3.28-2.72,2.08-5.73,3.88-8.93,5.29l1.18-6.06c.82.7,1.75,1.27,2.87,1.73,1.12.46,2.4.85,3.82,1.24l2.21.62.58.17.61.2c.37.12.7.22,1.1.36.82.29,1.64.59,2.39.91.77.3,1.52.67,2.27,1.02.74.37,1.49.74,2.21,1.14.73.4,1.43.85,2.14,1.28,1.4.89,2.75,1.87,4.05,2.92,2.57,2.11,4.88,4.54,6.88,7.2l4.04,5.37-6.02,1.62c-1.06.28-2.16.8-3.32,1.44-1.16.64-2.35,1.45-3.62,2.3-2.56,1.76-5.19,3.51-7.91,5.18-2.73,1.65-5.55,3.21-8.51,4.51-1.49.63-2.97,1.25-4.51,1.74-1.52.52-3.08.92-4.65,1.24l-.35-.83c.64-.47,1.3-.88,1.92-1.36.63-.45,1.26-.9,1.88-1.37,1.23-.93,2.45-1.86,3.61-2.85,2.35-1.95,4.62-3.97,6.86-6.06l6.8-6.31c1.17-1.08,2.45-2.17,3.89-3.23,1.44-1.05,3.1-2.02,4.98-2.76l-1.98,6.99c-.92-1-1.86-1.97-2.84-2.9-.99-.92-2.01-1.81-3.06-2.66-1.06-.84-2.13-1.66-3.24-2.43-1.13-.75-2.26-1.48-3.44-2.17-.59-.33-1.18-.67-1.79-.97-.61-.33-1.19-.6-1.77-.89-.29-.14-.68-.3-1.01-.45l-.26-.11-.13-.06-.06-.03h-.03s-.02-.02-.02-.02h0s-.07-.03.06.02l-.49-.2-2.07-.82c-1.44-.57-3.01-1.19-4.6-2.05-1.59-.86-3.2-1.98-4.57-3.36l-4.13-4.19,5.31-1.86c2.71-.95,5.29-2.3,7.75-3.92,1.23-.81,2.43-1.71,3.59-2.66.6-.49,1.13-.93,1.73-1.46l.85-.76.84-.78c1.13-1.07,2.32-2.22,3.67-3.33.67-.56,1.38-1.1,2.15-1.61.38-.25.78-.5,1.23-.76.22-.13.37-.2.55-.3l.33-.17.31-.15c1.65-.77,3.17-1.25,4.42-1.83,1.27-.57,2.16-1.19,2.65-1.98l1.06,3.22c-3.16-1.6-6.04-3.55-8.81-5.52l-8.18-5.96-8.16-5.96c-2.69-2.02-5.47-3.95-8.03-6.21l.56-.7Z"/>
  </g>
  <g>
    <path class="cls-15" d="m50.07,22.51s.68,5.18,1.5,12.99c.2,1.95.42,4.07.66,6.3.24,2.24.43,4.6.66,7.04.45,4.89.82,10.1,1.19,15.32.33,5.22.94,10.44,1.08,15.34.04,2.45.03,4.82-.07,7.07-.08,2.25-.23,4.38-.4,6.34-.15,1.96-.37,3.76-.56,5.36-.21,1.59-.41,2.98-.61,4.13-.4,2.29-.72,3.59-.72,3.59h-.56s-.33-1.31-.73-3.59c-.2-1.14-.42-2.53-.65-4.11-.21-1.59-.45-3.38-.65-5.33-.2-1.95-.41-4.07-.56-6.3-.16-2.24-.28-4.59-.32-7.04-.03-2.44.03-4.97.11-7.53.09-2.57.14-5.18.16-7.78,0-10.44-.01-20.87-.02-28.7-.04-7.84-.07-13.06-.07-13.06l.56-.04Z"/>
    <path class="cls-15" d="m50.58,22.79c2.68,2,5.6,3.67,8.45,5.46l8.57,5.34,8.56,5.32c2.85,1.74,5.75,3.36,8.73,4.66l1.39.61-.73,1.4c-.47.89-1.13,1.66-1.85,2.27-.72.62-1.5,1.09-2.26,1.5-1.52.81-3.01,1.39-4.29,2.09l-.24.13-.22.13c-.16.1-.36.21-.49.3-.27.18-.56.38-.85.6-.58.44-1.14.92-1.68,1.43-1.1,1.02-2.15,2.16-3.27,3.33-.54.57-1.16,1.2-1.72,1.74-.56.56-1.19,1.15-1.79,1.69-1.22,1.11-2.49,2.17-3.82,3.17-2.66,2-5.59,3.72-8.7,5.06l.74-3.8c1.83,1.67,4.29,2.59,7.15,3.43l2.19.66.56.18.58.2,1.08.38c.77.29,1.54.59,2.27.9.74.3,1.46.66,2.18,1.01,2.87,1.43,5.59,3.17,8.07,5.21.61.52,1.23,1.03,1.82,1.58.6.53,1.16,1.11,1.73,1.68,1.11,1.16,2.18,2.36,3.15,3.63l2.49,3.24-3.72,1.13c-1.21.37-2.43.95-3.64,1.68-1.21.72-2.41,1.6-3.66,2.48-2.53,1.81-5.05,3.67-7.7,5.38-2.62,1.75-5.36,3.37-8.19,4.81-1.43.7-2.86,1.37-4.34,1.95-1.46.6-2.98,1.08-4.49,1.52l-.22-.52c.67-.41,1.35-.78,2-1.21.66-.41,1.32-.81,1.96-1.24,1.29-.85,2.55-1.72,3.78-2.64,1.24-.9,2.45-1.85,3.64-2.81,1.18-.99,2.38-1.94,3.54-2.95l7.01-6.1c1.18-1.05,2.45-2.08,3.85-3.05,1.39-.97,2.94-1.87,4.67-2.52l-1.24,4.36c-.94-1.05-1.89-2.1-2.91-3.07-1.03-.96-2.08-1.91-3.17-2.8-1.11-.87-2.24-1.72-3.4-2.52-1.18-.78-2.38-1.52-3.61-2.21-1.23-.67-2.53-1.32-3.76-1.87-.31-.14-.69-.29-1.03-.43l-.48-.2-.51-.2-2.1-.78c-1.43-.54-2.95-1.11-4.46-1.89-1.51-.78-2.99-1.8-4.25-3.06l-2.58-2.58,3.32-1.21c2.81-1.03,5.47-2.45,7.98-4.16,1.26-.85,2.47-1.78,3.66-2.77.6-.5,1.15-.98,1.75-1.51.61-.54,1.12-1.03,1.71-1.59,1.13-1.09,2.29-2.24,3.57-3.33.64-.55,1.32-1.08,2.03-1.57.36-.24.73-.48,1.14-.72.2-.12.36-.2.54-.3l.31-.16.29-.14c1.56-.76,3.07-1.27,4.39-1.9,1.32-.63,2.39-1.38,2.99-2.41l.66,2.01c-3.12-1.52-6-3.4-8.79-5.31l-8.27-5.81-8.25-5.81c-2.72-1.97-5.54-3.84-8.12-6.04l.35-.44Z"/>
  </g>
  <g class="cls-18">
    <path class="cls-14" d="m67.3,4.65s-28.6.34-43.41,48.58c0,0,12.4-34.8,43.41-48.58Z"/>
  </g>
  <g class="cls-26">
    <path class="cls-7" d="m105.89,74.59s2.76,14.82-14.82,26.53c0,0,13.09-17.57,14.82-26.53Z"/>
  </g>
  <g class="cls-27">
    <path class="cls-8" d="m37.67,107.32s12.75,27.91,38.24,5.17c0,0-21.02,13.09-38.24-5.17Z"/>
  </g>
  <path class="cls-6" d="m39.64,22.32c-1.44,1.78-2.86,3.58-4.12,5.49-2.35,3.56-4.11,7.5-5.21,11.63,2.32,1.09,5.14.59,7.35-.69,2.22-1.28,3.94-3.25,5.58-5.22,4.24-5.1,11.52-13.71,10.92-20.93-.76-9.04-12.6,7.35-14.51,9.73Z"/>
  <path class="cls-6" d="m24.63,55.27c-.16.85-.25,1.8.26,2.5.35.47.91.72,1.46.93,1.29.49,2.63.85,4,1.06.28.04.57.08.83-.01.47-.17.71-.69.89-1.16.82-2.13,1.64-4.28,1.94-6.54.37-2.79-.56-9.52-4.71-7.61-2.74,1.26-4.2,8.32-4.67,10.84Z"/>
  <g class="cls-25">
    <path class="cls-11" d="m70.23,4.47s25.67-1.21,33.94,46.34c0,0-12.4-43.41-33.94-46.34Z"/>
  </g>
</svg>