<?xml version="1.0" encoding="UTF-8"?>
<svg id="Layer_1" data-name="Layer 1" xmlns="http://www.w3.org/2000/svg" xmlns:xlink="http://www.w3.org/1999/xlink" viewBox="0 0 128 128">
  <defs>
    <style>
      .cls-1 {
        fill: url(#_Áåçûìÿííûé_ãðàäèåíò_14);
      }

      .cls-1, .cls-2, .cls-3, .cls-4, .cls-5, .cls-6, .cls-7, .cls-8, .cls-9, .cls-10, .cls-11 {
        stroke-width: 0px;
      }

      .cls-2 {
        fill: #020202;
      }

      .cls-12 {
        filter: url(#luminosity-noclip-5);
      }

      .cls-13 {
        mask: url(#mask-2);
      }

      .cls-14 {
        mask: url(#mask-3);
      }

      .cls-15 {
        mask: url(#mask-5);
      }

      .cls-16 {
        opacity: .4;
      }

      .cls-3, .cls-5 {
        fill: #fff;
      }

      .cls-4 {
        fill: #ff6f91;
      }

      .cls-5 {
        opacity: .6;
      }

      .cls-17 {
        opacity: .57;
      }

      .cls-18 {
        mask: url(#mask-4);
      }

      .cls-6 {
        fill: url(#_Áåçûìÿííûé_ãðàäèåíò_40-2);
      }

      .cls-7 {
        fill: url(#_Áåçûìÿííûé_ãðàäèåíò_108-2);
      }

      .cls-7, .cls-8, .cls-9 {
        mix-blend-mode: multiply;
      }

      .cls-8 {
        fill: url(#_Áåçûìÿííûé_ãðàäèåíò_111);
      }

      .cls-19 {
        filter: url(#luminosity-noclip);
      }

      .cls-20 {
        mask: url(#mask-1);
      }

      .cls-21 {
        mask: url(#mask);
      }

      .cls-9 {
        fill: url(#_Áåçûìÿííûé_ãðàäèåíò_108);
      }

      .cls-10 {
        fill: url(#_Áåçûìÿííûé_ãðàäèåíò_40);
      }

      .cls-11 {
        fill: #171421;
      }

      .cls-22 {
        filter: url(#luminosity-noclip-3);
      }
    </style>
    <filter id="luminosity-noclip" x="29.75" y="6.37" width="62.59" height="112.45" color-interpolation-filters="sRGB" filterUnits="userSpaceOnUse">
      <feFlood flood-color="#fff" result="bg"/>
      <feBlend in="SourceGraphic" in2="bg"/>
    </filter>
    <filter id="luminosity-noclip-2" x="29.75" y="-8256" width="62.59" height="32766" color-interpolation-filters="sRGB" filterUnits="userSpaceOnUse">
      <feFlood flood-color="#fff" result="bg"/>
      <feBlend in="SourceGraphic" in2="bg"/>
    </filter>
    <mask id="mask-1" x="29.75" y="-8256" width="62.59" height="32766" maskUnits="userSpaceOnUse"/>
    <linearGradient id="_Áåçûìÿííûé_ãðàäèåíò_111" data-name="Áåçûìÿííûé ãðàäèåíò 111" x1="94.92" y1="96.45" x2="29.53" y2="31.07" gradientUnits="userSpaceOnUse">
      <stop offset="0" stop-color="#fff"/>
      <stop offset="1" stop-color="#000"/>
    </linearGradient>
    <mask id="mask" x="29.75" y="6.37" width="62.59" height="112.45" maskUnits="userSpaceOnUse">
      <g class="cls-19">
        <g class="cls-20">
          <path class="cls-8" d="m47.71,112.89c-6-5.47-8.89-13.51-11.05-21.34-.95-3.43-1.8-6.93-1.72-10.49.07-3.2.88-6.59-.51-9.47-.84-1.75-2.4-3.06-3.36-4.75-1.42-2.49-1.41-5.53-1.22-8.39.86-12.9,4.74-25.59,11.23-36.78,4.69-8.09,12.38-16.13,21.69-15.23,5.25.51,9.81,3.84,13.45,7.65,10.39,10.87,15.24,26.13,16,41.15.76,15.01-2.22,29.96-5.7,44.58-3.89,16.34-24.79,25.86-38.81,13.07Z"/>
        </g>
      </g>
    </mask>
    <linearGradient id="_Áåçûìÿííûé_ãðàäèåíò_14" data-name="Áåçûìÿííûé ãðàäèåíò 14" x1="94.92" y1="96.45" x2="29.53" y2="31.07" gradientUnits="userSpaceOnUse">
      <stop offset="0" stop-color="#000"/>
      <stop offset="1" stop-color="#00c9a7"/>
    </linearGradient>
    <filter id="luminosity-noclip-3" x="29.92" y="3.6" width="31.76" height="51.1" color-interpolation-filters="sRGB" filterUnits="userSpaceOnUse">
      <feFlood flood-color="#fff" result="bg"/>
      <feBlend in="SourceGraphic" in2="bg"/>
    </filter>
    <filter id="luminosity-noclip-4" x="29.92" y="-8256" width="31.76" height="32766" color-interpolation-filters="sRGB" filterUnits="userSpaceOnUse">
      <feFlood flood-color="#fff" result="bg"/>
      <feBlend in="SourceGraphic" in2="bg"/>
    </filter>
    <mask id="mask-3" x="29.92" y="-8256" width="31.76" height="32766" maskUnits="userSpaceOnUse"/>
    <radialGradient id="_Áåçûìÿííûé_ãðàäèåíò_108" data-name="Áåçûìÿííûé ãðàäèåíò 108" cx="45.8" cy="29.15" fx="45.8" fy="29.15" r="21.27" gradientUnits="userSpaceOnUse">
      <stop offset="0" stop-color="#fff"/>
      <stop offset="1" stop-color="#333"/>
    </radialGradient>
    <mask id="mask-2" x="29.92" y="3.6" width="31.76" height="51.1" maskUnits="userSpaceOnUse">
      <g class="cls-22">
        <g class="cls-14">
          <path class="cls-9" d="m61.69,3.6s-24.86,1.18-31.76,51.1c0,0,10.36-37.09,31.76-51.1Z"/>
        </g>
      </g>
    </mask>
    <radialGradient id="_Áåçûìÿííûé_ãðàäèåíò_40" data-name="Áåçûìÿííûé ãðàäèåíò 40" cx="45.8" cy="29.15" fx="45.8" fy="29.15" r="21.27" gradientUnits="userSpaceOnUse">
      <stop offset="0" stop-color="#fff"/>
      <stop offset="1" stop-color="#fff"/>
    </radialGradient>
    <filter id="luminosity-noclip-5" x="48.76" y="106.49" width="37.29" height="14.93" color-interpolation-filters="sRGB" filterUnits="userSpaceOnUse">
      <feFlood flood-color="#fff" result="bg"/>
      <feBlend in="SourceGraphic" in2="bg"/>
    </filter>
    <filter id="luminosity-noclip-6" x="48.76" y="-8256" width="37.29" height="32766" color-interpolation-filters="sRGB" filterUnits="userSpaceOnUse">
      <feFlood flood-color="#fff" result="bg"/>
      <feBlend in="SourceGraphic" in2="bg"/>
    </filter>
    <mask id="mask-5" x="48.76" y="-8256" width="37.29" height="32766" maskUnits="userSpaceOnUse"/>
    <radialGradient id="_Áåçûìÿííûé_ãðàäèåíò_108-2" data-name="Áåçûìÿííûé ãðàäèåíò 108" cx="67.41" cy="113.95" fx="67.41" fy="113.95" r="14.2" xlink:href="#_Áåçûìÿííûé_ãðàäèåíò_108"/>
    <mask id="mask-4" x="48.76" y="106.49" width="37.29" height="14.93" maskUnits="userSpaceOnUse">
      <g class="cls-12">
        <g class="cls-15">
          <path class="cls-7" d="m48.76,117.14s22.19,14.8,37.29-10.65c0,0-13.61,17.76-37.29,10.65Z"/>
        </g>
      </g>
    </mask>
    <radialGradient id="_Áåçûìÿííûé_ãðàäèåíò_40-2" data-name="Áåçûìÿííûé ãðàäèåíò 40" cx="67.41" cy="113.95" fx="67.41" fy="113.95" r="14.2" xlink:href="#_Áåçûìÿííûé_ãðàäèåíò_40"/>
  </defs>
  <path class="cls-2" d="m51.8,122.25c-6.6-6.02-9.77-14.86-12.15-23.46-1.04-3.77-1.98-7.63-1.89-11.54.08-3.52.96-7.25-.56-10.42-.93-1.93-2.64-3.37-3.7-5.23-1.56-2.74-1.56-6.08-1.34-9.23.95-14.19,5.21-28.14,12.35-40.44,5.16-8.89,13.62-17.74,23.85-16.75,5.77.56,10.79,4.22,14.79,8.41,11.42,11.95,16.76,28.74,17.6,45.25.84,16.51-2.44,32.94-6.27,49.03-4.28,17.97-27.26,28.44-42.68,14.38Z"/>
  <path class="cls-4" d="m46.38,117.91c-6.6-6.02-9.77-14.86-12.15-23.46-1.04-3.77-1.98-7.63-1.89-11.54.08-3.52.96-7.25-.56-10.42-.93-1.93-2.64-3.37-3.7-5.23-1.56-2.74-1.56-6.08-1.34-9.23.95-14.19,5.21-28.14,12.35-40.44C44.24,8.71,52.7-.14,62.94.85c5.77.56,10.79,4.22,14.79,8.41,11.42,11.95,16.76,28.74,17.6,45.25s-2.44,32.94-6.27,49.03c-4.28,17.97-27.26,28.44-42.68,14.38Z"/>
  <g class="cls-17">
    <g class="cls-21">
      <path class="cls-1" d="m47.71,112.89c-6-5.47-8.89-13.51-11.05-21.34-.95-3.43-1.8-6.93-1.72-10.49.07-3.2.88-6.59-.51-9.47-.84-1.75-2.4-3.06-3.36-4.75-1.42-2.49-1.41-5.53-1.22-8.39.86-12.9,4.74-25.59,11.23-36.78,4.69-8.09,12.38-16.13,21.69-15.23,5.25.51,9.81,3.84,13.45,7.65,10.39,10.87,15.24,26.13,16,41.15.76,15.01-2.22,29.96-5.7,44.58-3.89,16.34-24.79,25.86-38.81,13.07Z"/>
    </g>
  </g>
  <g class="cls-16">
    <path class="cls-3" d="m47.33,29s.47,4.2,1.03,10.5c.27,3.15.6,6.82.89,10.76.33,3.94.57,8.14.84,12.34.14,2.1.33,4.2.55,6.25.22,2.05.42,4.07.49,6.01.06,1.94.01,3.82-.09,5.59-.09,1.78-.2,3.46-.35,5.02-.28,3.12-.63,5.75-.95,7.62-.16.94-.29,1.68-.4,2.19-.11.51-.18.79-.18.79l-.76.12s-.15-.24-.4-.71c-.25-.46-.61-1.15-.99-2.03-.39-.89-.84-1.97-1.26-3.24-.42-1.26-.85-2.7-1.21-4.29-.37-1.58-.7-3.31-.95-5.14-.27-1.83-.43-3.76-.46-5.75-.02-2,.13-4.05.32-6.13.19-2.08.38-4.19.5-6.29.26-4.2.48-8.4.79-12.34.28-3.94.59-7.61.85-10.77.54-6.3.99-10.5.99-10.5h.77Z"/>
    <path class="cls-3" d="m48.17,44.94s2.14,1.58,5.26,4.04c1.55,1.24,3.36,2.68,5.27,4.26,1.93,1.55,3.91,3.29,5.91,5,1,.86,2.04,1.68,3.09,2.46,1.04.79,2.04,1.59,2.91,2.46.86.88,1.61,1.81,2.25,2.75.66.93,1.23,1.85,1.73,2.74.5.88.91,1.74,1.25,2.52.35.77.6,1.5.8,2.1.2.6.33,1.1.41,1.45.08.35.11.54.11.54l-.56.53s-.2-.04-.54-.14c-.34-.1-.83-.25-1.43-.48-.59-.23-1.31-.51-2.06-.89-.76-.38-1.6-.82-2.46-1.36-.87-.53-1.76-1.15-2.66-1.85-.91-.69-1.81-1.47-2.64-2.37-.83-.9-1.58-1.94-2.33-3.01-.74-1.08-1.51-2.16-2.32-3.2-1.62-2.08-3.26-4.13-4.73-6.13-1.49-1.97-2.85-3.85-4.01-5.46-2.32-3.22-3.8-5.43-3.8-5.43l.56-.53Z"/>
    <path class="cls-3" d="m78.75,30.5s.9,16.7,1.8,33.4c.14,2.08.32,4.16.55,6.2.22,2.04.43,4.05.47,6,.06,1.95-.02,3.83-.16,5.62-.12,1.79-.3,3.48-.5,5.05-.2,1.57-.44,3.01-.68,4.29-.23,1.28-.51,2.4-.74,3.32-.23.92-.45,1.65-.61,2.15-.16.5-.26.76-.26.76l-.77.04s-.12-.26-.33-.74c-.2-.48-.48-1.19-.8-2.09-.64-1.81-1.39-4.4-1.99-7.53-.31-1.56-.58-3.26-.79-5.07-.23-1.8-.37-3.7-.39-5.67,0-1.97.14-4.01.33-6.08.18-2.07.38-4.17.51-6.27.14-2.1.29-4.19.43-6.26.13-2.06.34-4.09.52-6.05.2-1.96.36-3.86.58-5.65.21-1.79.41-3.49.59-5.06.39-3.13.74-5.74,1.03-7.55.28-1.82.43-2.86.43-2.86l.77.04Z"/>
  </g>
  <g>
    <path class="cls-11" d="m49.36,29s.3,4.2.64,10.5c.18,3.15.4,6.83.58,10.76.21,3.94.36,8.14.53,12.34.09,2.1.21,4.2.35,6.26.15,2.06.27,4.08.34,6.03.08,3.9,0,7.54-.1,10.67,0,.78-.04,1.53-.07,2.25-.03.71-.03,1.39-.07,2.03-.05,1.28-.1,2.4-.16,3.33-.06.93-.1,1.66-.14,2.16-.05.5-.07.77-.07.77l-.47.07s-.1-.25-.29-.72c-.18-.47-.45-1.17-.73-2.06-.3-.89-.6-1.99-.93-3.26-.3-1.27-.63-2.71-.9-4.29-.27-1.58-.54-3.29-.71-5.11-.2-1.82-.31-3.74-.36-5.72-.06-3.97.34-8.19.47-12.39.16-4.2.29-8.4.49-12.34.17-3.94.37-7.61.54-10.77.32-6.3.59-10.5.59-10.5h.48Z"/>
    <path class="cls-11" d="m50.24,45.03s2.02,1.7,4.97,4.31c1.48,1.3,3.22,2.82,5.04,4.47,1.84,1.64,3.76,3.43,5.69,5.22,1.91,1.8,4.02,3.41,5.74,5.17,1.71,1.77,3.09,3.62,4.22,5.25.57.82,1.06,1.59,1.47,2.3.42.71.77,1.33,1.04,1.87.54,1.07.8,1.73.8,1.73l-.35.33s-.65-.28-1.69-.87c-.52-.29-1.14-.67-1.82-1.12-.69-.45-1.44-.97-2.23-1.58-1.58-1.21-3.37-2.67-5.06-4.46-1.67-1.8-3.19-3.98-4.9-5.97-1.69-2.01-3.4-4-4.95-5.92-1.57-1.9-3.01-3.7-4.24-5.24-2.48-3.07-4.08-5.16-4.08-5.16l.35-.33Z"/>
    <path class="cls-11" d="m80.77,30.49s.06,4.18.16,10.46c.07,3.13.16,6.79.25,10.7.12,3.91.25,8.08.37,12.25.09,2.08.2,4.17.35,6.21.14,2.05.27,4.06.32,6.01.04,1.95.01,3.84-.05,5.63-.05,1.79-.16,3.49-.27,5.05-.1,1.57-.24,3.01-.37,4.28-.14,1.28-.28,2.39-.41,3.31-.26,1.84-.49,2.9-.49,2.9l-.48.02s-.32-1.03-.75-2.84c-.22-.91-.44-2.01-.68-3.28-.22-1.27-.48-2.7-.67-4.27-.21-1.57-.42-3.26-.56-5.06-.16-1.8-.25-3.7-.29-5.66-.03-3.93.35-8.13.49-12.32.18-4.19.37-8.38.65-12.3.14-1.96.26-3.86.42-5.65.16-1.79.31-3.49.44-5.06.29-3.13.53-5.74.75-7.56.21-1.82.32-2.86.32-2.86l.48.02Z"/>
  </g>
  <g class="cls-13">
    <path class="cls-10" d="m61.69,3.6s-24.86,1.18-31.76,51.1c0,0,10.36-37.09,31.76-51.1Z"/>
  </g>
  <g class="cls-18">
    <path class="cls-6" d="m48.76,117.14s22.19,14.8,37.29-10.65c0,0-13.61,17.76-37.29,10.65Z"/>
  </g>
  <path class="cls-5" d="m49.87,18.87c-.36,1.11-.57,2.53.34,3.25.46.37,1.09.43,1.68.44,1.97.05,3.98-.29,5.73-1.19,1.75-.9,3.23-2.4,3.91-4.25.54-1.5.54-3.13.54-4.72,0-1.51-.02-3.03-.02-4.54,0-.19,0-.4-.14-.53-.12-.13-.3-.16-.48-.18-2.94-.4-4.73-.08-6.49,2.27-2.17,2.9-3.93,6.01-5.06,9.46Z"/>
  <path class="cls-5" d="m46.54,24.13c-.5,1.07-.48,2.3-.45,3.49,0,.22.02.45.13.64.11.19.3.31.49.41.96.54,2.05.85,3.16.9.2,0,.42,0,.59-.1.18-.11.28-.3.36-.49,1.25-2.8-2.17-9.43-4.28-4.85Z"/>
</svg>