<?xml version="1.0" encoding="UTF-8"?>
<svg id="Layer_1" data-name="Layer 1" xmlns="http://www.w3.org/2000/svg" xmlns:xlink="http://www.w3.org/1999/xlink" viewBox="0 0 128 128">
  <defs>
    <style>
      .cls-1 {
        fill: url(#_Áåçûìÿííûé_ãðàäèåíò_14);
      }

      .cls-1, .cls-2, .cls-3, .cls-4, .cls-5, .cls-6, .cls-7, .cls-8, .cls-9, .cls-10, .cls-11, .cls-12, .cls-13 {
        stroke-width: 0px;
      }

      .cls-2 {
        fill: url(#_Áåçûìÿííûé_ãðàäèåíò_108-3);
      }

      .cls-2, .cls-8, .cls-10, .cls-11 {
        mix-blend-mode: multiply;
      }

      .cls-3 {
        fill: #020202;
      }

      .cls-14 {
        filter: url(#luminosity-noclip-7);
      }

      .cls-15 {
        filter: url(#luminosity-noclip-5);
      }

      .cls-16 {
        mask: url(#mask-2);
      }

      .cls-17 {
        mask: url(#mask-3);
      }

      .cls-18 {
        mask: url(#mask-5);
      }

      .cls-4, .cls-5 {
        fill: #fff;
      }

      .cls-19 {
        opacity: .3;
      }

      .cls-5 {
        opacity: .6;
      }

      .cls-20 {
        opacity: .57;
      }

      .cls-21 {
        mask: url(#mask-4);
      }

      .cls-6 {
        fill: url(#_Áåçûìÿííûé_ãðàäèåíò_40-2);
      }

      .cls-7 {
        fill: url(#_Áåçûìÿííûé_ãðàäèåíò_40-3);
      }

      .cls-8 {
        fill: url(#_Áåçûìÿííûé_ãðàäèåíò_108-2);
      }

      .cls-22 {
        mask: url(#mask-6);
      }

      .cls-9 {
        fill: #00c9a7;
      }

      .cls-10 {
        fill: url(#_Áåçûìÿííûé_ãðàäèåíò_111);
      }

      .cls-23 {
        filter: url(#luminosity-noclip);
      }

      .cls-24 {
        mask: url(#mask-1);
      }

      .cls-25 {
        mask: url(#mask);
      }

      .cls-26 {
        mask: url(#mask-7);
      }

      .cls-11 {
        fill: url(#_Áåçûìÿííûé_ãðàäèåíò_108);
      }

      .cls-12 {
        fill: url(#_Áåçûìÿííûé_ãðàäèåíò_40);
      }

      .cls-13 {
        fill: #171421;
      }

      .cls-27 {
        filter: url(#luminosity-noclip-3);
      }
    </style>
    <filter id="luminosity-noclip" x="18.36" y="5.54" width="74.2" height="111.33" color-interpolation-filters="sRGB" filterUnits="userSpaceOnUse">
      <feFlood flood-color="#fff" result="bg"/>
      <feBlend in="SourceGraphic" in2="bg"/>
    </filter>
    <filter id="luminosity-noclip-2" x="18.36" y="-8256" width="74.2" height="32766" color-interpolation-filters="sRGB" filterUnits="userSpaceOnUse">
      <feFlood flood-color="#fff" result="bg"/>
      <feBlend in="SourceGraphic" in2="bg"/>
    </filter>
    <mask id="mask-1" x="18.36" y="-8256" width="74.2" height="32766" maskUnits="userSpaceOnUse"/>
    <linearGradient id="_Áåçûìÿííûé_ãðàäèåíò_111" data-name="Áåçûìÿííûé ãðàäèåíò 111" x1="95.43" y1="95.66" x2="23.17" y2="23.39" gradientUnits="userSpaceOnUse">
      <stop offset="0" stop-color="#fff"/>
      <stop offset="1" stop-color="#000"/>
    </linearGradient>
    <mask id="mask" x="18.36" y="5.54" width="74.2" height="111.33" maskUnits="userSpaceOnUse">
      <g class="cls-23">
        <g class="cls-24">
          <path class="cls-10" d="m18.8,75.51c-1.4-8.85.73-17.83,2.85-26.53,2.02-8.32,4.05-16.63,6.07-24.95.68-2.8,1.39-5.67,3.06-8.02,3.08-4.34,8.65-5.97,13.8-7.31,6.48-1.69,13.08-3.4,19.78-3.15,6.7.25,13.63,2.75,17.71,8.06,3.22,4.19,4.32,9.59,5.32,14.78,3.98,20.81,7.65,42.36,2.98,63.04-10.81,47.88-65.92,19.8-71.57-15.93Z"/>
        </g>
      </g>
    </mask>
    <linearGradient id="_Áåçûìÿííûé_ãðàäèåíò_14" data-name="Áåçûìÿííûé ãðàäèåíò 14" x1="95.43" y1="95.66" x2="23.17" y2="23.39" gradientUnits="userSpaceOnUse">
      <stop offset="0" stop-color="#000"/>
      <stop offset="1" stop-color="#00c9a7"/>
    </linearGradient>
    <filter id="luminosity-noclip-3" x="18.74" y="3.78" width="42.23" height="51.4" color-interpolation-filters="sRGB" filterUnits="userSpaceOnUse">
      <feFlood flood-color="#fff" result="bg"/>
      <feBlend in="SourceGraphic" in2="bg"/>
    </filter>
    <filter id="luminosity-noclip-4" x="18.74" y="-8256" width="42.23" height="32766" color-interpolation-filters="sRGB" filterUnits="userSpaceOnUse">
      <feFlood flood-color="#fff" result="bg"/>
      <feBlend in="SourceGraphic" in2="bg"/>
    </filter>
    <mask id="mask-3" x="18.74" y="-8256" width="42.23" height="32766" maskUnits="userSpaceOnUse"/>
    <radialGradient id="_Áåçûìÿííûé_ãðàäèåíò_108" data-name="Áåçûìÿííûé ãðàäèåíò 108" cx="39.86" cy="29.48" fx="39.86" fy="29.48" r="23.52" gradientUnits="userSpaceOnUse">
      <stop offset="0" stop-color="#fff"/>
      <stop offset="1" stop-color="#333"/>
    </radialGradient>
    <mask id="mask-2" x="18.74" y="3.78" width="42.23" height="51.4" maskUnits="userSpaceOnUse">
      <g class="cls-27">
        <g class="cls-17">
          <path class="cls-11" d="m21.36,49.12c-9.86,25.85,11-39.17,15.62-40.05,6.03-1.15,23.99-5.28,23.99-5.28,0,0-25.09,7.26-39.61,45.33Z"/>
        </g>
      </g>
    </mask>
    <radialGradient id="_Áåçûìÿííûé_ãðàäèåíò_40" data-name="Áåçûìÿííûé ãðàäèåíò 40" cx="39.86" cy="29.48" fx="39.86" fy="29.48" r="23.52" gradientUnits="userSpaceOnUse">
      <stop offset="0" stop-color="#fff"/>
      <stop offset="1" stop-color="#fff"/>
    </radialGradient>
    <filter id="luminosity-noclip-5" x="64.93" y="71.34" width="28.64" height="48.2" color-interpolation-filters="sRGB" filterUnits="userSpaceOnUse">
      <feFlood flood-color="#fff" result="bg"/>
      <feBlend in="SourceGraphic" in2="bg"/>
    </filter>
    <filter id="luminosity-noclip-6" x="64.93" y="-8256" width="28.64" height="32766" color-interpolation-filters="sRGB" filterUnits="userSpaceOnUse">
      <feFlood flood-color="#fff" result="bg"/>
      <feBlend in="SourceGraphic" in2="bg"/>
    </filter>
    <mask id="mask-5" x="64.93" y="-8256" width="28.64" height="32766" maskUnits="userSpaceOnUse"/>
    <radialGradient id="_Áåçûìÿííûé_ãðàäèåíò_108-2" data-name="Áåçûìÿííûé ãðàäèåíò 108" cx="79.25" cy="95.44" fx="79.25" fy="95.44" r="19.82" xlink:href="#_Áåçûìÿííûé_ãðàäèåíò_108"/>
    <mask id="mask-4" x="64.93" y="71.34" width="28.64" height="48.2" maskUnits="userSpaceOnUse">
      <g class="cls-15">
        <g class="cls-18">
          <path class="cls-8" d="m64.93,119.54s29.71,0,28.61-48.2c0,0-1.1,39.83-28.61,48.2Z"/>
        </g>
      </g>
    </mask>
    <radialGradient id="_Áåçûìÿííûé_ãðàäèåíò_40-2" data-name="Áåçûìÿííûé ãðàäèåíò 40" cx="79.25" cy="95.44" fx="79.25" fy="95.44" r="19.82" xlink:href="#_Áåçûìÿííûé_ãðàäèåíò_40"/>
    <filter id="luminosity-noclip-7" x="18.8" y="51.54" width="24.78" height="59.42" color-interpolation-filters="sRGB" filterUnits="userSpaceOnUse">
      <feFlood flood-color="#fff" result="bg"/>
      <feBlend in="SourceGraphic" in2="bg"/>
    </filter>
    <filter id="luminosity-noclip-8" x="18.8" y="-8256" width="24.78" height="32766" color-interpolation-filters="sRGB" filterUnits="userSpaceOnUse">
      <feFlood flood-color="#fff" result="bg"/>
      <feBlend in="SourceGraphic" in2="bg"/>
    </filter>
    <mask id="mask-7" x="18.8" y="-8256" width="24.78" height="32766" maskUnits="userSpaceOnUse"/>
    <radialGradient id="_Áåçûìÿííûé_ãðàäèåíò_108-3" data-name="Áåçûìÿííûé ãðàäèåíò 108" cx="31.19" cy="81.25" fx="31.19" fy="81.25" r="22.76" xlink:href="#_Áåçûìÿííûé_ãðàäèåíò_108"/>
    <mask id="mask-6" x="18.8" y="51.54" width="24.78" height="59.42" maskUnits="userSpaceOnUse">
      <g class="cls-14">
        <g class="cls-26">
          <path class="cls-2" d="m21.58,51.54s-14.3,36.75,22.01,59.42c0,0-27.73-19.15-22.01-59.42Z"/>
        </g>
      </g>
    </mask>
    <radialGradient id="_Áåçûìÿííûé_ãðàäèåíò_40-3" data-name="Áåçûìÿííûé ãðàäèåíò 40" cx="31.19" cy="81.25" fx="31.19" fy="81.25" r="22.76" xlink:href="#_Áåçûìÿííûé_ãðàäèåíò_40"/>
  </defs>
  <path class="cls-3" d="m23.36,82.84c-1.53-9.7.8-19.55,3.13-29.09,2.22-9.12,4.44-18.23,6.66-27.35.75-3.07,1.53-6.21,3.35-8.79,3.37-4.76,9.49-6.54,15.13-8.02,7.11-1.86,14.34-3.72,21.68-3.45,7.34.28,14.94,3.01,19.42,8.84,3.53,4.6,4.74,10.51,5.83,16.2,4.37,22.82,8.38,46.44,3.26,69.11-11.86,52.5-72.27,21.71-78.46-17.46Z"/>
  <path class="cls-9" d="m15.27,76.89c-1.53-9.7.8-19.55,3.13-29.09,2.22-9.12,4.44-18.23,6.66-27.35.75-3.07,1.53-6.21,3.35-8.79,3.37-4.76,9.49-6.54,15.13-8.02C50.65,1.79,57.88-.08,65.22.2c7.34.28,14.94,3.01,19.42,8.84,3.53,4.6,4.74,10.51,5.83,16.2,4.37,22.82,8.38,46.44,3.26,69.11-11.86,52.5-72.27,21.71-78.46-17.46Z"/>
  <g class="cls-20">
    <g class="cls-25">
      <path class="cls-1" d="m18.8,75.51c-1.4-8.85.73-17.83,2.85-26.53,2.02-8.32,4.05-16.63,6.07-24.95.68-2.8,1.39-5.67,3.06-8.02,3.08-4.34,8.65-5.97,13.8-7.31,6.48-1.69,13.08-3.4,19.78-3.15,6.7.25,13.63,2.75,17.71,8.06,3.22,4.19,4.32,9.59,5.32,14.78,3.98,20.81,7.65,42.36,2.98,63.04-10.81,47.88-65.92,19.8-71.57-15.93Z"/>
    </g>
  </g>
  <g class="cls-19">
    <path class="cls-4" d="m47.53,26.64s.6,4.79,1.34,11.97c.36,3.59.79,7.78,1.19,12.27.44,4.49.78,9.28,1.16,14.07.19,2.4.44,4.79.71,7.15.27,2.36.51,4.68.57,6.92.06,2.25-.02,4.42-.19,6.49-.15,2.06-.36,4.02-.62,5.82-.24,1.8-.54,3.46-.84,4.92-.29,1.47-.63,2.75-.91,3.8-.28,1.05-.55,1.88-.74,2.45-.19.57-.31.87-.31.87l-.86.02s-.13-.3-.34-.86c-.21-.56-.5-1.38-.83-2.42-.32-1.04-.7-2.31-1.04-3.77-.35-1.46-.71-3.1-1.02-4.89-.32-1.79-.6-3.74-.82-5.79-.24-2.06-.4-4.23-.42-6.48-.02-2.25.14-4.57.33-6.94.19-2.36.35-4.77.46-7.17.21-4.8.38-9.6.66-14.1.24-4.5.52-8.7.75-12.31.48-7.2.91-12.01.91-12.01l.86-.02Z"/>
    <path class="cls-4" d="m48.25,27.15s1.91.99,4.78,2.47c1.41.75,3.09,1.56,4.85,2.45,1.76.86,3.65,1.77,5.53,2.68.95.43,1.92.82,2.91,1.14.98.34,1.93.67,2.77,1.14.84.46,1.58,1.03,2.26,1.63.68.59,1.3,1.21,1.85,1.82.55.61,1.04,1.22,1.45,1.8.42.57.76,1.14,1.04,1.61.28.47.49.88.62,1.17.13.3.2.46.2.46l-.37.77s-.17.04-.48.12c-.32.08-.76.17-1.32.23-1.12.15-2.65.19-4.35-.07-.86-.12-1.75-.33-2.67-.62-.93-.27-1.84-.67-2.73-1.19-.87-.54-1.69-1.25-2.48-2.01-.8-.76-1.6-1.53-2.44-2.24-.83-.72-1.66-1.43-2.45-2.16-.81-.7-1.55-1.47-2.29-2.19-.72-.74-1.42-1.42-2.05-2.13-.63-.69-1.23-1.35-1.77-1.97-1.07-1.24-1.95-2.3-2.51-3.06-.57-.76-.9-1.19-.9-1.19l.55-.66Z"/>
    <path class="cls-4" d="m49.4,56.11s7.06,2.47,14.11,4.94c.87.29,1.77.52,2.67.7.9.19,1.76.39,2.53.74.77.35,1.51.82,2.2,1.39.69.55,1.34,1.17,1.89,1.83.56.65,1.01,1.35,1.34,2.01.35.65.54,1.31.67,1.84.12.54.16.98.16,1.3,0,.31-.01.48-.01.48l-.66.54s-.58-.03-1.6-.09c-.43-.01-.96-.03-1.57-.05-.57-.02-1.18-.03-1.82-.09-.65-.05-1.34-.14-2.08-.29-.74-.14-1.54-.38-2.34-.78-.81-.4-1.56-.99-2.3-1.61-.74-.63-1.49-1.25-2.27-1.83-1.55-1.15-3.09-2.29-4.45-3.49-1.38-1.16-2.61-2.32-3.64-3.32-1.03-1.01-1.86-1.88-2.43-2.51-.56-.63-.88-.98-.88-.98l.48-.71Z"/>
  </g>
  <g>
    <path class="cls-13" d="m49.57,26.64s.41,4.79.9,11.98c.26,3.59.57,7.79.84,12.28.31,4.49.55,9.28.82,14.08.24,4.79.78,9.58.9,14.08.04,2.25.02,4.42-.07,6.48-.07,2.06-.21,4.01-.35,5.82-.13,1.8-.32,3.45-.49,4.92-.18,1.46-.36,2.74-.54,3.79-.35,2.1-.63,3.31-.63,3.31h-.54s-.33-1.18-.75-3.27c-.22-1.05-.44-2.32-.67-3.77-.22-1.46-.47-3.1-.67-4.9-.21-1.8-.42-3.74-.56-5.8-.16-2.06-.26-4.23-.31-6.48-.04-4.5.33-9.3.4-14.1.1-4.8.17-9.6.32-14.1.11-4.5.27-8.7.4-12.3.24-7.2.47-12,.47-12h.54Z"/>
    <path class="cls-13" d="m50.35,27.27s1.81,1.16,4.52,2.8c1.35.84,2.95,1.76,4.65,2.76,1.72.96,3.54,2.01,5.38,3,.93.48,1.87.94,2.82,1.35.94.42,1.87.82,2.72,1.3,1.69.96,3.12,2.11,4.35,3.14,1.21,1.04,2.19,2.03,2.84,2.78.66.74,1,1.26,1,1.26l-.23.48s-.61.05-1.62-.01c-.51-.02-1.11-.1-1.78-.21-.68-.1-1.43-.26-2.22-.49-1.59-.44-3.4-1.09-5.15-2.12-1.74-1.06-3.34-2.58-5.06-3.88-1.7-1.33-3.39-2.68-4.89-4.04-.75-.68-1.48-1.32-2.15-1.97-.67-.64-1.3-1.25-1.87-1.82-1.14-1.14-2.07-2.12-2.69-2.82-.62-.7-.98-1.1-.98-1.1l.35-.41Z"/>
    <path class="cls-13" d="m51.51,56.24s1.7.77,4.26,1.93c1.27.58,2.76,1.22,4.35,1.91,1.6.67,3.28,1.41,4.99,2.1,1.69.71,3.53,1.12,5.08,1.81,1.55.71,3,1.73,4.15,2.81,1.15,1.08,1.91,2.26,2.27,3.15.19.45.29.81.34,1.07.05.26.07.39.07.39l-.41.34s-.48-.15-1.33-.41c-.41-.11-.87-.25-1.4-.39-.52-.13-1.1-.28-1.74-.45-1.25-.35-2.75-.7-4.35-1.47-.8-.4-1.57-.91-2.34-1.45-.77-.54-1.55-1.09-2.34-1.61-1.59-1.04-3.16-2.09-4.57-3.17-1.43-1.05-2.72-2.09-3.81-3-1.09-.91-1.97-1.69-2.58-2.25-.6-.56-.95-.88-.95-.88l.3-.45Z"/>
  </g>
  <g class="cls-16">
    <path class="cls-12" d="m21.36,49.12c-9.86,25.85,11-39.17,15.62-40.05,6.03-1.15,23.99-5.28,23.99-5.28,0,0-25.09,7.26-39.61,45.33Z"/>
  </g>
  <g class="cls-21">
    <path class="cls-6" d="m64.93,119.54s29.71,0,28.61-48.2c0,0-1.1,39.83-28.61,48.2Z"/>
  </g>
  <g class="cls-22">
    <path class="cls-7" d="m21.58,51.54s-14.3,36.75,22.01,59.42c0,0-27.73-19.15-22.01-59.42Z"/>
  </g>
  <path class="cls-5" d="m44.8,21.2c-.27,1.87-1.26,3.55-2.22,5.17-.92,1.55-1.85,3.1-2.77,4.65-.31.52-.63,1.06-1.11,1.42-.89.68-2.11.66-3.23.61-1.41-.06-2.85-.13-4.18-.6s-2.57-1.4-3.07-2.72c-.39-1.04-.27-2.2-.15-3.31.49-4.44,1.09-9.01,3.32-12.88,5.15-8.97,14.51.11,13.42,7.66Z"/>
  <path class="cls-5" d="m28.29,39.06c-.05-.59.29-1.11.62-1.62.32-.48.64-.97.95-1.45.11-.16.22-.33.43-.44.39-.21,1.01-.2,1.59-.18.73.02,1.47.05,2.2.2s1.46.45,1.84.87c.3.33.36.69.41,1.04.19,1.39.34,2.83-.41,4.04-1.74,2.8-7.43-.09-7.63-2.45Z"/>
</svg>