<?xml version="1.0" encoding="UTF-8"?>
<svg id="Layer_1" data-name="Layer 1" xmlns="http://www.w3.org/2000/svg" xmlns:xlink="http://www.w3.org/1999/xlink" viewBox="0 0 128 128">
  <defs>
    <style>
      .cls-1 {
        fill: url(#_Áåçûìÿííûé_ãðàäèåíò_14);
      }

      .cls-1, .cls-2, .cls-3, .cls-4, .cls-5, .cls-6, .cls-7, .cls-8, .cls-9, .cls-10, .cls-11, .cls-12, .cls-13 {
        stroke-width: 0px;
      }

      .cls-2 {
        fill: url(#_Áåçûìÿííûé_ãðàäèåíò_108-3);
      }

      .cls-2, .cls-9, .cls-10, .cls-11 {
        mix-blend-mode: multiply;
      }

      .cls-3 {
        fill: #020202;
      }

      .cls-14 {
        filter: url(#luminosity-noclip-7);
      }

      .cls-15 {
        filter: url(#luminosity-noclip-5);
      }

      .cls-16 {
        mask: url(#mask-2);
      }

      .cls-17 {
        mask: url(#mask-3);
      }

      .cls-4 {
        fill: #ff9671;
      }

      .cls-18 {
        mask: url(#mask-5);
      }

      .cls-19 {
        opacity: .4;
      }

      .cls-5, .cls-6 {
        fill: #fff;
      }

      .cls-6 {
        opacity: .6;
      }

      .cls-20 {
        opacity: .57;
      }

      .cls-21 {
        mask: url(#mask-4);
      }

      .cls-7 {
        fill: url(#_Áåçûìÿííûé_ãðàäèåíò_40-2);
      }

      .cls-8 {
        fill: url(#_Áåçûìÿííûé_ãðàäèåíò_40-3);
      }

      .cls-9 {
        fill: url(#_Áåçûìÿííûé_ãðàäèåíò_108-2);
      }

      .cls-22 {
        mask: url(#mask-6);
      }

      .cls-10 {
        fill: url(#_Áåçûìÿííûé_ãðàäèåíò_111);
      }

      .cls-23 {
        filter: url(#luminosity-noclip);
      }

      .cls-24 {
        mask: url(#mask-1);
      }

      .cls-25 {
        mask: url(#mask);
      }

      .cls-26 {
        mask: url(#mask-7);
      }

      .cls-11 {
        fill: url(#_Áåçûìÿííûé_ãðàäèåíò_108);
      }

      .cls-12 {
        fill: url(#_Áåçûìÿííûé_ãðàäèåíò_40);
      }

      .cls-13 {
        fill: #171421;
      }

      .cls-27 {
        filter: url(#luminosity-noclip-3);
      }
    </style>
    <filter id="luminosity-noclip" x="13.26" y="3.84" width="91.94" height="116.73" color-interpolation-filters="sRGB" filterUnits="userSpaceOnUse">
      <feFlood flood-color="#fff" result="bg"/>
      <feBlend in="SourceGraphic" in2="bg"/>
    </filter>
    <filter id="luminosity-noclip-2" x="13.26" y="-8256" width="91.94" height="32766" color-interpolation-filters="sRGB" filterUnits="userSpaceOnUse">
      <feFlood flood-color="#fff" result="bg"/>
      <feBlend in="SourceGraphic" in2="bg"/>
    </filter>
    <mask id="mask-1" x="13.26" y="-8256" width="91.94" height="32766" maskUnits="userSpaceOnUse"/>
    <linearGradient id="_Áåçûìÿííûé_ãðàäèåíò_111" data-name="Áåçûìÿííûé ãðàäèåíò 111" x1="101.13" y1="101.17" x2="25.5" y2="25.54" gradientUnits="userSpaceOnUse">
      <stop offset="0" stop-color="#fff"/>
      <stop offset="1" stop-color="#000"/>
    </linearGradient>
    <mask id="mask" x="13.26" y="3.84" width="91.94" height="116.73" maskUnits="userSpaceOnUse">
      <g class="cls-23">
        <g class="cls-24">
          <path class="cls-10" d="m18.06,74.53c-2.43-7.04-4.89-14.26-4.8-21.71.12-10.11,5.04-19.76,12.03-27.06,6.99-7.3,15.92-12.48,25.14-16.61,9.78-4.38,21.26-7.66,30.99-3.15,7.78,3.61,12.67,11.46,16.05,19.34,10.08,23.48,10.3,51.01.61,74.66-1.81,4.41-4.05,8.82-7.75,11.83-4.16,3.38-9.63,4.56-14.88,5.65-13.31,2.74-29.5,6.8-39.37-3.89-9.16-9.92-13.74-26.58-18.04-39.05Z"/>
        </g>
      </g>
    </mask>
    <linearGradient id="_Áåçûìÿííûé_ãðàäèåíò_14" data-name="Áåçûìÿííûé ãðàäèåíò 14" x1="101.13" y1="101.17" x2="25.5" y2="25.54" gradientUnits="userSpaceOnUse">
      <stop offset="0" stop-color="#000"/>
      <stop offset="1" stop-color="#00c9a7"/>
    </linearGradient>
    <filter id="luminosity-noclip-3" x="13.71" y="16.89" width="22.5" height="71.03" color-interpolation-filters="sRGB" filterUnits="userSpaceOnUse">
      <feFlood flood-color="#fff" result="bg"/>
      <feBlend in="SourceGraphic" in2="bg"/>
    </filter>
    <filter id="luminosity-noclip-4" x="13.71" y="-8256" width="22.5" height="32766" color-interpolation-filters="sRGB" filterUnits="userSpaceOnUse">
      <feFlood flood-color="#fff" result="bg"/>
      <feBlend in="SourceGraphic" in2="bg"/>
    </filter>
    <mask id="mask-3" x="13.71" y="-8256" width="22.5" height="32766" maskUnits="userSpaceOnUse"/>
    <radialGradient id="_Áåçûìÿííûé_ãðàäèåíò_108" data-name="Áåçûìÿííûé ãðàäèåíò 108" cx="24.96" cy="52.41" fx="24.96" fy="52.41" r="26.34" gradientUnits="userSpaceOnUse">
      <stop offset="0" stop-color="#fff"/>
      <stop offset="1" stop-color="#333"/>
    </radialGradient>
    <mask id="mask-2" x="13.71" y="16.89" width="22.5" height="71.03" maskUnits="userSpaceOnUse">
      <g class="cls-27">
        <g class="cls-17">
          <path class="cls-11" d="m36.21,16.89S-3.22,29.67,22.32,87.92c0,0-7.17-50.64,13.89-71.03Z"/>
        </g>
      </g>
    </mask>
    <radialGradient id="_Áåçûìÿííûé_ãðàäèåíò_40" data-name="Áåçûìÿííûé ãðàäèåíò 40" cx="24.96" cy="52.41" fx="24.96" fy="52.41" r="26.34" gradientUnits="userSpaceOnUse">
      <stop offset="0" stop-color="#fff"/>
      <stop offset="1" stop-color="#fff"/>
    </radialGradient>
    <filter id="luminosity-noclip-5" x="76.32" y="88.82" width="25.77" height="31.14" color-interpolation-filters="sRGB" filterUnits="userSpaceOnUse">
      <feFlood flood-color="#fff" result="bg"/>
      <feBlend in="SourceGraphic" in2="bg"/>
    </filter>
    <filter id="luminosity-noclip-6" x="76.32" y="-8256" width="25.77" height="32766" color-interpolation-filters="sRGB" filterUnits="userSpaceOnUse">
      <feFlood flood-color="#fff" result="bg"/>
      <feBlend in="SourceGraphic" in2="bg"/>
    </filter>
    <mask id="mask-5" x="76.32" y="-8256" width="25.77" height="32766" maskUnits="userSpaceOnUse"/>
    <radialGradient id="_Áåçûìÿííûé_ãðàäèåíò_108-2" data-name="Áåçûìÿííûé ãðàäèåíò 108" cx="89.2" cy="104.39" fx="89.2" fy="104.39" r="14.29" xlink:href="#_Áåçûìÿííûé_ãðàäèåíò_108"/>
    <mask id="mask-4" x="76.32" y="88.82" width="25.77" height="31.14" maskUnits="userSpaceOnUse">
      <g class="cls-15">
        <g class="cls-18">
          <path class="cls-9" d="m76.32,119.96s22.18-1.57,25.77-31.14c0,0-3.14,22.41-25.77,31.14Z"/>
        </g>
      </g>
    </mask>
    <radialGradient id="_Áåçûìÿííûé_ãðàäèåíò_40-2" data-name="Áåçûìÿííûé ãðàäèåíò 40" cx="89.2" cy="104.39" fx="89.2" fy="104.39" r="14.29" xlink:href="#_Áåçûìÿííûé_ãðàäèåíò_40"/>
    <filter id="luminosity-noclip-7" x="55.93" y="1.97" width="37.87" height="14.02" color-interpolation-filters="sRGB" filterUnits="userSpaceOnUse">
      <feFlood flood-color="#fff" result="bg"/>
      <feBlend in="SourceGraphic" in2="bg"/>
    </filter>
    <filter id="luminosity-noclip-8" x="55.93" y="-8256" width="37.87" height="32766" color-interpolation-filters="sRGB" filterUnits="userSpaceOnUse">
      <feFlood flood-color="#fff" result="bg"/>
      <feBlend in="SourceGraphic" in2="bg"/>
    </filter>
    <mask id="mask-7" x="55.93" y="-8256" width="37.87" height="32766" maskUnits="userSpaceOnUse"/>
    <radialGradient id="_Áåçûìÿííûé_ãðàäèåíò_108-3" data-name="Áåçûìÿííûé ãðàäèåíò 108" cx="74.86" cy="8.99" fx="74.86" fy="8.99" r="14.28" xlink:href="#_Áåçûìÿííûé_ãðàäèåíò_108"/>
    <mask id="mask-6" x="55.93" y="1.97" width="37.87" height="14.02" maskUnits="userSpaceOnUse">
      <g class="cls-14">
        <g class="cls-26">
          <path class="cls-2" d="m55.93,5.47s24.2-12.77,37.87,10.53c0,0-10.98-17.48-37.87-10.53Z"/>
        </g>
      </g>
    </mask>
    <radialGradient id="_Áåçûìÿííûé_ãðàäèåíò_40-3" data-name="Áåçûìÿííûé ãðàäèåíò 40" cx="74.86" cy="8.99" fx="74.86" fy="8.99" r="14.28" xlink:href="#_Áåçûìÿííûé_ãðàäèåíò_40"/>
  </defs>
  <path class="cls-3" d="m24.96,78.92c-2.59-7.51-5.21-15.21-5.12-23.15.13-10.78,5.38-21.07,12.83-28.86,7.45-7.79,16.98-13.31,26.81-17.71,10.43-4.67,22.67-8.17,33.04-3.36,8.29,3.85,13.51,12.22,17.12,20.62,10.74,25.04,10.98,54.4.65,79.61-1.93,4.7-4.32,9.41-8.26,12.61-4.43,3.6-10.27,4.87-15.86,6.02-14.19,2.93-31.45,7.25-41.98-4.15-9.77-10.58-14.65-28.35-19.23-41.64Z"/>
  <path class="cls-4" d="m15.33,75.39c-2.59-7.51-5.21-15.21-5.12-23.15.13-10.78,5.38-21.07,12.83-28.86s16.98-13.31,26.81-17.71c10.43-4.67,22.67-8.17,33.04-3.36,8.29,3.85,13.51,12.22,17.12,20.62,10.74,25.04,10.98,54.4.65,79.61-1.93,4.7-4.32,9.41-8.26,12.61-4.43,3.6-10.27,4.87-15.86,6.02-14.19,2.93-31.45,7.25-41.98-4.15-9.77-10.58-14.65-28.35-19.23-41.64Z"/>
  <g class="cls-20">
    <g class="cls-25">
      <path class="cls-1" d="m18.06,74.53c-2.43-7.04-4.89-14.26-4.8-21.71.12-10.11,5.04-19.76,12.03-27.06,6.99-7.3,15.92-12.48,25.14-16.61,9.78-4.38,21.26-7.66,30.99-3.15,7.78,3.61,12.67,11.46,16.05,19.34,10.08,23.48,10.3,51.01.61,74.66-1.81,4.41-4.05,8.82-7.75,11.83-4.16,3.38-9.63,4.56-14.88,5.65-13.31,2.74-29.5,6.8-39.37-3.89-9.16-9.92-13.74-26.58-18.04-39.05Z"/>
    </g>
  </g>
  <g class="cls-19">
    <path class="cls-5" d="m72.73,104.27l.18-2.16.08-2.13v-2.14s-.07-2.14-.07-2.14c-.07-1.43-.17-2.85-.3-4.28-.14-1.42-.3-2.85-.48-4.27-.72-5.7-1.77-11.4-2.26-17.31-.24-2.95-.35-5.91-.38-8.85-.02-1.46-.01-2.96,0-4.39.02-1.48.07-2.94.12-4.4.22-5.86.7-11.72,1.34-17.57l7.07,1.93c-.98,2.79-2.31,5.34-3.68,7.69-1.38,2.37-2.75,4.5-4.15,6.68-1.42,2.15-2.87,4.3-4.4,6.38-1.51,2.09-3.11,4.13-4.7,6.17l-3.07,3.93-3.18-3.22c-1.91-1.94-3.57-4.09-4.95-6.39-1.37-2.31-2.45-4.75-3.2-7.3-.16-.56-.35-1.24-.5-1.85l-.41-1.82-.73-3.51c-.24-1.15-.55-2.25-.9-3.35-.18-.55-.4-1.08-.62-1.62-.23-.54-.5-1.06-.79-1.59l.63-.6c.53.35,1.03.76,1.52,1.19.48.44.92.92,1.35,1.41.42.5.82,1.01,1.19,1.54.36.53.71,1.07,1.05,1.62.68,1.08,1.26,2.19,1.84,3.26l.85,1.58.85,1.51c2.26,3.8,5.15,7.12,8.46,9.73l-6.24.71c1.36-2.2,2.71-4.4,4.15-6.55,1.42-2.16,2.93-4.25,4.45-6.34,1.53-2.07,3.17-4.14,4.64-6.08,1.47-1.96,2.75-3.9,3.7-5.9l12.88-27.18-5.8,29.1c-1.11,5.58-1.94,11.23-2.58,16.9l-.44,4.25c-.14,1.45-.27,2.84-.38,4.27-.22,2.84-.37,5.67-.4,8.5-.01,2.83.05,5.69.17,8.57.11,2.88.25,5.78.32,8.7.03,1.46.05,2.92.04,4.39-.02,1.47-.07,2.93-.15,4.39l-.19,2.19-.27,2.18-.35,2.18-.44,2.13-.86-.13Z"/>
    <path class="cls-5" d="m43.43,36.43s.15,1.06.43,2.92c.28,1.86.61,4.52,1,7.71.37,3.19.8,6.92,1.18,10.92.19,2,.41,4.06.56,6.16.16,2.1.32,4.23.49,6.37.16,2.13.39,4.27.62,6.37.24,2.1.44,4.17.46,6.18.01,2-.12,3.94-.33,5.77-.2,1.84-.46,3.57-.78,5.17-.61,3.2-1.37,5.86-2.04,7.71-.33.93-.62,1.66-.84,2.15-.21.5-.35.76-.35.76l-.87-.02s-.12-.27-.32-.77c-.2-.5-.47-1.24-.76-2.18-.29-.94-.64-2.07-.94-3.37-.31-1.3-.63-2.76-.9-4.36-.27-1.6-.52-3.32-.69-5.15-.2-1.83-.31-3.75-.29-5.74.03-1.99.23-4.05.46-6.14.23-2.09.44-4.22.58-6.35.28-4.25.5-8.51.81-12.5.29-3.99.56-7.72.8-10.92.52-6.4.86-10.67.86-10.67l.87-.03Z"/>
  </g>
  <g>
    <path class="cls-13" d="m75.58,104.3l.23-2.16.13-2.14.05-2.15-.02-2.15c-.04-1.43-.11-2.87-.21-4.3-.11-1.43-.25-2.86-.4-4.29-.61-5.72-1.55-11.44-1.92-17.3-.36-5.87-.22-11.69.05-17.52.28-5.83.81-11.64,1.52-17.45l4.45,1.21c-.98,2.64-2.31,5.07-3.7,7.35-1.4,2.29-2.81,4.41-4.24,6.57-1.44,2.15-2.91,4.27-4.41,6.37-1.51,2.09-3.04,4.18-4.61,6.23l-1.84,2.41-2.04-1.97c-1.87-1.81-3.52-3.83-4.89-6.02-1.39-2.17-2.5-4.5-3.32-6.92-.19-.55-.4-1.19-.57-1.78l-.49-1.77-.95-3.46c-.32-1.14-.71-2.24-1.15-3.32-.23-.54-.49-1.06-.76-1.58-.28-.52-.59-1.02-.93-1.51l.4-.38c.48.39.94.81,1.38,1.27.43.46.83.95,1.21,1.45.37.51.73,1.03,1.06,1.57.32.54.63,1.08.93,1.63.6,1.09,1.1,2.22,1.62,3.31l.77,1.62.78,1.58c1.06,2.02,2.31,3.93,3.71,5.69.7.88,1.46,1.71,2.24,2.51.77.81,1.59,1.57,2.44,2.28l-3.88.44c1.38-2.19,2.81-4.34,4.24-6.49,1.45-2.13,2.93-4.25,4.44-6.35l4.54-6.19c1.45-2.03,2.74-4.09,3.68-6.24l8.13-18.61-3.68,19.83c-1.04,5.63-1.82,11.31-2.39,17.02-.55,5.7-.98,11.45-.92,17.14.04,2.85.16,5.72.34,8.6.17,2.88.37,5.77.49,8.68.06,1.45.1,2.91.12,4.36.01,1.46-.01,2.92-.07,4.37l-.14,2.18-.22,2.18-.3,2.17-.39,2.13-.54-.08Z"/>
    <path class="cls-13" d="m45.95,36.44s.47,4.25.98,10.64c.27,3.19.57,6.92.82,10.92.28,4,.48,8.26.7,12.53.18,4.27.65,8.53.68,12.54-.01,4-.33,7.74-.72,10.93-.2,1.6-.43,3.06-.65,4.36-.23,1.3-.45,2.43-.67,3.36-.42,1.86-.76,2.92-.76,2.92h-.55s-.3-1.08-.65-2.95c-.18-.93-.37-2.07-.57-3.37-.18-1.3-.38-2.76-.54-4.36-.33-3.19-.59-6.92-.58-10.9.03-1.99.14-4.05.29-6.15.15-2.09.27-4.22.35-6.35.16-4.26.31-8.52.46-12.51.16-3.99.31-7.72.44-10.92.25-6.4.41-10.66.41-10.66l.55-.02Z"/>
  </g>
  <g class="cls-16">
    <path class="cls-12" d="m36.21,16.89S-3.22,29.67,22.32,87.92c0,0-7.17-50.64,13.89-71.03Z"/>
  </g>
  <g class="cls-21">
    <path class="cls-7" d="m76.32,119.96s22.18-1.57,25.77-31.14c0,0-3.14,22.41-25.77,31.14Z"/>
  </g>
  <g class="cls-22">
    <path class="cls-8" d="m55.93,5.47s24.2-12.77,37.87,10.53c0,0-10.98-17.48-37.87-10.53Z"/>
  </g>
  <path class="cls-6" d="m20.02,37.64c-3.16,8.16-6.3,16.71-5.46,25.42.05.47.16,1.03.59,1.23.19.09.4.08.61.06.98-.14,1.77-.86,2.46-1.58,5.38-5.69,7.97-13.43,9.91-21.01.83-3.26,1.58-6.65.97-9.95-.26-1.39-1.05-2.97-2.46-3.06-1.38-.09-3,1.7-3.79,2.73-1.33,1.72-2.05,4.16-2.82,6.17Z"/>
  <path class="cls-6" d="m21.19,67.05c-1.04-.06-1.85.74-2.24,1.7l-.14.29c-.06,1.64-.11,3.28-.17,4.92-.02.53-.03,1.08.22,1.54.25.46.85.78,1.32.53.18-.1.31-.26.43-.42,1.26-1.67,2.01-3.72,2.14-5.8.07-1.18-.37-2.7-1.55-2.77Z"/>
</svg>