<?xml version="1.0" encoding="UTF-8"?>
<svg id="Layer_1" data-name="Layer 1" xmlns="http://www.w3.org/2000/svg" xmlns:xlink="http://www.w3.org/1999/xlink" viewBox="0 0 128 128">
  <defs>
    <style>
      .cls-1 {
        fill: url(#_Áåçûìÿííûé_ãðàäèåíò_14);
      }

      .cls-1, .cls-2, .cls-3, .cls-4, .cls-5, .cls-6, .cls-7, .cls-8, .cls-9, .cls-10, .cls-11, .cls-12, .cls-13 {
        stroke-width: 0px;
      }

      .cls-2 {
        fill: url(#_Áåçûìÿííûé_ãðàäèåíò_108-3);
      }

      .cls-2, .cls-8, .cls-9, .cls-10 {
        mix-blend-mode: multiply;
      }

      .cls-3 {
        fill: #020202;
      }

      .cls-14 {
        filter: url(#luminosity-noclip-7);
      }

      .cls-15 {
        filter: url(#luminosity-noclip-5);
      }

      .cls-16 {
        mask: url(#mask-2);
      }

      .cls-17 {
        mask: url(#mask-3);
      }

      .cls-18 {
        mask: url(#mask-5);
      }

      .cls-19 {
        opacity: .4;
      }

      .cls-4, .cls-5 {
        fill: #fff;
      }

      .cls-5 {
        opacity: .6;
      }

      .cls-20 {
        opacity: .57;
      }

      .cls-21 {
        mask: url(#mask-4);
      }

      .cls-6 {
        fill: url(#_Áåçûìÿííûé_ãðàäèåíò_40-2);
      }

      .cls-7 {
        fill: url(#_Áåçûìÿííûé_ãðàäèåíò_40-3);
      }

      .cls-8 {
        fill: url(#_Áåçûìÿííûé_ãðàäèåíò_108-2);
      }

      .cls-22 {
        mask: url(#mask-6);
      }

      .cls-9 {
        fill: url(#_Áåçûìÿííûé_ãðàäèåíò_111);
      }

      .cls-23 {
        filter: url(#luminosity-noclip);
      }

      .cls-24 {
        mask: url(#mask-1);
      }

      .cls-25 {
        mask: url(#mask);
      }

      .cls-26 {
        mask: url(#mask-7);
      }

      .cls-10 {
        fill: url(#_Áåçûìÿííûé_ãðàäèåíò_108);
      }

      .cls-11 {
        fill: #d65db1;
      }

      .cls-12 {
        fill: url(#_Áåçûìÿííûé_ãðàäèåíò_40);
      }

      .cls-13 {
        fill: #171421;
      }

      .cls-27 {
        filter: url(#luminosity-noclip-3);
      }
    </style>
    <filter id="luminosity-noclip" x="25.63" y="4.54" width="68.02" height="114.57" color-interpolation-filters="sRGB" filterUnits="userSpaceOnUse">
      <feFlood flood-color="#fff" result="bg"/>
      <feBlend in="SourceGraphic" in2="bg"/>
    </filter>
    <filter id="luminosity-noclip-2" x="25.63" y="-8256" width="68.02" height="32766" color-interpolation-filters="sRGB" filterUnits="userSpaceOnUse">
      <feFlood flood-color="#fff" result="bg"/>
      <feBlend in="SourceGraphic" in2="bg"/>
    </filter>
    <mask id="mask-1" x="25.63" y="-8256" width="68.02" height="32766" maskUnits="userSpaceOnUse"/>
    <linearGradient id="_Áåçûìÿííûé_ãðàäèåíò_111" data-name="Áåçûìÿííûé ãðàäèåíò 111" x1="95.24" y1="104.88" x2="23.14" y2="32.77" gradientUnits="userSpaceOnUse">
      <stop offset="0" stop-color="#fff"/>
      <stop offset="1" stop-color="#000"/>
    </linearGradient>
    <mask id="mask" x="25.63" y="4.54" width="68.02" height="114.57" maskUnits="userSpaceOnUse">
      <g class="cls-23">
        <g class="cls-24">
          <path class="cls-9" d="m26.39,39.76c.16-6.5,1.42-14.57,7.62-16.56,2.26-.73,4.74-.41,7.01-1.08,8.51-2.52,9.96-16.89,18.81-17.56,5.77-.44,9.73,5.56,12.17,10.81,9.25,19.91,16.05,40.96,20.21,62.51.92,4.79,1.72,9.66,1.36,14.52-1.41,19.05-10.94,32.69-29.09,24.06-12.39-5.9-20.13-6.14-33.73-7.1-7.12-21.5-4.92-47.26-4.36-69.6Z"/>
        </g>
      </g>
    </mask>
    <linearGradient id="_Áåçûìÿííûé_ãðàäèåíò_14" data-name="Áåçûìÿííûé ãðàäèåíò 14" x1="95.24" y1="104.88" x2="23.14" y2="32.77" gradientUnits="userSpaceOnUse">
      <stop offset="0" stop-color="#000"/>
      <stop offset="1" stop-color="#00c9a7"/>
    </linearGradient>
    <filter id="luminosity-noclip-3" x="25.45" y="22.44" width="13.32" height="52.42" color-interpolation-filters="sRGB" filterUnits="userSpaceOnUse">
      <feFlood flood-color="#fff" result="bg"/>
      <feBlend in="SourceGraphic" in2="bg"/>
    </filter>
    <filter id="luminosity-noclip-4" x="25.45" y="-8256" width="13.32" height="32766" color-interpolation-filters="sRGB" filterUnits="userSpaceOnUse">
      <feFlood flood-color="#fff" result="bg"/>
      <feBlend in="SourceGraphic" in2="bg"/>
    </filter>
    <mask id="mask-3" x="25.45" y="-8256" width="13.32" height="32766" maskUnits="userSpaceOnUse"/>
    <radialGradient id="_Áåçûìÿííûé_ãðàäèåíò_108" data-name="Áåçûìÿííûé ãðàäèåíò 108" cx="32.11" cy="48.65" fx="32.11" fy="48.65" r="19.12" gradientUnits="userSpaceOnUse">
      <stop offset="0" stop-color="#fff"/>
      <stop offset="1" stop-color="#333"/>
    </radialGradient>
    <mask id="mask-2" x="25.45" y="22.44" width="13.32" height="52.42" maskUnits="userSpaceOnUse">
      <g class="cls-27">
        <g class="cls-17">
          <path class="cls-10" d="m38.77,22.64s-16.76-6.23-12.68,52.23c0,0-2.15-47.28,12.68-52.23Z"/>
        </g>
      </g>
    </mask>
    <radialGradient id="_Áåçûìÿííûé_ãðàäèåíò_40" data-name="Áåçûìÿííûé ãðàäèåíò 40" cx="32.11" cy="48.65" fx="32.11" fy="48.65" r="19.12" gradientUnits="userSpaceOnUse">
      <stop offset="0" stop-color="#fff"/>
      <stop offset="1" stop-color="#fff"/>
    </radialGradient>
    <filter id="luminosity-noclip-5" x="56.61" y="100.01" width="38.04" height="21.27" color-interpolation-filters="sRGB" filterUnits="userSpaceOnUse">
      <feFlood flood-color="#fff" result="bg"/>
      <feBlend in="SourceGraphic" in2="bg"/>
    </filter>
    <filter id="luminosity-noclip-6" x="56.61" y="-8256" width="38.04" height="32766" color-interpolation-filters="sRGB" filterUnits="userSpaceOnUse">
      <feFlood flood-color="#fff" result="bg"/>
      <feBlend in="SourceGraphic" in2="bg"/>
    </filter>
    <mask id="mask-5" x="56.61" y="-8256" width="38.04" height="32766" maskUnits="userSpaceOnUse"/>
    <radialGradient id="_Áåçûìÿííûé_ãðàäèåíò_108-2" data-name="Áåçûìÿííûé ãðàäèåíò 108" cx="75.63" cy="110.64" fx="75.63" fy="110.64" r="15.41" xlink:href="#_Áåçûìÿííûé_ãðàäèåíò_108"/>
    <mask id="mask-4" x="56.61" y="100.01" width="38.04" height="21.27" maskUnits="userSpaceOnUse">
      <g class="cls-15">
        <g class="cls-18">
          <path class="cls-8" d="m56.61,115.7s30.52,19.99,38.04-15.69c0,0-7.31,26.22-38.04,15.69Z"/>
        </g>
      </g>
    </mask>
    <radialGradient id="_Áåçûìÿííûé_ãðàäèåíò_40-2" data-name="Áåçûìÿííûé ãðàäèåíò 40" cx="75.63" cy="110.64" fx="75.63" fy="110.64" r="15.41" xlink:href="#_Áåçûìÿííûé_ãðàäèåíò_40"/>
    <filter id="luminosity-noclip-7" x="48.88" y="2.41" width="23" height="10.98" color-interpolation-filters="sRGB" filterUnits="userSpaceOnUse">
      <feFlood flood-color="#fff" result="bg"/>
      <feBlend in="SourceGraphic" in2="bg"/>
    </filter>
    <filter id="luminosity-noclip-8" x="48.88" y="-8256" width="23" height="32766" color-interpolation-filters="sRGB" filterUnits="userSpaceOnUse">
      <feFlood flood-color="#fff" result="bg"/>
      <feBlend in="SourceGraphic" in2="bg"/>
    </filter>
    <mask id="mask-7" x="48.88" y="-8256" width="23" height="32766" maskUnits="userSpaceOnUse"/>
    <radialGradient id="_Áåçûìÿííûé_ãðàäèåíò_108-3" data-name="Áåçûìÿííûé ãðàäèåíò 108" cx="60.37" cy="7.9" fx="60.37" fy="7.9" r="9.01" xlink:href="#_Áåçûìÿííûé_ãðàäèåíò_108"/>
    <mask id="mask-6" x="48.88" y="2.41" width="23" height="10.98" maskUnits="userSpaceOnUse">
      <g class="cls-14">
        <g class="cls-26">
          <path class="cls-2" d="m48.88,13.39s11.18-24.72,23,0c0,0-9.46-18.05-23,0Z"/>
        </g>
      </g>
    </mask>
    <radialGradient id="_Áåçûìÿííûé_ãðàäèåíò_40-3" data-name="Áåçûìÿííûé ãðàäèåíò 40" cx="60.37" cy="7.9" fx="60.37" fy="7.9" r="9.01" xlink:href="#_Áåçûìÿííûé_ãðàäèåíò_40"/>
  </defs>
  <path class="cls-3" d="m32.8,43.37c.17-6.97,1.52-15.62,8.16-17.75,2.42-.78,5.08-.44,7.52-1.16,9.12-2.7,10.68-18.1,20.16-18.82,6.19-.47,10.43,5.95,13.04,11.58,9.91,21.34,17.2,43.9,21.66,67,.99,5.13,1.84,10.35,1.46,15.57-1.51,20.42-11.73,35.04-31.18,25.78-13.28-6.32-21.57-6.58-36.15-7.61-7.63-23.04-5.27-50.65-4.68-74.6Z"/>
  <path class="cls-11" d="m24,38.18c.17-6.97,1.52-15.62,8.16-17.75,2.42-.78,5.08-.44,7.52-1.16C48.8,16.57,50.36,1.17,59.85.45c6.19-.47,10.43,5.95,13.04,11.58,9.91,21.34,17.2,43.9,21.66,67,.99,5.13,1.84,10.35,1.46,15.57-1.51,20.42-11.73,35.04-31.18,25.78-13.28-6.32-21.57-6.58-36.15-7.61-7.63-23.04-5.27-50.65-4.68-74.6Z"/>
  <g class="cls-20">
    <g class="cls-25">
      <path class="cls-1" d="m26.39,39.76c.16-6.5,1.42-14.57,7.62-16.56,2.26-.73,4.74-.41,7.01-1.08,8.51-2.52,9.96-16.89,18.81-17.56,5.77-.44,9.73,5.56,12.17,10.81,9.25,19.91,16.05,40.96,20.21,62.51.92,4.79,1.72,9.66,1.36,14.52-1.41,19.05-10.94,32.69-29.09,24.06-12.39-5.9-20.13-6.14-33.73-7.1-7.12-21.5-4.92-47.26-4.36-69.6Z"/>
    </g>
  </g>
  <g class="cls-19">
    <path class="cls-4" d="m55.67,21.22s-.07.34-.21.99c-.13.64-.34,1.59-.63,2.8-.55,2.41-1.5,5.81-2.81,9.86-.66,2.02-1.43,4.2-2.3,6.48-.87,2.29-1.9,4.65-3.01,7.09-.56,1.22-1.14,2.45-1.76,3.68-.63,1.27-1.19,2.34-1.33,3.13-.08.39-.04.62.01.71.01.02.03.04.04.06,0-.02.02.05,0-.03l.05.11s-.01-.05,0-.02l.3.35,1.32,1.38,1.44,1.46c1.96,1.97,4.04,3.94,6.04,6.08,2.01,2.11,3.89,4.52,5.31,7.1,1.38,2.55,2.24,4.86,3.13,6.88.89,2.02,1.86,3.95,2.77,5.76.95,1.83,1.82,3.51,2.6,4.99.8,1.5,1.46,2.86,2.02,3.99.55,1.13.96,2.03,1.23,2.66.27.63.4.97.4.97l-.64.54s-1.27-.75-3.31-2.26c-2.04-1.51-4.85-3.78-7.82-7.05-1.48-1.64-3-3.52-4.41-5.73-1.44-2.19-2.58-4.55-3.68-6.63-1.05-2.05-2.27-4.12-3.73-6.3-1.45-2.16-3.15-4.33-4.92-6.53l-1.34-1.67c-.44-.57-.83-1.03-1.39-1.8-.27-.38-.57-.84-.84-1.4-.06-.13-.13-.3-.21-.49l-.04-.13c-.06-.17-.06-.18-.09-.28-.1-.31-.17-.63-.21-.95-.19-1.28.03-2.46.33-3.39.63-1.87,1.57-3.13,2.26-4.2.73-1.11,1.44-2.21,2.11-3.31,1.36-2.19,2.6-4.37,3.76-6.44,1.16-2.08,2.2-4.07,3.12-5.94,1.86-3.73,3.2-6.94,4.17-9.19.47-1.12.83-2.01,1.07-2.63.24-.61.37-.94.37-.94l.8.24Z"/>
    <path class="cls-4" d="m55.62,20.87s.22.28.64.81c.21.27.46.59.76.98.28.41.6.89.97,1.42.71,1.08,1.48,2.41,2.29,4,.79,1.59,1.63,3.41,2.47,5.4.85,1.99,1.72,4.15,2.69,6.37.98,2.21,2,4.51,3.27,6.7.33.53.65,1.08.99,1.61.36.51.72,1.03,1.08,1.55.39.49.78.98,1.18,1.47.4.51,1.09,1.19,1.62,2.51.13.33.23.7.29,1.1l.02.15.02.24v.13c.02.1.02.49,0,.68-.06.78-.27,1.47-.52,2.02-.49,1.1-1.08,1.84-1.45,2.39-.81,1.17-1.61,2.34-2.42,3.5-1.59,2.32-3.1,4.73-4.55,7.11-1.43,2.39-2.86,4.73-4.32,6.93-1.47,2.19-2.99,4.25-4.47,6.18-1.47,1.93-2.91,3.74-4.27,5.39-2.71,3.31-5.12,5.99-6.9,7.84-.89.92-1.6,1.64-2.11,2.12-.5.48-.79.73-.79.73l-.73-.41s.07-.37.23-1.05c.16-.68.41-1.67.79-2.9.38-1.23.84-2.73,1.48-4.39.63-1.67,1.38-3.53,2.3-5.5.9-1.98,1.96-4.09,3.16-6.27,1.19-2.19,2.55-4.43,4.1-6.66,1.56-2.21,3.32-4.4,5.17-6.58,1.84-2.17,3.71-4.38,5.58-6.59.93-1.09,1.86-2.19,2.78-3.28.5-.57.81-.95.93-1.13.06-.09.06-.08.07,0,0,.02,0,.22.01.15v-.13s0-.03,0-.03v.14s.01.02.01.02c.01.05.04.08.04.07.06-.01-.16-.44-.59-1.03-.41-.65-.81-1.29-1.21-1.93-.35-.66-.7-1.31-1.04-1.96-.32-.66-.6-1.32-.9-1.96-2.22-5.23-3.25-10.18-4.38-14.28-.54-2.06-1.1-3.91-1.64-5.54-.56-1.61-1.11-3.01-1.59-4.12-.26-.55-.48-1.05-.68-1.48-.23-.43-.43-.79-.59-1.08-.32-.59-.5-.9-.5-.9l.7-.46Z"/>
  </g>
  <g>
    <path class="cls-13" d="m58.32,21.18s-.08.34-.24.98c-.15.64-.39,1.57-.71,2.76-.63,2.38-1.65,5.75-3.07,9.73-1.42,3.98-3.26,8.58-5.61,13.35-.58,1.19-1.19,2.4-1.82,3.61-.64,1.24-1.27,2.34-1.51,3.33-.12.49-.13.9-.05,1.21.08.31.21.55.58.99.35.41.87.96,1.34,1.46l1.42,1.5c1.95,2,3.92,4.03,5.83,6.16,1.9,2.13,3.66,4.47,5.01,6.95,1.31,2.47,2.24,4.77,3.23,6.83.26.56.5,1.02.75,1.52.27.49.53.98.78,1.46.51.97,1.02,1.9,1.54,2.78,1.04,1.77,2.01,3.4,2.91,4.84.89,1.46,1.67,2.73,2.31,3.78,1.28,2.11,1.95,3.38,1.95,3.38l-.4.34s-.28-.22-.8-.64c-.52-.42-1.27-1.05-2.2-1.87-.93-.82-2.04-1.85-3.27-3.08-1.22-1.24-2.58-2.66-3.94-4.34-.69-.84-1.38-1.73-2.08-2.67-.33-.49-.67-.98-1.01-1.49-.33-.52-.7-1.08-1-1.58-1.35-2.15-2.42-4.51-3.58-6.67-1.12-2.15-2.47-4.28-4.02-6.45-1.55-2.16-3.34-4.27-5.13-6.44l-1.36-1.64c-.45-.56-.86-1.04-1.38-1.73-.25-.34-.51-.74-.74-1.2-.05-.11-.11-.24-.17-.4l-.05-.13c-.04-.12-.05-.14-.07-.22-.08-.26-.14-.52-.18-.78-.16-1.06,0-2.06.27-2.88.54-1.66,1.41-2.89,2.09-4,.71-1.13,1.39-2.26,2.05-3.38,2.62-4.48,4.84-8.81,6.59-12.6,1.76-3.79,3.03-7.04,3.91-9.31.43-1.14.77-2.04.99-2.66.22-.62.34-.95.34-.95l.5.15Z"/>
    <path class="cls-13" d="m58.28,20.96s.21.29.61.83c.2.27.44.6.73,1,.27.42.57.9.91,1.43.67,1.08,1.4,2.43,2.16,4.03.75,1.59,1.53,3.42,2.31,5.42.78,1.99,1.63,4.15,2.52,6.43.92,2.25,1.91,4.59,3.15,6.86.32.56.63,1.13.97,1.68.36.54.71,1.08,1.07,1.63.39.51.79,1.03,1.18,1.55.41.53,1.01,1.16,1.43,2.23.1.27.18.57.23.88l.02.12.02.17v.13c.02.1.01.37,0,.52-.05.62-.22,1.18-.43,1.64-.42.93-.95,1.6-1.35,2.15-.83,1.15-1.66,2.31-2.49,3.46-1.62,2.32-3.23,4.67-4.74,7.01-1.51,2.35-3,4.66-4.48,6.86-1.5,2.19-2.96,4.3-4.41,6.26-.71.99-1.41,1.95-2.08,2.88-.68.92-1.35,1.82-1.98,2.67-1.26,1.72-2.46,3.27-3.51,4.66-1.07,1.38-2,2.58-2.79,3.56-1.57,1.97-2.54,3.06-2.54,3.06l-.46-.26s.12-.34.34-.99c.22-.64.56-1.58,1.03-2.76.46-1.18,1.06-2.59,1.79-4.19.35-.81.77-1.64,1.19-2.53.42-.89.88-1.82,1.39-2.77.98-1.93,2.12-3.97,3.37-6.1,1.23-2.15,2.64-4.34,4.16-6.57,1.54-2.21,3.24-4.43,5.01-6.64,1.78-2.21,3.55-4.46,5.39-6.69.91-1.11,1.81-2.22,2.72-3.32.47-.57.84-1.01,1.02-1.37.18-.38.19-.41.15-.64-.05-.26-.36-.73-.78-1.31-.4-.62-.81-1.23-1.21-1.84-.35-.63-.7-1.26-1.05-1.88-.33-.63-.61-1.27-.92-1.9-2.27-5.07-3.44-9.98-4.68-14.05-.6-2.05-1.21-3.89-1.8-5.51-.6-1.61-1.2-2.99-1.72-4.1-.28-.55-.52-1.04-.73-1.47-.24-.42-.45-.78-.62-1.06-.34-.58-.52-.88-.52-.88l.44-.29Z"/>
  </g>
  <g class="cls-16">
    <path class="cls-12" d="m38.77,22.64s-16.76-6.23-12.68,52.23c0,0-2.15-47.28,12.68-52.23Z"/>
  </g>
  <g class="cls-21">
    <path class="cls-6" d="m56.61,115.7s30.52,19.99,38.04-15.69c0,0-7.31,26.22-38.04,15.69Z"/>
  </g>
  <g class="cls-22">
    <path class="cls-7" d="m48.88,13.39s11.18-24.72,23,0c0,0-9.46-18.05-23,0Z"/>
  </g>
  <path class="cls-5" d="m29.75,29.8c-.51,1.92-.49,3.94-.46,5.93l.05,3.6c0,.58.02,1.18.26,1.71.21.48.59.86.97,1.23.88.87,1.99,1.82,3.2,1.54.49-.11.9-.41,1.31-.71,1.62-1.18,3.29-2.42,4.29-4.16.67-1.18,1-2.53,1.21-3.87.56-3.49.43-7.05.3-10.58,0-.26-.02-.53-.15-.76-.17-.29-.49-.44-.79-.56-5.84-2.28-8.78,1.38-10.17,6.63Z"/>
  <path class="cls-5" d="m32,46.23c-1.03-.2-1.82.88-2.31,1.81h0c-.15,1.21-.25,1.34-.04,2.54.04.24.09.49.22.71.44.77,1.65.76,2.32.17.67-.58.91-1.51,1.03-2.39.15-1.13-.09-2.62-1.21-2.84Z"/>
</svg>