<?xml version="1.0" encoding="UTF-8"?>
<svg id="Layer_1" data-name="Layer 1" xmlns="http://www.w3.org/2000/svg" xmlns:xlink="http://www.w3.org/1999/xlink" viewBox="0 0 128 128">
  <defs>
    <style>
      .cls-1 {
        fill: url(#_Áåçûìÿííûé_ãðàäèåíò_14);
      }

      .cls-1, .cls-2, .cls-3, .cls-4, .cls-5, .cls-6, .cls-7, .cls-8, .cls-9, .cls-10, .cls-11, .cls-12, .cls-13 {
        stroke-width: 0px;
      }

      .cls-2 {
        fill: url(#_Áåçûìÿííûé_ãðàäèåíò_108-3);
      }

      .cls-2, .cls-8, .cls-10, .cls-11 {
        mix-blend-mode: multiply;
      }

      .cls-3 {
        fill: #020202;
      }

      .cls-14 {
        filter: url(#luminosity-noclip-7);
      }

      .cls-15 {
        filter: url(#luminosity-noclip-5);
      }

      .cls-16 {
        mask: url(#mask-2);
      }

      .cls-17 {
        mask: url(#mask-3);
      }

      .cls-18 {
        mask: url(#mask-5);
      }

      .cls-4, .cls-5 {
        fill: #fff;
      }

      .cls-19 {
        opacity: .3;
      }

      .cls-5 {
        opacity: .6;
      }

      .cls-20 {
        opacity: .57;
      }

      .cls-21 {
        mask: url(#mask-4);
      }

      .cls-6 {
        fill: url(#_Áåçûìÿííûé_ãðàäèåíò_40-2);
      }

      .cls-7 {
        fill: url(#_Áåçûìÿííûé_ãðàäèåíò_40-3);
      }

      .cls-8 {
        fill: url(#_Áåçûìÿííûé_ãðàäèåíò_108-2);
      }

      .cls-22 {
        mask: url(#mask-6);
      }

      .cls-9 {
        fill: #0081cf;
      }

      .cls-10 {
        fill: url(#_Áåçûìÿííûé_ãðàäèåíò_111);
      }

      .cls-23 {
        filter: url(#luminosity-noclip);
      }

      .cls-24 {
        mask: url(#mask-1);
      }

      .cls-25 {
        mask: url(#mask);
      }

      .cls-26 {
        mask: url(#mask-7);
      }

      .cls-11 {
        fill: url(#_Áåçûìÿííûé_ãðàäèåíò_108);
      }

      .cls-12 {
        fill: url(#_Áåçûìÿííûé_ãðàäèåíò_40);
      }

      .cls-13 {
        fill: #171421;
      }

      .cls-27 {
        filter: url(#luminosity-noclip-3);
      }
    </style>
    <filter id="luminosity-noclip" x="20.56" y="6.39" width="85.14" height="111.96" color-interpolation-filters="sRGB" filterUnits="userSpaceOnUse">
      <feFlood flood-color="#fff" result="bg"/>
      <feBlend in="SourceGraphic" in2="bg"/>
    </filter>
    <filter id="luminosity-noclip-2" x="20.56" y="-8256" width="85.14" height="32766" color-interpolation-filters="sRGB" filterUnits="userSpaceOnUse">
      <feFlood flood-color="#fff" result="bg"/>
      <feBlend in="SourceGraphic" in2="bg"/>
    </filter>
    <mask id="mask-1" x="20.56" y="-8256" width="85.14" height="32766" maskUnits="userSpaceOnUse"/>
    <linearGradient id="_Áåçûìÿííûé_ãðàäèåíò_111" data-name="Áåçûìÿííûé ãðàäèåíò 111" x1="96.28" y1="102.43" x2="21.54" y2="27.68" gradientUnits="userSpaceOnUse">
      <stop offset="0" stop-color="#fff"/>
      <stop offset="1" stop-color="#000"/>
    </linearGradient>
    <mask id="mask" x="20.56" y="6.39" width="85.14" height="111.96" maskUnits="userSpaceOnUse">
      <g class="cls-23">
        <g class="cls-24">
          <path class="cls-10" d="m26.6,89.39c-4.33-13.78-7.36-28.31-5.48-42.63,1.75-13.35,7.86-26.1,17.17-35.83,1.7-1.77,3.59-3.51,5.95-4.19,2.18-.64,4.52-.3,6.75.14,18.54,3.67,35.6,14.99,45.47,31.11,9.87,16.12,12.15,36.86,5.24,54.45-2.07,5.27-5.03,10.37-9.53,13.81-2.7,2.06-5.84,3.44-8.97,4.73-29.66,12.21-46.07,11.9-56.61-21.59Z"/>
        </g>
      </g>
    </mask>
    <linearGradient id="_Áåçûìÿííûé_ãðàäèåíò_14" data-name="Áåçûìÿííûé ãðàäèåíò 14" x1="96.28" y1="102.43" x2="21.54" y2="27.68" gradientUnits="userSpaceOnUse">
      <stop offset="0" stop-color="#000"/>
      <stop offset="1" stop-color="#00c9a7"/>
    </linearGradient>
    <filter id="luminosity-noclip-3" x="19.44" y="3.42" width="23.85" height="79.28" color-interpolation-filters="sRGB" filterUnits="userSpaceOnUse">
      <feFlood flood-color="#fff" result="bg"/>
      <feBlend in="SourceGraphic" in2="bg"/>
    </filter>
    <filter id="luminosity-noclip-4" x="19.44" y="-8256" width="23.85" height="32766" color-interpolation-filters="sRGB" filterUnits="userSpaceOnUse">
      <feFlood flood-color="#fff" result="bg"/>
      <feBlend in="SourceGraphic" in2="bg"/>
    </filter>
    <mask id="mask-3" x="19.44" y="-8256" width="23.85" height="32766" maskUnits="userSpaceOnUse"/>
    <radialGradient id="_Áåçûìÿííûé_ãðàäèåíò_108" data-name="Áåçûìÿííûé ãðàäèåíò 108" cx="31.37" cy="43.06" fx="31.37" fy="43.06" r="29.27" gradientUnits="userSpaceOnUse">
      <stop offset="0" stop-color="#fff"/>
      <stop offset="1" stop-color="#333"/>
    </radialGradient>
    <mask id="mask-2" x="19.44" y="3.42" width="23.85" height="79.28" maskUnits="userSpaceOnUse">
      <g class="cls-27">
        <g class="cls-17">
          <path class="cls-11" d="m43.29,3.42S6.5,29.53,24.3,82.7c0,0-3.56-52.69,18.99-79.28Z"/>
        </g>
      </g>
    </mask>
    <radialGradient id="_Áåçûìÿííûé_ãðàäèåíò_40" data-name="Áåçûìÿííûé ãðàäèåíò 40" cx="31.37" cy="43.06" fx="31.37" fy="43.06" r="29.27" gradientUnits="userSpaceOnUse">
      <stop offset="0" stop-color="#fff"/>
      <stop offset="1" stop-color="#fff"/>
    </radialGradient>
    <filter id="luminosity-noclip-5" x="35.22" y="4.25" width="30.98" height="7.43" color-interpolation-filters="sRGB" filterUnits="userSpaceOnUse">
      <feFlood flood-color="#fff" result="bg"/>
      <feBlend in="SourceGraphic" in2="bg"/>
    </filter>
    <filter id="luminosity-noclip-6" x="35.22" y="-8256" width="30.98" height="32766" color-interpolation-filters="sRGB" filterUnits="userSpaceOnUse">
      <feFlood flood-color="#fff" result="bg"/>
      <feBlend in="SourceGraphic" in2="bg"/>
    </filter>
    <mask id="mask-5" x="35.22" y="-8256" width="30.98" height="32766" maskUnits="userSpaceOnUse"/>
    <radialGradient id="_Áåçûìÿííûé_ãðàäèåíò_108-2" data-name="Áåçûìÿííûé ãðàäèåíò 108" cx="50.71" cy="7.96" fx="50.71" fy="7.96" r="11.26" xlink:href="#_Áåçûìÿííûé_ãðàäèåíò_108"/>
    <mask id="mask-4" x="35.22" y="4.25" width="30.98" height="7.43" maskUnits="userSpaceOnUse">
      <g class="cls-15">
        <g class="cls-18">
          <path class="cls-8" d="m35.22,11.67s6.05-15.84,30.98-1.25c0,0-20.47-7.3-30.98,1.25Z"/>
        </g>
      </g>
    </mask>
    <radialGradient id="_Áåçûìÿííûé_ãðàäèåíò_40-2" data-name="Áåçûìÿííûé ãðàäèåíò 40" cx="50.71" cy="7.96" fx="50.71" fy="7.96" r="11.26" xlink:href="#_Áåçûìÿííûé_ãðàäèåíò_40"/>
    <filter id="luminosity-noclip-7" x="74.74" y="88.4" width="29.91" height="28.13" color-interpolation-filters="sRGB" filterUnits="userSpaceOnUse">
      <feFlood flood-color="#fff" result="bg"/>
      <feBlend in="SourceGraphic" in2="bg"/>
    </filter>
    <filter id="luminosity-noclip-8" x="74.74" y="-8256" width="29.91" height="32766" color-interpolation-filters="sRGB" filterUnits="userSpaceOnUse">
      <feFlood flood-color="#fff" result="bg"/>
      <feBlend in="SourceGraphic" in2="bg"/>
    </filter>
    <mask id="mask-7" x="74.74" y="-8256" width="29.91" height="32766" maskUnits="userSpaceOnUse"/>
    <radialGradient id="_Áåçûìÿííûé_ãðàäèåíò_108-3" data-name="Áåçûìÿííûé ãðàäèåíò 108" cx="89.7" cy="102.46" fx="89.7" fy="102.46" r="14.52" xlink:href="#_Áåçûìÿííûé_ãðàäèåíò_108"/>
    <mask id="mask-6" x="74.74" y="88.4" width="29.91" height="28.13" maskUnits="userSpaceOnUse">
      <g class="cls-14">
        <g class="cls-26">
          <path class="cls-2" d="m104.65,88.4s-1.42,20.65-29.91,28.13c0,0,19.58-8.54,29.91-28.13Z"/>
        </g>
      </g>
    </mask>
    <radialGradient id="_Áåçûìÿííûé_ãðàäèåíò_40-3" data-name="Áåçûìÿííûé ãðàäèåíò 40" cx="89.7" cy="102.46" fx="89.7" fy="102.46" r="14.52" xlink:href="#_Áåçûìÿííûé_ãðàäèåíò_40"/>
  </defs>
  <path class="cls-3" d="m31.69,97.25c-4.75-15.1-8.07-31.04-6-46.74,1.92-14.64,8.62-28.61,18.83-39.28,1.86-1.95,3.94-3.84,6.52-4.6,2.39-.7,4.96-.33,7.4.15,20.33,4.02,39.04,16.44,49.86,34.11,10.82,17.67,13.32,40.41,5.74,59.7-2.27,5.78-5.51,11.37-10.44,15.14-2.96,2.26-6.4,3.77-9.84,5.19-32.52,13.39-50.52,13.04-62.07-23.67Z"/>
  <path class="cls-9" d="m23.08,92c-4.75-15.1-8.07-31.04-6-46.74,1.92-14.64,8.62-28.61,18.83-39.28,1.86-1.95,3.94-3.84,6.52-4.6,2.39-.7,4.96-.33,7.4.15,20.33,4.02,39.04,16.44,49.86,34.11,10.82,17.67,13.32,40.41,5.74,59.7-2.27,5.78-5.51,11.37-10.44,15.14-2.96,2.26-6.4,3.77-9.84,5.19-32.52,13.39-50.52,13.04-62.07-23.67Z"/>
  <g class="cls-20">
    <g class="cls-25">
      <path class="cls-1" d="m26.6,89.39c-4.33-13.78-7.36-28.31-5.48-42.63,1.75-13.35,7.86-26.1,17.17-35.83,1.7-1.77,3.59-3.51,5.95-4.19,2.18-.64,4.52-.3,6.75.14,18.54,3.67,35.6,14.99,45.47,31.11,9.87,16.12,12.15,36.86,5.24,54.45-2.07,5.27-5.03,10.37-9.53,13.81-2.7,2.06-5.84,3.44-8.97,4.73-29.66,12.21-46.07,11.9-56.61-21.59Z"/>
    </g>
  </g>
  <g class="cls-19">
    <path class="cls-4" d="m44.39,24.18s.63,5.09,1.41,12.73c.38,3.82.83,8.28,1.25,13.05.46,4.77.82,9.87,1.22,14.97.2,2.55.47,5.09.75,7.6.29,2.51.54,4.97.6,7.36.06,2.39-.03,4.7-.22,6.9-.17,2.19-.4,4.27-.68,6.19-.27,1.92-.59,3.68-.92,5.24-.31,1.56-.68,2.92-.99,4.04-.31,1.12-.59,2-.8,2.6-.21.6-.34.92-.34.92h-.93s-.14-.3-.37-.9c-.23-.59-.54-1.47-.88-2.58-.34-1.11-.75-2.46-1.12-4.01-.38-1.55-.76-3.3-1.09-5.2-.34-1.91-.64-3.98-.87-6.16-.26-2.19-.42-4.5-.44-6.89-.01-2.39.16-4.86.37-7.38.21-2.51.39-5.07.51-7.62.24-5.1.43-10.21.75-15,.27-4.79.58-9.25.84-13.08.54-7.66,1.01-12.77,1.01-12.77h.93Z"/>
    <path class="cls-4" d="m44.79,32.22s.31.04.93.19c.65.15,1.51.43,2.61.87,2.18.86,5.12,2.44,8.46,4.57,3.28,2.1,7.12,4.54,11.19,7.21,2.04,1.33,4.16,2.69,6.27,4.12,1.06.71,2.13,1.43,3.2,2.15l1.61,1.08c.15.1.23.14.5.35.25.2.65.52,1.07,1.11l.15.23.07.12c.08.15-.07-.16.19.38l.05.11v.03s.08.18.08.18c.05.13.09.26.12.39.04.13.07.27.09.4l.04.29c.09.78-.04,1.52-.22,2.05-.38,1.1-.86,1.67-1.27,2.16-.21.24-.42.45-.62.64l-.49.44c-.48.43-.96.87-1.43,1.32-.94.89-1.88,1.78-2.8,2.66-1.85,1.77-3.68,3.49-5.57,5.02-1.89,1.52-3.81,2.87-5.7,4.08-1.87,1.22-3.69,2.32-5.4,3.27-1.71.97-3.33,1.79-4.78,2.5-1.45.71-2.77,1.26-3.86,1.71-1.09.45-1.97.76-2.59.97-.61.21-.95.3-.95.3l-.57-.73s.17-.31.51-.85c.34-.55.85-1.33,1.54-2.29.69-.96,1.53-2.11,2.56-3.36,1.02-1.25,2.2-2.63,3.54-4.07,1.33-1.45,2.82-2.96,4.44-4.49,1.61-1.55,3.37-3.11,5.29-4.59,1.92-1.48,4.02-2.87,6.18-4.26,1.07-.7,2.15-1.4,3.24-2.11.54-.35,1.08-.71,1.61-1.08l.2-.14.07-.04s.07-.04.08-.03c.03.02-.05.07-.22.55-.07.23-.15.64-.1,1.1l.03.17c.01.09.04.19.06.28.03.09.06.19.09.28l.05.12v-.03s-.05-.11-.05-.11c.25.52.09.19.16.32l.04.07.08.13c.23.32.4.41.4.41.02,0-.16-.14-.27-.24l-1.47-1.27c-.98-.84-1.95-1.68-2.92-2.52-1.94-1.65-3.82-3.33-5.64-4.94-3.66-3.21-7.03-6.26-9.93-8.87-1.43-1.29-2.74-2.45-3.96-3.41-1.21-.97-2.3-1.76-3.22-2.37-.92-.6-1.69-1.03-2.2-1.26-.25-.13-.48-.21-.62-.27-.15-.06-.22-.09-.22-.09l.26-.89Z"/>
  </g>
  <g>
    <path class="cls-13" d="m47.31,24.18s.43,5.09.94,12.74c.27,3.82.59,8.28.88,13.06.32,4.78.57,9.87.85,14.97.25,5.1.82,10.19.94,14.97.04,2.39,0,4.7-.1,6.9-.08,2.19-.24,4.27-.4,6.18-.15,1.92-.36,3.67-.54,5.23-.2,1.56-.4,2.92-.59,4.03-.38,2.24-.69,3.52-.69,3.52h-.58s-.35-1.26-.8-3.49c-.23-1.11-.47-2.46-.72-4.01-.23-1.55-.5-3.3-.7-5.21-.22-1.91-.44-3.98-.59-6.17-.17-2.19-.27-4.5-.31-6.89-.04-4.78.37-9.89.46-14.99.12-5.1.21-10.21.38-14.99.13-4.78.31-9.25.46-13.08.27-7.66.54-12.76.54-12.76h.58Z"/>
    <path class="cls-13" d="m47.83,32.39s.31.05.91.22c.62.17,1.47.47,2.53.94,2.13.92,4.97,2.6,8.21,4.81,3.22,2.19,6.98,4.73,10.97,7.5,2,1.39,4.06,2.82,6.15,4.28,1.04.73,2.09,1.47,3.15,2.22l1.59,1.12.46.33c.21.16.5.41.79.82l.11.16.05.09c.05.1-.04-.1.12.25l.05.11c.06.09.24.72.23.9.06.55-.03,1.07-.16,1.46-.28.8-.65,1.26-.99,1.65-.17.19-.35.37-.52.52l-.45.39-1.46,1.27c-.97.86-1.93,1.71-2.89,2.56-1.9,1.71-3.8,3.35-5.69,4.87-1.91,1.5-3.79,2.9-5.62,4.18-1.82,1.29-3.59,2.44-5.23,3.5-1.63,1.06-3.18,1.98-4.55,2.79-1.38.8-2.59,1.48-3.61,2.02-2.03,1.08-3.26,1.62-3.26,1.62l-.36-.45s.81-1.06,2.33-2.79c.76-.87,1.7-1.89,2.8-3.04,1.11-1.14,2.36-2.43,3.77-3.77,1.41-1.35,2.94-2.8,4.62-4.27,1.66-1.49,3.46-2.99,5.37-4.5,1.92-1.48,3.96-2.95,6.06-4.4,1.05-.73,2.1-1.47,3.16-2.21l1.58-1.13.31-.22c.07-.05.14-.1.18-.15.1-.08.12-.15.06.04-.02.09-.06.28-.04.51-.01.02.12.48.12.43l-.04-.11c.15.32.05.11.09.19l.02.03.04.06c.11.15.17.17.12.13-.03-.04-.19-.16-.31-.26l-1.5-1.23c-1-.82-1.99-1.64-2.97-2.45-1.96-1.63-3.89-3.24-5.76-4.79-3.74-3.11-7.19-6.05-10.15-8.57-2.93-2.51-5.52-4.39-7.43-5.54-.95-.57-1.74-.97-2.27-1.19-.54-.23-.86-.33-.86-.33l.16-.55Z"/>
  </g>
  <g class="cls-16">
    <path class="cls-12" d="m43.29,3.42S6.5,29.53,24.3,82.7c0,0-3.56-52.69,18.99-79.28Z"/>
  </g>
  <g class="cls-21">
    <path class="cls-6" d="m35.22,11.67s6.05-15.84,30.98-1.25c0,0-20.47-7.3-30.98,1.25Z"/>
  </g>
  <g class="cls-22">
    <path class="cls-7" d="m104.65,88.4s-1.42,20.65-29.91,28.13c0,0,19.58-8.54,29.91-28.13Z"/>
  </g>
  <path class="cls-5" d="m46.08,19.55c-.63,2.43-1.49,4.9-2.94,7-1.35,1.96-3.18,3.53-5.16,4.42-.36.16-.74.3-1.09.25-.32-.05-.58-.26-.82-.48-1.98-1.82-3.12-4.73-2.98-7.9s1.62-6.55,3.97-8.82c.7-.68,1.5-1.27,2.35-1.51.51-.14,1.01-.14,1.51-.13,4.7.1,6.7,1.25,5.16,7.17Z"/>
  <path class="cls-5" d="m36.63,38.42c-.14.94-.38,1.87-.95,2.61-.53.69-1.33,1.19-2.25,1.4-.17.04-.35.07-.53.02-.17-.04-.31-.15-.45-.25-1.13-.88-1.92-2.15-2.08-3.42-.16-1.27.33-2.53,1.33-3.28.3-.22.66-.4,1.06-.44.24-.02.5.02.75.06,2.36.39,3.45,1,3.12,3.29Z"/>
</svg>