<?xml version="1.0" encoding="UTF-8"?>
<svg id="Layer_1" data-name="Layer 1" xmlns="http://www.w3.org/2000/svg" xmlns:xlink="http://www.w3.org/1999/xlink" viewBox="0 0 128 128">
  <defs>
    <style>
      .cls-1 {
        fill: url(#_Áåçûìÿííûé_ãðàäèåíò_14);
      }

      .cls-1, .cls-2, .cls-3, .cls-4, .cls-5, .cls-6, .cls-7, .cls-8, .cls-9, .cls-10, .cls-11, .cls-12, .cls-13 {
        stroke-width: 0px;
      }

      .cls-2 {
        fill: url(#_Áåçûìÿííûé_ãðàäèåíò_108-3);
      }

      .cls-2, .cls-8, .cls-9, .cls-10 {
        mix-blend-mode: multiply;
      }

      .cls-3 {
        fill: #020202;
      }

      .cls-14 {
        filter: url(#luminosity-noclip-7);
      }

      .cls-15 {
        filter: url(#luminosity-noclip-5);
      }

      .cls-16 {
        mask: url(#mask-2);
      }

      .cls-17 {
        mask: url(#mask-3);
      }

      .cls-18 {
        mask: url(#mask-5);
      }

      .cls-19 {
        opacity: .4;
      }

      .cls-4, .cls-5 {
        fill: #fff;
      }

      .cls-5 {
        opacity: .6;
      }

      .cls-20 {
        opacity: .57;
      }

      .cls-21 {
        mask: url(#mask-4);
      }

      .cls-6 {
        fill: url(#_Áåçûìÿííûé_ãðàäèåíò_40-2);
      }

      .cls-7 {
        fill: url(#_Áåçûìÿííûé_ãðàäèåíò_40-3);
      }

      .cls-8 {
        fill: url(#_Áåçûìÿííûé_ãðàäèåíò_108-2);
      }

      .cls-22 {
        mask: url(#mask-6);
      }

      .cls-9 {
        fill: url(#_Áåçûìÿííûé_ãðàäèåíò_111);
      }

      .cls-23 {
        filter: url(#luminosity-noclip);
      }

      .cls-24 {
        mask: url(#mask-1);
      }

      .cls-25 {
        mask: url(#mask);
      }

      .cls-26 {
        mask: url(#mask-7);
      }

      .cls-10 {
        fill: url(#_Áåçûìÿííûé_ãðàäèåíò_108);
      }

      .cls-11 {
        fill: #d65db1;
      }

      .cls-12 {
        fill: url(#_Áåçûìÿííûé_ãðàäèåíò_40);
      }

      .cls-13 {
        fill: #171421;
      }

      .cls-27 {
        filter: url(#luminosity-noclip-3);
      }
    </style>
    <filter id="luminosity-noclip" x="25.92" y="8.86" width="72.08" height="106.4" color-interpolation-filters="sRGB" filterUnits="userSpaceOnUse">
      <feFlood flood-color="#fff" result="bg"/>
      <feBlend in="SourceGraphic" in2="bg"/>
    </filter>
    <filter id="luminosity-noclip-2" x="25.92" y="-8256" width="72.08" height="32766" color-interpolation-filters="sRGB" filterUnits="userSpaceOnUse">
      <feFlood flood-color="#fff" result="bg"/>
      <feBlend in="SourceGraphic" in2="bg"/>
    </filter>
    <mask id="mask-1" x="25.92" y="-8256" width="72.08" height="32766" maskUnits="userSpaceOnUse"/>
    <linearGradient id="_Áåçûìÿííûé_ãðàäèåíò_111" data-name="Áåçûìÿííûé ãðàäèåíò 111" x1="100.9" y1="98.52" x2="35.34" y2="32.96" gradientUnits="userSpaceOnUse">
      <stop offset="0" stop-color="#fff"/>
      <stop offset="1" stop-color="#000"/>
    </linearGradient>
    <mask id="mask" x="25.92" y="8.86" width="72.08" height="106.4" maskUnits="userSpaceOnUse">
      <g class="cls-23">
        <g class="cls-24">
          <path class="cls-9" d="m26.05,68.8c-.57,10.22.45,21.88,8.56,28.3,2.26,1.79,4.92,3.02,7.55,4.24,6.82,3.15,13.64,6.29,20.46,9.44,6.58,3.04,14.11,6.12,20.86,3.47,7.59-2.97,10.67-11.72,12.87-19.46,1.07-3.75,2.14-7.66,1.44-11.49-.59-3.23-2.39-6.1-3.89-9.03-4.49-8.81-6.38-18.64-8.22-28.33-1.39-7.34-2.36-32.91-8.91-36.36-5.96-3.14-19.02,4.83-24.19,8.07-18.31,11.49-25.39,30.62-26.52,51.15Z"/>
        </g>
      </g>
    </mask>
    <linearGradient id="_Áåçûìÿííûé_ãðàäèåíò_14" data-name="Áåçûìÿííûé ãðàäèåíò 14" x1="100.9" y1="98.52" x2="35.34" y2="32.96" gradientUnits="userSpaceOnUse">
      <stop offset="0" stop-color="#000"/>
      <stop offset="1" stop-color="#00c9a7"/>
    </linearGradient>
    <filter id="luminosity-noclip-3" x="23.11" y="9.1" width="36.64" height="57.31" color-interpolation-filters="sRGB" filterUnits="userSpaceOnUse">
      <feFlood flood-color="#fff" result="bg"/>
      <feBlend in="SourceGraphic" in2="bg"/>
    </filter>
    <filter id="luminosity-noclip-4" x="23.11" y="-8256" width="36.64" height="32766" color-interpolation-filters="sRGB" filterUnits="userSpaceOnUse">
      <feFlood flood-color="#fff" result="bg"/>
      <feBlend in="SourceGraphic" in2="bg"/>
    </filter>
    <mask id="mask-3" x="23.11" y="-8256" width="36.64" height="32766" maskUnits="userSpaceOnUse"/>
    <radialGradient id="_Áåçûìÿííûé_ãðàäèåíò_108" data-name="Áåçûìÿííûé ãðàäèåíò 108" cx="41.43" cy="37.75" fx="41.43" fy="37.75" r="24.05" gradientUnits="userSpaceOnUse">
      <stop offset="0" stop-color="#fff"/>
      <stop offset="1" stop-color="#333"/>
    </radialGradient>
    <mask id="mask-2" x="23.11" y="9.1" width="36.64" height="57.31" maskUnits="userSpaceOnUse">
      <g class="cls-27">
        <g class="cls-17">
          <path class="cls-10" d="m59.75,9.1s-31.24,14.56-36.64,57.31c0,0,13.62-37.81,36.64-57.31Z"/>
        </g>
      </g>
    </mask>
    <radialGradient id="_Áåçûìÿííûé_ãðàäèåíò_40" data-name="Áåçûìÿííûé ãðàäèåíò 40" cx="41.43" cy="37.75" fx="41.43" fy="37.75" r="24.05" gradientUnits="userSpaceOnUse">
      <stop offset="0" stop-color="#fff"/>
      <stop offset="1" stop-color="#fff"/>
    </radialGradient>
    <filter id="luminosity-noclip-5" x="67.5" y="59.59" width="33.26" height="61.65" color-interpolation-filters="sRGB" filterUnits="userSpaceOnUse">
      <feFlood flood-color="#fff" result="bg"/>
      <feBlend in="SourceGraphic" in2="bg"/>
    </filter>
    <filter id="luminosity-noclip-6" x="67.5" y="-8256" width="33.26" height="32766" color-interpolation-filters="sRGB" filterUnits="userSpaceOnUse">
      <feFlood flood-color="#fff" result="bg"/>
      <feBlend in="SourceGraphic" in2="bg"/>
    </filter>
    <mask id="mask-5" x="67.5" y="-8256" width="33.26" height="32766" maskUnits="userSpaceOnUse"/>
    <radialGradient id="_Áåçûìÿííûé_ãðàäèåíò_108-2" data-name="Áåçûìÿííûé ãðàäèåíò 108" cx="84.13" cy="90.42" fx="84.13" fy="90.42" r="24.77" xlink:href="#_Áåçûìÿííûé_ãðàäèåíò_108"/>
    <mask id="mask-4" x="67.5" y="59.59" width="33.26" height="61.65" maskUnits="userSpaceOnUse">
      <g class="cls-15">
        <g class="cls-18">
          <path class="cls-8" d="m88.64,59.59s6.81,16.91,10.57,23.25c0,0,6.11,7.28-5.87,31,0,0-5.87,11.74-25.84,5.64,0,0,44.86-3.76,21.14-59.89Z"/>
        </g>
      </g>
    </mask>
    <radialGradient id="_Áåçûìÿííûé_ãðàäèåíò_40-2" data-name="Áåçûìÿííûé ãðàäèåíò 40" cx="84.13" cy="90.42" fx="84.13" fy="90.42" r="24.77" xlink:href="#_Áåçûìÿííûé_ãðàäèåíò_40"/>
    <filter id="luminosity-noclip-7" x="63.5" y="3.85" width="20.9" height="19.1" color-interpolation-filters="sRGB" filterUnits="userSpaceOnUse">
      <feFlood flood-color="#fff" result="bg"/>
      <feBlend in="SourceGraphic" in2="bg"/>
    </filter>
    <filter id="luminosity-noclip-8" x="63.5" y="-8256" width="20.9" height="32766" color-interpolation-filters="sRGB" filterUnits="userSpaceOnUse">
      <feFlood flood-color="#fff" result="bg"/>
      <feBlend in="SourceGraphic" in2="bg"/>
    </filter>
    <mask id="mask-7" x="63.5" y="-8256" width="20.9" height="32766" maskUnits="userSpaceOnUse"/>
    <radialGradient id="_Áåçûìÿííûé_ãðàäèåíò_108-3" data-name="Áåçûìÿííûé ãðàäèåíò 108" cx="73.96" cy="13.4" fx="73.96" fy="13.4" r="10.01" xlink:href="#_Áåçûìÿííûé_ãðàäèåíò_108"/>
    <mask id="mask-6" x="63.5" y="3.85" width="20.9" height="19.1" maskUnits="userSpaceOnUse">
      <g class="cls-14">
        <g class="cls-26">
          <path class="cls-2" d="m63.5,6.98s20.43-13.62,20.9,15.97c0,0-3.29-22.08-20.9-15.97Z"/>
        </g>
      </g>
    </mask>
    <radialGradient id="_Áåçûìÿííûé_ãðàäèåíò_40-3" data-name="Áåçûìÿííûé ãðàäèåíò 40" cx="73.96" cy="13.4" fx="73.96" fy="13.4" r="10.01" xlink:href="#_Áåçûìÿííûé_ãðàäèåíò_40"/>
  </defs>
  <path class="cls-3" d="m31.15,73.53c-.66,11.95.53,25.59,10,33.1,2.64,2.1,5.75,3.54,8.83,4.95,7.97,3.68,15.95,7.36,23.92,11.04,7.69,3.55,16.5,7.15,24.39,4.06,8.87-3.48,12.48-13.71,15.05-22.76,1.25-4.39,2.5-8.96,1.68-13.44-.69-3.78-2.8-7.13-4.55-10.56-5.26-10.3-7.46-21.8-9.61-33.13-1.63-8.58-2.76-38.49-10.41-42.52-6.96-3.67-22.25,5.65-28.29,9.44-21.41,13.44-29.68,35.8-31.01,59.82Z"/>
  <path class="cls-11" d="m19.96,69.95c-.66,11.95.53,25.59,10,33.1,2.64,2.1,5.75,3.54,8.83,4.95,7.97,3.68,15.95,7.36,23.92,11.04,7.69,3.55,16.5,7.15,24.39,4.06,8.87-3.48,12.48-13.71,15.05-22.76,1.25-4.39,2.5-8.96,1.68-13.44-.69-3.78-2.8-7.13-4.55-10.56-5.26-10.3-7.46-21.8-9.61-33.13-1.63-8.58-2.76-38.49-10.41-42.52-6.96-3.67-22.25,5.65-28.29,9.44-21.41,13.44-29.68,35.8-31.01,59.82Z"/>
  <g class="cls-20">
    <g class="cls-25">
      <path class="cls-1" d="m26.05,68.8c-.57,10.22.45,21.88,8.56,28.3,2.26,1.79,4.92,3.02,7.55,4.24,6.82,3.15,13.64,6.29,20.46,9.44,6.58,3.04,14.11,6.12,20.86,3.47,7.59-2.97,10.67-11.72,12.87-19.46,1.07-3.75,2.14-7.66,1.44-11.49-.59-3.23-2.39-6.1-3.89-9.03-4.49-8.81-6.38-18.64-8.22-28.33-1.39-7.34-2.36-32.91-8.91-36.36-5.96-3.14-19.02,4.83-24.19,8.07-18.31,11.49-25.39,30.62-26.52,51.15Z"/>
    </g>
  </g>
  <g class="cls-19">
    <path class="cls-4" d="m70.79,23.92s-.77,1.44-2.11,3.97c-1.35,2.54-3.41,6.08-6,10.28-1.3,2.09-2.73,4.36-4.29,6.71-1.55,2.37-3.28,4.81-5.09,7.31-1.81,2.51-3.73,5.07-5.77,7.6-1.01,1.27-2.05,2.54-3.1,3.81l-1.59,1.9-.77.92c-.17.21-.21.34-.08.14.06-.1.15-.31.2-.58.02-.13.03-.31.03-.36-.02-.26-.03-.29-.04-.4-.03-.16-.05-.21-.02-.18l.08.11.03.05.02.02c-.09-.16-.01-.03-.03-.05l.09.13c.45.66.94,1.41,1.36,1.89.82,1.07,1.89,2.23,2.9,3.29,2.11,2.14,4.34,4.2,6.48,6.37,2.13,2.19,4.17,4.49,5.93,6.9.91,1.21,1.67,2.4,2.49,3.69.62,1.1,1.36,2.42,1.89,3.52,1.11,2.26,1.97,4.3,2.78,6.06.81,1.75,1.51,3.25,2.19,4.46.35.6.66,1.14.93,1.6.3.46.56.85.76,1.17.45.63.68.97.68.97l-.54.74s-.41-.14-1.17-.46c-.74-.34-1.84-.89-3.09-1.79-1.26-.89-2.72-2.1-4.18-3.62-1.48-1.5-2.99-3.27-4.53-5.11-.77-.89-1.58-1.81-2.41-2.77-.76-.83-1.68-1.78-2.58-2.7-1.86-1.86-3.92-3.82-6.03-6.04-2.09-2.23-4.24-4.73-6.23-7.53-1-1.44-1.95-2.81-2.9-4.47-.51-.85-.83-1.51-1.23-2.24l-.21-.38-.21-.43c-.15-.33-.33-.76-.47-1.31-.07-.31-.12-.53-.15-1-.02-.25,0-.64.04-.97.09-.68.31-1.28.55-1.75.49-.94.99-1.44,1.36-1.83l.89-.88,1.72-1.69c1.13-1.14,2.26-2.27,3.36-3.41,2.19-2.29,4.37-4.54,6.41-6.78,2.06-2.22,3.98-4.44,5.82-6.53,1.84-2.09,3.53-4.11,5.08-5.99,1.55-1.88,2.94-3.63,4.16-5.19,1.21-1.57,2.26-2.94,3.13-4.07,1.72-2.28,2.7-3.59,2.7-3.59l.77.49Z"/>
  </g>
  <path class="cls-13" d="m75.58,23.83s-.81,1.42-2.23,3.9c-1.43,2.49-3.56,5.97-6.24,10.09-2.69,4.11-5.93,8.85-9.67,13.74-1.85,2.46-3.82,4.96-5.89,7.45-1.03,1.25-2.08,2.49-3.15,3.74l-1.61,1.86-.79.91c-.21.24-.33.45-.32.46,0,0,.04-.05.06-.14.01-.04.01-.12.02-.11v-.14c-.03-.08.11.2.29.45.45.67.9,1.4,1.34,1.96.84,1.18,1.88,2.39,2.89,3.52,2.09,2.26,4.3,4.41,6.44,6.59,2.12,2.2,4.18,4.42,5.94,6.75.9,1.16,1.7,2.3,2.51,3.5.68,1.09,1.39,2.32,1.98,3.39,1.2,2.18,2.17,4.18,3.11,5.88.92,1.71,1.79,3.15,2.56,4.3.77,1.16,1.48,2,1.96,2.59.51.57.78.87.78.87l-.34.46s-.37-.19-1.08-.56c-.69-.39-1.69-1.01-2.83-1.97-1.16-.94-2.45-2.23-3.8-3.78-1.34-1.56-2.74-3.36-4.2-5.29-.75-.98-1.45-1.87-2.32-2.91-.76-.91-1.64-1.93-2.56-2.89-1.91-1.97-3.93-4.05-6.02-6.19-2.1-2.22-4.26-4.64-6.28-7.31-1-1.37-1.97-2.7-2.91-4.24-.5-.77-.85-1.46-1.26-2.18-.24-.44-.51-.88-.75-1.75-.05-.23-.09-.41-.11-.74-.01-.2,0-.48.03-.72.07-.5.23-.95.41-1.31.37-.73.78-1.15,1.12-1.51l.87-.88,1.69-1.73c1.12-1.16,2.23-2.32,3.31-3.49,2.16-2.34,4.29-4.65,6.29-6.94,2.01-2.28,3.9-4.53,5.68-6.68,1.79-2.14,3.43-4.21,4.93-6.13,3.01-3.84,5.38-7.15,7.05-9.45,1.65-2.33,2.59-3.66,2.59-3.66l.48.31Z"/>
  <g class="cls-16">
    <path class="cls-12" d="m59.75,9.1s-31.24,14.56-36.64,57.31c0,0,13.62-37.81,36.64-57.31Z"/>
  </g>
  <g class="cls-21">
    <path class="cls-6" d="m88.64,59.59s6.81,16.91,10.57,23.25c0,0,6.11,7.28-5.87,31,0,0-5.87,11.74-25.84,5.64,0,0,44.86-3.76,21.14-59.89Z"/>
  </g>
  <g class="cls-22">
    <path class="cls-7" d="m63.5,6.98s20.43-13.62,20.9,15.97c0,0-3.29-22.08-20.9-15.97Z"/>
  </g>
  <path class="cls-5" d="m37.39,30.37c0,.42.02.88.3,1.2.18.21.43.33.68.42,2.36.83,4.87-.68,6.78-2.31,3.25-2.77,6.09-6.19,7.34-10.27.26-.86.41-1.91-.21-2.56-.42-.43-1.05-.54-1.64-.63-6.3-.94-13.11,8.1-13.24,14.15Z"/>
  <path class="cls-5" d="m36.44,41.94c1.32.06,2.6-.55,3.61-1.4,1.01-.85,1.79-1.94,2.55-3.02,1.92-2.69.03-5.28-2.71-2.97-.65.55-4.17,7.35-3.45,7.38Z"/>
</svg>