<?xml version="1.0" encoding="UTF-8"?>
<svg id="Layer_1" data-name="Layer 1" xmlns="http://www.w3.org/2000/svg" xmlns:xlink="http://www.w3.org/1999/xlink" viewBox="0 0 128 128">
  <defs>
    <style>
      .cls-1 {
        fill: url(#_Áåçûìÿííûé_ãðàäèåíò_14);
      }

      .cls-1, .cls-2, .cls-3, .cls-4, .cls-5, .cls-6, .cls-7, .cls-8, .cls-9, .cls-10, .cls-11, .cls-12, .cls-13, .cls-14, .cls-15 {
        stroke-width: 0px;
      }

      .cls-2 {
        fill: url(#_Áåçûìÿííûé_ãðàäèåíò_108-3);
      }

      .cls-2, .cls-8, .cls-10, .cls-12, .cls-13 {
        mix-blend-mode: multiply;
      }

      .cls-3 {
        fill: #020202;
      }

      .cls-16 {
        filter: url(#luminosity-noclip-7);
      }

      .cls-17 {
        filter: url(#luminosity-noclip-5);
      }

      .cls-18 {
        mask: url(#mask-2);
      }

      .cls-19 {
        mask: url(#mask-3);
      }

      .cls-20 {
        mask: url(#mask-9);
      }

      .cls-21 {
        mask: url(#mask-5);
      }

      .cls-22 {
        opacity: .4;
      }

      .cls-4, .cls-5 {
        fill: #fff;
      }

      .cls-23 {
        filter: url(#luminosity-noclip-9);
      }

      .cls-5 {
        opacity: .6;
      }

      .cls-24 {
        opacity: .57;
      }

      .cls-25 {
        mask: url(#mask-8);
      }

      .cls-26 {
        mask: url(#mask-4);
      }

      .cls-6 {
        fill: url(#_Áåçûìÿííûé_ãðàäèåíò_40-2);
      }

      .cls-7 {
        fill: url(#_Áåçûìÿííûé_ãðàäèåíò_40-3);
      }

      .cls-8 {
        fill: url(#_Áåçûìÿííûé_ãðàäèåíò_108-2);
      }

      .cls-27 {
        mask: url(#mask-6);
      }

      .cls-9 {
        fill: #00c9a7;
      }

      .cls-10 {
        fill: url(#_Áåçûìÿííûé_ãðàäèåíò_111);
      }

      .cls-28 {
        filter: url(#luminosity-noclip);
      }

      .cls-29 {
        mask: url(#mask-1);
      }

      .cls-30 {
        mask: url(#mask);
      }

      .cls-31 {
        mask: url(#mask-7);
      }

      .cls-11 {
        fill: url(#_Áåçûìÿííûé_ãðàäèåíò_40-4);
      }

      .cls-12 {
        fill: url(#_Áåçûìÿííûé_ãðàäèåíò_108);
      }

      .cls-13 {
        fill: url(#_Áåçûìÿííûé_ãðàäèåíò_108-4);
      }

      .cls-14 {
        fill: url(#_Áåçûìÿííûé_ãðàäèåíò_40);
      }

      .cls-15 {
        fill: #171421;
      }

      .cls-32 {
        filter: url(#luminosity-noclip-3);
      }
    </style>
    <filter id="luminosity-noclip" x="30.17" y="5.03" width="59.79" height="114.75" color-interpolation-filters="sRGB" filterUnits="userSpaceOnUse">
      <feFlood flood-color="#fff" result="bg"/>
      <feBlend in="SourceGraphic" in2="bg"/>
    </filter>
    <filter id="luminosity-noclip-2" x="30.17" y="-8256" width="59.79" height="32766" color-interpolation-filters="sRGB" filterUnits="userSpaceOnUse">
      <feFlood flood-color="#fff" result="bg"/>
      <feBlend in="SourceGraphic" in2="bg"/>
    </filter>
    <mask id="mask-1" x="30.17" y="-8256" width="59.79" height="32766" maskUnits="userSpaceOnUse"/>
    <linearGradient id="_Áåçûìÿííûé_ãðàäèåíò_111" data-name="Áåçûìÿííûé ãðàäèåíò 111" x1="89.16" y1="94.73" x2="26.47" y2="32.05" gradientUnits="userSpaceOnUse">
      <stop offset="0" stop-color="#fff"/>
      <stop offset="1" stop-color="#000"/>
    </linearGradient>
    <mask id="mask" x="30.17" y="5.03" width="59.79" height="114.75" maskUnits="userSpaceOnUse">
      <g class="cls-28">
        <g class="cls-29">
          <path class="cls-10" d="m30.19,76.55c-.32-10.23,3.74-20.19,3.71-30.43-.01-5.34-1.13-10.73-.13-15.97,2.5-13.15,16.63-20.12,29.04-25.12,10.07,9.43,15.31,22.79,20.24,35.67,3.57,9.34,7.2,18.98,6.89,28.98-.37,11.85-6.22,22.74-11.92,33.14-21.05,38.36-46.89,3.81-47.83-26.27Z"/>
        </g>
      </g>
    </mask>
    <linearGradient id="_Áåçûìÿííûé_ãðàäèåíò_14" data-name="Áåçûìÿííûé ãðàäèåíò 14" x1="89.16" y1="94.73" x2="26.47" y2="32.05" gradientUnits="userSpaceOnUse">
      <stop offset="0" stop-color="#000"/>
      <stop offset="1" stop-color="#00c9a7"/>
    </linearGradient>
    <filter id="luminosity-noclip-3" x="34.55" y="10.38" width="14.43" height="25.71" color-interpolation-filters="sRGB" filterUnits="userSpaceOnUse">
      <feFlood flood-color="#fff" result="bg"/>
      <feBlend in="SourceGraphic" in2="bg"/>
    </filter>
    <filter id="luminosity-noclip-4" x="34.55" y="-8256" width="14.43" height="32766" color-interpolation-filters="sRGB" filterUnits="userSpaceOnUse">
      <feFlood flood-color="#fff" result="bg"/>
      <feBlend in="SourceGraphic" in2="bg"/>
    </filter>
    <mask id="mask-3" x="34.55" y="-8256" width="14.43" height="32766" maskUnits="userSpaceOnUse"/>
    <radialGradient id="_Áåçûìÿííûé_ãðàäèåíò_108" data-name="Áåçûìÿííûé ãðàäèåíò 108" cx="41.77" cy="23.23" fx="41.77" fy="23.23" r="10.43" gradientUnits="userSpaceOnUse">
      <stop offset="0" stop-color="#fff"/>
      <stop offset="1" stop-color="#333"/>
    </radialGradient>
    <mask id="mask-2" x="34.55" y="10.38" width="14.43" height="25.71" maskUnits="userSpaceOnUse">
      <g class="cls-32">
        <g class="cls-19">
          <path class="cls-12" d="m48.99,10.38s-18.81,9.09-13.48,25.71c0,0,1.57-13.8,13.48-25.71Z"/>
        </g>
      </g>
    </mask>
    <radialGradient id="_Áåçûìÿííûé_ãðàäèåíò_40" data-name="Áåçûìÿííûé ãðàäèåíò 40" cx="41.77" cy="23.23" fx="41.77" fy="23.23" r="10.43" gradientUnits="userSpaceOnUse">
      <stop offset="0" stop-color="#fff"/>
      <stop offset="1" stop-color="#fff"/>
    </radialGradient>
    <filter id="luminosity-noclip-5" x="43.03" y="94.73" width="38.25" height="25.17" color-interpolation-filters="sRGB" filterUnits="userSpaceOnUse">
      <feFlood flood-color="#fff" result="bg"/>
      <feBlend in="SourceGraphic" in2="bg"/>
    </filter>
    <filter id="luminosity-noclip-6" x="43.03" y="-8256" width="38.25" height="32766" color-interpolation-filters="sRGB" filterUnits="userSpaceOnUse">
      <feFlood flood-color="#fff" result="bg"/>
      <feBlend in="SourceGraphic" in2="bg"/>
    </filter>
    <mask id="mask-5" x="43.03" y="-8256" width="38.25" height="32766" maskUnits="userSpaceOnUse"/>
    <radialGradient id="_Áåçûìÿííûé_ãðàäèåíò_108-2" data-name="Áåçûìÿííûé ãðàäèåíò 108" cx="62.16" cy="107.31" fx="62.16" fy="107.31" r="16.19" xlink:href="#_Áåçûìÿííûé_ãðàäèåíò_108"/>
    <mask id="mask-4" x="43.03" y="94.73" width="38.25" height="25.17" maskUnits="userSpaceOnUse">
      <g class="cls-17">
        <g class="cls-21">
          <path class="cls-8" d="m43.03,114.48s23.2,21.01,38.25-19.75c0,0-17.56,32.92-38.25,19.75Z"/>
        </g>
      </g>
    </mask>
    <radialGradient id="_Áåçûìÿííûé_ãðàäèåíò_40-2" data-name="Áåçûìÿííûé ãðàäèåíò 40" cx="62.16" cy="107.31" fx="62.16" fy="107.31" r="16.19" xlink:href="#_Áåçûìÿííûé_ãðàäèåíò_40"/>
    <filter id="luminosity-noclip-7" x="30.69" y="52.39" width="16.1" height="64.59" color-interpolation-filters="sRGB" filterUnits="userSpaceOnUse">
      <feFlood flood-color="#fff" result="bg"/>
      <feBlend in="SourceGraphic" in2="bg"/>
    </filter>
    <filter id="luminosity-noclip-8" x="30.69" y="-8256" width="16.1" height="32766" color-interpolation-filters="sRGB" filterUnits="userSpaceOnUse">
      <feFlood flood-color="#fff" result="bg"/>
      <feBlend in="SourceGraphic" in2="bg"/>
    </filter>
    <mask id="mask-7" x="30.69" y="-8256" width="16.1" height="32766" maskUnits="userSpaceOnUse"/>
    <radialGradient id="_Áåçûìÿííûé_ãðàäèåíò_108-3" data-name="Áåçûìÿííûé ãðàäèåíò 108" cx="38.74" cy="84.69" fx="38.74" fy="84.69" r="23.54" xlink:href="#_Áåçûìÿííûé_ãðàäèåíò_108"/>
    <mask id="mask-6" x="30.69" y="52.39" width="16.1" height="64.59" maskUnits="userSpaceOnUse">
      <g class="cls-16">
        <g class="cls-31">
          <path class="cls-2" d="m34.88,52.39s-15.05,41.7,11.92,64.59c0,0-17.25-22.89-11.92-64.59Z"/>
        </g>
      </g>
    </mask>
    <radialGradient id="_Áåçûìÿííûé_ãðàäèåíò_40-3" data-name="Áåçûìÿííûé ãðàäèåíò 40" cx="38.74" cy="84.69" fx="38.74" fy="84.69" r="23.54" xlink:href="#_Áåçûìÿííûé_ãðàäèåíò_40"/>
    <filter id="luminosity-noclip-9" x="54.63" y="3.41" width="13.48" height="7.91" color-interpolation-filters="sRGB" filterUnits="userSpaceOnUse">
      <feFlood flood-color="#fff" result="bg"/>
      <feBlend in="SourceGraphic" in2="bg"/>
    </filter>
    <filter id="luminosity-noclip-10" x="54.63" y="-8256" width="13.48" height="32766" color-interpolation-filters="sRGB" filterUnits="userSpaceOnUse">
      <feFlood flood-color="#fff" result="bg"/>
      <feBlend in="SourceGraphic" in2="bg"/>
    </filter>
    <mask id="mask-9" x="54.63" y="-8256" width="13.48" height="32766" maskUnits="userSpaceOnUse"/>
    <radialGradient id="_Áåçûìÿííûé_ãðàäèåíò_108-4" data-name="Áåçûìÿííûé ãðàäèåíò 108" cx="61.37" cy="7.36" fx="61.37" fy="7.36" r="5.53" xlink:href="#_Áåçûìÿííûé_ãðàäèåíò_108"/>
    <mask id="mask-8" x="54.63" y="3.41" width="13.48" height="7.91" maskUnits="userSpaceOnUse">
      <g class="cls-23">
        <g class="cls-20">
          <path class="cls-13" d="m54.63,6.61s9.72-9.72,13.48,4.7c0,0-5.33-9.09-13.48-4.7Z"/>
        </g>
      </g>
    </mask>
    <radialGradient id="_Áåçûìÿííûé_ãðàäèåíò_40-4" data-name="Áåçûìÿííûé ãðàäèåíò 40" cx="61.37" cy="7.36" fx="61.37" fy="7.36" r="5.53" xlink:href="#_Áåçûìÿííûé_ãðàäèåíò_40"/>
  </defs>
  <path class="cls-3" d="m35.52,80.66c-.35-11.16,4.08-22.03,4.05-33.19-.01-5.82-1.23-11.7-.15-17.42,2.73-14.34,18.14-21.95,31.68-27.4,10.99,10.29,16.7,24.86,22.08,38.91,3.9,10.19,7.85,20.71,7.51,31.61-.41,12.93-6.78,24.81-13,36.15-22.96,41.84-51.15,4.16-52.17-28.65Z"/>
  <path class="cls-9" d="m27.47,77.84c-.35-11.16,4.08-22.03,4.05-33.19-.01-5.82-1.23-11.7-.15-17.42C34.11,12.87,49.52,5.27,63.06-.19c10.99,10.29,16.7,24.86,22.08,38.91,3.9,10.19,7.85,20.71,7.51,31.61-.41,12.93-6.78,24.81-13,36.15-22.96,41.84-51.15,4.16-52.17-28.65Z"/>
  <g class="cls-24">
    <g class="cls-30">
      <path class="cls-1" d="m30.19,76.55c-.32-10.23,3.74-20.19,3.71-30.43-.01-5.34-1.13-10.73-.13-15.97,2.5-13.15,16.63-20.12,29.04-25.12,10.07,9.43,15.31,22.79,20.24,35.67,3.57,9.34,7.2,18.98,6.89,28.98-.37,11.85-6.22,22.74-11.92,33.14-21.05,38.36-46.89,3.81-47.83-26.27Z"/>
    </g>
  </g>
  <g class="cls-22">
    <path class="cls-4" d="m54.93,29.74s.56,4.29,1.25,10.73c.34,3.22.73,6.97,1.1,11,.41,4.02.72,8.32,1.08,12.61.18,2.15.41,4.29.66,6.4.25,2.11.48,4.19.53,6.2.05,2.01-.03,3.96-.19,5.81-.15,1.85-.35,3.6-.6,5.22-.24,1.62-.52,3.1-.81,4.41-.28,1.31-.6,2.46-.87,3.41-.27.95-.52,1.69-.71,2.19-.18.51-.3.78-.3.78h-.81s-.12-.25-.32-.75c-.2-.5-.48-1.23-.78-2.17-.3-.94-.66-2.07-.98-3.38-.33-1.3-.67-2.78-.96-4.38-.3-1.61-.56-3.35-.77-5.19-.23-1.84-.37-3.79-.39-5.8-.01-2.02.14-4.1.32-6.22.18-2.12.35-4.27.45-6.42.21-4.3.38-8.6.65-12.64.23-4.03.51-7.8.74-11.03.48-6.46.89-10.76.89-10.76h.81Z"/>
    <path class="cls-4" d="m43.44,45.66s1.59.23,3.92.71c1.16.25,2.51.53,3.94.88,1.44.32,2.94.75,4.43,1.18,1.48.46,3.18.48,4.49,1.07.66.3,1.23.7,1.74,1.16.52.45.98.93,1.38,1.42.4.49.75.99,1.03,1.48.14.25.27.48.39.7.11.24.21.46.3.66.18.41.3.75.38,1.01.07.26.11.4.11.4l-.35.73s-.13.05-.38.16c-.25.1-.6.22-1.03.33-.21.05-.45.11-.7.17-.24.04-.51.08-.79.13-.56.09-1.17.13-1.8.12-.64,0-1.3-.06-1.97-.19-.68-.11-1.35-.31-1.99-.64-1.28-.66-2.35-1.97-3.63-2.85-1.27-.9-2.53-1.81-3.68-2.74-1.16-.9-2.23-1.78-3.14-2.54-1.82-1.53-2.99-2.63-2.99-2.63l.35-.73Z"/>
  </g>
  <g>
    <path class="cls-15" d="m57.6,29.75s.38,4.29.83,10.73c.24,3.22.52,6.98.77,11,.28,4.03.5,8.32.75,12.62.22,4.3.72,8.59.83,12.62.03,2.01,0,3.96-.08,5.81-.07,1.85-.21,3.6-.35,5.21-.13,1.61-.31,3.1-.48,4.41-.18,1.31-.35,2.46-.52,3.4-.33,1.89-.61,2.97-.61,2.97h-.51s-.31-1.06-.71-2.94c-.2-.94-.41-2.08-.63-3.38-.21-1.31-.44-2.78-.62-4.39-.19-1.61-.39-3.35-.52-5.2-.15-1.84-.24-3.79-.28-5.81-.03-4.03.33-8.34.41-12.64.1-4.3.18-8.6.33-12.63.12-4.03.28-7.8.41-11.02.24-6.45.47-10.76.47-10.76h.51Z"/>
    <path class="cls-15" d="m46.2,45.8s1.51.39,3.74,1.07c1.11.34,2.41.74,3.79,1.19,1.39.43,2.83.97,4.29,1.47,1.45.53,3.02.81,4.33,1.41,1.3.61,2.38,1.46,3.28,2.26.45.4.84.8,1.17,1.18.34.38.62.73.84,1.05.45.62.66,1.05.66,1.05l-.22.46s-.47.1-1.24.13c-.38.02-.83.02-1.34,0-.51-.02-1.07-.08-1.66-.18-1.18-.21-2.52-.53-3.8-1.16-1.28-.66-2.47-1.71-3.79-2.52-1.3-.83-2.62-1.63-3.82-2.45-1.21-.8-2.33-1.57-3.29-2.23-1.91-1.33-3.16-2.27-3.16-2.27l.22-.46Z"/>
  </g>
  <g class="cls-18">
    <path class="cls-14" d="m48.99,10.38s-18.81,9.09-13.48,25.71c0,0,1.57-13.8,13.48-25.71Z"/>
  </g>
  <g class="cls-26">
    <path class="cls-6" d="m43.03,114.48s23.2,21.01,38.25-19.75c0,0-17.56,32.92-38.25,19.75Z"/>
  </g>
  <g class="cls-27">
    <path class="cls-7" d="m34.88,52.39s-15.05,41.7,11.92,64.59c0,0-17.25-22.89-11.92-64.59Z"/>
  </g>
  <g class="cls-25">
    <path class="cls-11" d="m54.63,6.61s9.72-9.72,13.48,4.7c0,0-5.33-9.09-13.48-4.7Z"/>
  </g>
  <path class="cls-5" d="m38.64,32.81c.01.76.14,1.64.79,2.04.3.19.67.24,1.03.28,1.31.16,2.67.32,3.92-.08,2.98-.96,4.11-4.57,4.43-7.68.35-3.34.95-14.61-4.39-8.61-3.37,3.78-5.87,8.94-5.78,14.05Z"/>
  <path class="cls-5" d="m40.09,39.19c-.66-.74-1.93-.97-2.67-.37-.35.05-.67.68-.67,1.15,0,.88,0,1.76,0,2.65,0,.22,0,.45.13.62.14.19.39.26.62.31.53.13,1.05.26,1.58.39.32.08.65.15.96.06.66-.2.86-1.04.89-1.73.04-1.09-.11-2.27-.84-3.08Z"/>
</svg>