<?xml version="1.0" encoding="UTF-8"?>
<svg id="Layer_1" data-name="Layer 1" xmlns="http://www.w3.org/2000/svg" xmlns:xlink="http://www.w3.org/1999/xlink" viewBox="0 0 128 128">
  <defs>
    <style>
      .cls-1 {
        fill: url(#_Áåçûìÿííûé_ãðàäèåíò_14);
      }

      .cls-1, .cls-2, .cls-3, .cls-4, .cls-5, .cls-6, .cls-7, .cls-8, .cls-9, .cls-10, .cls-11, .cls-12, .cls-13 {
        stroke-width: 0px;
      }

      .cls-2 {
        fill: url(#_Áåçûìÿííûé_ãðàäèåíò_108-3);
      }

      .cls-2, .cls-9, .cls-10, .cls-11 {
        mix-blend-mode: multiply;
      }

      .cls-3 {
        fill: #020202;
      }

      .cls-14 {
        filter: url(#luminosity-noclip-7);
      }

      .cls-15 {
        filter: url(#luminosity-noclip-5);
      }

      .cls-16 {
        mask: url(#mask-2);
      }

      .cls-17 {
        mask: url(#mask-3);
      }

      .cls-4 {
        fill: #f9f871;
      }

      .cls-18 {
        mask: url(#mask-5);
      }

      .cls-19 {
        opacity: .4;
      }

      .cls-5, .cls-6 {
        fill: #fff;
      }

      .cls-6 {
        opacity: .6;
      }

      .cls-20 {
        opacity: .57;
      }

      .cls-21 {
        mask: url(#mask-4);
      }

      .cls-7 {
        fill: url(#_Áåçûìÿííûé_ãðàäèåíò_40-2);
      }

      .cls-8 {
        fill: url(#_Áåçûìÿííûé_ãðàäèåíò_40-3);
      }

      .cls-9 {
        fill: url(#_Áåçûìÿííûé_ãðàäèåíò_108-2);
      }

      .cls-22 {
        mask: url(#mask-6);
      }

      .cls-10 {
        fill: url(#_Áåçûìÿííûé_ãðàäèåíò_111);
      }

      .cls-23 {
        filter: url(#luminosity-noclip);
      }

      .cls-24 {
        mask: url(#mask-1);
      }

      .cls-25 {
        mask: url(#mask);
      }

      .cls-26 {
        mask: url(#mask-7);
      }

      .cls-11 {
        fill: url(#_Áåçûìÿííûé_ãðàäèåíò_108);
      }

      .cls-12 {
        fill: url(#_Áåçûìÿííûé_ãðàäèåíò_40);
      }

      .cls-13 {
        fill: #171421;
      }

      .cls-27 {
        filter: url(#luminosity-noclip-3);
      }
    </style>
    <filter id="luminosity-noclip" x="32.27" y="7.38" width="63.7" height="112.4" color-interpolation-filters="sRGB" filterUnits="userSpaceOnUse">
      <feFlood flood-color="#fff" result="bg"/>
      <feBlend in="SourceGraphic" in2="bg"/>
    </filter>
    <filter id="luminosity-noclip-2" x="32.27" y="-8256" width="63.7" height="32766" color-interpolation-filters="sRGB" filterUnits="userSpaceOnUse">
      <feFlood flood-color="#fff" result="bg"/>
      <feBlend in="SourceGraphic" in2="bg"/>
    </filter>
    <mask id="mask-1" x="32.27" y="-8256" width="63.7" height="32766" maskUnits="userSpaceOnUse"/>
    <linearGradient id="_Áåçûìÿííûé_ãðàäèåíò_111" data-name="Áåçûìÿííûé ãðàäèåíò 111" x1="91.56" y1="98.83" x2="23.14" y2="30.41" gradientUnits="userSpaceOnUse">
      <stop offset="0" stop-color="#fff"/>
      <stop offset="1" stop-color="#000"/>
    </linearGradient>
    <mask id="mask" x="32.27" y="7.38" width="63.7" height="112.4" maskUnits="userSpaceOnUse">
      <g class="cls-23">
        <g class="cls-24">
          <path class="cls-10" d="m32.73,47.69c-.14-8.82-.26-17.83,2.41-26.24.72-2.25,1.65-4.48,3.22-6.24,2.44-2.74,6.07-4.03,9.54-5.22,6.02-2.06,12.85-4.07,18.52-1.17,4.75,2.43,7.28,7.64,9.39,12.54,7.59,17.66,13.83,35.89,18.65,54.49.7,2.71,1.38,5.44,1.49,8.24.76,19.28-35.25,44.93-52.31,32.35-15.28-11.27-10.66-52.84-10.91-68.74Z"/>
        </g>
      </g>
    </mask>
    <linearGradient id="_Áåçûìÿííûé_ãðàäèåíò_14" data-name="Áåçûìÿííûé ãðàäèåíò 14" x1="91.56" y1="98.83" x2="23.14" y2="30.41" gradientUnits="userSpaceOnUse">
      <stop offset="0" stop-color="#000"/>
      <stop offset="1" stop-color="#00c9a7"/>
    </linearGradient>
    <filter id="luminosity-noclip-3" x="32" y="5.59" width="17.63" height="36.99" color-interpolation-filters="sRGB" filterUnits="userSpaceOnUse">
      <feFlood flood-color="#fff" result="bg"/>
      <feBlend in="SourceGraphic" in2="bg"/>
    </filter>
    <filter id="luminosity-noclip-4" x="32" y="-8256" width="17.63" height="32766" color-interpolation-filters="sRGB" filterUnits="userSpaceOnUse">
      <feFlood flood-color="#fff" result="bg"/>
      <feBlend in="SourceGraphic" in2="bg"/>
    </filter>
    <mask id="mask-3" x="32" y="-8256" width="17.63" height="32766" maskUnits="userSpaceOnUse"/>
    <radialGradient id="_Áåçûìÿííûé_ãðàäèåíò_108" data-name="Áåçûìÿííûé ãðàäèåíò 108" cx="40.82" cy="24.09" fx="40.82" fy="24.09" r="14.49" gradientUnits="userSpaceOnUse">
      <stop offset="0" stop-color="#fff"/>
      <stop offset="1" stop-color="#333"/>
    </radialGradient>
    <mask id="mask-2" x="32" y="5.59" width="17.63" height="36.99" maskUnits="userSpaceOnUse">
      <g class="cls-27">
        <g class="cls-17">
          <path class="cls-11" d="m49.64,5.59s-20.28-.31-17.34,36.99c0,0,1.36-27.46,17.34-36.99Z"/>
        </g>
      </g>
    </mask>
    <radialGradient id="_Áåçûìÿííûé_ãðàäèåíò_40" data-name="Áåçûìÿííûé ãðàäèåíò 40" cx="40.82" cy="24.09" fx="40.82" fy="24.09" r="14.49" gradientUnits="userSpaceOnUse">
      <stop offset="0" stop-color="#fff"/>
      <stop offset="1" stop-color="#fff"/>
    </radialGradient>
    <filter id="luminosity-noclip-5" x="82.39" y="70.88" width="13.08" height="39.19" color-interpolation-filters="sRGB" filterUnits="userSpaceOnUse">
      <feFlood flood-color="#fff" result="bg"/>
      <feBlend in="SourceGraphic" in2="bg"/>
    </filter>
    <filter id="luminosity-noclip-6" x="82.39" y="-8256" width="13.08" height="32766" color-interpolation-filters="sRGB" filterUnits="userSpaceOnUse">
      <feFlood flood-color="#fff" result="bg"/>
      <feBlend in="SourceGraphic" in2="bg"/>
    </filter>
    <mask id="mask-5" x="82.39" y="-8256" width="13.08" height="32766" maskUnits="userSpaceOnUse"/>
    <radialGradient id="_Áåçûìÿííûé_ãðàäèåíò_108-2" data-name="Áåçûìÿííûé ãðàäèåíò 108" cx="88.92" cy="90.48" fx="88.92" fy="90.48" r="14.61" xlink:href="#_Áåçûìÿííûé_ãðàäèåíò_108"/>
    <mask id="mask-4" x="82.39" y="70.88" width="13.08" height="39.19" maskUnits="userSpaceOnUse">
      <g class="cls-15">
        <g class="cls-18">
          <path class="cls-9" d="m92.66,70.88s10.9,25.15-10.27,39.19c0,0,13-13.83,10.27-39.19Z"/>
        </g>
      </g>
    </mask>
    <radialGradient id="_Áåçûìÿííûé_ãðàäèåíò_40-2" data-name="Áåçûìÿííûé ãðàäèåíò 40" cx="88.92" cy="90.48" fx="88.92" fy="90.48" r="14.61" xlink:href="#_Áåçûìÿííûé_ãðàäèåíò_40"/>
    <filter id="luminosity-noclip-7" x="52.62" y="4.15" width="23.68" height="19.36" color-interpolation-filters="sRGB" filterUnits="userSpaceOnUse">
      <feFlood flood-color="#fff" result="bg"/>
      <feBlend in="SourceGraphic" in2="bg"/>
    </filter>
    <filter id="luminosity-noclip-8" x="52.62" y="-8256" width="23.68" height="32766" color-interpolation-filters="sRGB" filterUnits="userSpaceOnUse">
      <feFlood flood-color="#fff" result="bg"/>
      <feBlend in="SourceGraphic" in2="bg"/>
    </filter>
    <mask id="mask-7" x="52.62" y="-8256" width="23.68" height="32766" maskUnits="userSpaceOnUse"/>
    <radialGradient id="_Áåçûìÿííûé_ãðàäèåíò_108-3" data-name="Áåçûìÿííûé ãðàäèåíò 108" cx="64.47" cy="13.83" fx="64.47" fy="13.83" r="10.81" xlink:href="#_Áåçûìÿííûé_ãðàäèåíò_108"/>
    <mask id="mask-6" x="52.62" y="4.15" width="23.68" height="19.36" maskUnits="userSpaceOnUse">
      <g class="cls-14">
        <g class="cls-26">
          <path class="cls-2" d="m52.62,5.06s16.77-7.13,23.68,18.44c0,0-6.92-20.12-23.68-18.44Z"/>
        </g>
      </g>
    </mask>
    <radialGradient id="_Áåçûìÿííûé_ãðàäèåíò_40-3" data-name="Áåçûìÿííûé ãðàäèåíò 40" cx="64.47" cy="13.83" fx="64.47" fy="13.83" r="10.81" xlink:href="#_Áåçûìÿííûé_ãðàäèåíò_40"/>
  </defs>
  <path class="cls-3" d="m36.95,49.58c-.16-9.77-.29-19.73,2.67-29.04.79-2.49,1.83-4.96,3.56-6.91,2.7-3.04,6.72-4.46,10.56-5.77,6.67-2.27,14.22-4.5,20.5-1.3,5.26,2.69,8.06,8.45,10.39,13.88,8.4,19.54,15.31,39.72,20.64,60.31.78,3,1.52,6.03,1.65,9.12.84,21.34-39.02,49.73-57.9,35.81-16.91-12.47-11.8-58.49-12.08-76.09Z"/>
  <path class="cls-4" d="m29.38,46c-.16-9.77-.29-19.73,2.67-29.04.79-2.49,1.83-4.96,3.56-6.91,2.7-3.04,6.72-4.46,10.56-5.77,6.67-2.27,14.22-4.5,20.5-1.3,5.26,2.69,8.06,8.45,10.39,13.88,8.4,19.54,15.31,39.72,20.64,60.31.78,3,1.52,6.03,1.65,9.12.84,21.34-39.02,49.73-57.9,35.81-16.91-12.47-11.8-58.49-12.08-76.09Z"/>
  <g class="cls-20">
    <g class="cls-25">
      <path class="cls-1" d="m32.73,47.69c-.14-8.82-.26-17.83,2.41-26.24.72-2.25,1.65-4.48,3.22-6.24,2.44-2.74,6.07-4.03,9.54-5.22,6.02-2.06,12.85-4.07,18.52-1.17,4.75,2.43,7.28,7.64,9.39,12.54,7.59,17.66,13.83,35.89,18.65,54.49.7,2.71,1.38,5.44,1.49,8.24.76,19.28-35.25,44.93-52.31,32.35-15.28-11.27-10.66-52.84-10.91-68.74Z"/>
    </g>
  </g>
  <g class="cls-19">
    <path class="cls-5" d="m69.11,44.4c-1.49-1.08-2.97-2.25-4.39-3.44-1.43-1.2-2.8-2.48-4.14-3.79-2.67-2.63-5.18-5.44-7.48-8.43l3.4-1.06c.24,3.25.42,6.5.62,9.75.2,3.25.4,6.5.56,9.75l.51,9.75c.17,3.25.45,6.5.68,9.74.13,1.62.22,3.25.29,4.87.06,1.62.11,3.25.08,4.87-.03,3.25-.23,6.5-.49,9.76-.27,3.25-.63,6.51-1.13,9.76-.25,1.63-.52,3.25-.86,4.88-.31,1.63-.69,3.26-1.14,4.89h-.82c-.47-1.61-.88-3.24-1.21-4.86-.36-1.62-.66-3.24-.93-4.87-.54-3.25-.95-6.49-1.27-9.74-.31-3.25-.56-6.5-.64-9.75-.05-1.62-.03-3.25,0-4.88.04-1.63.11-3.25.22-4.88.19-3.25.42-6.5.54-9.76l.36-9.75c.11-3.25.26-6.5.41-9.75.16-3.25.29-6.5.48-9.76l.37-6.21,3.03,5.14c1.83,3.11,3.89,6.11,6.14,8.96,1.13,1.43,2.32,2.81,3.53,4.18,1.22,1.37,2.47,2.69,3.8,3.99l-.53.62Z"/>
    <path class="cls-5" d="m39.25,90.21s.36.06.98.15c.31.04.69.12,1.13.23.44.11.95.22,1.47.39.53.15,1.1.35,1.71.56.61.2,1.22.49,1.87.76.63.3,1.31.59,1.94.97.66.35,1.28.77,1.92,1.17.62.43,1.32.79,1.98,1.19.68.38,1.3.82,1.79,1.35.47.54.83,1.14,1.06,1.79.26.63.43,1.26.52,1.88.11.61.13,1.2.1,1.75-.02.27-.04.53-.06.77-.03.25-.09.48-.13.69-.09.42-.19.76-.28,1-.09.24-.14.37-.14.37l-.71.4s-.14-.02-.39-.06c-.25-.04-.59-.1-.99-.2-.4-.1-.85-.23-1.32-.38-.48-.16-.97-.35-1.46-.58-.49-.23-.98-.49-1.43-.8-.47-.3-.91-.65-1.26-1.1-.36-.44-.6-1.01-.87-1.59-.25-.6-.55-1.18-.9-1.71-.74-1.04-1.52-2.07-2.27-3.06-.78-.96-1.53-1.89-2.22-2.64-.69-.78-1.26-1.38-1.71-1.85-.44-.45-.69-.71-.69-.71l.38-.73Z"/>
  </g>
  <g>
    <path class="cls-13" d="m72.56,44.28c-2.93-2.26-5.72-4.73-8.3-7.4-2.59-2.67-5.01-5.52-7.23-8.53l2.12-.66c.16,3.25.27,6.5.4,9.75l.37,9.75c.25,6.5.48,13,.83,19.49.09,1.62.15,3.25.2,4.87.05,1.62.06,3.25.06,4.87,0,3.25-.15,6.5-.28,9.75l-.29,4.88-.39,4.88c-.32,3.25-.67,6.51-1.22,9.76h-.51c-.6-3.24-1-6.49-1.37-9.73l-.46-4.87-.36-4.87c-.18-3.25-.37-6.5-.42-9.75-.03-1.62-.04-3.25-.01-4.88.02-1.63.06-3.25.12-4.88.25-6.5.38-13,.54-19.51l.23-9.75c.08-3.25.13-6.5.25-9.75l.14-3.86,1.99,3.19c1.92,3.09,4.06,6.05,6.4,8.86,1.17,1.41,2.39,2.77,3.64,4.11,1.26,1.34,2.55,2.63,3.91,3.88l-.33.39Z"/>
    <path class="cls-13" d="m42.54,90.34s.34.09.93.26c.58.16,1.45.45,2.43.85.5.2,1.03.43,1.59.69.57.25,1.13.57,1.73.88.58.34,1.21.67,1.79,1.08.6.38,1.18.82,1.78,1.24,1.14.89,2.47,1.66,3.39,2.69.44.53.82,1.08,1.1,1.66.29.57.53,1.13.69,1.68.18.54.29,1.06.35,1.53.07.47.11.89.1,1.25,0,.72-.09,1.16-.09,1.16l-.45.25s-.43-.15-1.04-.47c-.62-.31-1.41-.79-2.25-1.39-.81-.62-1.73-1.31-2.48-2.24-.38-.46-.69-1-1.04-1.55-.33-.56-.71-1.09-1.11-1.61-.83-1.01-1.72-1.97-2.57-2.89-.88-.88-1.71-1.73-2.48-2.39-.76-.69-1.4-1.22-1.88-1.62-.48-.39-.75-.61-.75-.61l.23-.45Z"/>
  </g>
  <g class="cls-16">
    <path class="cls-12" d="m49.64,5.59s-20.28-.31-17.34,36.99c0,0,1.36-27.46,17.34-36.99Z"/>
  </g>
  <g class="cls-21">
    <path class="cls-7" d="m92.66,70.88s10.9,25.15-10.27,39.19c0,0,13-13.83,10.27-39.19Z"/>
  </g>
  <g class="cls-22">
    <path class="cls-8" d="m52.62,5.06s16.77-7.13,23.68,18.44c0,0-6.92-20.12-23.68-18.44Z"/>
  </g>
  <path class="cls-6" d="m37.53,24.51c-.26.87-.5,1.77-.39,2.68.1.9.62,1.81,1.47,2.13,1.07.4,2.24-.24,3.12-.96,3.74-3.08,5.48-7.92,6.9-12.56,1.34-4.35-2.23-8-5.54-3.82-2.7,3.41-4.33,8.42-5.55,12.54Z"/>
  <path class="cls-6" d="m36.13,39.21c.25,0,.49-.1.71-.23,1.55-.9,4.63-6.24,1.99-6.89-3.28-.8-4.9,7.07-2.69,7.12Z"/>
</svg>