<?xml version="1.0" encoding="UTF-8"?>
<svg id="Layer_1" data-name="Layer 1" xmlns="http://www.w3.org/2000/svg" xmlns:xlink="http://www.w3.org/1999/xlink" viewBox="0 0 128 128">
  <defs>
    <style>
      .cls-1 {
        fill: url(#_Áåçûìÿííûé_ãðàäèåíò_14);
      }

      .cls-1, .cls-2, .cls-3, .cls-4, .cls-5, .cls-6, .cls-7, .cls-8, .cls-9, .cls-10, .cls-11, .cls-12, .cls-13 {
        stroke-width: 0px;
      }

      .cls-2 {
        fill: url(#_Áåçûìÿííûé_ãðàäèåíò_108-3);
      }

      .cls-2, .cls-9, .cls-10, .cls-11 {
        mix-blend-mode: multiply;
      }

      .cls-3 {
        fill: #020202;
      }

      .cls-14 {
        filter: url(#luminosity-noclip-7);
      }

      .cls-4 {
        fill: #845ec2;
      }

      .cls-15 {
        filter: url(#luminosity-noclip-5);
      }

      .cls-16 {
        mask: url(#mask-2);
      }

      .cls-17 {
        mask: url(#mask-3);
      }

      .cls-18 {
        mask: url(#mask-5);
      }

      .cls-19 {
        opacity: .4;
      }

      .cls-5, .cls-6 {
        fill: #fff;
      }

      .cls-6 {
        opacity: .6;
      }

      .cls-20 {
        opacity: .57;
      }

      .cls-21 {
        mask: url(#mask-4);
      }

      .cls-7 {
        fill: url(#_Áåçûìÿííûé_ãðàäèåíò_40-2);
      }

      .cls-8 {
        fill: url(#_Áåçûìÿííûé_ãðàäèåíò_40-3);
      }

      .cls-9 {
        fill: url(#_Áåçûìÿííûé_ãðàäèåíò_108-2);
      }

      .cls-22 {
        mask: url(#mask-6);
      }

      .cls-10 {
        fill: url(#_Áåçûìÿííûé_ãðàäèåíò_111);
      }

      .cls-23 {
        filter: url(#luminosity-noclip);
      }

      .cls-24 {
        mask: url(#mask-1);
      }

      .cls-25 {
        mask: url(#mask);
      }

      .cls-26 {
        mask: url(#mask-7);
      }

      .cls-11 {
        fill: url(#_Áåçûìÿííûé_ãðàäèåíò_108);
      }

      .cls-12 {
        fill: url(#_Áåçûìÿííûé_ãðàäèåíò_40);
      }

      .cls-13 {
        fill: #171421;
      }

      .cls-27 {
        filter: url(#luminosity-noclip-3);
      }
    </style>
    <filter id="luminosity-noclip" x="27.06" y="6.11" width="66.12" height="112.08" color-interpolation-filters="sRGB" filterUnits="userSpaceOnUse">
      <feFlood flood-color="#fff" result="bg"/>
      <feBlend in="SourceGraphic" in2="bg"/>
    </filter>
    <filter id="luminosity-noclip-2" x="27.06" y="-8256" width="66.12" height="32766" color-interpolation-filters="sRGB" filterUnits="userSpaceOnUse">
      <feFlood flood-color="#fff" result="bg"/>
      <feBlend in="SourceGraphic" in2="bg"/>
    </filter>
    <mask id="mask-1" x="27.06" y="-8256" width="66.12" height="32766" maskUnits="userSpaceOnUse"/>
    <linearGradient id="_Áåçûìÿííûé_ãðàäèåíò_111" data-name="Áåçûìÿííûé ãðàäèåíò 111" x1="100.96" y1="102.97" x2="29.85" y2="31.87" gradientUnits="userSpaceOnUse">
      <stop offset="0" stop-color="#fff"/>
      <stop offset="1" stop-color="#000"/>
    </linearGradient>
    <mask id="mask" x="27.06" y="6.11" width="66.12" height="112.08" maskUnits="userSpaceOnUse">
      <g class="cls-23">
        <g class="cls-24">
          <path class="cls-10" d="m27.13,88.9c1.68-23.1,7.32-45.91,16.6-67.13,1.65-3.76,3.49-7.59,6.58-10.31,4.55-4,10.98-4.92,17.02-5.27,2.22-.13,4.49-.2,6.59.52,4.26,1.45,6.83,5.74,8.56,9.89,3.53,8.48,5.08,17.64,6.34,26.73,2.69,19.51,4.14,39.19,4.35,58.88.05,4.42-.26,9.47-3.73,12.2-1.4,1.1-3.14,1.65-4.86,2.1-19.8,5.2-59.37-1.1-57.45-27.62Z"/>
        </g>
      </g>
    </mask>
    <linearGradient id="_Áåçûìÿííûé_ãðàäèåíò_14" data-name="Áåçûìÿííûé ãðàäèåíò 14" x1="100.96" y1="102.97" x2="29.85" y2="31.87" gradientUnits="userSpaceOnUse">
      <stop offset="0" stop-color="#000"/>
      <stop offset="1" stop-color="#00c9a7"/>
    </linearGradient>
    <filter id="luminosity-noclip-3" x="36.48" y="4.28" width="29.04" height="36.78" color-interpolation-filters="sRGB" filterUnits="userSpaceOnUse">
      <feFlood flood-color="#fff" result="bg"/>
      <feBlend in="SourceGraphic" in2="bg"/>
    </filter>
    <filter id="luminosity-noclip-4" x="36.48" y="-8256" width="29.04" height="32766" color-interpolation-filters="sRGB" filterUnits="userSpaceOnUse">
      <feFlood flood-color="#fff" result="bg"/>
      <feBlend in="SourceGraphic" in2="bg"/>
    </filter>
    <mask id="mask-3" x="36.48" y="-8256" width="29.04" height="32766" maskUnits="userSpaceOnUse"/>
    <radialGradient id="_Áåçûìÿííûé_ãðàäèåíò_108" data-name="Áåçûìÿííûé ãðàäèåíò 108" cx="51" cy="22.68" fx="51" fy="22.68" r="16.57" gradientUnits="userSpaceOnUse">
      <stop offset="0" stop-color="#fff"/>
      <stop offset="1" stop-color="#333"/>
    </radialGradient>
    <mask id="mask-2" x="36.48" y="4.28" width="29.04" height="36.78" maskUnits="userSpaceOnUse">
      <g class="cls-27">
        <g class="cls-17">
          <path class="cls-11" d="m65.52,4.31s-20.65-2.27-29.04,36.76c0,0,14.75-30.63,29.04-36.76Z"/>
        </g>
      </g>
    </mask>
    <radialGradient id="_Áåçûìÿííûé_ãðàäèåíò_40" data-name="Áåçûìÿííûé ãðàäèåíò 40" cx="51" cy="22.68" fx="51" fy="22.68" r="16.57" gradientUnits="userSpaceOnUse">
      <stop offset="0" stop-color="#fff"/>
      <stop offset="1" stop-color="#fff"/>
    </radialGradient>
    <filter id="luminosity-noclip-5" x="68.24" y="98.25" width="25.97" height="23.04" color-interpolation-filters="sRGB" filterUnits="userSpaceOnUse">
      <feFlood flood-color="#fff" result="bg"/>
      <feBlend in="SourceGraphic" in2="bg"/>
    </filter>
    <filter id="luminosity-noclip-6" x="68.24" y="-8256" width="25.97" height="32766" color-interpolation-filters="sRGB" filterUnits="userSpaceOnUse">
      <feFlood flood-color="#fff" result="bg"/>
      <feBlend in="SourceGraphic" in2="bg"/>
    </filter>
    <mask id="mask-5" x="68.24" y="-8256" width="25.97" height="32766" maskUnits="userSpaceOnUse"/>
    <radialGradient id="_Áåçûìÿííûé_ãðàäèåíò_108-2" data-name="Áåçûìÿííûé ãðàäèåíò 108" cx="81.23" cy="109.77" fx="81.23" fy="109.77" r="12.27" xlink:href="#_Áåçûìÿííûé_ãðàäèåíò_108"/>
    <mask id="mask-4" x="68.24" y="98.25" width="25.97" height="23.04" maskUnits="userSpaceOnUse">
      <g class="cls-15">
        <g class="cls-18">
          <path class="cls-9" d="m68.24,120.94s30.4,4.99,25.41-22.69c0,0-1.59,21.33-25.41,22.69Z"/>
        </g>
      </g>
    </mask>
    <radialGradient id="_Áåçûìÿííûé_ãðàäèåíò_40-2" data-name="Áåçûìÿííûé ãðàäèåíò 40" cx="81.23" cy="109.77" fx="81.23" fy="109.77" r="12.27" xlink:href="#_Áåçûìÿííûé_ãðàäèåíò_40"/>
    <filter id="luminosity-noclip-7" x="63.93" y="3" width="22.69" height="25.36" color-interpolation-filters="sRGB" filterUnits="userSpaceOnUse">
      <feFlood flood-color="#fff" result="bg"/>
      <feBlend in="SourceGraphic" in2="bg"/>
    </filter>
    <filter id="luminosity-noclip-8" x="63.93" y="-8256" width="22.69" height="32766" color-interpolation-filters="sRGB" filterUnits="userSpaceOnUse">
      <feFlood flood-color="#fff" result="bg"/>
      <feBlend in="SourceGraphic" in2="bg"/>
    </filter>
    <mask id="mask-7" x="63.93" y="-8256" width="22.69" height="32766" maskUnits="userSpaceOnUse"/>
    <radialGradient id="_Áåçûìÿííûé_ãðàäèåíò_108-3" data-name="Áåçûìÿííûé ãðàäèåíò 108" cx="75.28" cy="15.68" fx="75.28" fy="15.68" r="12.03" xlink:href="#_Áåçûìÿííûé_ãðàäèåíò_108"/>
    <mask id="mask-6" x="63.93" y="3" width="22.69" height="25.36" maskUnits="userSpaceOnUse">
      <g class="cls-14">
        <g class="cls-26">
          <path class="cls-2" d="m63.93,3.86s17.24-7.94,22.69,24.51c0,0-4.76-23.82-22.69-24.51Z"/>
        </g>
      </g>
    </mask>
    <radialGradient id="_Áåçûìÿííûé_ãðàäèåíò_40-3" data-name="Áåçûìÿííûé ãðàäèåíò 40" cx="75.28" cy="15.68" fx="75.28" fy="15.68" r="12.03" xlink:href="#_Áåçûìÿííûé_ãðàäèåíò_40"/>
  </defs>
  <path class="cls-3" d="m31.76,97.21c1.83-25.16,7.97-50,18.09-73.12,1.79-4.1,3.8-8.27,7.16-11.22,4.95-4.36,11.96-5.35,18.54-5.74,2.41-.14,4.89-.21,7.18.57,4.64,1.58,7.44,6.25,9.32,10.77,3.85,9.23,5.54,19.21,6.9,29.12,2.93,21.25,4.51,42.68,4.74,64.13.05,4.81-.29,10.32-4.07,13.29-1.52,1.2-3.42,1.8-5.3,2.29-21.56,5.66-64.67-1.2-62.57-30.09Z"/>
  <path class="cls-4" d="m24.18,91.28c1.83-25.16,7.97-50,18.09-73.12,1.79-4.1,3.8-8.27,7.16-11.22,4.95-4.36,11.96-5.35,18.54-5.74,2.41-.14,4.89-.21,7.18.57,4.64,1.58,7.44,6.25,9.32,10.77,3.85,9.23,5.54,19.21,6.9,29.12,2.93,21.25,4.51,42.68,4.74,64.13.05,4.81-.29,10.32-4.07,13.29-1.52,1.2-3.42,1.8-5.3,2.29-21.56,5.66-64.67-1.2-62.57-30.09Z"/>
  <g class="cls-20">
    <g class="cls-25">
      <path class="cls-1" d="m27.13,88.9c1.68-23.1,7.32-45.91,16.6-67.13,1.65-3.76,3.49-7.59,6.58-10.31,4.55-4,10.98-4.92,17.02-5.27,2.22-.13,4.49-.2,6.59.52,4.26,1.45,6.83,5.74,8.56,9.89,3.53,8.48,5.08,17.64,6.34,26.73,2.69,19.51,4.14,39.19,4.35,58.88.05,4.42-.26,9.47-3.73,12.2-1.4,1.1-3.14,1.65-4.86,2.1-19.8,5.2-59.37-1.1-57.45-27.62Z"/>
    </g>
  </g>
  <g class="cls-19">
    <path class="cls-5" d="m58.13,31.14s.2,1.22.56,3.36c.36,2.14.83,5.2,1.35,8.88.25,1.84.52,3.84.81,5.95.29,2.11.53,4.34.81,6.65.26,2.31.56,4.69.77,7.12.22,2.43.45,4.9.68,7.36.21,2.47.5,4.94.78,7.37.29,2.43.52,4.83.59,7.15.04,2.32-.05,4.57-.25,6.7-.18,2.13-.42,4.14-.73,6-.28,1.86-.63,3.56-.97,5.06-.33,1.5-.71,2.81-1.03,3.89-.32,1.08-.62,1.92-.83,2.5-.21.58-.35.88-.35.88h-.88s-.13-.32-.33-.9c-.2-.58-.48-1.43-.78-2.51-.3-1.08-.66-2.39-.98-3.89-.33-1.5-.66-3.19-.95-5.03-.29-1.84-.56-3.84-.76-5.94-.22-2.11-.37-4.33-.37-6.63-.01-2.3.16-4.68.34-7.1.19-2.42.34-4.88.43-7.34.6-19.73,1.2-39.47,1.2-39.47l.88-.06Z"/>
    <path class="cls-5" d="m38.78,51.28s1.9-3.06,4.86-7.54c1.49-2.24,3.22-4.85,5.13-7.61.95-1.38,1.92-2.82,2.95-4.25.51-.72,1.02-1.44,1.54-2.16.3-.39.37-.61,1.07-1.36.35-.35.88-.8,1.7-1.13l.31-.11.16-.05.08-.02.22-.05.08-.02.16-.03.23-.03c.56-.04.91,0,1.31.06,1.5.32,2.16.88,2.73,1.23.38.26.72.45,1.17.77.89.6,1.64,1.15,2.43,1.75,1.55,1.18,2.96,2.46,4.12,3.82,1.16,1.36,2.08,2.78,2.85,4.16.78,1.4,1.41,2.57,2.07,4.18.54,1.41.82,2.59,1.07,3.61.26,1.01.44,1.87.67,2.57.21.71.45,1.25.63,1.65.2.39.3.61.3.61l-.46.76s-.26-.01-.76-.1c-.48-.11-1.22-.31-2.05-.77-.83-.44-1.79-1.1-2.7-1.92-.92-.81-1.84-1.76-2.71-2.61-.74-.66-1.92-1.76-2.94-2.83-1.06-1.07-2.09-2.22-3.07-3.42-.97-1.21-1.86-2.51-2.81-3.77-.47-.61-1.01-1.27-1.49-1.8-.21-.27-.59-.61-.89-.91-.13-.19-.22-.16.4-.04.18.02.3.04.65,0l.15-.02s.12-.02.08-.02h-.08c-.05.02.31-.05.18-.03h.04s.08-.04.08-.04l.16-.06c.4-.17.57-.36.59-.41.07-.14-.41.36-.69.64-.63.63-1.26,1.25-1.88,1.88-1.23,1.25-2.49,2.44-3.7,3.61-2.4,2.34-4.69,4.48-6.65,6.32-3.93,3.67-6.63,6.04-6.63,6.04l-.68-.57Z"/>
  </g>
  <g>
    <path class="cls-13" d="m60.69,31.15s.16,1.22.43,3.37c.29,2.14.62,5.21,1.03,8.9.2,1.84.41,3.84.63,5.95.23,2.11.41,4.34.63,6.65.43,4.62.76,9.55,1.1,14.48.29,4.93.86,9.87.96,14.51.02,2.32-.01,4.56-.13,6.68-.1,2.13-.27,4.13-.45,5.99-.17,1.85-.4,3.55-.61,5.05-.22,1.5-.44,2.81-.65,3.89-.42,2.16-.75,3.38-.75,3.38h-.55s-.31-1.24-.68-3.4c-.19-1.08-.39-2.39-.6-3.89-.19-1.5-.41-3.19-.58-5.04-.18-1.84-.37-3.84-.49-5.95-.14-2.11-.23-4.34-.26-6.64-.01-2.3.07-4.69.17-7.11.1-2.42.17-4.88.21-7.35.03-9.86.07-19.71.1-27.1-.03-7.4-.05-12.34-.05-12.34l.55-.04Z"/>
    <path class="cls-13" d="m41.63,51.39s2.05-2.93,5.21-7.25c1.57-2.17,3.4-4.7,5.4-7.38,1-1.34,2.04-2.72,3.09-4.13.53-.7,1.07-1.4,1.6-2.11.3-.37.44-.64,1-1.23.28-.27.68-.61,1.27-.84l.23-.08.12-.03.06-.02.14-.03.08-.02s.19-.03.28-.04c.39-.03.65,0,.94.05,1.1.23,1.66.68,2.14,1.01.37.27.71.48,1.12.79.81.59,1.52,1.16,2.25,1.76,1.44,1.19,2.74,2.49,3.88,3.81,1.11,1.34,2.07,2.7,2.89,4.02.83,1.34,1.56,2.5,2.23,3.93.6,1.31.99,2.45,1.38,3.42.37.98.72,1.79,1.05,2.44.33.66.66,1.14.9,1.49.25.33.39.51.39.51l-.29.47s-.23-.05-.68-.2c-.42-.16-1.07-.43-1.78-.93-.72-.49-1.52-1.19-2.31-2.05-.79-.85-1.59-1.84-2.41-2.8-.86-.95-1.79-1.99-2.78-3.08-1.01-1.13-2.01-2.34-3.03-3.56-1-1.24-2-2.53-3.06-3.78-.53-.61-1.11-1.25-1.66-1.79-.26-.28-.63-.59-.95-.88-.21-.22-.41-.3-.18-.26.36.09.84-.25.7-.2-.08.03-.47.47-.76.77-.61.65-1.21,1.29-1.81,1.93-1.21,1.27-2.4,2.52-3.56,3.73-2.31,2.42-4.5,4.64-6.38,6.55-3.74,3.83-6.29,6.34-6.29,6.34l-.42-.36Z"/>
  </g>
  <g class="cls-16">
    <path class="cls-12" d="m65.52,4.31s-20.65-2.27-29.04,36.76c0,0,14.75-30.63,29.04-36.76Z"/>
  </g>
  <g class="cls-21">
    <path class="cls-7" d="m68.24,120.94s30.4,4.99,25.41-22.69c0,0-1.59,21.33-25.41,22.69Z"/>
  </g>
  <path class="cls-6" d="m56.31,22.03c-3.46,6.96-8.53,11.47-11.34,10.08-2.81-1.39-2.28-8.16,1.18-15.12,3.46-6.96,8.53-11.47,11.34-10.08,2.81,1.39,2.28,8.16-1.18,15.12Z"/>
  <path class="cls-6" d="m43.51,37.55c0,1.57-1.12,2.84-2.5,2.84s-2.5-1.27-2.5-2.84,1.12-2.84,2.5-2.84,2.5,1.27,2.5,2.84Z"/>
  <g class="cls-22">
    <path class="cls-8" d="m63.93,3.86s17.24-7.94,22.69,24.51c0,0-4.76-23.82-22.69-24.51Z"/>
  </g>
</svg>