<?xml version="1.0" encoding="UTF-8"?>
<svg id="Layer_1" data-name="Layer 1" xmlns="http://www.w3.org/2000/svg" xmlns:xlink="http://www.w3.org/1999/xlink" viewBox="0 0 128 128">
  <defs>
    <style>
      .cls-1 {
        fill: url(#_Áåçûìÿííûé_ãðàäèåíò_14);
      }

      .cls-1, .cls-2, .cls-3, .cls-4, .cls-5, .cls-6, .cls-7, .cls-8, .cls-9, .cls-10, .cls-11, .cls-12, .cls-13 {
        stroke-width: 0px;
      }

      .cls-2 {
        fill: url(#_Áåçûìÿííûé_ãðàäèåíò_108-3);
      }

      .cls-2, .cls-9, .cls-10, .cls-11 {
        mix-blend-mode: multiply;
      }

      .cls-3 {
        fill: #020202;
      }

      .cls-14 {
        filter: url(#luminosity-noclip-7);
      }

      .cls-15 {
        filter: url(#luminosity-noclip-5);
      }

      .cls-16 {
        mask: url(#mask-2);
      }

      .cls-17 {
        mask: url(#mask-3);
      }

      .cls-18 {
        mask: url(#mask-5);
      }

      .cls-19 {
        opacity: .4;
      }

      .cls-4, .cls-6 {
        fill: #fff;
      }

      .cls-5 {
        fill: #ff6f91;
      }

      .cls-6 {
        opacity: .6;
      }

      .cls-20 {
        opacity: .57;
      }

      .cls-21 {
        mask: url(#mask-4);
      }

      .cls-7 {
        fill: url(#_Áåçûìÿííûé_ãðàäèåíò_40-2);
      }

      .cls-8 {
        fill: url(#_Áåçûìÿííûé_ãðàäèåíò_40-3);
      }

      .cls-9 {
        fill: url(#_Áåçûìÿííûé_ãðàäèåíò_108-2);
      }

      .cls-22 {
        mask: url(#mask-6);
      }

      .cls-10 {
        fill: url(#_Áåçûìÿííûé_ãðàäèåíò_111);
      }

      .cls-23 {
        filter: url(#luminosity-noclip);
      }

      .cls-24 {
        mask: url(#mask-1);
      }

      .cls-25 {
        mask: url(#mask);
      }

      .cls-26 {
        mask: url(#mask-7);
      }

      .cls-11 {
        fill: url(#_Áåçûìÿííûé_ãðàäèåíò_108);
      }

      .cls-12 {
        fill: url(#_Áåçûìÿííûé_ãðàäèåíò_40);
      }

      .cls-13 {
        fill: #171421;
      }

      .cls-27 {
        filter: url(#luminosity-noclip-3);
      }
    </style>
    <filter id="luminosity-noclip" x="18.62" y="6.02" width="74.34" height="111.54" color-interpolation-filters="sRGB" filterUnits="userSpaceOnUse">
      <feFlood flood-color="#fff" result="bg"/>
      <feBlend in="SourceGraphic" in2="bg"/>
    </filter>
    <filter id="luminosity-noclip-2" x="18.62" y="-8256" width="74.34" height="32766" color-interpolation-filters="sRGB" filterUnits="userSpaceOnUse">
      <feFlood flood-color="#fff" result="bg"/>
      <feBlend in="SourceGraphic" in2="bg"/>
    </filter>
    <mask id="mask-1" x="18.62" y="-8256" width="74.34" height="32766" maskUnits="userSpaceOnUse"/>
    <linearGradient id="_Áåçûìÿííûé_ãðàäèåíò_111" data-name="Áåçûìÿííûé ãðàäèåíò 111" x1="95.84" y1="96.32" x2="23.44" y2="23.92" gradientUnits="userSpaceOnUse">
      <stop offset="0" stop-color="#fff"/>
      <stop offset="1" stop-color="#000"/>
    </linearGradient>
    <mask id="mask" x="18.62" y="6.02" width="74.34" height="111.54" maskUnits="userSpaceOnUse">
      <g class="cls-23">
        <g class="cls-24">
          <path class="cls-10" d="m19.06,76.13c-1.4-8.86.74-17.86,2.86-26.58,2.03-8.33,4.05-16.66,6.08-25,.68-2.8,1.4-5.68,3.06-8.03,3.08-4.35,8.67-5.98,13.83-7.33,6.5-1.7,13.11-3.4,19.82-3.15,6.71.25,13.65,2.75,17.74,8.08,3.23,4.2,4.33,9.61,5.33,14.81,3.99,20.85,7.66,42.44,2.98,63.16-10.84,47.97-66.05,19.84-71.7-15.96Z"/>
        </g>
      </g>
    </mask>
    <linearGradient id="_Áåçûìÿííûé_ãðàäèåíò_14" data-name="Áåçûìÿííûé ãðàäèåíò 14" x1="95.84" y1="96.32" x2="23.44" y2="23.92" gradientUnits="userSpaceOnUse">
      <stop offset="0" stop-color="#000"/>
      <stop offset="1" stop-color="#00c9a7"/>
    </linearGradient>
    <filter id="luminosity-noclip-3" x="23.51" y="7.25" width="27.88" height="40.79" color-interpolation-filters="sRGB" filterUnits="userSpaceOnUse">
      <feFlood flood-color="#fff" result="bg"/>
      <feBlend in="SourceGraphic" in2="bg"/>
    </filter>
    <filter id="luminosity-noclip-4" x="23.51" y="-8256" width="27.88" height="32766" color-interpolation-filters="sRGB" filterUnits="userSpaceOnUse">
      <feFlood flood-color="#fff" result="bg"/>
      <feBlend in="SourceGraphic" in2="bg"/>
    </filter>
    <mask id="mask-3" x="23.51" y="-8256" width="27.88" height="32766" maskUnits="userSpaceOnUse"/>
    <radialGradient id="_Áåçûìÿííûé_ãðàäèåíò_108" data-name="Áåçûìÿííûé ãðàäèåíò 108" cx="37.45" cy="27.65" fx="37.45" fy="27.65" r="17.47" gradientUnits="userSpaceOnUse">
      <stop offset="0" stop-color="#fff"/>
      <stop offset="1" stop-color="#333"/>
    </radialGradient>
    <mask id="mask-2" x="23.51" y="7.25" width="27.88" height="40.79" maskUnits="userSpaceOnUse">
      <g class="cls-27">
        <g class="cls-17">
          <path class="cls-11" d="m51.38,7.3s-23.95-3.15-27.88,40.74c0,0,9.46-33.88,27.88-40.74Z"/>
        </g>
      </g>
    </mask>
    <radialGradient id="_Áåçûìÿííûé_ãðàäèåíò_40" data-name="Áåçûìÿííûé ãðàäèåíò 40" cx="37.45" cy="27.65" fx="37.45" fy="27.65" r="17.47" gradientUnits="userSpaceOnUse">
      <stop offset="0" stop-color="#fff"/>
      <stop offset="1" stop-color="#fff"/>
    </radialGradient>
    <filter id="luminosity-noclip-5" x="65.66" y="3.06" width="21.62" height="21.84" color-interpolation-filters="sRGB" filterUnits="userSpaceOnUse">
      <feFlood flood-color="#fff" result="bg"/>
      <feBlend in="SourceGraphic" in2="bg"/>
    </filter>
    <filter id="luminosity-noclip-6" x="65.66" y="-8256" width="21.62" height="32766" color-interpolation-filters="sRGB" filterUnits="userSpaceOnUse">
      <feFlood flood-color="#fff" result="bg"/>
      <feBlend in="SourceGraphic" in2="bg"/>
    </filter>
    <mask id="mask-5" x="65.66" y="-8256" width="21.62" height="32766" maskUnits="userSpaceOnUse"/>
    <radialGradient id="_Áåçûìÿííûé_ãðàäèåíò_108-2" data-name="Áåçûìÿííûé ãðàäèåíò 108" cx="76.47" cy="13.98" fx="76.47" fy="13.98" r="10.86" xlink:href="#_Áåçûìÿííûé_ãðàäèåíò_108"/>
    <mask id="mask-4" x="65.66" y="3.06" width="21.62" height="21.84" maskUnits="userSpaceOnUse">
      <g class="cls-15">
        <g class="cls-18">
          <path class="cls-9" d="m65.66,3.06s19.22.44,21.62,21.84c0,0-6.33-15.07-21.62-21.84Z"/>
        </g>
      </g>
    </mask>
    <radialGradient id="_Áåçûìÿííûé_ãðàäèåíò_40-2" data-name="Áåçûìÿííûé ãðàäèåíò 40" cx="76.47" cy="13.98" fx="76.47" fy="13.98" r="10.86" xlink:href="#_Áåçûìÿííûé_ãðàäèåíò_40"/>
    <filter id="luminosity-noclip-7" x="49.71" y="103.74" width="39.31" height="16.52" color-interpolation-filters="sRGB" filterUnits="userSpaceOnUse">
      <feFlood flood-color="#fff" result="bg"/>
      <feBlend in="SourceGraphic" in2="bg"/>
    </filter>
    <filter id="luminosity-noclip-8" x="49.71" y="-8256" width="39.31" height="32766" color-interpolation-filters="sRGB" filterUnits="userSpaceOnUse">
      <feFlood flood-color="#fff" result="bg"/>
      <feBlend in="SourceGraphic" in2="bg"/>
    </filter>
    <mask id="mask-7" x="49.71" y="-8256" width="39.31" height="32766" maskUnits="userSpaceOnUse"/>
    <radialGradient id="_Áåçûìÿííûé_ãðàäèåíò_108-3" data-name="Áåçûìÿííûé ãðàäèåíò 108" cx="69.37" cy="112" fx="69.37" fy="112" r="15.08" xlink:href="#_Áåçûìÿííûé_ãðàäèåíò_108"/>
    <mask id="mask-6" x="49.71" y="103.74" width="39.31" height="16.52" maskUnits="userSpaceOnUse">
      <g class="cls-14">
        <g class="cls-26">
          <path class="cls-2" d="m49.71,117.28s27.08,12.45,39.31-13.54c0,0-13.32,19-39.31,13.54Z"/>
        </g>
      </g>
    </mask>
    <radialGradient id="_Áåçûìÿííûé_ãðàäèåíò_40-3" data-name="Áåçûìÿííûé ãðàäèåíò 40" cx="69.37" cy="112" fx="69.37" fy="112" r="15.08" xlink:href="#_Áåçûìÿííûé_ãðàäèåíò_40"/>
  </defs>
  <path class="cls-3" d="m25.11,84.24c-1.52-9.63.8-19.4,3.1-28.86,2.2-9.05,4.4-18.1,6.6-27.14.74-3.04,1.52-6.17,3.33-8.72,3.35-4.72,9.41-6.49,15.01-7.96,7.05-1.84,14.23-3.7,21.52-3.42,7.29.27,14.83,2.99,19.27,8.77,3.5,4.56,4.7,10.43,5.79,16.08,4.34,22.64,8.32,46.09,3.24,68.58-11.77,52.09-71.72,21.54-77.86-17.33Z"/>
  <path class="cls-5" d="m15.91,77.37c-1.52-9.63.8-19.4,3.1-28.86,2.2-9.05,4.4-18.1,6.6-27.14.74-3.04,1.52-6.17,3.33-8.72,3.35-4.72,9.41-6.49,15.01-7.96,7.05-1.84,14.23-3.7,21.52-3.42,7.29.27,14.83,2.99,19.27,8.77,3.5,4.56,4.7,10.43,5.79,16.08,4.34,22.64,8.32,46.09,3.24,68.58-11.77,52.09-71.72,21.54-77.86-17.33Z"/>
  <g class="cls-20">
    <g class="cls-25">
      <path class="cls-1" d="m19.06,76.13c-1.4-8.86.74-17.86,2.86-26.58,2.03-8.33,4.05-16.66,6.08-25,.68-2.8,1.4-5.68,3.06-8.03,3.08-4.35,8.67-5.98,13.83-7.33,6.5-1.7,13.11-3.4,19.82-3.15,6.71.25,13.65,2.75,17.74,8.08,3.23,4.2,4.33,9.61,5.33,14.81,3.99,20.85,7.66,42.44,2.98,63.16-10.84,47.97-66.05,19.84-71.7-15.96Z"/>
    </g>
  </g>
  <g class="cls-19">
    <path class="cls-4" d="m38.93,22.27s2.06,4.84,5.16,12.1c1.54,3.63,3.41,7.82,5.39,12.31,2.04,4.47,4.15,9.25,6.37,13.99,1.12,2.36,2.29,4.7,3.5,6.98,1.19,2.28,2.38,4.52,3.37,6.75,1,2.23,1.84,4.44,2.58,6.56.75,2.12,1.41,4.15,1.98,6.04.57,1.89,1.05,3.65,1.44,5.23.4,1.57.68,2.98.92,4.14.23,1.16.38,2.09.47,2.73.09.64.12.99.12.99l-.76.38s-.26-.24-.71-.71c-.45-.46-1.1-1.16-1.87-2.06-1.57-1.8-3.64-4.46-5.82-7.82-1.1-1.67-2.21-3.53-3.32-5.52-1.13-1.98-2.19-4.14-3.18-6.42-.96-2.29-1.8-4.72-2.59-7.21-.81-2.48-1.6-5.02-2.46-7.52-.84-2.51-1.69-5.01-2.48-7.49-.83-2.47-1.54-4.93-2.26-7.3-.69-2.38-1.38-4.67-1.97-6.87-.6-2.19-1.16-4.26-1.65-6.18-.51-1.91-.93-3.68-1.31-5.25-.39-1.56-.71-2.93-.95-4.05-.5-2.25-.79-3.54-.79-3.54l.81-.26Z"/>
    <path class="cls-4" d="m70.07,23.01s-.36,1.29-.98,3.54c-.3,1.13-.71,2.49-1.19,4.05-.47,1.57-1,3.34-1.64,5.24-.61,1.91-1.31,3.98-2.04,6.15-.72,2.19-1.56,4.46-2.38,6.83-.84,2.36-1.7,4.8-2.62,7.26-.91,2.46-1.83,4.95-2.75,7.45-.9,2.5-1.76,5.02-2.54,7.51-.8,2.49-1.56,4.93-2.47,7.23-.87,2.3-1.87,4.48-2.83,6.52-.96,2.05-1.92,3.97-2.82,5.74-.92,1.77-1.79,3.38-2.58,4.81-.79,1.43-1.56,2.66-2.16,3.69-.61,1.02-1.13,1.82-1.5,2.36-.37.54-.58.83-.58.83l-.82-.23s-.03-.35-.04-1.01c-.02-.66-.02-1.61.02-2.83.03-1.22.12-2.68.33-4.34.18-1.66.45-3.53.87-5.53.38-2.01.9-4.15,1.54-6.39.6-2.25,1.4-4.56,2.33-6.91.97-2.33,2.11-4.68,3.35-7.02,1.22-2.36,2.47-4.73,3.64-7.13,2.38-4.79,4.74-9.57,7.04-14,2.25-4.45,4.4-8.59,6.17-12.17,1.8-3.57,3.24-6.55,4.27-8.66,1.01-2.11,1.59-3.31,1.59-3.31l.8.3Z"/>
  </g>
  <g>
    <path class="cls-13" d="m41.4,22.32s.47,1.23,1.3,3.38c.84,2.15,1.98,5.21,3.45,8.87,1.44,3.66,3.21,7.9,5.08,12.45,1.92,4.53,3.95,9.35,6.06,14.14,1.1,2.38,2.16,4.77,3.31,7.08,1.12,2.32,2.23,4.6,3.22,6.84.99,2.24,1.88,4.44,2.69,6.53.83,2.09,1.55,4.1,2.23,5.95.35.92.65,1.82.94,2.67.29.85.59,1.65.83,2.42.5,1.53.92,2.87,1.25,3.99.67,2.23.97,3.54.97,3.54l-.48.24s-.86-1.04-2.21-2.94c-.69-.95-1.47-2.12-2.35-3.48-.87-1.36-1.84-2.91-2.82-4.63-.49-.86-1-1.76-1.53-2.69-.5-.94-1.01-1.92-1.54-2.93-1.06-2.01-2.07-4.18-3.07-6.44-.96-2.28-1.88-4.67-2.74-7.13-.88-2.45-1.77-4.93-2.66-7.42-.89-2.49-1.79-4.96-2.63-7.42-.87-2.45-1.64-4.88-2.42-7.23-.74-2.36-1.49-4.62-2.13-6.8-.65-2.17-1.26-4.22-1.8-6.12-1.09-3.79-1.98-6.97-2.55-9.2-.58-2.23-.91-3.5-.91-3.5l.51-.16Z"/>
    <path class="cls-13" d="m72.54,22.96s-.4,1.27-1.1,3.5c-.34,1.12-.79,2.46-1.32,4-.52,1.54-1.12,3.28-1.79,5.17-.66,1.89-1.4,3.93-2.19,6.08-.78,2.16-1.66,4.41-2.55,6.75-1.78,4.68-3.76,9.62-5.69,14.57-.93,2.49-1.89,4.97-2.75,7.44-.88,2.46-1.72,4.88-2.63,7.19-1.81,4.61-3.71,8.83-5.32,12.46-.83,1.81-1.58,3.47-2.25,4.95-.7,1.47-1.31,2.75-1.81,3.81-1.01,2.12-1.69,3.31-1.69,3.31l-.51-.14s.07-1.36.37-3.71c.08-.59.15-1.24.26-1.95.13-.7.26-1.46.41-2.27.31-1.62.67-3.44,1.19-5.39.25-.98.52-2,.79-3.05.32-1.04.64-2.12.98-3.22.67-2.21,1.52-4.49,2.43-6.84.96-2.32,2.02-4.69,3.18-7.06,1.13-2.37,2.29-4.79,3.44-7.2,2.28-4.83,4.55-9.64,6.73-14.13,2.14-4.5,4.18-8.69,5.86-12.31,1.7-3.62,3.03-6.65,3.98-8.78.94-2.13,1.48-3.35,1.48-3.35l.5.19Z"/>
  </g>
  <g class="cls-16">
    <path class="cls-12" d="m51.38,7.3s-23.95-3.15-27.88,40.74c0,0,9.46-33.88,27.88-40.74Z"/>
  </g>
  <g class="cls-21">
    <path class="cls-7" d="m65.66,3.06s19.22.44,21.62,21.84c0,0-6.33-15.07-21.62-21.84Z"/>
  </g>
  <g class="cls-22">
    <path class="cls-8" d="m49.71,117.28s27.08,12.45,39.31-13.54c0,0-13.32,19-39.31,13.54Z"/>
  </g>
  <path class="cls-6" d="m32.97,27.62c-.3,1.16-.51,2.39-.21,3.55,1.39.24,2.84-.22,4.01-1.02,1.16-.8,2.08-1.92,2.89-3.07,2-2.87,3.47-6.1,4.31-9.49.33-1.32.27-4.6-2.02-4.07-1.2.28-2.08,2.54-2.85,3.4-2.83,3.17-5.05,6.55-6.13,10.71Z"/>
  <path class="cls-6" d="m28.15,41.51c0,.1,0,.22.06.3.07.1.21.13.34.14,1.16.08,2.26-.65,2.89-1.62.64-.97.89-2.14,1.04-3.29.29-2.13-1.63-1.41-2.51-.32-.99,1.23-1.74,3.24-1.82,4.79Z"/>
</svg>