<?xml version="1.0" encoding="UTF-8"?>
<svg id="Layer_1" data-name="Layer 1" xmlns="http://www.w3.org/2000/svg" xmlns:xlink="http://www.w3.org/1999/xlink" viewBox="0 0 128 128">
  <defs>
    <style>
      .cls-1 {
        fill: url(#_Áåçûìÿííûé_ãðàäèåíò_14);
      }

      .cls-1, .cls-2, .cls-3, .cls-4, .cls-5, .cls-6, .cls-7, .cls-8, .cls-9, .cls-10, .cls-11, .cls-12, .cls-13, .cls-14 {
        stroke-width: 0px;
      }

      .cls-2, .cls-15 {
        opacity: .4;
      }

      .cls-2, .cls-5, .cls-6 {
        fill: #fff;
      }

      .cls-3 {
        fill: url(#_Áåçûìÿííûé_ãðàäèåíò_108-3);
      }

      .cls-3, .cls-9, .cls-10, .cls-12 {
        mix-blend-mode: multiply;
      }

      .cls-4 {
        fill: #020202;
      }

      .cls-16 {
        filter: url(#luminosity-noclip-7);
      }

      .cls-17 {
        filter: url(#luminosity-noclip-5);
      }

      .cls-18, .cls-6 {
        opacity: .6;
      }

      .cls-19 {
        mask: url(#mask-2);
      }

      .cls-20 {
        mask: url(#mask-3);
      }

      .cls-21 {
        mask: url(#mask-5);
      }

      .cls-22 {
        opacity: .57;
      }

      .cls-23 {
        mask: url(#mask-4);
      }

      .cls-7 {
        fill: url(#_Áåçûìÿííûé_ãðàäèåíò_40-2);
      }

      .cls-8 {
        fill: url(#_Áåçûìÿííûé_ãðàäèåíò_40-3);
      }

      .cls-9 {
        fill: url(#_Áåçûìÿííûé_ãðàäèåíò_108-2);
      }

      .cls-24 {
        mask: url(#mask-6);
      }

      .cls-10 {
        fill: url(#_Áåçûìÿííûé_ãðàäèåíò_111);
      }

      .cls-25 {
        filter: url(#luminosity-noclip);
      }

      .cls-26 {
        mask: url(#mask-1);
      }

      .cls-27 {
        mask: url(#mask);
      }

      .cls-11 {
        fill: #ffc75f;
      }

      .cls-28 {
        mask: url(#mask-7);
      }

      .cls-12 {
        fill: url(#_Áåçûìÿííûé_ãðàäèåíò_108);
      }

      .cls-13 {
        fill: url(#_Áåçûìÿííûé_ãðàäèåíò_40);
      }

      .cls-14 {
        fill: #171421;
      }

      .cls-29 {
        filter: url(#luminosity-noclip-3);
      }
    </style>
    <filter id="luminosity-noclip" x="22.79" y="7.3" width="76.57" height="110.84" color-interpolation-filters="sRGB" filterUnits="userSpaceOnUse">
      <feFlood flood-color="#fff" result="bg"/>
      <feBlend in="SourceGraphic" in2="bg"/>
    </filter>
    <filter id="luminosity-noclip-2" x="22.79" y="-8256" width="76.57" height="32766" color-interpolation-filters="sRGB" filterUnits="userSpaceOnUse">
      <feFlood flood-color="#fff" result="bg"/>
      <feBlend in="SourceGraphic" in2="bg"/>
    </filter>
    <mask id="mask-1" x="22.79" y="-8256" width="76.57" height="32766" maskUnits="userSpaceOnUse"/>
    <linearGradient id="_Áåçûìÿííûé_ãðàäèåíò_111" data-name="Áåçûìÿííûé ãðàäèåíò 111" x1="89.96" y1="107.6" x2="15.38" y2="33.01" gradientUnits="userSpaceOnUse">
      <stop offset="0" stop-color="#fff"/>
      <stop offset="1" stop-color="#000"/>
    </linearGradient>
    <mask id="mask" x="22.79" y="7.3" width="76.57" height="110.84" maskUnits="userSpaceOnUse">
      <g class="cls-25">
        <g class="cls-26">
          <path class="cls-10" d="m25.26,108.54c-4.1-5.75-2.15-13.59-.91-20.55,2.99-16.7.84-33.89,2.19-50.81.53-6.67,1.67-13.46,5.03-19.25s9.32-10.42,16.01-10.63c11.13-.35,18.86,10.57,24.39,20.24,10.42,18.23,20.81,36.79,26.14,57.1,1.35,5.12,2.24,11-.79,15.35-2.06,2.97-5.54,4.57-8.88,5.94-13.12,5.4-26.8,9.44-40.75,12.04-6.11,1.14-18.59-4.06-22.43-9.45Z"/>
        </g>
      </g>
    </mask>
    <linearGradient id="_Áåçûìÿííûé_ãðàäèåíò_14" data-name="Áåçûìÿííûé ãðàäèåíò 14" x1="89.96" y1="107.6" x2="15.38" y2="33.01" gradientUnits="userSpaceOnUse">
      <stop offset="0" stop-color="#000"/>
      <stop offset="1" stop-color="#00c9a7"/>
    </linearGradient>
    <filter id="luminosity-noclip-3" x="24.93" y="5.12" width="17.93" height="46.93" color-interpolation-filters="sRGB" filterUnits="userSpaceOnUse">
      <feFlood flood-color="#fff" result="bg"/>
      <feBlend in="SourceGraphic" in2="bg"/>
    </filter>
    <filter id="luminosity-noclip-4" x="24.93" y="-8256" width="17.93" height="32766" color-interpolation-filters="sRGB" filterUnits="userSpaceOnUse">
      <feFlood flood-color="#fff" result="bg"/>
      <feBlend in="SourceGraphic" in2="bg"/>
    </filter>
    <mask id="mask-3" x="24.93" y="-8256" width="17.93" height="32766" maskUnits="userSpaceOnUse"/>
    <radialGradient id="_Áåçûìÿííûé_ãðàäèåíò_108" data-name="Áåçûìÿííûé ãðàäèåíò 108" cx="33.9" cy="28.59" fx="33.9" fy="28.59" r="17.76" gradientUnits="userSpaceOnUse">
      <stop offset="0" stop-color="#fff"/>
      <stop offset="1" stop-color="#333"/>
    </radialGradient>
    <mask id="mask-2" x="24.93" y="5.12" width="17.93" height="46.93" maskUnits="userSpaceOnUse">
      <g class="cls-29">
        <g class="cls-20">
          <path class="cls-12" d="m42.86,5.12s-21.95,5.6-17.28,46.93c0,0,2.57-32.92,17.28-46.93Z"/>
        </g>
      </g>
    </mask>
    <radialGradient id="_Áåçûìÿííûé_ãðàäèåíò_40" data-name="Áåçûìÿííûé ãðàäèåíò 40" cx="33.9" cy="28.59" fx="33.9" fy="28.59" r="17.76" gradientUnits="userSpaceOnUse">
      <stop offset="0" stop-color="#fff"/>
      <stop offset="1" stop-color="#fff"/>
    </radialGradient>
    <filter id="luminosity-noclip-5" x="80.92" y="83.11" width="20.15" height="29.65" color-interpolation-filters="sRGB" filterUnits="userSpaceOnUse">
      <feFlood flood-color="#fff" result="bg"/>
      <feBlend in="SourceGraphic" in2="bg"/>
    </filter>
    <filter id="luminosity-noclip-6" x="80.92" y="-8256" width="20.15" height="32766" color-interpolation-filters="sRGB" filterUnits="userSpaceOnUse">
      <feFlood flood-color="#fff" result="bg"/>
      <feBlend in="SourceGraphic" in2="bg"/>
    </filter>
    <mask id="mask-5" x="80.92" y="-8256" width="20.15" height="32766" maskUnits="userSpaceOnUse"/>
    <radialGradient id="_Áåçûìÿííûé_ãðàäèåíò_108-2" data-name="Áåçûìÿííûé ãðàäèåíò 108" cx="91" cy="97.93" fx="91" fy="97.93" r="12.68" xlink:href="#_Áåçûìÿííûé_ãðàäèåíò_108"/>
    <mask id="mask-4" x="80.92" y="83.11" width="20.15" height="29.65" maskUnits="userSpaceOnUse">
      <g class="cls-17">
        <g class="cls-21">
          <path class="cls-9" d="m80.92,112.76s28.02-5.84,17.98-29.65c0,0,5.37,19.61-17.98,29.65Z"/>
        </g>
      </g>
    </mask>
    <radialGradient id="_Áåçûìÿííûé_ãðàäèåíò_40-2" data-name="Áåçûìÿííûé ãðàäèåíò 40" cx="91" cy="97.93" fx="91" fy="97.93" r="12.68" xlink:href="#_Áåçûìÿííûé_ãðàäèåíò_40"/>
    <filter id="luminosity-noclip-7" x="20.74" y="92.45" width="14.18" height="26.62" color-interpolation-filters="sRGB" filterUnits="userSpaceOnUse">
      <feFlood flood-color="#fff" result="bg"/>
      <feBlend in="SourceGraphic" in2="bg"/>
    </filter>
    <filter id="luminosity-noclip-8" x="20.74" y="-8256" width="14.18" height="32766" color-interpolation-filters="sRGB" filterUnits="userSpaceOnUse">
      <feFlood flood-color="#fff" result="bg"/>
      <feBlend in="SourceGraphic" in2="bg"/>
    </filter>
    <mask id="mask-7" x="20.74" y="-8256" width="14.18" height="32766" maskUnits="userSpaceOnUse"/>
    <radialGradient id="_Áåçûìÿííûé_ãðàäèåíò_108-3" data-name="Áåçûìÿííûé ãðàäèåíò 108" cx="27.83" cy="105.76" fx="27.83" fy="105.76" r="10.66" xlink:href="#_Áåçûìÿííûé_ãðàäèåíò_108"/>
    <mask id="mask-6" x="20.74" y="92.45" width="14.18" height="26.62" maskUnits="userSpaceOnUse">
      <g class="cls-16">
        <g class="cls-28">
          <path class="cls-3" d="m22.08,92.45s-7.47,20.78,12.84,26.62c0,0-14.94-8.87-12.84-26.62Z"/>
        </g>
      </g>
    </mask>
    <radialGradient id="_Áåçûìÿííûé_ãðàäèåíò_40-3" data-name="Áåçûìÿííûé ãðàäèåíò 40" cx="27.83" cy="105.76" fx="27.83" fy="105.76" r="10.66" xlink:href="#_Áåçûìÿííûé_ãðàäèåíò_40"/>
  </defs>
  <path class="cls-4" d="m31.11,118.35c-4.54-6.37-2.38-15.07-1-22.77,3.32-18.52.93-37.57,2.43-56.32.59-7.39,1.85-14.93,5.58-21.34,3.72-6.41,10.34-11.55,17.75-11.78,12.33-.39,20.91,11.72,27.03,22.43,11.55,20.2,23.07,40.78,28.98,63.29,1.49,5.68,2.48,12.2-.87,17.02-2.29,3.29-6.14,5.06-9.85,6.59-14.54,5.99-29.71,10.47-45.18,13.35-6.77,1.26-20.61-4.5-24.87-10.47Z"/>
  <path class="cls-11" d="m21.19,113.22c-4.54-6.37-2.38-15.07-1-22.77,3.32-18.52.93-37.57,2.43-56.32.59-7.39,1.85-14.93,5.58-21.34,3.72-6.41,10.34-11.55,17.75-11.78,12.33-.39,20.91,11.72,27.03,22.43,11.55,20.2,23.07,40.78,28.98,63.29,1.49,5.68,2.48,12.2-.87,17.02-2.29,3.29-6.14,5.06-9.85,6.59-14.54,5.99-29.71,10.47-45.18,13.35-6.77,1.26-20.61-4.5-24.87-10.47Z"/>
  <g class="cls-22">
    <g class="cls-27">
      <path class="cls-1" d="m25.26,108.54c-4.1-5.75-2.15-13.59-.91-20.55,2.99-16.7.84-33.89,2.19-50.81.53-6.67,1.67-13.46,5.03-19.25s9.32-10.42,16.01-10.63c11.13-.35,18.86,10.57,24.39,20.24,10.42,18.23,20.81,36.79,26.14,57.1,1.35,5.12,2.24,11-.79,15.35-2.06,2.97-5.54,4.57-8.88,5.94-13.12,5.4-26.8,9.44-40.75,12.04-6.11,1.14-18.59-4.06-22.43-9.45Z"/>
    </g>
  </g>
  <g class="cls-15">
    <path class="cls-5" d="m40.5,23.68s.18,1.36.48,3.74c.31,2.38.71,5.79,1.16,9.89.21,2.05.45,4.27.69,6.61.25,2.35.46,4.82.7,7.39.23,2.56.48,5.21.66,7.9.19,2.69.39,5.43.58,8.17.19,2.74.45,5.47.71,8.17.27,2.7.49,5.35.53,7.92.03,2.57-.09,5.05-.31,7.41-.2,2.36-.46,4.58-.78,6.63-.3,2.05-.66,3.93-1.02,5.6-.34,1.67-.74,3.12-1.07,4.31-.33,1.19-.63,2.13-.86,2.77-.22.64-.36.98-.36.98h-.91s-.13-.35-.34-1c-.21-.64-.49-1.58-.8-2.78-.31-1.2-.68-2.65-1-4.32-.33-1.67-.67-3.54-.96-5.59-.3-2.05-.56-4.26-.75-6.61-.21-2.34-.35-4.81-.34-7.37.01-2.56.21-5.2.43-7.89.22-2.69.41-5.42.54-8.15.24-5.46.42-10.92.69-16.05.24-5.13.47-9.91.67-14.02.44-8.22.74-13.69.74-13.69l.91-.03Z"/>
    <path class="cls-5" d="m40.28,23.58s.93,1.01,2.55,2.77c.82.87,1.81,1.92,2.95,3.13,1.15,1.2,2.46,2.53,3.89,3.99,2.87,2.9,6.28,6.19,10.02,9.61,1.87,1.71,3.85,3.42,5.84,5.17,1.01.86,2.02,1.73,3.04,2.6l1.55,1.29.78.64c.27.23.47.37.91.78.38.36.74.73,1.12,1.23.36.5.76,1.11,1.04,2.04.28.89.36,2.27-.15,3.48-.13.3-.23.53-.44.87l-.03.06-.17.25c-.14.19-.22.29-.32.4-.39.44-.78.74-1.11.98-.34.23-.62.39-.85.52l-.3.16-.12.06c-.18.09.22-.1.16-.08l-.03.02-.05.03-.86.54c-.57.36-1.2.74-1.5,1.06-.39.35-.73.59-1.15,1-.4.4-.82.78-1.24,1.16-.79.85-1.6,1.63-2.39,2.5-1.6,1.68-3.22,3.39-4.88,5.05-1.63,1.66-3.29,3.25-4.95,4.64-.82.7-1.64,1.35-2.47,1.94-.8.59-1.62,1.12-2.41,1.58-.76.48-1.55.85-2.26,1.19-.7.35-1.39.59-2.02.8-1.22.45-2.25.63-2.94.73-.68.11-1.05.14-1.05.14l-.37-.83s.24-.26.7-.75c.22-.24.5-.52.83-.84.32-.32.64-.77,1.04-1.19.19-.21.39-.44.6-.68.19-.26.39-.52.6-.8.42-.54.88-1.1,1.33-1.77.45-.65.95-1.3,1.43-2.07.5-.72,1.01-1.52,1.55-2.34,1.07-1.65,2.24-3.47,3.6-5.42,1.33-1.95,2.91-4.02,4.87-6.01.96-1,2.09-1.95,3.25-2.87.62-.44,1.24-.88,1.88-1.3.62-.42,1.45-.85,2.17-1.25.8-.46,1.38-.67,2.01-.94l.94-.39.06-.02h.03s.38-.2.22-.12l.11-.04.16-.05c.08-.02.09-.02.04.03-.05.05-.16.14-.32.33l-.16.2-.1.15.04-.05c-.12.19-.15.27-.2.42-.24.58-.17,1.24-.07,1.48.23.49.16.11-.05-.12-.03-.07-.35-.38-.58-.62l-.72-.75-1.44-1.5c-.94-1.01-1.88-2.01-2.81-3.01-1.85-2-3.6-4.04-5.26-6.03-1.65-2-3.24-3.93-4.68-5.82-1.45-1.88-2.78-3.68-3.99-5.35-2.41-3.36-4.31-6.22-5.59-8.26-1.27-2.04-2-3.2-2-3.2l.73-.55Z"/>
  </g>
  <g>
    <path class="cls-14" d="m43.21,23.69s.55,5.45,1.18,13.64c.16,2.05.33,4.27.51,6.61.16,2.35.33,4.82.51,7.39.35,5.12.61,10.59.88,16.07.16,2.74.32,5.47.47,8.17.18,2.69.31,5.35.35,7.91,0,2.57-.05,5.05-.19,7.4-.11,2.35-.3,4.58-.5,6.63-.18,2.05-.42,3.93-.64,5.6-.23,1.67-.46,3.12-.68,4.31-.43,2.39-.77,3.75-.77,3.75h-.57s-.32-1.38-.7-3.77c-.2-1.2-.4-2.65-.61-4.32-.19-1.67-.42-3.54-.58-5.59-.17-2.05-.36-4.27-.47-6.61-.13-2.35-.21-4.82-.22-7.38,0-2.56.11-5.2.25-7.89.14-2.69.2-5.42.3-8.15.45-21.87.9-43.75.9-43.75l.57-.02Z"/>
    <path class="cls-14" d="m43.02,23.68s.89,1.04,2.44,2.85c1.57,1.79,3.8,4.37,6.59,7.34,2.79,2.97,6.12,6.37,9.78,9.89,1.83,1.76,3.77,3.53,5.73,5.33.99.89,1.99,1.78,3,2.68,1.05.91,2.1,1.82,3.15,2.74.63.64,1.32,1.29,1.77,2.68.21.68.26,1.68-.11,2.56-.36.91-1.03,1.52-1.56,1.87-.26.18-.5.31-.7.41l-.27.14-.12.06c-.12.06.13-.06.09-.04l-.03.02-.06.03-.88.51c-.58.34-1.2.69-1.6,1.04-.45.36-.89.63-1.34,1.05-.45.4-.91.79-1.36,1.18-.86.87-1.74,1.66-2.55,2.57-1.68,1.73-3.28,3.52-4.87,5.23-.81.86-1.6,1.69-2.36,2.5-.82.79-1.56,1.57-2.35,2.29-.76.73-1.53,1.4-2.3,2.01-.74.62-1.49,1.19-2.22,1.67-.7.51-1.43.92-2.08,1.3-.65.39-1.28.68-1.87.93-1.13.54-2.09.8-2.74.97-.64.17-.98.26-.98.26l-.23-.52s.27-.22.77-.63c.25-.21.55-.45.91-.73.36-.28.72-.68,1.15-1.06.21-.19.44-.4.67-.61.22-.23.45-.48.69-.74.48-.5,1.01-1.02,1.51-1.66,1.06-1.19,2.15-2.64,3.34-4.23,1.19-1.63,2.48-3.41,3.85-5.28,1.39-1.89,2.99-3.89,4.87-5.83.94-.96,1.99-1.9,3.09-2.8.58-.42,1.17-.85,1.76-1.27.58-.42,1.32-.81,1.98-1.2.7-.44,1.3-.68,1.91-.96l.92-.43.24-.11.11-.05.19-.07.19-.08s-.12.1-.22.38c-.1.25-.06.53-.02.56.08.06-.13-.38-.44-.71-.94-.95-1.89-1.89-2.83-2.83-.96-.98-1.91-1.96-2.86-2.93-1.87-1.96-3.67-3.93-5.36-5.87-3.41-3.86-6.41-7.62-8.91-10.89-2.49-3.27-4.5-6.05-5.84-8.04-1.34-1.98-2.1-3.12-2.1-3.12l.45-.34Z"/>
  </g>
  <g class="cls-19">
    <path class="cls-13" d="m42.86,5.12s-21.95,5.6-17.28,46.93c0,0,2.57-32.92,17.28-46.93Z"/>
  </g>
  <g class="cls-23">
    <path class="cls-7" d="m80.92,112.76s28.02-5.84,17.98-29.65c0,0,5.37,19.61-17.98,29.65Z"/>
  </g>
  <g class="cls-24">
    <path class="cls-8" d="m22.08,92.45s-7.47,20.78,12.84,26.62c0,0-14.94-8.87-12.84-26.62Z"/>
  </g>
  <path class="cls-6" d="m38.49,8.09c-4.85-2.58-8.52,13.55-8.67,16.45-.07,1.44-.02,2.95.65,4.23.12.23.27.46.51.56.59.26,1.15-.4,1.46-.97,1.6-2.95,10.7-17.8,6.04-20.27Z"/>
  <g class="cls-18">
    <path class="cls-2" d="m32.49,35.78c-.36-.48-1.08-.74-1.6-.44-.19.26-.78,1.12-.97,1.38-.7,1.56-.75,2.62-.9,4.32-.07.79.08,1.81.85,1.99.59.14,1.13-.34,1.49-.82,1.02-1.34,1.58-3.02,1.57-4.71,0-.6-.09-1.24-.45-1.72Z"/>
  </g>
</svg>