<?xml version="1.0" encoding="UTF-8"?>
<svg id="Layer_1" data-name="Layer 1" xmlns="http://www.w3.org/2000/svg" xmlns:xlink="http://www.w3.org/1999/xlink" viewBox="0 0 128 128">
  <defs>
    <style>
      .cls-1 {
        fill: url(#_Áåçûìÿííûé_ãðàäèåíò_14);
      }

      .cls-1, .cls-2, .cls-3, .cls-4, .cls-5, .cls-6, .cls-7, .cls-8, .cls-9, .cls-10, .cls-11, .cls-12, .cls-13 {
        stroke-width: 0px;
      }

      .cls-2 {
        fill: url(#_Áåçûìÿííûé_ãðàäèåíò_108-3);
      }

      .cls-2, .cls-8, .cls-10, .cls-11 {
        mix-blend-mode: multiply;
      }

      .cls-3 {
        fill: #020202;
      }

      .cls-14 {
        filter: url(#luminosity-noclip-7);
      }

      .cls-15 {
        filter: url(#luminosity-noclip-5);
      }

      .cls-16 {
        mask: url(#mask-2);
      }

      .cls-17 {
        mask: url(#mask-3);
      }

      .cls-18 {
        mask: url(#mask-5);
      }

      .cls-19 {
        opacity: .4;
      }

      .cls-4, .cls-5 {
        fill: #fff;
      }

      .cls-5 {
        opacity: .6;
      }

      .cls-20 {
        opacity: .57;
      }

      .cls-21 {
        mask: url(#mask-4);
      }

      .cls-6 {
        fill: url(#_Áåçûìÿííûé_ãðàäèåíò_40-2);
      }

      .cls-7 {
        fill: url(#_Áåçûìÿííûé_ãðàäèåíò_40-3);
      }

      .cls-8 {
        fill: url(#_Áåçûìÿííûé_ãðàäèåíò_108-2);
      }

      .cls-22 {
        mask: url(#mask-6);
      }

      .cls-9 {
        fill: #0081cf;
      }

      .cls-10 {
        fill: url(#_Áåçûìÿííûé_ãðàäèåíò_111);
      }

      .cls-23 {
        filter: url(#luminosity-noclip);
      }

      .cls-24 {
        mask: url(#mask-1);
      }

      .cls-25 {
        mask: url(#mask);
      }

      .cls-26 {
        mask: url(#mask-7);
      }

      .cls-11 {
        fill: url(#_Áåçûìÿííûé_ãðàäèåíò_108);
      }

      .cls-12 {
        fill: url(#_Áåçûìÿííûé_ãðàäèåíò_40);
      }

      .cls-13 {
        fill: #171421;
      }

      .cls-27 {
        filter: url(#luminosity-noclip-3);
      }
    </style>
    <filter id="luminosity-noclip" x="26.04" y="4.47" width="68.45" height="117.89" color-interpolation-filters="sRGB" filterUnits="userSpaceOnUse">
      <feFlood flood-color="#fff" result="bg"/>
      <feBlend in="SourceGraphic" in2="bg"/>
    </filter>
    <filter id="luminosity-noclip-2" x="26.04" y="-8256" width="68.45" height="32766" color-interpolation-filters="sRGB" filterUnits="userSpaceOnUse">
      <feFlood flood-color="#fff" result="bg"/>
      <feBlend in="SourceGraphic" in2="bg"/>
    </filter>
    <mask id="mask-1" x="26.04" y="-8256" width="68.45" height="32766" maskUnits="userSpaceOnUse"/>
    <linearGradient id="_Áåçûìÿííûé_ãðàäèåíò_111" data-name="Áåçûìÿííûé ãðàäèåíò 111" x1="89.52" y1="95.08" x2="20.66" y2="26.22" gradientUnits="userSpaceOnUse">
      <stop offset="0" stop-color="#fff"/>
      <stop offset="1" stop-color="#000"/>
    </linearGradient>
    <mask id="mask" x="26.04" y="4.47" width="68.45" height="117.89" maskUnits="userSpaceOnUse">
      <g class="cls-23">
        <g class="cls-24">
          <path class="cls-10" d="m83.92,94.04c-1.5,6.46-4.43,14.26-11.02,14.97-2.4.26-4.82-.57-7.23-.37-9.02.76-13.43,14.81-22.41,13.65-5.86-.75-8.57-7.55-9.92-13.3-5.13-21.79-7.58-44.21-7.28-66.6.07-4.97.28-10,1.64-14.78C33.04,8.87,45.37-2.78,61.71,9.59c11.16,8.45,18.83,10.28,32.22,14.05,2.67,22.93-4.84,48.21-10.01,70.41Z"/>
        </g>
      </g>
    </mask>
    <linearGradient id="_Áåçûìÿííûé_ãðàäèåíò_14" data-name="Áåçûìÿííûé ãðàäèåíò 14" x1="89.52" y1="95.08" x2="20.66" y2="26.22" gradientUnits="userSpaceOnUse">
      <stop offset="0" stop-color="#000"/>
      <stop offset="1" stop-color="#00c9a7"/>
    </linearGradient>
    <filter id="luminosity-noclip-3" x="27.39" y="5.04" width="31.96" height="38.06" color-interpolation-filters="sRGB" filterUnits="userSpaceOnUse">
      <feFlood flood-color="#fff" result="bg"/>
      <feBlend in="SourceGraphic" in2="bg"/>
    </filter>
    <filter id="luminosity-noclip-4" x="27.39" y="-8256" width="31.96" height="32766" color-interpolation-filters="sRGB" filterUnits="userSpaceOnUse">
      <feFlood flood-color="#fff" result="bg"/>
      <feBlend in="SourceGraphic" in2="bg"/>
    </filter>
    <mask id="mask-3" x="27.39" y="-8256" width="31.96" height="32766" maskUnits="userSpaceOnUse"/>
    <radialGradient id="_Áåçûìÿííûé_ãðàäèåíò_108" data-name="Áåçûìÿííûé ãðàäèåíò 108" cx="43.37" cy="24.07" fx="43.37" fy="24.07" r="17.57" gradientUnits="userSpaceOnUse">
      <stop offset="0" stop-color="#fff"/>
      <stop offset="1" stop-color="#333"/>
    </radialGradient>
    <mask id="mask-2" x="27.39" y="5.04" width="31.96" height="38.06" maskUnits="userSpaceOnUse">
      <g class="cls-27">
        <g class="cls-17">
          <path class="cls-11" d="m59.35,7.63S29.14-9.22,27.39,43.1c0,0,4.82-34.37,31.96-35.47Z"/>
        </g>
      </g>
    </mask>
    <radialGradient id="_Áåçûìÿííûé_ãðàäèåíò_40" data-name="Áåçûìÿííûé ãðàäèåíò 40" cx="43.37" cy="24.07" fx="43.37" fy="24.07" r="17.57" gradientUnits="userSpaceOnUse">
      <stop offset="0" stop-color="#fff"/>
      <stop offset="1" stop-color="#fff"/>
    </radialGradient>
    <filter id="luminosity-noclip-5" x="65.05" y="86.88" width="21.46" height="23.31" color-interpolation-filters="sRGB" filterUnits="userSpaceOnUse">
      <feFlood flood-color="#fff" result="bg"/>
      <feBlend in="SourceGraphic" in2="bg"/>
    </filter>
    <filter id="luminosity-noclip-6" x="65.05" y="-8256" width="21.46" height="32766" color-interpolation-filters="sRGB" filterUnits="userSpaceOnUse">
      <feFlood flood-color="#fff" result="bg"/>
      <feBlend in="SourceGraphic" in2="bg"/>
    </filter>
    <mask id="mask-5" x="65.05" y="-8256" width="21.46" height="32766" maskUnits="userSpaceOnUse"/>
    <radialGradient id="_Áåçûìÿííûé_ãðàäèåíò_108-2" data-name="Áåçûìÿííûé ãðàäèåíò 108" cx="75.77" cy="98.54" fx="75.77" fy="98.54" r="11.2" xlink:href="#_Áåçûìÿííûé_ãðàäèåíò_108"/>
    <mask id="mask-4" x="65.05" y="86.88" width="21.46" height="23.31" maskUnits="userSpaceOnUse">
      <g class="cls-15">
        <g class="cls-18">
          <path class="cls-8" d="m65.05,109.22s16.2,8.1,21.46-22.33c0,0-8.76,22.99-21.46,22.33Z"/>
        </g>
      </g>
    </mask>
    <radialGradient id="_Áåçûìÿííûé_ãðàäèåíò_40-2" data-name="Áåçûìÿííûé ãðàäèåíò 40" cx="75.77" cy="98.54" fx="75.77" fy="98.54" r="11.2" xlink:href="#_Áåçûìÿííûé_ãðàäèåíò_40"/>
    <filter id="luminosity-noclip-7" x="79.06" y="17.27" width="16.07" height="43.13" color-interpolation-filters="sRGB" filterUnits="userSpaceOnUse">
      <feFlood flood-color="#fff" result="bg"/>
      <feBlend in="SourceGraphic" in2="bg"/>
    </filter>
    <filter id="luminosity-noclip-8" x="79.06" y="-8256" width="16.07" height="32766" color-interpolation-filters="sRGB" filterUnits="userSpaceOnUse">
      <feFlood flood-color="#fff" result="bg"/>
      <feBlend in="SourceGraphic" in2="bg"/>
    </filter>
    <mask id="mask-7" x="79.06" y="-8256" width="16.07" height="32766" maskUnits="userSpaceOnUse"/>
    <radialGradient id="_Áåçûìÿííûé_ãðàäèåíò_108-3" data-name="Áåçûìÿííûé ãðàäèåíò 108" cx="87.09" cy="38.83" fx="87.09" fy="38.83" r="16.27" xlink:href="#_Áåçûìÿííûé_ãðàäèåíò_108"/>
    <mask id="mask-6" x="79.06" y="17.27" width="16.07" height="43.13" maskUnits="userSpaceOnUse">
      <g class="cls-14">
        <g class="cls-26">
          <path class="cls-2" d="m79.06,17.27l15.98,4.6s.88,30.43-2.85,38.53c0,0,7.01-36.56-13.14-43.13Z"/>
        </g>
      </g>
    </mask>
    <radialGradient id="_Áåçûìÿííûé_ãðàäèåíò_40-3" data-name="Áåçûìÿííûé ãðàäèåíò 40" cx="87.09" cy="38.83" fx="87.09" fy="38.83" r="16.27" xlink:href="#_Áåçûìÿííûé_ãðàäèåíò_40"/>
  </defs>
  <path class="cls-3" d="m93.58,97.86c-1.61,6.92-4.74,15.26-11.8,16.03-2.57.28-5.16-.61-7.74-.39-9.66.81-14.38,15.85-23.99,14.62-6.27-.81-9.17-8.09-10.62-14.24-5.49-23.33-8.11-47.34-7.79-71.31.07-5.32.29-10.71,1.75-15.83C39.1,6.67,52.31-5.81,69.8,7.44c11.95,9.05,20.16,11.01,34.49,15.04,2.86,24.56-5.18,51.62-10.71,75.38Z"/>
  <path class="cls-9" d="m85.95,96.08c-1.61,6.92-4.74,15.26-11.8,16.03-2.57.28-5.16-.61-7.74-.39-9.66.81-14.38,15.85-23.99,14.62-6.27-.81-9.17-8.09-10.62-14.24-5.49-23.33-8.11-47.34-7.79-71.31.07-5.32.29-10.71,1.75-15.83C31.47,4.89,44.67-7.59,62.16,5.66c11.95,9.05,20.16,11.01,34.49,15.04,2.86,24.56-5.18,51.62-10.71,75.38Z"/>
  <g class="cls-20">
    <g class="cls-25">
      <path class="cls-1" d="m83.92,94.04c-1.5,6.46-4.43,14.26-11.02,14.97-2.4.26-4.82-.57-7.23-.37-9.02.76-13.43,14.81-22.41,13.65-5.86-.75-8.57-7.55-9.92-13.3-5.13-21.79-7.58-44.21-7.28-66.6.07-4.97.28-10,1.64-14.78C33.04,8.87,45.37-2.78,61.71,9.59c11.16,8.45,18.83,10.28,32.22,14.05,2.67,22.93-4.84,48.21-10.01,70.41Z"/>
    </g>
  </g>
  <g class="cls-19">
    <path class="cls-4" d="m72.34,22.01s-.02.1-.06.28c-.03.17-.12.51-.25.88-.26.75-.83,1.8-1.75,2.91-.46.56-.99,1.14-1.57,1.74-.28.29-.62.62-.88.91-.3.33-.62.68-.94,1.03-1.32,1.42-2.55,3.04-3.93,4.92-1.32,1.91-2.69,4-4.04,6.31-1.35,2.31-2.77,4.76-4.22,7.34-2.93,5.15-6.22,10.74-10.64,15.82-.27.33-.54.63-.63.78-.14.19-.21.35-.2.37,0,.04.16-.14.17-.65.03-.53-.25-1.13-.5-1.4-.21-.23-.14-.16.2,0l1.16.63c.42.26.91.57,1.33.86.38.29.78.56,1.14.87,2.97,2.4,5,5.24,6.64,7.82.81,1.31,1.53,2.56,2.19,3.74.67,1.17,1.32,2.31,1.96,3.42,1.31,2.2,2.61,4.27,3.86,6.17,1.26,1.89,2.45,3.62,3.55,5.16,1.1,1.52,2.07,2.89,2.9,3.99.83,1.12,1.49,2,1.93,2.61.45.62.68.95.68.95l-.52.68s-.39-.14-1.1-.45c-.36-.14-.79-.34-1.29-.59-.5-.24-1.09-.52-1.71-.88-1.26-.69-2.77-1.58-4.41-2.74-1.64-1.16-3.43-2.57-5.24-4.26-1.82-1.69-3.68-3.66-5.46-5.89-.45-.55-.9-1.16-1.35-1.76-.43-.61-.79-1.09-1.25-1.79-.83-1.23-1.58-2.48-2.32-3.69-1.45-2.43-2.81-4.75-4.43-6.55-.2-.23-.42-.42-.63-.64l-.56-.52-.47-.35-.24-.17-.06-.04-.03-.02c-.11-.07.12.07.09.05l-.11-.08c-.33-.24-.95-.56-1.71-1.36-.81-.83-1.43-2.19-1.42-3.51,0-1.3.42-2.25.79-2.9.39-.67.78-1.15,1.16-1.56.42-.45.71-.7.96-.96,2.14-2.02,4.12-4.31,5.98-6.67,1.86-2.37,3.66-4.79,5.39-7.17,1.74-2.38,3.41-4.73,5.11-6.89,1.68-2.17,3.39-4.17,5.01-5.96,1.65-1.74,3.29-3.38,4.76-4.59.37-.31.72-.61,1.06-.9.39-.33.71-.57,1.04-.83.65-.51,1.23-.97,1.72-1.41.99-.88,1.59-1.69,1.91-2.29.31-.56.43-.98.43-.98l.82.23Z"/>
    <path class="cls-4" d="m38.88,101.35c2.45-3.51,4.92-7,7.42-10.46l7.48-10.42,7.56-10.35,7.66-10.27-.73,2.61c-.02.11.01.15-.11.02-.12-.12-.35-.35-.69-.63l-2.51-2.09c-.85-.71-1.73-1.51-2.6-2.27l-2.5-2.32c-.8-.8-1.6-1.6-2.39-2.42-.75-.84-1.52-1.67-2.25-2.53-.71-.87-1.43-1.74-2.1-2.65-.67-.9-1.33-1.81-1.95-2.74-2.51-3.72-4.72-7.59-6.68-11.58-.98-2-1.89-4.02-2.74-6.09-.4-1.04-.82-2.07-1.2-3.13-.38-1.06-.75-2.12-1.06-3.21l.72-.46c.87.74,1.68,1.52,2.48,2.3.81.78,1.57,1.58,2.36,2.37,1.54,1.59,3.02,3.22,4.48,4.85l2.16,2.45,2.13,2.45,4.18,4.9,2.05,2.44,2.02,2.46,3.95,4.94,2,2.45c.68.78,1.32,1.56,2.05,2.35.76.8,1.47,1.6,2.27,2.4.45.47.98,1.03,1.49,1.81.51.76,1,1.82,1.14,3.02l.19,1.58-.92,1.03-8.55,9.54-8.64,9.46-8.73,9.39c-2.9,3.14-5.83,6.25-8.78,9.35l-.66-.54Z"/>
  </g>
  <g>
    <path class="cls-13" d="m75.24,21.96s-.02.1-.07.28c-.04.18-.13.49-.27.84-.28.72-.84,1.73-1.78,2.8-.46.54-1.01,1.09-1.6,1.68-.29.29-.59.59-.91.9-.31.32-.63.66-.96,1.01-1.35,1.38-2.65,3-4.08,4.86-1.37,1.89-2.81,3.96-4.22,6.25-1.41,2.28-2.88,4.71-4.39,7.26-3.03,5.07-6.38,10.56-10.78,15.45-.27.32-.54.61-.69.82-.18.23-.31.45-.37.59-.07.15-.02.18,0,0,.02-.19-.09-.42-.15-.49-.03-.04.14.08.48.25l1.1.63c.38.25.8.53,1.18.8.35.27.71.54,1.05.82,2.71,2.28,4.62,5.03,6.23,7.58.78,1.3,1.53,2.54,2.21,3.74.71,1.17,1.4,2.32,2.08,3.44.69,1.11,1.39,2.17,2.11,3.18.68,1.03,1.38,2.01,2.06,2.93,1.37,1.85,2.66,3.53,3.87,4.99,1.19,1.47,2.28,2.72,3.18,3.75,1.84,2.07,2.89,3.25,2.89,3.25l-.32.42s-.35-.19-1.02-.54c-.67-.36-1.62-.91-2.8-1.68-1.19-.76-2.58-1.75-4.12-2.98-1.53-1.24-3.22-2.69-4.92-4.43-.85-.87-1.72-1.79-2.6-2.78-.86-1-1.71-2.06-2.56-3.17-.43-.55-.86-1.14-1.29-1.73-.4-.59-.8-1.18-1.2-1.79-.81-1.22-1.53-2.48-2.3-3.7-1.48-2.46-2.97-4.88-4.85-6.79-.23-.24-.48-.45-.73-.69l-.7-.58-.89-.61c-.34-.22-.85-.5-1.43-1.1-.61-.62-1.07-1.62-1.07-2.59,0-.96.31-1.7.61-2.24.61-1.07,1.39-1.73,1.89-2.25,2.16-2.12,4.12-4.48,5.96-6.9,1.84-2.43,3.59-4.89,5.27-7.31,1.69-2.42,3.31-4.79,4.94-6.98,1.62-2.2,3.26-4.21,4.83-6.03,1.6-1.76,3.16-3.4,4.6-4.65.36-.32.71-.63,1.04-.93.35-.29.69-.58,1.01-.85.64-.53,1.21-1.01,1.69-1.47.98-.92,1.57-1.78,1.88-2.41.31-.61.4-1.01.4-1.01l.51.14Z"/>
    <path class="cls-13" d="m42.06,101.45c5.08-6.87,10.26-13.65,15.39-20.48l15.59-20.31-.46,1.63c-.04-.23-.41-.76-1.16-1.39l-2.46-2.15-2.49-2.29-2.41-2.34-2.31-2.43c-.73-.84-1.49-1.67-2.2-2.52-.69-.87-1.41-1.72-2.08-2.61-.66-.89-1.33-1.78-1.97-2.69-1.27-1.82-2.49-3.67-3.66-5.54-1.14-1.89-2.3-3.77-3.34-5.71-1.08-1.92-2.08-3.88-3.07-5.85l-1.42-2.99c-.46-1-.9-2.02-1.33-3.04l.45-.29c.76.81,1.5,1.63,2.22,2.47l2.14,2.51c1.4,1.69,2.79,3.38,4.15,5.09l4.08,5.09c1.33,1.71,2.69,3.39,4.06,5.05.66.85,1.35,1.67,2.04,2.5.66.85,1.35,1.66,2.03,2.49,1.35,1.66,2.71,3.3,4.08,4.95l2.09,2.42c.72.78,1.4,1.56,2.16,2.33l2.32,2.34c.43.44.9.94,1.33,1.59.43.64.82,1.5.94,2.45l.12.97-.58.66-16.82,19.31c-5.68,6.38-11.29,12.81-17.02,19.14l-.41-.34Z"/>
  </g>
  <g class="cls-16">
    <path class="cls-12" d="m59.35,7.63S29.14-9.22,27.39,43.1c0,0,4.82-34.37,31.96-35.47Z"/>
  </g>
  <g class="cls-21">
    <path class="cls-6" d="m65.05,109.22s16.2,8.1,21.46-22.33c0,0-8.76,22.99-21.46,22.33Z"/>
  </g>
  <g class="cls-22">
    <path class="cls-7" d="m79.06,17.27l15.98,4.6s.88,30.43-2.85,38.53c0,0,7.01-36.56-13.14-43.13Z"/>
  </g>
  <path class="cls-5" d="m32.62,19.42c2.9,1.16,6.18.42,9.15-.56,2.77-.91,5.64-2.16,7.26-4.58.68-1.02,1.1-2.19,1.41-3.38.18-.67.33-1.36.23-2.04-.2-1.46-1.48-2.58-2.88-3.04-7.38-2.41-13.98,7.5-15.17,13.6Z"/>
  <path class="cls-5" d="m30.11,32.66c.03,1.25.1,2.61.89,3.59.78.98,2.57,1.21,3.19.12.24-.43.25-.94.26-1.43,0-.74.01-1.48.02-2.22.01-1.33,0-2.73-.65-3.89-.7-1.24-2.42-2.08-3.49-.9-.83.92-.24,3.61-.21,4.74Z"/>
</svg>