<?xml version="1.0" encoding="UTF-8"?>
<svg id="Layer_1" data-name="Layer 1" xmlns="http://www.w3.org/2000/svg" xmlns:xlink="http://www.w3.org/1999/xlink" viewBox="0 0 128 128">
  <defs>
    <style>
      .cls-1 {
        fill: url(#_Áåçûìÿííûé_ãðàäèåíò_14);
      }

      .cls-1, .cls-2, .cls-3, .cls-4, .cls-5, .cls-6, .cls-7, .cls-8, .cls-9, .cls-10, .cls-11, .cls-12, .cls-13 {
        stroke-width: 0px;
      }

      .cls-2 {
        fill: url(#_Áåçûìÿííûé_ãðàäèåíò_108-3);
      }

      .cls-2, .cls-8, .cls-9, .cls-10 {
        mix-blend-mode: multiply;
      }

      .cls-3 {
        fill: #020202;
      }

      .cls-14 {
        filter: url(#luminosity-noclip-7);
      }

      .cls-15 {
        filter: url(#luminosity-noclip-5);
      }

      .cls-16 {
        mask: url(#mask-2);
      }

      .cls-17 {
        mask: url(#mask-3);
      }

      .cls-18 {
        mask: url(#mask-5);
      }

      .cls-19 {
        opacity: .4;
      }

      .cls-4, .cls-5 {
        fill: #fff;
      }

      .cls-5 {
        opacity: .6;
      }

      .cls-20 {
        opacity: .57;
      }

      .cls-21 {
        mask: url(#mask-4);
      }

      .cls-6 {
        fill: url(#_Áåçûìÿííûé_ãðàäèåíò_40-2);
      }

      .cls-7 {
        fill: url(#_Áåçûìÿííûé_ãðàäèåíò_40-3);
      }

      .cls-8 {
        fill: url(#_Áåçûìÿííûé_ãðàäèåíò_108-2);
      }

      .cls-22 {
        mask: url(#mask-6);
      }

      .cls-9 {
        fill: url(#_Áåçûìÿííûé_ãðàäèåíò_111);
      }

      .cls-23 {
        filter: url(#luminosity-noclip);
      }

      .cls-24 {
        mask: url(#mask-1);
      }

      .cls-25 {
        mask: url(#mask);
      }

      .cls-26 {
        mask: url(#mask-7);
      }

      .cls-10 {
        fill: url(#_Áåçûìÿííûé_ãðàäèåíò_108);
      }

      .cls-11 {
        fill: #d65db1;
      }

      .cls-12 {
        fill: url(#_Áåçûìÿííûé_ãðàäèåíò_40);
      }

      .cls-13 {
        fill: #171421;
      }

      .cls-27 {
        filter: url(#luminosity-noclip-3);
      }
    </style>
    <filter id="luminosity-noclip" x="21.53" y="5.25" width="77.21" height="112.69" color-interpolation-filters="sRGB" filterUnits="userSpaceOnUse">
      <feFlood flood-color="#fff" result="bg"/>
      <feBlend in="SourceGraphic" in2="bg"/>
    </filter>
    <filter id="luminosity-noclip-2" x="21.53" y="-8256" width="77.21" height="32766" color-interpolation-filters="sRGB" filterUnits="userSpaceOnUse">
      <feFlood flood-color="#fff" result="bg"/>
      <feBlend in="SourceGraphic" in2="bg"/>
    </filter>
    <mask id="mask-1" x="21.53" y="-8256" width="77.21" height="32766" maskUnits="userSpaceOnUse"/>
    <linearGradient id="_Áåçûìÿííûé_ãðàäèåíò_111" data-name="Áåçûìÿííûé ãðàäèåíò 111" x1="97.12" y1="93.06" x2="25.93" y2="21.86" gradientUnits="userSpaceOnUse">
      <stop offset="0" stop-color="#fff"/>
      <stop offset="1" stop-color="#000"/>
    </linearGradient>
    <mask id="mask" x="21.53" y="5.25" width="77.21" height="112.69" maskUnits="userSpaceOnUse">
      <g class="cls-23">
        <g class="cls-24">
          <path class="cls-9" d="m25.42,88.15c-2.42-8.4-2.93-17.22-3.41-25.95-.52-9.26-1.03-18.64.87-27.71,1.89-9.07,6.51-17.96,14.26-23.04,8.11-5.31,18.36-5.8,28.05-6.11,7.72-.25,16.1-.31,22.33,4.26,7.62,5.59,9.4,16.07,10.24,25.48,1.4,15.67,1.85,31.72-2.3,46.9-4.14,15.13-15.03,35.66-32.86,35.96-17.39.29-32.64-14.04-37.18-29.78Z"/>
        </g>
      </g>
    </mask>
    <linearGradient id="_Áåçûìÿííûé_ãðàäèåíò_14" data-name="Áåçûìÿííûé ãðàäèåíò 14" x1="97.12" y1="93.06" x2="25.93" y2="21.86" gradientUnits="userSpaceOnUse">
      <stop offset="0" stop-color="#000"/>
      <stop offset="1" stop-color="#00c9a7"/>
    </linearGradient>
    <filter id="luminosity-noclip-3" x="21.09" y="2.3" width="34.11" height="45.44" color-interpolation-filters="sRGB" filterUnits="userSpaceOnUse">
      <feFlood flood-color="#fff" result="bg"/>
      <feBlend in="SourceGraphic" in2="bg"/>
    </filter>
    <filter id="luminosity-noclip-4" x="21.09" y="-8256" width="34.11" height="32766" color-interpolation-filters="sRGB" filterUnits="userSpaceOnUse">
      <feFlood flood-color="#fff" result="bg"/>
      <feBlend in="SourceGraphic" in2="bg"/>
    </filter>
    <mask id="mask-3" x="21.09" y="-8256" width="34.11" height="32766" maskUnits="userSpaceOnUse"/>
    <radialGradient id="_Áåçûìÿííûé_ãðàäèåíò_108" data-name="Áåçûìÿííûé ãðàäèåíò 108" cx="38.14" cy="25.02" fx="38.14" fy="25.02" r="20.09" gradientUnits="userSpaceOnUse">
      <stop offset="0" stop-color="#fff"/>
      <stop offset="1" stop-color="#333"/>
    </radialGradient>
    <mask id="mask-2" x="21.09" y="2.3" width="34.11" height="45.44" maskUnits="userSpaceOnUse">
      <g class="cls-27">
        <g class="cls-17">
          <path class="cls-10" d="m55.19,2.3S19.08,8.13,21.17,47.74c0,0,3.26-26.1,34.02-45.44Z"/>
        </g>
      </g>
    </mask>
    <radialGradient id="_Áåçûìÿííûé_ãðàäèåíò_40" data-name="Áåçûìÿííûé ãðàäèåíò 40" cx="38.14" cy="25.02" fx="38.14" fy="25.02" r="20.09" gradientUnits="userSpaceOnUse">
      <stop offset="0" stop-color="#fff"/>
      <stop offset="1" stop-color="#fff"/>
    </radialGradient>
    <filter id="luminosity-noclip-5" x="46.81" y="96.2" width="44.5" height="24.66" color-interpolation-filters="sRGB" filterUnits="userSpaceOnUse">
      <feFlood flood-color="#fff" result="bg"/>
      <feBlend in="SourceGraphic" in2="bg"/>
    </filter>
    <filter id="luminosity-noclip-6" x="46.81" y="-8256" width="44.5" height="32766" color-interpolation-filters="sRGB" filterUnits="userSpaceOnUse">
      <feFlood flood-color="#fff" result="bg"/>
      <feBlend in="SourceGraphic" in2="bg"/>
    </filter>
    <mask id="mask-5" x="46.81" y="-8256" width="44.5" height="32766" maskUnits="userSpaceOnUse"/>
    <radialGradient id="_Áåçûìÿííûé_ãðàäèåíò_108-2" data-name="Áåçûìÿííûé ãðàäèåíò 108" cx="69.06" cy="108.53" fx="69.06" fy="108.53" r="17.99" xlink:href="#_Áåçûìÿííûé_ãðàäèåíò_108"/>
    <mask id="mask-4" x="46.81" y="96.2" width="44.5" height="24.66" maskUnits="userSpaceOnUse">
      <g class="cls-15">
        <g class="cls-18">
          <path class="cls-8" d="m46.81,118.1s30.06,14.21,44.5-21.9c0,0-14.21,29.36-44.5,21.9Z"/>
        </g>
      </g>
    </mask>
    <radialGradient id="_Áåçûìÿííûé_ãðàäèåíò_40-2" data-name="Áåçûìÿííûé ãðàäèåíò 40" cx="69.06" cy="108.53" fx="69.06" fy="108.53" r="17.99" xlink:href="#_Áåçûìÿííûé_ãðàäèåíò_40"/>
    <filter id="luminosity-noclip-7" x="69.17" y="2.22" width="28.89" height="27.11" color-interpolation-filters="sRGB" filterUnits="userSpaceOnUse">
      <feFlood flood-color="#fff" result="bg"/>
      <feBlend in="SourceGraphic" in2="bg"/>
    </filter>
    <filter id="luminosity-noclip-8" x="69.17" y="-8256" width="28.89" height="32766" color-interpolation-filters="sRGB" filterUnits="userSpaceOnUse">
      <feFlood flood-color="#fff" result="bg"/>
      <feBlend in="SourceGraphic" in2="bg"/>
    </filter>
    <mask id="mask-7" x="69.17" y="-8256" width="28.89" height="32766" maskUnits="userSpaceOnUse"/>
    <radialGradient id="_Áåçûìÿííûé_ãðàäèåíò_108-3" data-name="Áåçûìÿííûé ãðàäèåíò 108" cx="83.62" cy="15.77" fx="83.62" fy="15.77" r="14.01" xlink:href="#_Áåçûìÿííûé_ãðàäèåíò_108"/>
    <mask id="mask-6" x="69.17" y="2.22" width="28.89" height="27.11" maskUnits="userSpaceOnUse">
      <g class="cls-14">
        <g class="cls-26">
          <path class="cls-2" d="m69.17,2.3s27.26-3.03,28.89,27.03c0,0-3.5-24-28.89-27.03Z"/>
        </g>
      </g>
    </mask>
    <radialGradient id="_Áåçûìÿííûé_ãðàäèåíò_40-3" data-name="Áåçûìÿííûé ãðàäèåíò 40" cx="83.62" cy="15.77" fx="83.62" fy="15.77" r="14.01" xlink:href="#_Áåçûìÿííûé_ãðàäèåíò_40"/>
  </defs>
  <path class="cls-3" d="m30.2,94.79c-2.67-9.25-3.22-18.95-3.76-28.56-.57-10.19-1.13-20.52.96-30.51,2.09-9.99,7.16-19.77,15.7-25.36,8.93-5.85,20.21-6.38,30.88-6.73,8.5-.28,17.72-.34,24.58,4.69,8.39,6.15,10.35,17.69,11.27,28.05,1.54,17.25,2.04,34.91-2.53,51.62-4.56,16.66-16.54,39.25-36.17,39.58-19.14.32-35.92-15.46-40.92-32.78Z"/>
  <path class="cls-11" d="m21.92,90.83c-2.67-9.25-3.22-18.95-3.76-28.56-.57-10.19-1.13-20.52.96-30.51,2.09-9.99,7.16-19.77,15.7-25.36C43.75.55,55.03.02,65.7-.33c8.5-.28,17.72-.34,24.58,4.69,8.39,6.15,10.35,17.69,11.27,28.05,1.54,17.25,2.04,34.91-2.53,51.62-4.56,16.66-16.54,39.25-36.17,39.58-19.14.32-35.92-15.46-40.92-32.78Z"/>
  <g class="cls-20">
    <g class="cls-25">
      <path class="cls-1" d="m25.42,88.15c-2.42-8.4-2.93-17.22-3.41-25.95-.52-9.26-1.03-18.64.87-27.71,1.89-9.07,6.51-17.96,14.26-23.04,8.11-5.31,18.36-5.8,28.05-6.11,7.72-.25,16.1-.31,22.33,4.26,7.62,5.59,9.4,16.07,10.24,25.48,1.4,15.67,1.85,31.72-2.3,46.9-4.14,15.13-15.03,35.66-32.86,35.96-17.39.29-32.64-14.04-37.18-29.78Z"/>
    </g>
  </g>
  <g class="cls-19">
    <path class="cls-4" d="m42.87,20.4s.34,4.85.85,12.13c.23,3.63.51,7.87.8,12.41.33,4.54.56,9.37.87,14.2.16,2.41.38,4.83.64,7.2.25,2.37.49,4.71.54,6.97.05,2.26-.05,4.45-.23,6.53-.16,2.08-.39,4.04-.65,5.86-.25,1.82-.56,3.49-.87,4.97-.3,1.48-.64,2.78-.93,3.84-.29,1.07-.56,1.91-.75,2.48-.19.57-.32.88-.32.88l-.91.03s-.14-.3-.37-.86c-.23-.56-.55-1.38-.9-2.44-.35-1.05-.77-2.33-1.14-3.8-.39-1.47-.78-3.13-1.11-4.95-.35-1.82-.65-3.78-.88-5.87-.26-2.09-.41-4.29-.42-6.57,0-2.28.18-4.64.42-7.03.22-2.39.45-4.82.6-7.25.16-2.43.33-4.86.49-7.25.15-2.39.38-4.74.57-7.01.22-2.27.39-4.47.62-6.55.22-2.08.43-4.05.63-5.86.42-3.63.78-6.66,1.07-8.76.29-2.11.45-3.32.45-3.32l.91.03Z"/>
    <path class="cls-4" d="m43.9,20.32s4.76,3.51,11.8,8.9c3.51,2.7,7.62,5.85,11.97,9.26,2.18,1.71,4.45,3.45,6.7,5.28,1.09.89,2.43,1.87,3.71,3.44.64.8,1.22,1.72,1.65,2.89.39,1.06.56,2.14.65,3.01l.22,2.33c.06.73.13,1.47.22,2.2.16,1.46.32,2.92.48,4.37.34,2.89.63,5.74.75,8.5.11,2.76.07,5.43-.07,7.97-.12,2.54-.3,4.94-.54,7.16-.22,2.22-.51,4.25-.79,6.06-.28,1.81-.61,3.38-.89,4.68-.28,1.3-.54,2.32-.73,3.02-.19.7-.31,1.07-.31,1.07l-.91.03s-.15-.36-.38-1.05c-.24-.68-.56-1.69-.92-2.97-.36-1.28-.79-2.83-1.18-4.62-.4-1.78-.81-3.8-1.18-6-.37-2.2-.71-4.58-.99-7.11-.3-2.52-.51-5.19-.57-7.95-.06-2.76.06-5.62.21-8.53.07-1.45.14-2.92.21-4.39.04-.74.06-1.47.08-2.21l.05-2.09c0-.6-.02-.99-.1-1.33-.04-.23-.18-.6-.42-.98-.49-.79-1.4-1.71-2.47-2.75-2.08-2.03-4.08-4.07-6.03-6.04-3.91-3.92-7.51-7.63-10.61-10.8-6.18-6.36-10.22-10.68-10.22-10.68l.6-.68Z"/>
  </g>
  <g>
    <path class="cls-13" d="m45.97,20.4s.67,19.37,1.33,38.74c.1,2.42.24,4.83.41,7.21.17,2.38.31,4.72.36,6.98.03,2.26-.01,4.46-.11,6.53-.08,2.08-.23,4.05-.37,5.86-.14,1.82-.33,3.48-.49,4.96-.18,1.48-.36,2.77-.54,3.83-.34,2.13-.63,3.35-.63,3.35l-.57.02s-.36-1.2-.83-3.31c-.24-1.05-.49-2.34-.75-3.81-.25-1.47-.52-3.13-.73-4.95-.23-1.82-.45-3.78-.6-5.87-.17-2.08-.26-4.28-.3-6.56-.01-4.55.44-9.41.61-14.27.2-4.85.4-9.71.7-14.25.15-2.27.26-4.47.43-6.55.16-2.08.31-4.05.45-5.86.56-7.26,1.07-12.09,1.07-12.09l.57.02Z"/>
    <path class="cls-13" d="m47.05,20.45s4.63,3.66,11.5,9.24c3.44,2.78,7.46,6.02,11.73,9.54,2.13,1.76,4.34,3.57,6.58,5.42,1.09.92,2.35,1.89,3.48,3.31.56.72,1.07,1.54,1.42,2.53.33.92.47,1.88.55,2.7.23,2.97.46,5.93.68,8.85.25,2.89.46,5.74.57,8.5.09,2.76.11,5.43.05,7.97-.03,2.53-.14,4.93-.26,7.15-.1,2.21-.27,4.25-.42,6.05-.16,1.8-.33,3.37-.49,4.67-.32,2.59-.61,4.07-.61,4.07l-.57.02s-.38-1.46-.86-4.03c-.25-1.28-.51-2.84-.79-4.63-.26-1.79-.56-3.81-.8-6.01-.25-2.2-.52-4.59-.71-7.12-.22-2.53-.36-5.19-.45-7.96-.06-2.76-.04-5.62.03-8.52.02-1.45.04-2.91.07-4.38.01-1.44.02-2.89.03-4.34-.02-.65-.07-1.17-.2-1.65-.11-.4-.34-.88-.65-1.34-.63-.94-1.63-1.87-2.7-2.88-2.1-2.01-4.16-3.98-6.16-5.89-3.99-3.82-7.69-7.43-10.85-10.52-6.35-6.16-10.53-10.33-10.53-10.33l.38-.42Z"/>
  </g>
  <g class="cls-16">
    <path class="cls-12" d="m55.19,2.3S19.08,8.13,21.17,47.74c0,0,3.26-26.1,34.02-45.44Z"/>
  </g>
  <g class="cls-21">
    <path class="cls-6" d="m46.81,118.1s30.06,14.21,44.5-21.9c0,0-14.21,29.36-44.5,21.9Z"/>
  </g>
  <g class="cls-22">
    <path class="cls-7" d="m69.17,2.3s27.26-3.03,28.89,27.03c0,0-3.5-24-28.89-27.03Z"/>
  </g>
  <path class="cls-5" d="m24.18,23.71c.57-1.72,1.46-3.34,2.35-4.95.94-1.71,1.89-3.43,3.15-4.9,1.26-1.46,2.89-2.66,4.55-2.9,1.74-.25,3.25.55,4.67,1.34,1.13.62,2.33,1.34,2.72,2.7.48,1.66-.41,3.7-1.32,5.46-1.51,2.93-3.2,5.85-5.45,8.21-2.24,2.36-6.04,5.09-8.61,3.6-2.51-1.46-3.12-5.35-2.05-8.57Z"/>
  <path class="cls-5" d="m20.95,40.36c.07-.51.29-.95.51-1.39.23-.47.47-.94.87-1.29.4-.35,1-.57,1.71-.47.75.11,1.51.54,2.23.95.57.33,1.18.7,1.51,1.2.39.61.22,1.19,0,1.67-.35.81-.79,1.6-1.53,2.14-.74.54-2.14,1.04-3.45.26-1.28-.76-1.97-2.12-1.85-3.08Z"/>
</svg>