<?xml version="1.0" encoding="UTF-8"?>
<svg id="Layer_1" data-name="Layer 1" xmlns="http://www.w3.org/2000/svg" xmlns:xlink="http://www.w3.org/1999/xlink" viewBox="0 0 128 128">
  <defs>
    <style>
      .cls-1 {
        fill: url(#_Áåçûìÿííûé_ãðàäèåíò_14);
      }

      .cls-1, .cls-2, .cls-3, .cls-4, .cls-5, .cls-6, .cls-7, .cls-8, .cls-9, .cls-10, .cls-11, .cls-12, .cls-13 {
        stroke-width: 0px;
      }

      .cls-2 {
        fill: url(#_Áåçûìÿííûé_ãðàäèåíò_108-3);
      }

      .cls-2, .cls-9, .cls-10, .cls-11 {
        mix-blend-mode: multiply;
      }

      .cls-3 {
        fill: #020202;
      }

      .cls-14 {
        filter: url(#luminosity-noclip-7);
      }

      .cls-15 {
        filter: url(#luminosity-noclip-5);
      }

      .cls-16 {
        mask: url(#mask-2);
      }

      .cls-17 {
        mask: url(#mask-3);
      }

      .cls-4 {
        fill: #ff9671;
      }

      .cls-18 {
        mask: url(#mask-5);
      }

      .cls-19 {
        opacity: .4;
      }

      .cls-5, .cls-6 {
        fill: #fff;
      }

      .cls-6 {
        opacity: .6;
      }

      .cls-20 {
        opacity: .57;
      }

      .cls-21 {
        mask: url(#mask-4);
      }

      .cls-7 {
        fill: url(#_Áåçûìÿííûé_ãðàäèåíò_40-2);
      }

      .cls-8 {
        fill: url(#_Áåçûìÿííûé_ãðàäèåíò_40-3);
      }

      .cls-9 {
        fill: url(#_Áåçûìÿííûé_ãðàäèåíò_108-2);
      }

      .cls-22 {
        mask: url(#mask-6);
      }

      .cls-10 {
        fill: url(#_Áåçûìÿííûé_ãðàäèåíò_111);
      }

      .cls-23 {
        filter: url(#luminosity-noclip);
      }

      .cls-24 {
        mask: url(#mask-1);
      }

      .cls-25 {
        mask: url(#mask);
      }

      .cls-26 {
        mask: url(#mask-7);
      }

      .cls-11 {
        fill: url(#_Áåçûìÿííûé_ãðàäèåíò_108);
      }

      .cls-12 {
        fill: url(#_Áåçûìÿííûé_ãðàäèåíò_40);
      }

      .cls-13 {
        fill: #171421;
      }

      .cls-27 {
        filter: url(#luminosity-noclip-3);
      }
    </style>
    <filter id="luminosity-noclip" x="22.06" y="4.92" width="77.22" height="112.69" color-interpolation-filters="sRGB" filterUnits="userSpaceOnUse">
      <feFlood flood-color="#fff" result="bg"/>
      <feBlend in="SourceGraphic" in2="bg"/>
    </filter>
    <filter id="luminosity-noclip-2" x="22.06" y="-8256" width="77.22" height="32766" color-interpolation-filters="sRGB" filterUnits="userSpaceOnUse">
      <feFlood flood-color="#fff" result="bg"/>
      <feBlend in="SourceGraphic" in2="bg"/>
    </filter>
    <mask id="mask-1" x="22.06" y="-8256" width="77.22" height="32766" maskUnits="userSpaceOnUse"/>
    <linearGradient id="_Áåçûìÿííûé_ãðàäèåíò_111" data-name="Áåçûìÿííûé ãðàäèåíò 111" x1="94.88" y1="101" x2="23.68" y2="29.8" gradientUnits="userSpaceOnUse">
      <stop offset="0" stop-color="#fff"/>
      <stop offset="1" stop-color="#000"/>
    </linearGradient>
    <mask id="mask" x="22.06" y="4.92" width="77.22" height="112.69" maskUnits="userSpaceOnUse">
      <g class="cls-23">
        <g class="cls-24">
          <path class="cls-10" d="m95.39,34.7c2.42,8.4,2.93,17.22,3.41,25.95.52,9.26,1.03,18.64-.87,27.71-1.89,9.08-6.51,17.96-14.26,23.04-8.11,5.31-18.36,5.8-28.05,6.11-7.72.25-16.1.31-22.33-4.26-7.62-5.59-9.4-16.07-10.24-25.48-1.4-15.67-1.85-31.72,2.3-46.9C29.49,25.75,40.38,5.22,58.21,4.93c17.39-.29,32.64,14.04,37.18,29.78Z"/>
        </g>
      </g>
    </mask>
    <linearGradient id="_Áåçûìÿííûé_ãðàäèåíò_14" data-name="Áåçûìÿííûé ãðàäèåíò 14" x1="94.88" y1="101" x2="23.68" y2="29.8" gradientUnits="userSpaceOnUse">
      <stop offset="0" stop-color="#000"/>
      <stop offset="1" stop-color="#00c9a7"/>
    </linearGradient>
    <filter id="luminosity-noclip-3" x="22.26" y="3.27" width="35.87" height="47.16" color-interpolation-filters="sRGB" filterUnits="userSpaceOnUse">
      <feFlood flood-color="#fff" result="bg"/>
      <feBlend in="SourceGraphic" in2="bg"/>
    </filter>
    <filter id="luminosity-noclip-4" x="22.26" y="-8256" width="35.87" height="32766" color-interpolation-filters="sRGB" filterUnits="userSpaceOnUse">
      <feFlood flood-color="#fff" result="bg"/>
      <feBlend in="SourceGraphic" in2="bg"/>
    </filter>
    <mask id="mask-3" x="22.26" y="-8256" width="35.87" height="32766" maskUnits="userSpaceOnUse"/>
    <radialGradient id="_Áåçûìÿííûé_ãðàäèåíò_108" data-name="Áåçûìÿííûé ãðàäèåíò 108" cx="40.19" cy="26.85" fx="40.19" fy="26.85" r="20.95" gradientUnits="userSpaceOnUse">
      <stop offset="0" stop-color="#fff"/>
      <stop offset="1" stop-color="#333"/>
    </radialGradient>
    <mask id="mask-2" x="22.26" y="3.27" width="35.87" height="47.16" maskUnits="userSpaceOnUse">
      <g class="cls-27">
        <g class="cls-17">
          <path class="cls-11" d="m58.13,3.27s-25.02,0-35.87,47.16c0,0,12.62-38.3,35.87-47.16Z"/>
        </g>
      </g>
    </mask>
    <radialGradient id="_Áåçûìÿííûé_ãðàäèåíò_40" data-name="Áåçûìÿííûé ãðàäèåíò 40" cx="40.19" cy="26.85" fx="40.19" fy="26.85" r="20.95" gradientUnits="userSpaceOnUse">
      <stop offset="0" stop-color="#fff"/>
      <stop offset="1" stop-color="#fff"/>
    </radialGradient>
    <filter id="luminosity-noclip-5" x="62.78" y="86.52" width="37.2" height="34.54" color-interpolation-filters="sRGB" filterUnits="userSpaceOnUse">
      <feFlood flood-color="#fff" result="bg"/>
      <feBlend in="SourceGraphic" in2="bg"/>
    </filter>
    <filter id="luminosity-noclip-6" x="62.78" y="-8256" width="37.2" height="32766" color-interpolation-filters="sRGB" filterUnits="userSpaceOnUse">
      <feFlood flood-color="#fff" result="bg"/>
      <feBlend in="SourceGraphic" in2="bg"/>
    </filter>
    <mask id="mask-5" x="62.78" y="-8256" width="37.2" height="32766" maskUnits="userSpaceOnUse"/>
    <radialGradient id="_Áåçûìÿííûé_ãðàäèåíò_108-2" data-name="Áåçûìÿííûé ãðàäèåíò 108" cx="81.38" cy="103.79" fx="81.38" fy="103.79" r="17.95" xlink:href="#_Áåçûìÿííûé_ãðàäèåíò_108"/>
    <mask id="mask-4" x="62.78" y="86.52" width="37.2" height="34.54" maskUnits="userSpaceOnUse">
      <g class="cls-15">
        <g class="cls-18">
          <path class="cls-9" d="m62.78,121.06s31.44.44,37.2-34.54c0,0-5.76,27.46-37.2,34.54Z"/>
        </g>
      </g>
    </mask>
    <radialGradient id="_Áåçûìÿííûé_ãðàäèåíò_40-2" data-name="Áåçûìÿííûé ãðàäèåíò 40" cx="81.38" cy="103.79" fx="81.38" fy="103.79" r="17.95" xlink:href="#_Áåçûìÿííûé_ãðàäèåíò_40"/>
    <filter id="luminosity-noclip-7" x="21.65" y="96.37" width="36.2" height="24.3" color-interpolation-filters="sRGB" filterUnits="userSpaceOnUse">
      <feFlood flood-color="#fff" result="bg"/>
      <feBlend in="SourceGraphic" in2="bg"/>
    </filter>
    <filter id="luminosity-noclip-8" x="21.65" y="-8256" width="36.2" height="32766" color-interpolation-filters="sRGB" filterUnits="userSpaceOnUse">
      <feFlood flood-color="#fff" result="bg"/>
      <feBlend in="SourceGraphic" in2="bg"/>
    </filter>
    <mask id="mask-7" x="21.65" y="-8256" width="36.2" height="32766" maskUnits="userSpaceOnUse"/>
    <radialGradient id="_Áåçûìÿííûé_ãðàäèåíò_108-3" data-name="Áåçûìÿííûé ãðàäèåíò 108" cx="39.75" cy="108.52" fx="39.75" fy="108.52" r="15.42" xlink:href="#_Áåçûìÿííûé_ãðàäèåíò_108"/>
    <mask id="mask-6" x="21.65" y="96.37" width="36.2" height="24.3" maskUnits="userSpaceOnUse">
      <g class="cls-14">
        <g class="cls-26">
          <path class="cls-2" d="m21.65,96.37s1.99,27.9,36.2,23.91c0,0-27.57-1.83-36.2-23.91Z"/>
        </g>
      </g>
    </mask>
    <radialGradient id="_Áåçûìÿííûé_ãðàäèåíò_40-3" data-name="Áåçûìÿííûé ãðàäèåíò 40" cx="39.75" cy="108.52" fx="39.75" fy="108.52" r="15.42" xlink:href="#_Áåçûìÿííûé_ãðàäèåíò_40"/>
  </defs>
  <path class="cls-3" d="m108.75,37.04c2.65,9.18,3.2,18.82,3.73,28.36.57,10.12,1.12,20.38-.95,30.3-2.07,9.92-7.11,19.63-15.59,25.19-8.87,5.81-20.07,6.34-30.66,6.68-8.44.27-17.6.34-24.41-4.65-8.33-6.11-10.27-17.56-11.19-27.85-1.53-17.13-2.02-34.67,2.51-51.27C36.71,27.26,48.62,4.82,68.11,4.49c19.01-.31,35.68,15.35,40.64,32.55Z"/>
  <path class="cls-4" d="m98.62,32.23c2.65,9.18,3.2,18.82,3.73,28.36.57,10.12,1.12,20.38-.95,30.3-2.07,9.92-7.11,19.63-15.59,25.19-8.87,5.81-20.07,6.34-30.66,6.68-8.44.27-17.6.34-24.41-4.65-8.33-6.11-10.27-17.56-11.19-27.85-1.53-17.13-2.02-34.67,2.51-51.27C26.59,22.44,38.49,0,57.98-.32c19.01-.31,35.68,15.35,40.64,32.55Z"/>
  <g class="cls-20">
    <g class="cls-25">
      <path class="cls-1" d="m95.39,34.7c2.42,8.4,2.93,17.22,3.41,25.95.52,9.26,1.03,18.64-.87,27.71-1.89,9.08-6.51,17.96-14.26,23.04-8.11,5.31-18.36,5.8-28.05,6.11-7.72.25-16.1.31-22.33-4.26-7.62-5.59-9.4-16.07-10.24-25.48-1.4-15.67-1.85-31.72,2.3-46.9C29.49,25.75,40.38,5.22,58.21,4.93c17.39-.29,32.64,14.04,37.18,29.78Z"/>
    </g>
  </g>
  <g class="cls-19">
    <path class="cls-5" d="m44.74,25.61c.33,5.79.64,11.59.85,17.38.21,5.8.38,11.6.5,17.4.12,5.8.19,11.61.22,17.42.02,5.81-.04,11.62-.13,17.42l-4.93-1.02,6.41-18.03,6.49-18.03c1.11-3.02,2.25-6.07,3.53-9.09.64-1.51,1.31-3.02,2.02-4.52l1.1-2.24,1.14-2.19,2.31-4.25c.75-1.38,1.45-2.73,2.09-4.06,1.29-2.66,2.25-5.26,2.7-7.8l8.84,1.02c-.08,3.01-.25,6.01-.39,9.01-.07,1.5-.19,3-.28,4.5l-.3,4.5c-.23,3-.45,6-.72,9-.24,3-.55,5.99-.82,8.97l-.82,8.94-.73,8.93c-.21,2.98-.41,5.96-.54,8.95-.05,1.5-.15,3-.18,4.5l-.13,4.52-.86.1c-.37-1.47-.74-2.96-1.03-4.45-.3-1.49-.6-2.99-.82-4.5-.49-3.01-.87-6.04-1.13-9.08-.14-1.52-.28-3.04-.37-4.55l-.24-4.56c-.16-3.04-.22-6.07-.24-9.09-.03-3.03-.07-6.04-.04-9.05,0-3.01.06-6.02.09-9.03l.11-4.51c.04-1.5.06-3.01.13-4.51.13-3,.22-6.01.41-9.01l8.84,1.02c-.73,3.75-2.25,7.1-3.88,10.09-.83,1.5-1.71,2.92-2.57,4.29l-2.53,4-1.2,1.98c-.39.65-.76,1.32-1.13,1.99-.74,1.34-1.44,2.71-2.11,4.11-1.36,2.78-2.63,5.64-3.85,8.56l-7.23,17.69-7.28,17.7-6.01,14.6,1.08-15.62c.4-5.77.73-11.54,1.05-17.32.33-5.78.6-11.56.84-17.34.23-5.78.42-11.57.56-17.36.13-5.79.28-11.58.35-17.38l.86-.02Z"/>
    <path class="cls-5" d="m71.69,96.37s-.57-1.02-1.56-2.81c-1-1.78-2.37-4.36-4-7.46-1.61-3.11-3.5-6.73-5.44-10.64-1.99-3.89-3.98-8.1-6.01-12.29-1.02-2.09-2.09-4.16-3.17-6.19-1.08-2.03-2.12-4.03-2.97-6.03-.85-2-1.54-3.98-2.12-5.9-.59-1.91-1.1-3.73-1.5-5.45-.42-1.71-.74-3.29-1-4.73-.28-1.45-.43-2.81-.47-3.94-.04-1.13.04-2.02.14-2.62.1-.6.19-.91.19-.91l.86-.1s.15.26.44.74c.29.47.73,1.14,1.31,1.94.58.81,1.34,1.75,2.17,2.9.85,1.16,1.79,2.52,2.73,4.01.95,1.5,1.92,3.15,2.86,4.92.97,1.77,1.88,3.67,2.7,5.7.81,2.03,1.49,4.19,2.14,6.39.66,2.2,1.34,4.44,2.08,6.64,1.48,4.41,3,8.81,4.31,12.97,1.35,4.15,2.57,8.04,3.63,11.36,2.08,6.68,3.47,11.13,3.47,11.13l-.79.34Z"/>
  </g>
  <g>
    <path class="cls-13" d="m47.68,25.62c.53,11.58.82,23.18.92,34.78.05,5.8.06,11.6.02,17.4-.04,5.8-.17,11.6-.32,17.4l-3.04-.63,13.18-35.95c1.13-3,2.29-6.01,3.59-8.99.65-1.49,1.32-2.97,2.04-4.44.71-1.45,1.49-2.96,2.25-4.35l2.35-4.2c.77-1.38,1.51-2.74,2.18-4.1,1.36-2.72,2.42-5.46,2.93-8.23l5.53.64c-.22,6.01-.55,12.01-.91,18.02l-.61,9c-.19,3-.44,6-.65,8.99l-.62,8.97-.26,4.48-.22,4.48c-.25,5.98-.31,11.96-.14,17.99l-.54.06c-.28-1.48-.59-2.97-.81-4.47-.24-1.49-.46-2.99-.63-4.5-.37-3.01-.64-6.03-.82-9.05-.2-3.02-.3-6.05-.36-9.08-.07-3.02-.07-6.05-.04-9.06.02-3.02.05-6.03.13-9.03l.2-9.02c.18-6.01.38-12.02.71-18.03l5.53.64c-.67,3.52-2.09,6.73-3.66,9.66-1.59,2.93-3.37,5.64-4.97,8.29-.83,1.38-1.57,2.67-2.31,4.06-.73,1.37-1.43,2.77-2.1,4.18-1.34,2.83-2.59,5.72-3.79,8.66l-14.23,35.51-3.59,8.96.55-9.59c.33-5.78.6-11.56.86-17.34.26-5.78.47-11.57.64-17.35.17-5.79.29-11.58.36-17.37.07-5.79.13-11.58.12-17.38h.54Z"/>
    <path class="cls-13" d="m74.93,96.3s-2.14-4.14-5.16-10.43c-1.52-3.14-3.29-6.81-5.12-10.77-1.86-3.95-3.76-8.19-5.69-12.42-1.9-4.24-4.08-8.36-5.78-12.37-.83-2.01-1.58-3.97-2.23-5.86-.67-1.88-1.24-3.68-1.75-5.35-.53-1.66-.95-3.21-1.33-4.59-.37-1.4-.66-2.67-.79-3.74-.14-1.07-.16-1.92-.13-2.5.02-.58.07-.88.07-.88l.54-.06s.11.27.32.77c.22.5.56,1.2,1.04,2.07.49.87,1.11,1.89,1.85,3.09.73,1.22,1.57,2.61,2.4,4.15.84,1.54,1.74,3.21,2.61,5.02.89,1.8,1.75,3.72,2.59,5.73,1.63,4.04,2.97,8.52,4.58,12.88,1.58,4.37,3.19,8.73,4.63,12.85,1.45,4.11,2.8,7.95,3.96,11.24,2.33,6.58,3.88,10.96,3.88,10.96l-.5.21Z"/>
  </g>
  <g class="cls-16">
    <path class="cls-12" d="m58.13,3.27s-25.02,0-35.87,47.16c0,0,12.62-38.3,35.87-47.16Z"/>
  </g>
  <g class="cls-21">
    <path class="cls-7" d="m62.78,121.06s31.44.44,37.2-34.54c0,0-5.76,27.46-37.2,34.54Z"/>
  </g>
  <path class="cls-6" d="m32.16,39.18c.02.39.06.82.35,1.09.16.15.38.23.6.25,1.27.16,2.24-1.06,2.93-2.14,2.48-3.89,5.01-7.95,5.57-12.52.07-.61.1-1.26-.17-1.81-2.15-4.25-5.81,1.64-6.66,3.28-1.89,3.63-2.81,7.77-2.62,11.85Z"/>
  <path class="cls-6" d="m27.01,49.53c-.17.63-.3,1.3-.16,1.94.14.64.61,1.25,1.26,1.36.79.13,1.49-.48,2.04-1.05,1.59-1.65,5.82-6.03,2.69-8-3.46-2.18-5.24,3.5-5.83,5.75Z"/>
  <g class="cls-22">
    <path class="cls-8" d="m21.65,96.37s1.99,27.9,36.2,23.91c0,0-27.57-1.83-36.2-23.91Z"/>
  </g>
</svg>