<?xml version="1.0" encoding="UTF-8"?>
<svg id="Layer_1" data-name="Layer 1" xmlns="http://www.w3.org/2000/svg" xmlns:xlink="http://www.w3.org/1999/xlink" viewBox="0 0 128 128">
  <defs>
    <style>
      .cls-1 {
        fill: url(#_Áåçûìÿííûé_ãðàäèåíò_14);
      }

      .cls-1, .cls-2, .cls-3, .cls-4, .cls-5, .cls-6, .cls-7, .cls-8, .cls-9, .cls-10, .cls-11, .cls-12, .cls-13 {
        stroke-width: 0px;
      }

      .cls-2 {
        fill: url(#_Áåçûìÿííûé_ãðàäèåíò_108-3);
      }

      .cls-2, .cls-9, .cls-10, .cls-11 {
        mix-blend-mode: multiply;
      }

      .cls-3 {
        fill: #020202;
      }

      .cls-14 {
        filter: url(#luminosity-noclip-7);
      }

      .cls-4 {
        fill: #4d8076;
      }

      .cls-15 {
        filter: url(#luminosity-noclip-5);
      }

      .cls-16 {
        mask: url(#mask-2);
      }

      .cls-17 {
        mask: url(#mask-3);
      }

      .cls-18 {
        mask: url(#mask-5);
      }

      .cls-19 {
        opacity: .4;
      }

      .cls-5, .cls-6 {
        fill: #fff;
      }

      .cls-6 {
        opacity: .6;
      }

      .cls-20 {
        opacity: .57;
      }

      .cls-21 {
        mask: url(#mask-4);
      }

      .cls-7 {
        fill: url(#_Áåçûìÿííûé_ãðàäèåíò_40-2);
      }

      .cls-8 {
        fill: url(#_Áåçûìÿííûé_ãðàäèåíò_40-3);
      }

      .cls-9 {
        fill: url(#_Áåçûìÿííûé_ãðàäèåíò_108-2);
      }

      .cls-22 {
        mask: url(#mask-6);
      }

      .cls-10 {
        fill: url(#_Áåçûìÿííûé_ãðàäèåíò_111);
      }

      .cls-23 {
        filter: url(#luminosity-noclip);
      }

      .cls-24 {
        mask: url(#mask-1);
      }

      .cls-25 {
        mask: url(#mask);
      }

      .cls-26 {
        mask: url(#mask-7);
      }

      .cls-11 {
        fill: url(#_Áåçûìÿííûé_ãðàäèåíò_108);
      }

      .cls-12 {
        fill: url(#_Áåçûìÿííûé_ãðàäèåíò_40);
      }

      .cls-13 {
        fill: #171421;
      }

      .cls-27 {
        filter: url(#luminosity-noclip-3);
      }
    </style>
    <filter id="luminosity-noclip" x="18.42" y="5.69" width="74.27" height="118.17" color-interpolation-filters="sRGB" filterUnits="userSpaceOnUse">
      <feFlood flood-color="#fff" result="bg"/>
      <feBlend in="SourceGraphic" in2="bg"/>
    </filter>
    <filter id="luminosity-noclip-2" x="18.42" y="-8256" width="74.27" height="32766" color-interpolation-filters="sRGB" filterUnits="userSpaceOnUse">
      <feFlood flood-color="#fff" result="bg"/>
      <feBlend in="SourceGraphic" in2="bg"/>
    </filter>
    <mask id="mask-1" x="18.42" y="-8256" width="74.27" height="32766" maskUnits="userSpaceOnUse"/>
    <linearGradient id="_Áåçûìÿííûé_ãðàäèåíò_111" data-name="Áåçûìÿííûé ãðàäèåíò 111" x1="102.97" y1="104.56" x2="27.03" y2="28.62" gradientUnits="userSpaceOnUse">
      <stop offset="0" stop-color="#fff"/>
      <stop offset="1" stop-color="#000"/>
    </linearGradient>
    <mask id="mask" x="18.42" y="5.69" width="74.27" height="118.17" maskUnits="userSpaceOnUse">
      <g class="cls-23">
        <g class="cls-24">
          <path class="cls-10" d="m31.5,92.91c-6.38-7.26-12.02-15.78-12.94-25.39-.53-5.5.54-11.04,2.07-16.36,3.82-13.2,10.63-25.53,19.78-35.78,4.2-4.71,9.41-9.22,15.7-9.65,9.52-.65,16.81,7.94,22.38,15.69,2.24,3.11,4.54,6.36,5.26,10.13.54,2.81.15,5.71-.24,8.54-.62,4.5-1.24,9.01-1.85,13.51-.47,3.44-.95,6.91-.75,10.38.72,12.66,10.12,23.44,11.54,36.05,1.72,15.27-5.96,28.32-20.85,22.38-15.26-6.1-29.34-17.23-40.11-29.49Z"/>
        </g>
      </g>
    </mask>
    <linearGradient id="_Áåçûìÿííûé_ãðàäèåíò_14" data-name="Áåçûìÿííûé ãðàäèåíò 14" x1="102.97" y1="104.56" x2="27.03" y2="28.62" gradientUnits="userSpaceOnUse">
      <stop offset="0" stop-color="#000"/>
      <stop offset="1" stop-color="#00c9a7"/>
    </linearGradient>
    <filter id="luminosity-noclip-3" x="32.28" y="3.94" width="39.17" height="18.48" color-interpolation-filters="sRGB" filterUnits="userSpaceOnUse">
      <feFlood flood-color="#fff" result="bg"/>
      <feBlend in="SourceGraphic" in2="bg"/>
    </filter>
    <filter id="luminosity-noclip-4" x="32.28" y="-8256" width="39.17" height="32766" color-interpolation-filters="sRGB" filterUnits="userSpaceOnUse">
      <feFlood flood-color="#fff" result="bg"/>
      <feBlend in="SourceGraphic" in2="bg"/>
    </filter>
    <mask id="mask-3" x="32.28" y="-8256" width="39.17" height="32766" maskUnits="userSpaceOnUse"/>
    <radialGradient id="_Áåçûìÿííûé_ãðàäèåíò_108" data-name="Áåçûìÿííûé ãðàäèåíò 108" cx="51.87" cy="13.18" fx="51.87" fy="13.18" r="15.31" gradientUnits="userSpaceOnUse">
      <stop offset="0" stop-color="#fff"/>
      <stop offset="1" stop-color="#333"/>
    </radialGradient>
    <mask id="mask-2" x="32.28" y="3.94" width="39.17" height="18.48" maskUnits="userSpaceOnUse">
      <g class="cls-27">
        <g class="cls-17">
          <path class="cls-11" d="m71.45,11.07s-18.25-22.03-39.17,11.35c0,0,20.25-21.14,39.17-11.35Z"/>
        </g>
      </g>
    </mask>
    <radialGradient id="_Áåçûìÿííûé_ãðàäèåíò_40" data-name="Áåçûìÿííûé ãðàäèåíò 40" cx="51.87" cy="13.18" fx="51.87" fy="13.18" r="15.31" gradientUnits="userSpaceOnUse">
      <stop offset="0" stop-color="#fff"/>
      <stop offset="1" stop-color="#fff"/>
    </radialGradient>
    <filter id="luminosity-noclip-5" x="16.73" y="39.55" width="6.43" height="45.4" color-interpolation-filters="sRGB" filterUnits="userSpaceOnUse">
      <feFlood flood-color="#fff" result="bg"/>
      <feBlend in="SourceGraphic" in2="bg"/>
    </filter>
    <filter id="luminosity-noclip-6" x="16.73" y="-8256" width="6.43" height="32766" color-interpolation-filters="sRGB" filterUnits="userSpaceOnUse">
      <feFlood flood-color="#fff" result="bg"/>
      <feBlend in="SourceGraphic" in2="bg"/>
    </filter>
    <mask id="mask-5" x="16.73" y="-8256" width="6.43" height="32766" maskUnits="userSpaceOnUse"/>
    <radialGradient id="_Áåçûìÿííûé_ãðàäèåíò_108-2" data-name="Áåçûìÿííûé ãðàäèåíò 108" cx="19.95" cy="62.25" fx="19.95" fy="62.25" r="16.21" xlink:href="#_Áåçûìÿííûé_ãðàäèåíò_108"/>
    <mask id="mask-4" x="16.73" y="39.55" width="6.43" height="45.4" maskUnits="userSpaceOnUse">
      <g class="cls-15">
        <g class="cls-18">
          <path class="cls-9" d="m23.16,39.55s-14.46,24.03,0,45.4c0,0-8.46-22.92,0-45.4Z"/>
        </g>
      </g>
    </mask>
    <radialGradient id="_Áåçûìÿííûé_ãðàäèåíò_40-2" data-name="Áåçûìÿííûé ãðàäèåíò 40" cx="19.95" cy="62.25" fx="19.95" fy="62.25" r="16.21" xlink:href="#_Áåçûìÿííûé_ãðàäèåíò_40"/>
    <filter id="luminosity-noclip-7" x="64.11" y="94.52" width="28.19" height="31.27" color-interpolation-filters="sRGB" filterUnits="userSpaceOnUse">
      <feFlood flood-color="#fff" result="bg"/>
      <feBlend in="SourceGraphic" in2="bg"/>
    </filter>
    <filter id="luminosity-noclip-8" x="64.11" y="-8256" width="28.19" height="32766" color-interpolation-filters="sRGB" filterUnits="userSpaceOnUse">
      <feFlood flood-color="#fff" result="bg"/>
      <feBlend in="SourceGraphic" in2="bg"/>
    </filter>
    <mask id="mask-7" x="64.11" y="-8256" width="28.19" height="32766" maskUnits="userSpaceOnUse"/>
    <radialGradient id="_Áåçûìÿííûé_ãðàäèåíò_108-3" data-name="Áåçûìÿííûé ãðàäèåíò 108" cx="78.2" cy="110.16" fx="78.2" fy="110.16" r="14.89" xlink:href="#_Áåçûìÿííûé_ãðàäèåíò_108"/>
    <mask id="mask-6" x="64.11" y="94.52" width="28.19" height="31.27" maskUnits="userSpaceOnUse">
      <g class="cls-14">
        <g class="cls-26">
          <path class="cls-2" d="m64.11,121.89s33.83,19.14,27.37-27.37c0,0,2.23,38.28-27.37,27.37Z"/>
        </g>
      </g>
    </mask>
    <radialGradient id="_Áåçûìÿííûé_ãðàäèåíò_40-3" data-name="Áåçûìÿííûé ãðàäèåíò 40" cx="78.2" cy="110.16" fx="78.2" fy="110.16" r="14.89" xlink:href="#_Áåçûìÿííûé_ãðàäèåíò_40"/>
  </defs>
  <path class="cls-3" d="m38.49,95.04c-6.91-7.86-13.02-17.09-14.01-27.51-.57-5.96.58-11.96,2.24-17.72,4.13-14.3,11.51-27.65,21.42-38.75,4.55-5.1,10.2-9.99,17.01-10.46,10.31-.71,18.21,8.6,24.24,16.99,2.43,3.37,4.92,6.89,5.7,10.97.58,3.05.16,6.18-.26,9.25-.67,4.88-1.34,9.75-2.01,14.63-.51,3.73-1.02,7.49-.81,11.24.77,13.71,10.96,25.39,12.5,39.04,1.87,16.54-6.46,30.68-22.58,24.24-16.53-6.6-31.78-18.66-43.44-31.94Z"/>
  <path class="cls-4" d="m28.78,95.04c-6.91-7.86-13.02-17.09-14.01-27.51-.57-5.96.58-11.96,2.24-17.72,4.13-14.3,11.51-27.65,21.42-38.75C42.97,5.97,48.62,1.07,55.44.61c10.31-.71,18.21,8.6,24.24,16.99,2.43,3.37,4.92,6.89,5.7,10.97.58,3.05.16,6.18-.26,9.25-.67,4.88-1.34,9.75-2.01,14.63-.51,3.73-1.02,7.49-.81,11.24.78,13.71,10.96,25.39,12.5,39.04,1.87,16.54-6.46,30.68-22.58,24.24-16.53-6.6-31.78-18.66-43.44-31.94Z"/>
  <g class="cls-20">
    <g class="cls-25">
      <path class="cls-1" d="m31.5,92.91c-6.38-7.26-12.02-15.78-12.94-25.39-.53-5.5.54-11.04,2.07-16.36,3.82-13.2,10.63-25.53,19.78-35.78,4.2-4.71,9.41-9.22,15.7-9.65,9.52-.65,16.81,7.94,22.38,15.69,2.24,3.11,4.54,6.36,5.26,10.13.54,2.81.15,5.71-.24,8.54-.62,4.5-1.24,9.01-1.85,13.51-.47,3.44-.95,6.91-.75,10.38.72,12.66,10.12,23.44,11.54,36.05,1.72,15.27-5.96,28.32-20.85,22.38-15.26-6.1-29.34-17.23-40.11-29.49Z"/>
    </g>
  </g>
  <g class="cls-19">
    <path class="cls-5" d="m52.15,75.06s-2.07-2.98-5.03-7.52c-1.47-2.27-3.2-4.93-4.99-7.79-1.83-2.85-3.67-5.95-5.54-9.02l-.73-1.19c-.15-.26-.33-.61-.51-1.08-.09-.23-.17-.5-.24-.8-.03-.15-.06-.31-.08-.48l-.03-.25v-.13s-.01-.07-.01-.07v-.16s0-.08,0-.08v-.3c.03-.25.04-.35.06-.53.05-.32.11-.59.18-.85.15-.51.31-.9.45-1.21l.58-1.36c.7-1.67,1.47-3.33,2.36-4.8.9-1.48,1.92-2.82,2.97-4.02,1.03-1.21,2.09-2.3,3.12-3.25,2.06-1.92,4.01-3.3,5.48-4.17,1.46-.88,2.41-1.27,2.41-1.27l.68.54s-.04.26-.14.71c-.1.46-.26,1.11-.49,1.91-.24.8-.52,1.77-.9,2.83-.38,1.06-.82,2.24-1.36,3.47-.52,1.25-1.13,2.55-1.81,3.91-.66,1.37-1.42,2.75-2.31,4.13-.89,1.38-1.92,2.7-3,4.09-.26.33-.58.78-.74.95-.08.08-.1.09-.1,0v-.2s.02-.2.02-.2c0-.04,0-.16,0-.14v.08c-.02.11-.01-.13-.01-.11v-.02s0-.05,0-.05l-.02-.09c-.01-.06-.02-.1-.04-.14-.03-.08-.06-.13-.08-.15-.04-.04-.04.02,0,.17l.47,1.22c1.34,3.35,2.71,6.67,3.89,9.85,1.22,3.15,2.3,6.13,3.24,8.67,1.85,5.1,3,8.54,3,8.54l-.78.39Z"/>
    <path class="cls-5" d="m58.3,57.94s1.81,2.64,4.38,6.67c1.28,2.02,2.78,4.37,4.33,6.91.78,1.27,1.6,2.58,2.38,3.93.4.67.79,1.35,1.19,2.03l.3.51.15.26.18.33c.21.4.47.9.69,1.56.11.33.21.71.27,1.12.03.24.05.36.06.71v.15s0,.41,0,.41c-.05.89-.23,1.6-.42,2.22-.19.61-.4,1.12-.57,1.54l-.44,1.13c-.56,1.47-1.14,2.9-1.85,4.2-.71,1.3-1.52,2.49-2.37,3.57-.83,1.09-1.68,2.09-2.51,2.97-.83.89-1.65,1.68-2.41,2.35-.75.68-1.48,1.23-2.08,1.69-.61.45-1.12.79-1.48,1.01-.36.22-.57.33-.57.33l-.76-.43s-.01-.23,0-.66c0-.42.03-1.03.1-1.79.08-.75.17-1.66.37-2.66.19-1,.43-2.11.77-3.28.33-1.17.74-2.42,1.24-3.69.49-1.28,1.09-2.59,1.83-3.87.75-1.28,1.67-2.51,2.64-3.75l.71-.91c.21-.26.36-.46.47-.57.11-.11.15-.17.18-.06,0,.04,0,.08.01.12l.02-.15c.01.15.02.08.03.12.02.02.04,0,.05-.04.01-.1-.03-.33-.14-.65l-.04-.13-.02-.07v-.02c.05.12,0,.02.02.04v-.03s-.11-.28-.11-.28l-.2-.56c-.27-.74-.54-1.48-.8-2.22-.54-1.46-1.02-2.93-1.5-4.34-.97-2.82-1.82-5.47-2.55-7.74-1.45-4.55-2.33-7.63-2.33-7.63l.79-.37Z"/>
  </g>
  <g>
    <path class="cls-13" d="m56.2,74.99s-1.89-3.07-4.63-7.72c-1.38-2.32-2.99-5.03-4.68-7.95-1.71-2.91-3.46-6.05-5.23-9.18l-.68-1.2c-.24-.49-.64-1.14-.68-2.33v-.08s0-.22,0-.22c.01-.18.02-.26.04-.39.04-.24.09-.45.15-.65.12-.4.26-.72.38-.99l.61-1.28c.77-1.62,1.6-3.21,2.48-4.67,1.82-2.9,3.85-5.4,5.72-7.42.94-1.01,1.84-1.9,2.66-2.66.83-.76,1.57-1.4,2.21-1.91,1.27-1.02,2.08-1.52,2.08-1.52l.42.34s-.08.22-.24.63c-.16.41-.4,1-.73,1.74-.32.74-.73,1.62-1.21,2.61-.49.99-1.03,2.1-1.65,3.29-1.24,2.38-2.73,5.09-4.48,7.9-.9,1.4-1.87,2.79-2.88,4.22l-.71,1.02c-.09.12-.14.21-.16.23-.01.01-.02.01-.03,0,0-.02,0,0,0-.06,0-.02,0-.08,0-.05v.08c-.05-.29-.1-.08.05.23l.52,1.21c1.44,3.3,2.9,6.58,4.2,9.69,1.33,3.1,2.52,6.01,3.55,8.51,2.08,4.98,3.39,8.34,3.39,8.34l-.48.24Z"/>
    <path class="cls-13" d="m62.04,58.01s1.64,2.72,3.98,6.85c1.18,2.06,2.57,4.46,4.01,7.06.72,1.3,1.46,2.64,2.21,4,.37.68.75,1.37,1.12,2.07.36.69.8,1.38,1.17,2.48.09.28.16.59.21.92.02.18.04.3.05.55v.15s0,.31,0,.31c-.04.71-.2,1.29-.37,1.82-.38,1.06-.74,1.74-1.05,2.45-.63,1.43-1.29,2.82-2,4.12-1.46,2.58-3.07,4.84-4.54,6.73-.74.94-1.46,1.78-2.1,2.53-.66.74-1.25,1.37-1.76,1.87-1.02,1.01-1.68,1.55-1.68,1.55l-.47-.27s.11-.84.46-2.24c.17-.7.4-1.53.69-2.47.3-.94.65-1.99,1.07-3.11.85-2.24,1.96-4.79,3.41-7.37.75-1.28,1.6-2.56,2.49-3.84.45-.65.92-1.31,1.14-1.7.24-.47.28-.47.26-.87-.06-.42-.36-1.14-.65-1.88-.29-.73-.58-1.46-.87-2.18-.57-1.45-1.13-2.88-1.67-4.26-1.08-2.76-2.04-5.37-2.87-7.6-1.68-4.45-2.73-7.44-2.73-7.44l.49-.23Z"/>
  </g>
  <g class="cls-16">
    <path class="cls-12" d="m71.45,11.07s-18.25-22.03-39.17,11.35c0,0,20.25-21.14,39.17-11.35Z"/>
  </g>
  <g class="cls-21">
    <path class="cls-7" d="m23.16,39.55s-14.46,24.03,0,45.4c0,0-8.46-22.92,0-45.4Z"/>
  </g>
  <g class="cls-22">
    <path class="cls-8" d="m64.11,121.89s33.83,19.14,27.37-27.37c0,0,2.23,38.28-27.37,27.37Z"/>
  </g>
  <path class="cls-6" d="m30.4,23.45c-1.12,2.72-1.53,5.68-1.59,8.62-.02.92.04,1.95.71,2.58,1.07,1.01,2.81.31,4.09-.43,2.15-1.24,4.4-2.59,5.58-4.77.55-1.03.83-2.17,1.08-3.31.56-2.62.99-5.28.94-7.95,0-.26-.02-.54-.19-.75-1.06-1.3-4.8-.77-6.08-.06-2.09,1.16-3.67,3.95-4.54,6.07Z"/>
  <path class="cls-6" d="m24.9,42.98c-.16.47-.26,1.06.09,1.41.23.23.59.27.92.3.56.05,1.19.08,1.64-.25.19-.14.33-.33.46-.52.93-1.36,1.52-2.95,1.69-4.59.21-1.98-1.81-1.26-2.66-.33-.96,1.05-1.69,2.66-2.14,3.98Z"/>
</svg>