<?xml version="1.0" encoding="UTF-8"?>
<svg id="Layer_1" data-name="Layer 1" xmlns="http://www.w3.org/2000/svg" xmlns:xlink="http://www.w3.org/1999/xlink" viewBox="0 0 128 128">
  <defs>
    <style>
      .cls-1 {
        fill: url(#_Áåçûìÿííûé_ãðàäèåíò_14);
      }

      .cls-1, .cls-2, .cls-3, .cls-4, .cls-5, .cls-6, .cls-7, .cls-8, .cls-9, .cls-10, .cls-11, .cls-12, .cls-13 {
        stroke-width: 0px;
      }

      .cls-2 {
        fill: url(#_Áåçûìÿííûé_ãðàäèåíò_108-3);
      }

      .cls-2, .cls-9, .cls-10, .cls-11 {
        mix-blend-mode: multiply;
      }

      .cls-3 {
        fill: #020202;
      }

      .cls-14 {
        filter: url(#luminosity-noclip-7);
      }

      .cls-15 {
        filter: url(#luminosity-noclip-5);
      }

      .cls-16 {
        mask: url(#mask-2);
      }

      .cls-17 {
        mask: url(#mask-3);
      }

      .cls-4 {
        fill: #f9f871;
      }

      .cls-18 {
        mask: url(#mask-5);
      }

      .cls-19 {
        opacity: .4;
      }

      .cls-5, .cls-6 {
        fill: #fff;
      }

      .cls-6 {
        opacity: .6;
      }

      .cls-20 {
        opacity: .57;
      }

      .cls-21 {
        mask: url(#mask-4);
      }

      .cls-7 {
        fill: url(#_Áåçûìÿííûé_ãðàäèåíò_40-2);
      }

      .cls-8 {
        fill: url(#_Áåçûìÿííûé_ãðàäèåíò_40-3);
      }

      .cls-9 {
        fill: url(#_Áåçûìÿííûé_ãðàäèåíò_108-2);
      }

      .cls-22 {
        mask: url(#mask-6);
      }

      .cls-10 {
        fill: url(#_Áåçûìÿííûé_ãðàäèåíò_111);
      }

      .cls-23 {
        filter: url(#luminosity-noclip);
      }

      .cls-24 {
        mask: url(#mask-1);
      }

      .cls-25 {
        mask: url(#mask);
      }

      .cls-26 {
        mask: url(#mask-7);
      }

      .cls-11 {
        fill: url(#_Áåçûìÿííûé_ãðàäèåíò_108);
      }

      .cls-12 {
        fill: url(#_Áåçûìÿííûé_ãðàäèåíò_40);
      }

      .cls-13 {
        fill: #171421;
      }

      .cls-27 {
        filter: url(#luminosity-noclip-3);
      }
    </style>
    <filter id="luminosity-noclip" x="18.44" y="6.89" width="88.4" height="112.23" color-interpolation-filters="sRGB" filterUnits="userSpaceOnUse">
      <feFlood flood-color="#fff" result="bg"/>
      <feBlend in="SourceGraphic" in2="bg"/>
    </filter>
    <filter id="luminosity-noclip-2" x="18.44" y="-8256" width="88.4" height="32766" color-interpolation-filters="sRGB" filterUnits="userSpaceOnUse">
      <feFlood flood-color="#fff" result="bg"/>
      <feBlend in="SourceGraphic" in2="bg"/>
    </filter>
    <mask id="mask-1" x="18.44" y="-8256" width="88.4" height="32766" maskUnits="userSpaceOnUse"/>
    <linearGradient id="_Áåçûìÿííûé_ãðàäèåíò_111" data-name="Áåçûìÿííûé ãðàäèåíò 111" x1="94.6" y1="97.98" x2="21.91" y2="25.29" gradientUnits="userSpaceOnUse">
      <stop offset="0" stop-color="#fff"/>
      <stop offset="1" stop-color="#000"/>
    </linearGradient>
    <mask id="mask" x="18.44" y="6.89" width="88.4" height="112.23" maskUnits="userSpaceOnUse">
      <g class="cls-23">
        <g class="cls-24">
          <path class="cls-10" d="m100.62,48.03c2.83,6.51,5.69,13.18,6.16,20.25.63,9.6-3.33,19.13-9.43,26.58-6.1,7.45-14.19,13.02-22.64,17.62-8.96,4.88-19.62,8.84-29.18,5.28-7.65-2.85-12.87-9.95-16.66-17.18-11.3-21.55-13.54-47.67-6.09-70.83,1.39-4.32,3.19-8.68,6.48-11.8,3.7-3.51,8.8-5.04,13.7-6.46,12.43-3.59,27.5-8.63,37.66.79,9.43,8.74,15,24.22,20,35.74Z"/>
        </g>
      </g>
    </mask>
    <linearGradient id="_Áåçûìÿííûé_ãðàäèåíò_14" data-name="Áåçûìÿííûé ãðàäèåíò 14" x1="94.6" y1="97.98" x2="21.91" y2="25.29" gradientUnits="userSpaceOnUse">
      <stop offset="0" stop-color="#000"/>
      <stop offset="1" stop-color="#00c9a7"/>
    </linearGradient>
    <filter id="luminosity-noclip-3" x="16.02" y="8.47" width="24.01" height="46.98" color-interpolation-filters="sRGB" filterUnits="userSpaceOnUse">
      <feFlood flood-color="#fff" result="bg"/>
      <feBlend in="SourceGraphic" in2="bg"/>
    </filter>
    <filter id="luminosity-noclip-4" x="16.02" y="-8256" width="24.01" height="32766" color-interpolation-filters="sRGB" filterUnits="userSpaceOnUse">
      <feFlood flood-color="#fff" result="bg"/>
      <feBlend in="SourceGraphic" in2="bg"/>
    </filter>
    <mask id="mask-3" x="16.02" y="-8256" width="24.01" height="32766" maskUnits="userSpaceOnUse"/>
    <radialGradient id="_Áåçûìÿííûé_ãðàäèåíò_108" data-name="Áåçûìÿííûé ãðàäèåíò 108" cx="28.03" cy="31.96" fx="28.03" fy="31.96" r="18.65" gradientUnits="userSpaceOnUse">
      <stop offset="0" stop-color="#fff"/>
      <stop offset="1" stop-color="#333"/>
    </radialGradient>
    <mask id="mask-2" x="16.02" y="8.47" width="24.01" height="46.98" maskUnits="userSpaceOnUse">
      <g class="cls-27">
        <g class="cls-17">
          <path class="cls-11" d="m40.03,8.47s-22.97,3.83-24.01,46.98c0,0,4.87-30.97,24.01-46.98Z"/>
        </g>
      </g>
    </mask>
    <radialGradient id="_Áåçûìÿííûé_ãðàäèåíò_40" data-name="Áåçûìÿííûé ãðàäèåíò 40" cx="28.03" cy="31.96" fx="28.03" fy="31.96" r="18.65" gradientUnits="userSpaceOnUse">
      <stop offset="0" stop-color="#fff"/>
      <stop offset="1" stop-color="#fff"/>
    </radialGradient>
    <filter id="luminosity-noclip-5" x="92.82" y="60.67" width="17.05" height="44.08" color-interpolation-filters="sRGB" filterUnits="userSpaceOnUse">
      <feFlood flood-color="#fff" result="bg"/>
      <feBlend in="SourceGraphic" in2="bg"/>
    </filter>
    <filter id="luminosity-noclip-6" x="92.82" y="-8256" width="17.05" height="32766" color-interpolation-filters="sRGB" filterUnits="userSpaceOnUse">
      <feFlood flood-color="#fff" result="bg"/>
      <feBlend in="SourceGraphic" in2="bg"/>
    </filter>
    <mask id="mask-5" x="92.82" y="-8256" width="17.05" height="32766" maskUnits="userSpaceOnUse"/>
    <radialGradient id="_Áåçûìÿííûé_ãðàäèåíò_108-2" data-name="Áåçûìÿííûé ãðàäèåíò 108" cx="101.34" cy="82.71" fx="101.34" fy="82.71" r="16.71" xlink:href="#_Áåçûìÿííûé_ãðàäèåíò_108"/>
    <mask id="mask-4" x="92.82" y="60.67" width="17.05" height="44.08" maskUnits="userSpaceOnUse">
      <g class="cls-15">
        <g class="cls-18">
          <path class="cls-9" d="m92.82,104.75s22.04-18.33,16.01-44.08c0,0-.7,26.22-16.01,44.08Z"/>
        </g>
      </g>
    </mask>
    <radialGradient id="_Áåçûìÿííûé_ãðàäèåíò_40-2" data-name="Áåçûìÿííûé ãðàäèåíò 40" cx="101.34" cy="82.71" fx="101.34" fy="82.71" r="16.71" xlink:href="#_Áåçûìÿííûé_ãðàäèåíò_40"/>
    <filter id="luminosity-noclip-7" x="55.23" y="2.92" width="35.03" height="17.85" color-interpolation-filters="sRGB" filterUnits="userSpaceOnUse">
      <feFlood flood-color="#fff" result="bg"/>
      <feBlend in="SourceGraphic" in2="bg"/>
    </filter>
    <filter id="luminosity-noclip-8" x="55.23" y="-8256" width="35.03" height="32766" color-interpolation-filters="sRGB" filterUnits="userSpaceOnUse">
      <feFlood flood-color="#fff" result="bg"/>
      <feBlend in="SourceGraphic" in2="bg"/>
    </filter>
    <mask id="mask-7" x="55.23" y="-8256" width="35.03" height="32766" maskUnits="userSpaceOnUse"/>
    <radialGradient id="_Áåçûìÿííûé_ãðàäèåíò_108-3" data-name="Áåçûìÿííûé ãðàäèåíò 108" cx="72.75" cy="11.84" fx="72.75" fy="11.84" r="13.9" xlink:href="#_Áåçûìÿííûé_ãðàäèåíò_108"/>
    <mask id="mask-6" x="55.23" y="2.92" width="35.03" height="17.85" maskUnits="userSpaceOnUse">
      <g class="cls-14">
        <g class="cls-26">
          <path class="cls-2" d="m55.23,4.06s22.04-7.66,35.03,16.7c0,0-12.88-17.46-35.03-16.7Z"/>
        </g>
      </g>
    </mask>
    <radialGradient id="_Áåçûìÿííûé_ãðàäèåíò_40-3" data-name="Áåçûìÿííûé ãðàäèåíò 40" cx="72.75" cy="11.84" fx="72.75" fy="11.84" r="13.9" xlink:href="#_Áåçûìÿííûé_ãðàäèåíò_40"/>
  </defs>
  <path class="cls-3" d="m112.48,49.04c3.15,7.26,6.35,14.7,6.87,22.6.7,10.72-3.71,21.34-10.52,29.65-6.8,8.31-15.83,14.53-25.26,19.66-10,5.44-21.89,9.86-32.56,5.89-8.53-3.18-14.36-11.1-18.59-19.16-12.6-24.04-15.11-53.18-6.79-79.02,1.55-4.82,3.56-9.68,7.23-13.16,4.13-3.92,9.82-5.62,15.29-7.2,13.87-4,30.68-9.62,42.02.88,10.52,9.75,16.73,27.02,22.31,39.87Z"/>
  <path class="cls-4" d="m105.03,46.25c3.15,7.26,6.35,14.7,6.87,22.6.7,10.72-3.72,21.34-10.52,29.65-6.8,8.31-15.83,14.53-25.26,19.66-10,5.44-21.89,9.86-32.56,5.89-8.53-3.18-14.36-11.1-18.59-19.16-12.6-24.04-15.11-53.18-6.79-79.02,1.55-4.82,3.56-9.68,7.23-13.16,4.13-3.92,9.82-5.62,15.29-7.2,13.87-4,30.68-9.62,42.02.88,10.52,9.75,16.73,27.02,22.31,39.87Z"/>
  <g class="cls-20">
    <g class="cls-25">
      <path class="cls-1" d="m100.62,48.03c2.83,6.51,5.69,13.18,6.16,20.25.63,9.6-3.33,19.13-9.43,26.58-6.1,7.45-14.19,13.02-22.64,17.62-8.96,4.88-19.62,8.84-29.18,5.28-7.65-2.85-12.87-9.95-16.66-17.18-11.3-21.55-13.54-47.67-6.09-70.83,1.39-4.32,3.19-8.68,6.48-11.8,3.7-3.51,8.8-5.04,13.7-6.46,12.43-3.59,27.5-8.63,37.66.79,9.43,8.74,15,24.22,20,35.74Z"/>
    </g>
  </g>
  <g class="cls-19">
    <path class="cls-5" d="m38.91,23.38s.24,1.27.66,3.5c.43,2.22.98,5.42,1.59,9.26.29,1.92.6,4,.93,6.21.33,2.2.61,4.53.92,6.95.29,2.41.62,4.91.85,7.45.24,2.54.49,5.12.73,7.71.22,2.58.52,5.17.79,7.72.29,2.55.51,5.06.56,7.49.02,2.43-.09,4.78-.33,7.01-.21,2.23-.49,4.33-.83,6.27-.65,3.88-1.49,7.09-2.22,9.32-.36,1.12-.67,2-.91,2.59-.23.6-.37.91-.37.91l-.9-.03s-.12-.33-.31-.94c-.2-.61-.46-1.5-.74-2.64-.28-1.13-.62-2.51-.92-4.08-.3-1.57-.61-3.34-.88-5.26-.27-1.92-.51-4.01-.69-6.21-.19-2.2-.33-4.51-.32-6.91,0-2.4.2-4.87.39-7.4.21-2.52.36-5.09.45-7.65.12-5.13.23-10.27.35-15.08.07-4.82.17-9.33.19-13.19.07-7.75.11-12.91.11-12.91l.9-.08Z"/>
    <path class="cls-5" d="m38.87,24.04s2.83,1.9,6.97,4.86c2.06,1.49,4.48,3.23,7.01,5.18,2.56,1.91,5.19,4.09,7.81,6.31,1.31,1.11,2.66,2.19,3.99,3.26,1.34,1.07,2.62,2.18,3.72,3.37,1.09,1.21,2.02,2.49,2.81,3.78.8,1.28,1.49,2.55,2.02,3.72,1.05,2.3,1.72,4.15,2.32,5.53.3.68.56,1.22.74,1.62.19.39.3.6.3.6l-.48.77s-.25,0-.72-.06c-.46-.06-1.14-.19-1.96-.47-.82-.28-1.8-.7-2.8-1.3-1-.59-2.07-1.34-3.1-2.17-1.03-.82-2.06-1.68-3.1-2.64-1.06-.94-2.11-1.98-3.11-3.14-1-1.16-1.91-2.47-2.84-3.82-.93-1.34-1.92-2.69-2.97-3.98-1.05-1.29-2.12-2.57-3.19-3.82-1.06-1.26-2.11-2.51-3.12-3.71-2.04-2.42-3.94-4.69-5.57-6.63-3.26-3.91-5.36-6.59-5.36-6.59l.62-.66Z"/>
    <path class="cls-5" d="m39.94,61.33c1.2-1.77,2.43-3.54,3.68-5.29,1.25-1.75,2.55-3.47,3.86-5.18,2.64-3.41,5.37-6.75,8.2-10.01,1.42-1.63,2.86-3.24,4.32-4.84,1.46-1.6,2.97-3.15,4.48-4.7,3.04-3.08,6.17-6.09,9.39-9l4.52-4.09.43,6.32,1.43,21.11.89,10.55c.32,3.52.53,7.03.66,10.55.11,3.52.11,7.05.01,10.57-.08,3.53-.23,7.06-.45,10.59-.22,3.53-.52,7.07-.92,10.6-.19,1.77-.45,3.54-.69,5.31-.27,1.77-.55,3.54-.91,5.32l-.9.03c-.47-1.75-.86-3.5-1.24-5.25-.35-1.75-.71-3.5-1.01-5.26-.62-3.51-1.13-7.02-1.57-10.53-.44-3.51-.81-7.02-1.1-10.54-.31-3.52-.53-7.03-.64-10.56-.09-3.52-.09-7.05.02-10.58l.25-10.58.13-21.15,4.95,2.23c-1.68,1.29-3.35,2.58-5,3.91-1.65,1.33-3.28,2.68-4.9,4.05-1.61,1.38-3.2,2.78-4.8,4.18-1.58,1.41-3.15,2.85-4.71,4.3-3.1,2.91-6.12,5.92-9.06,9.01l-4.36,4.69c-1.43,1.57-2.86,3.18-4.26,4.8l-.71-.55Z"/>
  </g>
  <g>
    <path class="cls-13" d="m41.87,23.4s.19,1.28.53,3.51c.35,2.23.77,5.43,1.26,9.28.23,1.92.49,4.01.76,6.21.27,2.2.48,4.54.73,6.95.22,2.41.48,4.9.66,7.44.18,2.54.37,5.12.56,7.7.31,5.16.87,10.32.94,15.18,0,2.43-.05,4.77-.21,6.99-.13,2.22-.33,4.32-.55,6.26-.2,1.94-.47,3.71-.71,5.27-.25,1.57-.5,2.93-.75,4.05-.48,2.24-.84,3.52-.84,3.52l-.56-.02s-.29-1.3-.62-3.56c-.17-1.13-.35-2.5-.53-4.07-.16-1.57-.36-3.34-.5-5.27-.15-1.93-.32-4.01-.42-6.22-.11-2.2-.19-4.53-.19-6.93,0-2.4.11-4.89.21-7.41.12-2.53.18-5.09.22-7.66.04-5.14,0-10.27-.02-15.09-.06-4.82-.09-9.32-.18-13.18-.21-7.73-.35-12.88-.35-12.88l.56-.05Z"/>
    <path class="cls-13" d="m41.89,24.16s2.7,2.04,6.66,5.2c1.99,1.57,4.32,3.4,6.75,5.44,2.46,2.01,5.01,4.25,7.53,6.54,1.27,1.14,2.55,2.28,3.8,3.4,1.26,1.12,2.46,2.27,3.55,3.46,2.13,2.4,3.82,4.97,5.08,7.17.61,1.08,1.16,2.06,1.66,2.94.49.86.94,1.59,1.34,2.2.39.61.74,1.07.97,1.4.24.33.37.5.37.5l-.3.48s-.22-.05-.64-.16c-.41-.12-1.01-.33-1.73-.69-.73-.35-1.56-.86-2.46-1.51-.88-.66-1.83-1.46-2.77-2.34-.94-.89-1.9-1.82-2.89-2.84-1.01-1-2.03-2.1-3.05-3.26-1.01-1.17-2-2.44-3-3.74-1.01-1.29-2.06-2.59-3.16-3.85-2.2-2.51-4.48-4.96-6.6-7.3-2.13-2.33-4.13-4.5-5.83-6.37-3.44-3.72-5.68-6.26-5.68-6.26l.38-.41Z"/>
    <path class="cls-13" d="m43.21,61.44c1.24-1.75,2.5-3.48,3.79-5.2,1.29-1.72,2.61-3.41,3.96-5.09,2.69-3.35,5.48-6.63,8.36-9.82,1.44-1.6,2.91-3.18,4.39-4.74,1.49-1.56,3.01-3.08,4.55-4.59,3.08-3.01,6.25-5.94,9.5-8.78l2.81-2.45.22,3.82,1.19,21.11c.38,7.04,1,14.07,1.2,21.11.1,3.52.16,7.04.12,10.57l-.04,5.29-.12,5.29c-.03,1.76-.12,3.53-.19,5.29-.06,1.76-.16,3.53-.27,5.3-.2,3.53-.46,7.06-.87,10.6l-.56.02c-.62-3.51-1.1-7.02-1.52-10.53-.21-1.76-.42-3.51-.59-5.27-.18-1.76-.37-3.51-.51-5.27l-.45-5.27-.36-5.28c-.25-3.52-.41-7.04-.52-10.56-.23-7.04-.04-14.1-.1-21.15l-.1-21.15,3.03,1.36c-3.33,2.63-6.6,5.36-9.78,8.18-1.59,1.41-3.16,2.85-4.73,4.29-1.56,1.45-3.11,2.91-4.63,4.4-3.05,2.98-6.02,6.04-8.9,9.19-1.44,1.58-2.85,3.18-4.27,4.78-1.4,1.61-2.79,3.24-4.15,4.89l-.45-.35Z"/>
  </g>
  <g class="cls-16">
    <path class="cls-12" d="m40.03,8.47s-22.97,3.83-24.01,46.98c0,0,4.87-30.97,24.01-46.98Z"/>
  </g>
  <g class="cls-21">
    <path class="cls-7" d="m92.82,104.75s22.04-18.33,16.01-44.08c0,0-.7,26.22-16.01,44.08Z"/>
  </g>
  <g class="cls-22">
    <path class="cls-8" d="m55.23,4.06s22.04-7.66,35.03,16.7c0,0-12.88-17.46-35.03-16.7Z"/>
  </g>
  <path class="cls-6" d="m38.76,15.93c-.32-3.06-4.24-5.18-7.04-4.04-2.62,1.07-5.81,4.5-7.52,6.67-1.58,2-2.66,4.52-2.44,7.06.04.41.11.83.3,1.19.29.54.82.92,1.38,1.18,1.71.77,3.75.52,5.46-.26,1.71-.78,3.15-2.03,4.56-3.27,1.93-1.71,3.89-3.54,4.85-5.93.33-.82.54-1.72.45-2.6Z"/>
  <path class="cls-6" d="m20.88,45.57c0,.12.02.25.09.35.09.12.25.17.41.18.68.06,1.34-.31,1.79-.83.44-.52.71-1.17.94-1.81.59-1.61,3.76-8.64-.08-8.06-3.24.49-3.25,7.78-3.14,10.17Z"/>
</svg>