<?xml version="1.0" encoding="UTF-8"?>
<svg id="Layer_1" data-name="Layer 1" xmlns="http://www.w3.org/2000/svg" xmlns:xlink="http://www.w3.org/1999/xlink" viewBox="0 0 128 128">
  <defs>
    <style>
      .cls-1 {
        fill: #020202;
      }

      .cls-1, .cls-2, .cls-3, .cls-4, .cls-5, .cls-6, .cls-7, .cls-8, .cls-9, .cls-10, .cls-11 {
        stroke-width: 0px;
      }

      .cls-12 {
        filter: url(#luminosity-noclip-5);
      }

      .cls-13 {
        mask: url(#mask-2);
      }

      .cls-14 {
        mask: url(#mask-3);
      }

      .cls-2 {
        fill: #f9f871;
      }

      .cls-15 {
        mask: url(#mask-5);
      }

      .cls-3, .cls-4 {
        fill: #fff;
      }

      .cls-16 {
        opacity: .3;
      }

      .cls-4 {
        opacity: .6;
      }

      .cls-17 {
        opacity: .57;
      }

      .cls-18 {
        mask: url(#mask-4);
      }

      .cls-5 {
        fill: url(#_Áåçûìÿííûé_ãðàäèåíò_40-2);
      }

      .cls-6 {
        fill: url(#_Áåçûìÿííûé_ãðàäèåíò_108-2);
      }

      .cls-6, .cls-7, .cls-9 {
        mix-blend-mode: multiply;
      }

      .cls-7 {
        fill: url(#_Áåçûìÿííûé_ãðàäèåíò_111);
      }

      .cls-19 {
        filter: url(#luminosity-noclip);
      }

      .cls-20 {
        mask: url(#mask-1);
      }

      .cls-21 {
        mask: url(#mask);
      }

      .cls-8 {
        fill: url(#_Áåçûìÿííûé_ãðàäèåíò_72);
      }

      .cls-9 {
        fill: url(#_Áåçûìÿííûé_ãðàäèåíò_108);
      }

      .cls-10 {
        fill: url(#_Áåçûìÿííûé_ãðàäèåíò_40);
      }

      .cls-11 {
        fill: #171421;
      }

      .cls-22 {
        filter: url(#luminosity-noclip-3);
      }
    </style>
    <filter id="luminosity-noclip" x="26.7" y="8.28" width="60.84" height="108.8" color-interpolation-filters="sRGB" filterUnits="userSpaceOnUse">
      <feFlood flood-color="#fff" result="bg"/>
      <feBlend in="SourceGraphic" in2="bg"/>
    </filter>
    <filter id="luminosity-noclip-2" x="26.7" y="-8256" width="60.84" height="32766" color-interpolation-filters="sRGB" filterUnits="userSpaceOnUse">
      <feFlood flood-color="#fff" result="bg"/>
      <feBlend in="SourceGraphic" in2="bg"/>
    </filter>
    <mask id="mask-1" x="26.7" y="-8256" width="60.84" height="32766" maskUnits="userSpaceOnUse"/>
    <linearGradient id="_Áåçûìÿííûé_ãðàäèåíò_111" data-name="Áåçûìÿííûé ãðàäèåíò 111" x1="88.32" y1="90.64" x2="28.27" y2="30.59" gradientUnits="userSpaceOnUse">
      <stop offset="0" stop-color="#fff"/>
      <stop offset="1" stop-color="#000"/>
    </linearGradient>
    <mask id="mask" x="26.7" y="8.28" width="60.84" height="108.8" maskUnits="userSpaceOnUse">
      <g class="cls-19">
        <g class="cls-20">
          <path class="cls-7" d="m26.93,70.89c-1.67-17.22,6.03-33.81,13.54-49.4,1.51-3.14,3.08-6.36,5.64-8.72,5.84-5.38,14.83-4.81,22.72-3.91,2.03.23,4.19.52,5.71,1.88,1.06.94,1.67,2.27,2.23,3.56,6.97,15.97,11.88,33.28,10.55,50.65-1.19,15.52-11.48,47.84-29.75,51.79-19.06,4.13-29.34-32.35-30.64-45.86Z"/>
        </g>
      </g>
    </mask>
    <linearGradient id="_Áåçûìÿííûé_ãðàäèåíò_72" data-name="Áåçûìÿííûé ãðàäèåíò 72" x1="88.32" y1="90.64" x2="28.27" y2="30.59" gradientUnits="userSpaceOnUse">
      <stop offset="0" stop-color="#201600"/>
      <stop offset="1" stop-color="#fffc94"/>
    </linearGradient>
    <filter id="luminosity-noclip-3" x="27.96" y="2" width="53.53" height="55.49" color-interpolation-filters="sRGB" filterUnits="userSpaceOnUse">
      <feFlood flood-color="#fff" result="bg"/>
      <feBlend in="SourceGraphic" in2="bg"/>
    </filter>
    <filter id="luminosity-noclip-4" x="27.96" y="-8256" width="53.53" height="32766" color-interpolation-filters="sRGB" filterUnits="userSpaceOnUse">
      <feFlood flood-color="#fff" result="bg"/>
      <feBlend in="SourceGraphic" in2="bg"/>
    </filter>
    <mask id="mask-3" x="27.96" y="-8256" width="53.53" height="32766" maskUnits="userSpaceOnUse"/>
    <radialGradient id="_Áåçûìÿííûé_ãðàäèåíò_108" data-name="Áåçûìÿííûé ãðàäèåíò 108" cx="54.72" cy="29.74" fx="54.72" fy="29.74" r="27.26" gradientUnits="userSpaceOnUse">
      <stop offset="0" stop-color="#fff"/>
      <stop offset="1" stop-color="#333"/>
    </radialGradient>
    <mask id="mask-2" x="27.96" y="2" width="53.53" height="55.49" maskUnits="userSpaceOnUse">
      <g class="cls-22">
        <g class="cls-14">
          <path class="cls-9" d="m81.48,18.12S80.23.63,58.78,2.08c0,0-22.29-3.33-30.82,55.4,0,0,17.08-79.77,53.53-39.36Z"/>
        </g>
      </g>
    </mask>
    <radialGradient id="_Áåçûìÿííûé_ãðàäèåíò_40" data-name="Áåçûìÿííûé ãðàäèåíò 40" cx="54.72" cy="29.74" fx="54.72" fy="29.74" r="27.26" gradientUnits="userSpaceOnUse">
      <stop offset="0" stop-color="#fff"/>
      <stop offset="1" stop-color="#fff"/>
    </radialGradient>
    <filter id="luminosity-noclip-5" x="49.41" y="96.01" width="31.66" height="26.56" color-interpolation-filters="sRGB" filterUnits="userSpaceOnUse">
      <feFlood flood-color="#fff" result="bg"/>
      <feBlend in="SourceGraphic" in2="bg"/>
    </filter>
    <filter id="luminosity-noclip-6" x="49.41" y="-8256" width="31.66" height="32766" color-interpolation-filters="sRGB" filterUnits="userSpaceOnUse">
      <feFlood flood-color="#fff" result="bg"/>
      <feBlend in="SourceGraphic" in2="bg"/>
    </filter>
    <mask id="mask-5" x="49.41" y="-8256" width="31.66" height="32766" maskUnits="userSpaceOnUse"/>
    <radialGradient id="_Áåçûìÿííûé_ãðàäèåíò_108-2" data-name="Áåçûìÿííûé ãðàäèåíò 108" cx="65.24" cy="109.3" fx="65.24" fy="109.3" r="14.61" xlink:href="#_Áåçûìÿííûé_ãðàäèåíò_108"/>
    <mask id="mask-4" x="49.41" y="96.01" width="31.66" height="26.56" maskUnits="userSpaceOnUse">
      <g class="cls-12">
        <g class="cls-15">
          <path class="cls-6" d="m49.41,122.47s18.74,3.33,31.66-26.45c0,0-13.95,20.2-31.66,26.45Z"/>
        </g>
      </g>
    </mask>
    <radialGradient id="_Áåçûìÿííûé_ãðàäèåíò_40-2" data-name="Áåçûìÿííûé ãðàäèåíò 40" cx="65.24" cy="109.3" fx="65.24" fy="109.3" r="14.61" xlink:href="#_Áåçûìÿííûé_ãðàäèåíò_40"/>
  </defs>
  <path class="cls-1" d="m29.59,75.56c-1.91-19.71,6.9-38.7,15.49-56.54,1.73-3.59,3.53-7.28,6.46-9.98,6.68-6.16,16.97-5.51,26-4.47,2.32.27,4.79.6,6.54,2.15,1.21,1.07,1.91,2.6,2.55,4.08,7.97,18.27,13.6,38.09,12.08,57.97-1.36,17.76-13.14,54.75-34.05,59.28-21.82,4.73-33.58-37.02-35.07-52.49Z"/>
  <path class="cls-2" d="m22.56,72.08c-1.91-19.71,6.9-38.7,15.49-56.54,1.73-3.59,3.53-7.28,6.46-9.98C51.19-.6,61.48.05,70.51,1.09c2.32.27,4.79.6,6.54,2.15,1.21,1.07,1.91,2.6,2.55,4.08,7.97,18.27,13.6,38.09,12.08,57.97-1.36,17.76-13.14,54.75-34.05,59.28-21.82,4.73-33.58-37.02-35.07-52.49Z"/>
  <g class="cls-17">
    <g class="cls-21">
      <path class="cls-8" d="m26.93,70.89c-1.67-17.22,6.03-33.81,13.54-49.4,1.51-3.14,3.08-6.36,5.64-8.72,5.84-5.38,14.83-4.81,22.72-3.91,2.03.23,4.19.52,5.71,1.88,1.06.94,1.67,2.27,2.23,3.56,6.97,15.97,11.88,33.28,10.55,50.65-1.19,15.52-11.48,47.84-29.75,51.79-19.06,4.13-29.34-32.35-30.64-45.86Z"/>
    </g>
  </g>
  <g class="cls-16">
    <path class="cls-3" d="m55.38,33.05s.1,4.59.25,11.46c.08,3.43.18,7.43.28,11.72.12,4.28.26,8.84.39,13.4.09,2.28.23,4.56.42,6.8.18,2.24.35,4.44.36,6.57.02,2.13-.11,4.19-.29,6.14-.17,1.95-.39,3.8-.63,5.51-.24,1.71-.52,3.28-.8,4.67-.27,1.39-.59,2.61-.84,3.62-.26,1.01-.5,1.8-.68,2.34-.17.54-.29.83-.29.83l-.81.02s-.13-.28-.33-.81c-.21-.53-.49-1.31-.8-2.3-.65-1.99-1.39-4.84-1.96-8.28-.3-1.72-.55-3.59-.73-5.56-.21-1.98-.31-4.06-.29-6.22.04-2.16.24-4.38.49-6.64.24-2.26.5-4.55.69-6.85.21-2.29.42-4.58.62-6.84.2-2.25.47-4.47.72-6.61.27-2.14.5-4.21.78-6.17.28-1.96.54-3.81.78-5.52.51-3.41.97-6.25,1.32-8.23.35-1.98.55-3.11.55-3.11l.81.06Z"/>
    <path class="cls-3" d="m39.35,32.63l8.44,12.73,8.46,12.63-5.19-.45c.79-1.09,1.57-2.16,2.28-3.25.71-1.09,1.36-2.19,1.96-3.28.6-1.09,1.16-2.15,1.71-3.18l1.68-3.15c.59-1.1,1.22-2.28,1.91-3.49.36-.6.71-1.21,1.11-1.82.4-.62.8-1.19,1.26-1.79.89-1.16,1.87-2.25,2.94-3.24.56-.48,1.1-.96,1.69-1.39.59-.43,1.2-.85,1.85-1.2l.65.49c-.14.72-.32,1.4-.48,2.08-.16.68-.35,1.33-.49,1.99l-.93,3.83-.86,3.77c-.32,1.28-.66,2.61-1.13,3.98-.23.69-.49,1.35-.82,2.08-.29.65-.65,1.36-1.04,2.01-.77,1.31-1.67,2.5-2.63,3.6-.96,1.1-1.95,2.13-2.93,3.12l-2.88,2.94-3.31,3.39-1.88-3.84c-1.12-2.3-2.25-4.6-3.32-6.92-1.06-2.33-2.1-4.67-3.12-7.01-1-2.36-1.99-4.71-2.94-7.09-.95-2.37-1.86-4.77-2.73-7.17l.72-.37Z"/>
  </g>
  <g>
    <path class="cls-11" d="m57.42,33.03s-.07,4.58-.17,11.44c-.01,3.43-.03,7.43-.05,11.71.02,4.28.04,8.84.07,13.41.04,2.28.11,4.56.22,6.81.1,2.24.2,4.45.2,6.59,0,2.13-.07,4.2-.18,6.16-.09,1.96-.25,3.81-.38,5.52-.14,1.71-.32,3.28-.47,4.68-.17,1.39-.34,2.61-.49,3.61-.31,2.01-.57,3.16-.57,3.16l-.51.02s-.32-1.13-.74-3.13c-.22-1-.43-2.21-.66-3.6-.21-1.39-.45-2.96-.62-4.68-.19-1.72-.37-3.58-.48-5.55-.14-1.97-.18-4.05-.18-6.2.06-4.3.56-8.89.81-13.47.3-4.58.61-9.16,1.01-13.44.21-2.14.38-4.21.6-6.17.22-1.96.43-3.81.62-5.52.4-3.41.74-6.26,1.03-8.25.28-1.99.44-3.12.44-3.12l.51.04Z"/>
    <path class="cls-11" d="m41.4,32.7c2.63,4.35,5.22,8.72,7.92,13.02l4.03,6.45,4.06,6.42-3.24-.28c1.65-2.12,3.21-4.26,4.53-6.44.67-1.09,1.3-2.17,1.89-3.26.3-.55.59-1.06.87-1.65.27-.52.57-1.1.84-1.68l1.76-3.58c.32-.61.63-1.22.99-1.83.35-.62.71-1.2,1.11-1.8.77-1.18,1.64-2.3,2.56-3.35.95-1.03,1.94-2.02,3.06-2.87l.41.3c-.48,1.31-1.01,2.54-1.45,3.8-.47,1.24-.9,2.48-1.31,3.71l-.58,1.86-.56,1.89c-.39,1.27-.78,2.57-1.28,3.89-.26.66-.5,1.3-.82,1.99-.3.62-.63,1.3-1,1.92-.74,1.25-1.56,2.43-2.46,3.52-1.79,2.19-3.7,4.17-5.51,6.15l-1.97,2.16-1.27-2.44c-1.18-2.26-2.36-4.52-3.49-6.8-1.13-2.29-2.24-4.58-3.33-6.89-2.13-4.63-4.25-9.26-6.19-13.97l.45-.23Z"/>
  </g>
  <g class="cls-13">
    <path class="cls-10" d="m81.48,18.12S80.23.63,58.78,2.08c0,0-22.29-3.33-30.82,55.4,0,0,17.08-79.77,53.53-39.36Z"/>
  </g>
  <g class="cls-18">
    <path class="cls-5" d="m49.41,122.47s18.74,3.33,31.66-26.45c0,0-13.95,20.2-31.66,26.45Z"/>
  </g>
  <path class="cls-4" d="m40.33,16.97c.44-3.54,3.39-6.29,6.25-8.85.57-.52,1.17-1.04,1.99-1.33,1.87-.66,4.29.1,6.4.84.54.19,1.12.4,1.46.78.24.26.34.57.42.87,1.08,3.67,1.52,7.45.26,10.81-1.13,3-5.6,8.69-10.79,8.18-5.41-.53-6.33-8.51-5.99-11.28Z"/>
  <path class="cls-4" d="m37.31,35.51c.18-1.46,1.4-2.58,2.59-3.63.24-.21.49-.43.83-.54.78-.27,1.79.05,2.67.35.23.08.47.17.61.32.1.11.14.23.18.36.45,1.51.65,3.07.13,4.45-.46,1.23-2.32,3.57-4.49,3.35-2.26-.23-2.65-3.51-2.51-4.65Z"/>
</svg>