<?xml version="1.0" encoding="UTF-8"?>
<svg id="Layer_1" data-name="Layer 1" xmlns="http://www.w3.org/2000/svg" xmlns:xlink="http://www.w3.org/1999/xlink" viewBox="0 0 128 128">
  <defs>
    <style>
      .cls-1 {
        fill: url(#_Áåçûìÿííûé_ãðàäèåíò_14);
      }

      .cls-1, .cls-2, .cls-3, .cls-4, .cls-5, .cls-6, .cls-7, .cls-8, .cls-9, .cls-10, .cls-11, .cls-12, .cls-13 {
        stroke-width: 0px;
      }

      .cls-2 {
        fill: url(#_Áåçûìÿííûé_ãðàäèåíò_108-3);
      }

      .cls-2, .cls-9, .cls-10, .cls-11 {
        mix-blend-mode: multiply;
      }

      .cls-3 {
        fill: #020202;
      }

      .cls-14 {
        filter: url(#luminosity-noclip-7);
      }

      .cls-4 {
        fill: #845ec2;
      }

      .cls-15 {
        opacity: .9;
      }

      .cls-16 {
        filter: url(#luminosity-noclip-5);
      }

      .cls-17 {
        mask: url(#mask-2);
      }

      .cls-18 {
        mask: url(#mask-3);
      }

      .cls-19 {
        mask: url(#mask-5);
      }

      .cls-20 {
        opacity: .4;
      }

      .cls-5, .cls-6 {
        fill: #fff;
      }

      .cls-6 {
        opacity: .6;
      }

      .cls-21 {
        opacity: .57;
      }

      .cls-22 {
        mask: url(#mask-4);
      }

      .cls-7 {
        fill: url(#_Áåçûìÿííûé_ãðàäèåíò_40-2);
      }

      .cls-8 {
        fill: url(#_Áåçûìÿííûé_ãðàäèåíò_40-3);
      }

      .cls-9 {
        fill: url(#_Áåçûìÿííûé_ãðàäèåíò_108-2);
      }

      .cls-23 {
        mask: url(#mask-6);
      }

      .cls-10 {
        fill: url(#_Áåçûìÿííûé_ãðàäèåíò_111);
      }

      .cls-24 {
        filter: url(#luminosity-noclip);
      }

      .cls-25 {
        mask: url(#mask-1);
      }

      .cls-26 {
        mask: url(#mask);
      }

      .cls-27 {
        mask: url(#mask-7);
      }

      .cls-11 {
        fill: url(#_Áåçûìÿííûé_ãðàäèåíò_108);
      }

      .cls-12 {
        fill: url(#_Áåçûìÿííûé_ãðàäèåíò_40);
      }

      .cls-13 {
        fill: #171421;
      }

      .cls-28 {
        filter: url(#luminosity-noclip-3);
      }
    </style>
    <filter id="luminosity-noclip" x="17.85" y="7.46" width="77.95" height="108.76" color-interpolation-filters="sRGB" filterUnits="userSpaceOnUse">
      <feFlood flood-color="#fff" result="bg"/>
      <feBlend in="SourceGraphic" in2="bg"/>
    </filter>
    <filter id="luminosity-noclip-2" x="17.85" y="-8256" width="77.95" height="32766" color-interpolation-filters="sRGB" filterUnits="userSpaceOnUse">
      <feFlood flood-color="#fff" result="bg"/>
      <feBlend in="SourceGraphic" in2="bg"/>
    </filter>
    <mask id="mask-1" x="17.85" y="-8256" width="77.95" height="32766" maskUnits="userSpaceOnUse"/>
    <linearGradient id="_Áåçûìÿííûé_ãðàäèåíò_111" data-name="Áåçûìÿííûé ãðàäèåíò 111" x1="93.5" y1="93.3" x2="29.56" y2="29.36" gradientUnits="userSpaceOnUse">
      <stop offset="0" stop-color="#fff"/>
      <stop offset="1" stop-color="#000"/>
    </linearGradient>
    <mask id="mask" x="17.85" y="7.46" width="77.95" height="108.76" maskUnits="userSpaceOnUse">
      <g class="cls-24">
        <g class="cls-25">
          <path class="cls-10" d="m20.32,66.59c-1.2-2.72-2.43-5.52-2.47-8.44-.07-4.69,2.87-8.96,5.71-12.94,7.8-10.92,15.61-21.84,23.41-32.77,1.19-1.67,2.48-3.41,4.49-4.29,1.86-.81,4.03-.74,6.1-.65,9.74.42,21.08,1.64,26.09,9.01,1.71,2.51,2.42,5.44,3.09,8.31l6.28,26.57c1.53,6.49,3.08,13.07,2.73,19.69-.82,15.68-14.09,45.32-35.82,45.13-25.74-.23-32.53-33.63-39.61-49.63Z"/>
        </g>
      </g>
    </mask>
    <linearGradient id="_Áåçûìÿííûé_ãðàäèåíò_14" data-name="Áåçûìÿííûé ãðàäèåíò 14" x1="93.5" y1="93.3" x2="29.56" y2="29.36" gradientUnits="userSpaceOnUse">
      <stop offset="0" stop-color="#000"/>
      <stop offset="1" stop-color="#00c9a7"/>
    </linearGradient>
    <filter id="luminosity-noclip-3" x="17.31" y="38.51" width="8.88" height="46.6" color-interpolation-filters="sRGB" filterUnits="userSpaceOnUse">
      <feFlood flood-color="#fff" result="bg"/>
      <feBlend in="SourceGraphic" in2="bg"/>
    </filter>
    <filter id="luminosity-noclip-4" x="17.31" y="-8256" width="8.88" height="32766" color-interpolation-filters="sRGB" filterUnits="userSpaceOnUse">
      <feFlood flood-color="#fff" result="bg"/>
      <feBlend in="SourceGraphic" in2="bg"/>
    </filter>
    <mask id="mask-3" x="17.31" y="-8256" width="8.88" height="32766" maskUnits="userSpaceOnUse"/>
    <radialGradient id="_Áåçûìÿííûé_ãðàäèåíò_108" data-name="Áåçûìÿííûé ãðàäèåíò 108" cx="21.75" cy="61.81" fx="21.75" fy="61.81" r="16.77" gradientUnits="userSpaceOnUse">
      <stop offset="0" stop-color="#fff"/>
      <stop offset="1" stop-color="#333"/>
    </radialGradient>
    <mask id="mask-2" x="17.31" y="38.51" width="8.88" height="46.6" maskUnits="userSpaceOnUse">
      <g class="cls-28">
        <g class="cls-18">
          <path class="cls-11" d="m26.18,38.51s-19.97,13.54,0,46.6c0,0-13.76-28.85,0-46.6Z"/>
        </g>
      </g>
    </mask>
    <radialGradient id="_Áåçûìÿííûé_ãðàäèåíò_40" data-name="Áåçûìÿííûé ãðàäèåíò 40" cx="21.75" cy="61.81" fx="21.75" fy="61.81" r="16.77" gradientUnits="userSpaceOnUse">
      <stop offset="0" stop-color="#fff"/>
      <stop offset="1" stop-color="#fff"/>
    </radialGradient>
    <filter id="luminosity-noclip-5" x="41.05" y="2.54" width="31.73" height="16.67" color-interpolation-filters="sRGB" filterUnits="userSpaceOnUse">
      <feFlood flood-color="#fff" result="bg"/>
      <feBlend in="SourceGraphic" in2="bg"/>
    </filter>
    <filter id="luminosity-noclip-6" x="41.05" y="-8256" width="31.73" height="32766" color-interpolation-filters="sRGB" filterUnits="userSpaceOnUse">
      <feFlood flood-color="#fff" result="bg"/>
      <feBlend in="SourceGraphic" in2="bg"/>
    </filter>
    <mask id="mask-5" x="41.05" y="-8256" width="31.73" height="32766" maskUnits="userSpaceOnUse"/>
    <radialGradient id="_Áåçûìÿííûé_ãðàäèåíò_108-2" data-name="Áåçûìÿííûé ãðàäèåíò 108" cx="56.92" cy="10.88" fx="56.92" fy="10.88" r="12.67" xlink:href="#_Áåçûìÿííûé_ãðàäèåíò_108"/>
    <mask id="mask-4" x="41.05" y="2.54" width="31.73" height="16.67" maskUnits="userSpaceOnUse">
      <g class="cls-16">
        <g class="cls-19">
          <path class="cls-9" d="m41.05,19.21s8.43-23.96,31.73-14.42c0,0-20.19-2-31.73,14.42Z"/>
        </g>
      </g>
    </mask>
    <radialGradient id="_Áåçûìÿííûé_ãðàäèåíò_40-2" data-name="Áåçûìÿííûé ãðàäèåíò 40" cx="56.92" cy="10.88" fx="56.92" fy="10.88" r="12.67" xlink:href="#_Áåçûìÿííûé_ãðàäèåíò_40"/>
    <filter id="luminosity-noclip-7" x="66.92" y="80.24" width="28.37" height="37.05" color-interpolation-filters="sRGB" filterUnits="userSpaceOnUse">
      <feFlood flood-color="#fff" result="bg"/>
      <feBlend in="SourceGraphic" in2="bg"/>
    </filter>
    <filter id="luminosity-noclip-8" x="66.92" y="-8256" width="28.37" height="32766" color-interpolation-filters="sRGB" filterUnits="userSpaceOnUse">
      <feFlood flood-color="#fff" result="bg"/>
      <feBlend in="SourceGraphic" in2="bg"/>
    </filter>
    <mask id="mask-7" x="66.92" y="-8256" width="28.37" height="32766" maskUnits="userSpaceOnUse"/>
    <radialGradient id="_Áåçûìÿííûé_ãðàäèåíò_108-3" data-name="Áåçûìÿííûé ãðàäèåíò 108" cx="81.1" cy="98.76" fx="81.1" fy="98.76" r="16.5" xlink:href="#_Áåçûìÿííûé_ãðàäèåíò_108"/>
    <mask id="mask-6" x="66.92" y="80.24" width="28.37" height="37.05" maskUnits="userSpaceOnUse">
      <g class="cls-14">
        <g class="cls-27">
          <path class="cls-2" d="m66.92,117.28c3.01-.57,20.84-3.4,28.37-37.05,0,0-13.92,31.81-28.37,37.05Z"/>
        </g>
      </g>
    </mask>
    <radialGradient id="_Áåçûìÿííûé_ãðàäèåíò_40-3" data-name="Áåçûìÿííûé ãðàäèåíò 40" cx="81.1" cy="98.76" fx="81.1" fy="98.76" r="16.5" xlink:href="#_Áåçûìÿííûé_ãðàäèåíò_40"/>
  </defs>
  <path class="cls-3" d="m24.16,71.41c-1.37-3.1-2.76-6.28-2.81-9.61-.08-5.34,3.26-10.21,6.5-14.73,8.89-12.44,17.77-24.87,26.66-37.31,1.36-1.9,2.82-3.89,5.11-4.88,2.11-.92,4.59-.84,6.94-.74,11.09.48,24,1.87,29.71,10.26,1.95,2.86,2.75,6.2,3.52,9.46,2.38,10.08,4.77,20.17,7.15,30.25,1.75,7.39,3.5,14.88,3.11,22.42-.94,17.85-16.05,51.61-40.79,51.39-29.31-.26-37.04-38.29-45.1-56.52Z"/>
  <path class="cls-4" d="m15.26,67.25c-1.37-3.1-2.76-6.28-2.81-9.61-.08-5.34,3.26-10.21,6.5-14.73,8.89-12.44,17.77-24.87,26.66-37.31,1.36-1.9,2.82-3.89,5.11-4.88,2.11-.92,4.59-.84,6.94-.74,11.09.48,24,1.87,29.71,10.26,1.95,2.86,2.75,6.2,3.52,9.46,2.38,10.08,4.77,20.17,7.15,30.25,1.75,7.39,3.5,14.88,3.11,22.42-.94,17.85-16.05,51.61-40.79,51.39-29.31-.26-37.04-38.29-45.1-56.52Z"/>
  <g class="cls-21">
    <g class="cls-26">
      <path class="cls-1" d="m20.32,66.59c-1.2-2.72-2.43-5.52-2.47-8.44-.07-4.69,2.87-8.96,5.71-12.94,7.8-10.92,15.61-21.84,23.41-32.77,1.19-1.67,2.48-3.41,4.49-4.29,1.86-.81,4.03-.74,6.1-.65,9.74.42,21.08,1.64,26.09,9.01,1.71,2.51,2.42,5.44,3.09,8.31l6.28,26.57c1.53,6.49,3.08,13.07,2.73,19.69-.82,15.68-14.09,45.32-35.82,45.13-25.74-.23-32.53-33.63-39.61-49.63Z"/>
    </g>
  </g>
  <g class="cls-20">
    <path class="cls-5" d="m47.17,28.3s.57,4.59,1.33,11.47c.36,3.44.79,7.45,1.24,11.75.47,4.29.86,8.88,1.31,13.45.23,2.29.51,4.58.82,6.82.31,2.25.59,4.46.7,6.61.11,2.15.07,4.23-.05,6.21-.1,1.98-.27,3.85-.48,5.58-.2,1.73-.46,3.32-.72,4.74-.25,1.41-.56,2.65-.81,3.67-.26,1.02-.49,1.82-.67,2.37-.17.55-.29.84-.29.84l-.86.04s-.14-.28-.37-.81c-.23-.53-.55-1.3-.9-2.29-.35-.99-.77-2.19-1.16-3.58-.4-1.39-.8-2.95-1.15-4.66-.37-1.71-.7-3.57-.97-5.54-.29-1.97-.49-4.05-.56-6.21-.06-2.16.05-4.4.21-6.67.15-2.27.29-4.58.36-6.89.08-2.31.15-4.61.23-6.88.06-2.27.19-4.5.3-6.67.12-2.16.21-4.25.35-6.23.13-1.98.25-3.85.37-5.58.48-6.92.94-11.52.94-11.52h.86Z"/>
    <path class="cls-5" d="m47.51,51.56s1.2-1.96,3.02-4.8c.92-1.41,1.99-3.06,3.13-4.83,1.12-1.78,2.39-3.6,3.62-5.46.61-.93,1.17-1.9,1.69-2.88.53-.97,1.06-1.92,1.7-2.72.64-.81,1.37-1.49,2.13-2.1.74-.61,1.5-1.15,2.24-1.62.74-.47,1.47-.86,2.14-1.18.67-.33,1.32-.57,1.85-.77.54-.19.99-.33,1.32-.4.33-.08.5-.12.5-.12l.68.53s0,.18.01.52c0,.34-.01.81-.07,1.38-.06.57-.14,1.27-.32,2-.17.74-.39,1.55-.7,2.39-.3.84-.68,1.71-1.15,2.58-.45.88-1.02,1.75-1.71,2.55-.7.8-1.55,1.51-2.45,2.21-.9.69-1.8,1.41-2.65,2.17-.85.75-1.71,1.5-2.55,2.24-.83.74-1.7,1.43-2.53,2.1-.84.66-1.63,1.32-2.41,1.91-.78.59-1.52,1.14-2.2,1.66-1.38,1.01-2.54,1.84-3.38,2.39-.83.55-1.3.87-1.3.87l-.62-.6Z"/>
    <path class="cls-5" d="m47.36,68.17s.24-.51.65-1.4c.41-.89,1.04-2.15,1.82-3.65.4-.74.83-1.55,1.28-2.4.45-.85.97-1.72,1.49-2.64.53-.91,1.06-1.86,1.66-2.78.59-.93,1.19-1.87,1.79-2.82.61-.94,1.17-1.92,1.7-2.9.54-.98,1.1-1.92,1.78-2.72.68-.79,1.44-1.47,2.23-2.04.78-.59,1.57-1.09,2.35-1.5.77-.43,1.53-.76,2.23-1.03.69-.28,1.36-.46,1.91-.6.55-.14,1.01-.23,1.34-.27.33-.04.51-.06.51-.06l.63.59s-.01.18-.03.51c-.02.33-.08.79-.18,1.35-.11.55-.24,1.23-.45,1.93-.21.71-.48,1.48-.82,2.27-.34.8-.74,1.62-1.23,2.43-.47.83-1.03,1.64-1.72,2.39-.68.75-1.53,1.4-2.4,2.06-.88.65-1.74,1.34-2.56,2.07-1.63,1.46-3.22,2.97-4.79,4.33-1.56,1.37-3.01,2.66-4.25,3.76-2.51,2.19-4.24,3.64-4.24,3.64l-.69-.53Z"/>
  </g>
  <g class="cls-15">
    <path class="cls-13" d="m51.01,28.3s.35,4.59.89,11.48c.26,3.44.56,7.46.89,11.76.31,4.3.63,8.89.96,13.47.17,2.29.38,4.58.6,6.84.23,2.25.43,4.47.53,6.62.09,2.15.1,4.23.06,6.21-.02,1.98-.12,3.85-.22,5.58-.09,1.73-.24,3.32-.37,4.72-.14,1.41-.29,2.64-.44,3.65-.29,2.03-.54,3.19-.54,3.19l-.54.03s-.37-1.13-.85-3.12c-.25-1-.51-2.21-.78-3.6-.26-1.39-.56-2.96-.8-4.68-.25-1.72-.51-3.58-.7-5.55-.21-1.97-.36-4.05-.44-6.21-.13-4.32.16-8.93.17-13.54.04-4.61.07-9.21.18-13.53.09-4.32.23-8.35.36-11.8.23-6.91.5-11.51.5-11.51h.54Z"/>
    <path class="cls-13" d="m51.62,51.67s5.32-7.18,10.63-14.35c.65-.9,1.28-1.82,1.87-2.75.6-.92,1.19-1.82,1.84-2.63,1.31-1.6,2.78-2.9,4.08-3.98,1.32-1.07,2.53-1.88,3.44-2.41.9-.53,1.49-.78,1.49-.78l.43.33s-.09.63-.39,1.64c-.14.51-.35,1.1-.61,1.77-.26.67-.58,1.4-.97,2.16-.78,1.53-1.78,3.25-3.14,4.87-1.38,1.6-3.18,3.01-4.77,4.61-1.61,1.57-3.22,3.14-4.8,4.55-1.56,1.42-3.05,2.71-4.34,3.8-2.58,2.18-4.37,3.55-4.37,3.55l-.39-.38Z"/>
    <path class="cls-13" d="m51.48,68.27s1.06-1.94,2.8-4.78c.87-1.42,1.9-3.06,3.05-4.79,1.13-1.75,2.42-3.55,3.71-5.36,1.31-1.79,2.41-3.76,3.76-5.34,1.37-1.56,2.89-2.8,4.27-3.78.69-.49,1.35-.92,1.97-1.26.61-.35,1.16-.64,1.63-.86.94-.44,1.54-.62,1.54-.62l.39.37s-.15.62-.52,1.58c-.37.97-.97,2.27-1.81,3.72-.85,1.44-1.89,3.07-3.25,4.58-.68.76-1.48,1.47-2.28,2.18-.81.71-1.62,1.46-2.4,2.23-6.21,6.23-12.43,12.46-12.43,12.46l-.43-.33Z"/>
  </g>
  <g class="cls-17">
    <path class="cls-12" d="m26.18,38.51s-19.97,13.54,0,46.6c0,0-13.76-28.85,0-46.6Z"/>
  </g>
  <g class="cls-22">
    <path class="cls-7" d="m41.05,19.21s8.43-23.96,31.73-14.42c0,0-20.19-2-31.73,14.42Z"/>
  </g>
  <g class="cls-23">
    <path class="cls-8" d="m66.92,117.28c3.01-.57,20.84-3.4,28.37-37.05,0,0-13.92,31.81-28.37,37.05Z"/>
  </g>
  <path class="cls-6" d="m41.26,19.94c-2.4,3.26-3.89,7.18-4.24,11.21,2.7-1.47,4.24-4.44,6.66-6.34,2.01-1.57,4.52-2.33,6.8-3.45,2.29-1.13,4.53-2.87,5.11-5.35.08-.33.12-.68-.01-.99-.25-.61-1.02-.79-1.68-.87-6.18-.74-8.88.69-12.64,5.78Z"/>
  <path class="cls-6" d="m28.09,40.47c.05,1.04.91,1.9,1.89,2.26.97.37,2.04.34,3.08.32,1.06-.03,2.28-.14,2.86-1.02.37-.55.37-1.26.33-1.92-.13-2.12-.65-5.55-3.51-5.13-1.76.26-4.74,3.74-4.65,5.49Z"/>
</svg>