<?xml version="1.0" encoding="UTF-8"?>
<svg id="Layer_1" data-name="Layer 1" xmlns="http://www.w3.org/2000/svg" xmlns:xlink="http://www.w3.org/1999/xlink" viewBox="0 0 128 128">
  <defs>
    <style>
      .cls-1 {
        fill: url(#_Áåçûìÿííûé_ãðàäèåíò_14);
      }

      .cls-1, .cls-2, .cls-3, .cls-4, .cls-5, .cls-6, .cls-7, .cls-8, .cls-9, .cls-10, .cls-11, .cls-12, .cls-13 {
        stroke-width: 0px;
      }

      .cls-2 {
        fill: url(#_Áåçûìÿííûé_ãðàäèåíò_108-3);
      }

      .cls-2, .cls-8, .cls-9, .cls-11 {
        mix-blend-mode: multiply;
      }

      .cls-3 {
        fill: #020202;
      }

      .cls-14 {
        filter: url(#luminosity-noclip-7);
      }

      .cls-15 {
        filter: url(#luminosity-noclip-5);
      }

      .cls-16 {
        mask: url(#mask-2);
      }

      .cls-17 {
        mask: url(#mask-3);
      }

      .cls-18 {
        mask: url(#mask-5);
      }

      .cls-19 {
        opacity: .4;
      }

      .cls-4, .cls-5 {
        fill: #fff;
      }

      .cls-5 {
        opacity: .6;
      }

      .cls-20 {
        opacity: .57;
      }

      .cls-21 {
        mask: url(#mask-4);
      }

      .cls-6 {
        fill: url(#_Áåçûìÿííûé_ãðàäèåíò_40-2);
      }

      .cls-7 {
        fill: url(#_Áåçûìÿííûé_ãðàäèåíò_40-3);
      }

      .cls-8 {
        fill: url(#_Áåçûìÿííûé_ãðàäèåíò_108-2);
      }

      .cls-22 {
        mask: url(#mask-6);
      }

      .cls-9 {
        fill: url(#_Áåçûìÿííûé_ãðàäèåíò_111);
      }

      .cls-23 {
        filter: url(#luminosity-noclip);
      }

      .cls-24 {
        mask: url(#mask-1);
      }

      .cls-25 {
        mask: url(#mask);
      }

      .cls-10 {
        fill: #ffc75f;
      }

      .cls-26 {
        mask: url(#mask-7);
      }

      .cls-11 {
        fill: url(#_Áåçûìÿííûé_ãðàäèåíò_108);
      }

      .cls-12 {
        fill: url(#_Áåçûìÿííûé_ãðàäèåíò_40);
      }

      .cls-13 {
        fill: #171421;
      }

      .cls-27 {
        filter: url(#luminosity-noclip-3);
      }
    </style>
    <filter id="luminosity-noclip" x="21.3" y="8.18" width="78.5" height="108.37" color-interpolation-filters="sRGB" filterUnits="userSpaceOnUse">
      <feFlood flood-color="#fff" result="bg"/>
      <feBlend in="SourceGraphic" in2="bg"/>
    </filter>
    <filter id="luminosity-noclip-2" x="21.3" y="-8256" width="78.5" height="32766" color-interpolation-filters="sRGB" filterUnits="userSpaceOnUse">
      <feFlood flood-color="#fff" result="bg"/>
      <feBlend in="SourceGraphic" in2="bg"/>
    </filter>
    <mask id="mask-1" x="21.3" y="-8256" width="78.5" height="32766" maskUnits="userSpaceOnUse"/>
    <linearGradient id="_Áåçûìÿííûé_ãðàäèåíò_111" data-name="Áåçûìÿííûé ãðàäèåíò 111" x1="105.41" y1="94.06" x2="32.59" y2="21.23" gradientUnits="userSpaceOnUse">
      <stop offset="0" stop-color="#fff"/>
      <stop offset="1" stop-color="#000"/>
    </linearGradient>
    <mask id="mask" x="21.3" y="8.18" width="78.5" height="108.37" maskUnits="userSpaceOnUse">
      <g class="cls-23">
        <g class="cls-24">
          <path class="cls-9" d="m46.96,98.81c-6.66-4.64-13.45-9.42-18.18-16.02-9.28-12.94-8.92-30.64-4.35-45.89,1.29-4.31,2.91-8.57,5.45-12.28,5.2-7.59,13.89-12.23,22.83-14.39,8.95-2.16,18.26-2.1,27.46-2.03,2.33.02,4.81.08,6.73,1.39,2.08,1.42,3.02,3.96,3.85,6.33,4.69,13.53,9.44,27.42,9.02,41.73-.27,9.3-2.73,18.38-4.02,27.59-1.12,7.96-1.47,16.39-5.69,23.23-12.05,19.56-31.61-1.67-43.1-9.68Z"/>
        </g>
      </g>
    </mask>
    <linearGradient id="_Áåçûìÿííûé_ãðàäèåíò_14" data-name="Áåçûìÿííûé ãðàäèåíò 14" x1="105.41" y1="94.06" x2="32.59" y2="21.23" gradientUnits="userSpaceOnUse">
      <stop offset="0" stop-color="#000"/>
      <stop offset="1" stop-color="#00c9a7"/>
    </linearGradient>
    <filter id="luminosity-noclip-3" x="19.14" y="5.78" width="43.71" height="48.25" color-interpolation-filters="sRGB" filterUnits="userSpaceOnUse">
      <feFlood flood-color="#fff" result="bg"/>
      <feBlend in="SourceGraphic" in2="bg"/>
    </filter>
    <filter id="luminosity-noclip-4" x="19.14" y="-8256" width="43.71" height="32766" color-interpolation-filters="sRGB" filterUnits="userSpaceOnUse">
      <feFlood flood-color="#fff" result="bg"/>
      <feBlend in="SourceGraphic" in2="bg"/>
    </filter>
    <mask id="mask-3" x="19.14" y="-8256" width="43.71" height="32766" maskUnits="userSpaceOnUse"/>
    <radialGradient id="_Áåçûìÿííûé_ãðàäèåíò_108" data-name="Áåçûìÿííûé ãðàäèåíò 108" cx="40.99" cy="29.91" fx="40.99" fy="29.91" r="23.02" gradientUnits="userSpaceOnUse">
      <stop offset="0" stop-color="#fff"/>
      <stop offset="1" stop-color="#333"/>
    </radialGradient>
    <mask id="mask-2" x="19.14" y="5.78" width="43.71" height="48.25" maskUnits="userSpaceOnUse">
      <g class="cls-27">
        <g class="cls-17">
          <path class="cls-11" d="m62.85,5.8S20.64,3.43,19.14,54.03c0,0,6.68-36.61,43.71-48.23Z"/>
        </g>
      </g>
    </mask>
    <radialGradient id="_Áåçûìÿííûé_ãðàäèåíò_40" data-name="Áåçûìÿííûé ãðàäèåíò 40" cx="40.99" cy="29.91" fx="40.99" fy="29.91" r="23.02" gradientUnits="userSpaceOnUse">
      <stop offset="0" stop-color="#fff"/>
      <stop offset="1" stop-color="#fff"/>
    </radialGradient>
    <filter id="luminosity-noclip-5" x="73.83" y="4.67" width="20.67" height="18.35" color-interpolation-filters="sRGB" filterUnits="userSpaceOnUse">
      <feFlood flood-color="#fff" result="bg"/>
      <feBlend in="SourceGraphic" in2="bg"/>
    </filter>
    <filter id="luminosity-noclip-6" x="73.83" y="-8256" width="20.67" height="32766" color-interpolation-filters="sRGB" filterUnits="userSpaceOnUse">
      <feFlood flood-color="#fff" result="bg"/>
      <feBlend in="SourceGraphic" in2="bg"/>
    </filter>
    <mask id="mask-5" x="73.83" y="-8256" width="20.67" height="32766" maskUnits="userSpaceOnUse"/>
    <radialGradient id="_Áåçûìÿííûé_ãðàäèåíò_108-2" data-name="Áåçûìÿííûé ãðàäèåíò 108" cx="84.17" cy="13.85" fx="84.17" fy="13.85" r="9.77" xlink:href="#_Áåçûìÿííûé_ãðàäèåíò_108"/>
    <mask id="mask-4" x="73.83" y="4.67" width="20.67" height="18.35" maskUnits="userSpaceOnUse">
      <g class="cls-15">
        <g class="cls-18">
          <path class="cls-8" d="m73.83,4.94s17.44-3.88,20.67,18.09c0,0-7.32-18.73-20.67-18.09Z"/>
        </g>
      </g>
    </mask>
    <radialGradient id="_Áåçûìÿííûé_ãðàäèåíò_40-2" data-name="Áåçûìÿííûé ãðàäèåíò 40" cx="84.17" cy="13.85" fx="84.17" fy="13.85" r="9.77" xlink:href="#_Áåçûìÿííûé_ãðàäèåíò_40"/>
    <filter id="luminosity-noclip-7" x="60.05" y="91.5" width="37.47" height="29.2" color-interpolation-filters="sRGB" filterUnits="userSpaceOnUse">
      <feFlood flood-color="#fff" result="bg"/>
      <feBlend in="SourceGraphic" in2="bg"/>
    </filter>
    <filter id="luminosity-noclip-8" x="60.05" y="-8256" width="37.47" height="32766" color-interpolation-filters="sRGB" filterUnits="userSpaceOnUse">
      <feFlood flood-color="#fff" result="bg"/>
      <feBlend in="SourceGraphic" in2="bg"/>
    </filter>
    <mask id="mask-7" x="60.05" y="-8256" width="37.47" height="32766" maskUnits="userSpaceOnUse"/>
    <radialGradient id="_Áåçûìÿííûé_ãðàäèåíò_108-3" data-name="Áåçûìÿííûé ãðàäèåíò 108" cx="78.78" cy="106.1" fx="78.78" fy="106.1" r="16.79" xlink:href="#_Áåçûìÿííûé_ãðàäèåíò_108"/>
    <mask id="mask-6" x="60.05" y="91.5" width="37.47" height="29.2" maskUnits="userSpaceOnUse">
      <g class="cls-14">
        <g class="cls-26">
          <path class="cls-2" d="m60.05,112.17s32.52,29.29,37.47-20.67c0,0-6.24,40.05-37.47,20.67Z"/>
        </g>
      </g>
    </mask>
    <radialGradient id="_Áåçûìÿííûé_ãðàäèåíò_40-3" data-name="Áåçûìÿííûé ãðàäèåíò 40" cx="78.78" cy="106.1" fx="78.78" fy="106.1" r="16.79" xlink:href="#_Áåçûìÿííûé_ãðàäèåíò_40"/>
  </defs>
  <path class="cls-3" d="m45.2,103.51c-7.52-5.24-15.18-10.63-20.53-18.08-10.47-14.61-10.07-34.59-4.91-51.81,1.46-4.86,3.29-9.68,6.15-13.87,5.87-8.57,15.68-13.81,25.78-16.25,10.1-2.44,20.62-2.37,31.01-2.29,2.63.02,5.43.09,7.6,1.57,2.35,1.6,3.41,4.47,4.34,7.15,5.3,15.27,10.66,30.96,10.19,47.12-.31,10.5-3.08,20.75-4.54,31.16-1.26,8.99-1.66,18.5-6.43,26.23-13.61,22.09-35.69-1.88-48.67-10.93Z"/>
  <path class="cls-3" d="m52.95,109.16c-7.52-5.24-15.18-10.63-20.53-18.08-10.47-14.61-10.07-34.59-4.91-51.81,1.46-4.86,3.29-9.68,6.15-13.87,5.87-8.57,15.68-13.81,25.78-16.25,10.1-2.44,20.62-2.37,31.01-2.29,2.63.02,5.43.09,7.6,1.57,2.35,1.6,3.41,4.47,4.34,7.15,5.3,15.27,10.66,30.96,10.18,47.12-.31,10.5-3.08,20.75-4.54,31.16-1.26,8.99-1.66,18.5-6.43,26.23-13.61,22.09-35.69-1.88-48.67-10.93Z"/>
  <path class="cls-10" d="m45.2,103.51c-7.52-5.24-15.18-10.63-20.53-18.08-10.47-14.61-10.07-34.59-4.91-51.81,1.46-4.86,3.29-9.68,6.15-13.87,5.87-8.57,15.68-13.81,25.78-16.25,10.1-2.44,20.62-2.37,31.01-2.29,2.63.02,5.43.09,7.6,1.57,2.35,1.6,3.41,4.47,4.34,7.15,5.3,15.27,10.66,30.96,10.19,47.12-.31,10.5-3.08,20.75-4.54,31.16-1.26,8.99-1.66,18.5-6.43,26.23-13.61,22.09-35.69-1.88-48.67-10.93Z"/>
  <g class="cls-20">
    <g class="cls-25">
      <path class="cls-1" d="m46.96,98.81c-6.66-4.64-13.45-9.42-18.18-16.02-9.28-12.94-8.92-30.64-4.35-45.89,1.29-4.31,2.91-8.57,5.45-12.28,5.2-7.59,13.89-12.23,22.83-14.39,8.95-2.16,18.26-2.1,27.46-2.03,2.33.02,4.81.08,6.73,1.39,2.08,1.42,3.02,3.96,3.85,6.33,4.69,13.53,9.44,27.42,9.02,41.73-.27,9.3-2.73,18.38-4.02,27.59-1.12,7.96-1.47,16.39-5.69,23.23-12.05,19.56-31.61-1.67-43.1-9.68Z"/>
    </g>
  </g>
  <g class="cls-19">
    <path class="cls-4" d="m48.78,25.6s.68,4.32,1.56,10.81c.43,3.25.94,7.03,1.42,11.09.53,4.06.96,8.39,1.43,12.72.24,2.17.54,4.33.85,6.46.32,2.13.6,4.22.71,6.26.1,2.04.07,4.01-.05,5.88-.1,1.87-.27,3.65-.48,5.29-.2,1.64-.46,3.15-.72,4.49-.25,1.34-.55,2.51-.81,3.47-.26.96-.49,1.72-.67,2.24-.17.52-.29.79-.29.79l-.84.04s-.14-.27-.35-.77c-.22-.5-.52-1.24-.86-2.17-.33-.94-.74-2.08-1.1-3.39-.38-1.31-.76-2.79-1.1-4.41-.35-1.62-.67-3.37-.93-5.23-.28-1.86-.48-3.82-.55-5.86-.06-2.04.04-4.15.17-6.3.13-2.15.25-4.33.3-6.51.11-4.36.17-8.71.35-12.8.14-4.09.32-7.9.47-11.17.32-6.54.64-10.91.64-10.91l.84-.04Z"/>
    <path class="cls-4" d="m48.11,25.63l1.23.45,1.25.58,1.18.66,1.14.74c1.49,1.02,2.83,2.22,4.12,3.42,2.57,2.41,4.98,4.91,7.67,6.68.35.23.64.42,1.03.65.34.2.68.38,1.05.57.73.38,1.5.75,2.28,1.13,1.56.78,3.23,1.6,4.85,2.76l.3.22.31.24c.17.14.33.26.55.44.42.35.76.67,1.12,1.02.7.68,1.35,1.4,1.95,2.13.6.73,1.17,1.47,1.7,2.2.54.76,1,1.41,1.56,2.23.3.5.86,1.3.9,2.76v.08s-.01.31-.01.31c-.02.24-.04.34-.07.51-.06.29-.14.57-.23.81-.19.49-.41.87-.61,1.18-.41.62-.78,1.01-1.03,1.33-.26.32-.6.7-.93,1.07-1.28,1.43-2.62,2.69-3.98,3.92-1.34,1.23-2.71,2.36-4.01,3.52-1.3,1.14-2.57,2.29-3.71,3.41-.65.63-1.18,1.18-1.74,1.77-.58.59-1.15,1.19-1.71,1.79l-3.43,3.65-3.53,3.67-3.67,3.67-.71-5.62c2.68,2.24,5.3,4.56,7.85,6.99,1.27,1.23,2.53,2.46,3.74,3.76,1.23,1.27,2.43,2.6,3.57,4l-.48.69c-1.71-.6-3.37-1.26-4.99-1.98-1.64-.69-3.23-1.46-4.82-2.22-3.16-1.56-6.24-3.22-9.26-4.97l-3.35-1.94,2.64-3.69c1.02-1.42,2.08-2.82,3.16-4.22,1.1-1.39,2.23-2.76,3.44-4.09,1.21-1.33,2.51-2.6,3.85-3.83.68-.61,1.38-1.2,2.08-1.79.72-.58,1.5-1.19,2.17-1.68,1.51-1.14,2.98-2.13,4.44-3.12,1.46-.98,2.85-1.96,4.19-2.95,1.32-1,2.61-2.02,3.75-3.09.27-.26.54-.49.86-.83l.65-.67s.04-.04.02.04c0,.04-.03.11-.04.19-.01.06,0,.05-.02.18,0,.05,0,.11,0,.15v-.08c.05.57.2.56.05.32l-1.25-2.16c-.42-.72-.84-1.42-1.28-2.08-.44-.66-.9-1.29-1.38-1.88-.24-.29-.51-.59-.73-.83-.1-.11-.27-.28-.42-.43l-.4-.37c-1.12-1-2.49-1.9-3.96-2.83-.73-.47-1.48-.96-2.24-1.48-.37-.26-.77-.54-1.15-.83-.33-.25-.73-.58-1.08-.88-2.86-2.45-4.96-5.33-7.17-7.96-1.1-1.32-2.24-2.58-3.47-3.74l-.95-.83-1-.77-1.04-.68-1.15-.62.34-.77Z"/>
  </g>
  <g>
    <path class="cls-13" d="m49.87,25.61s.5,4.33,1.13,10.83c.33,3.25.72,7.04,1.08,11.11.39,4.06.73,8.4,1.1,12.74.34,4.34.97,8.66,1.18,12.74.09,2.04.11,4.01.06,5.88-.02,1.87-.12,3.64-.22,5.28-.09,1.64-.24,3.14-.38,4.47-.15,1.33-.3,2.49-.45,3.45-.29,1.92-.55,3.02-.55,3.02l-.52.02s-.35-1.07-.8-2.96c-.23-.94-.48-2.09-.74-3.4-.25-1.32-.52-2.8-.75-4.42-.24-1.62-.49-3.38-.67-5.24-.2-1.86-.35-3.83-.44-5.86-.14-4.07.12-8.44.09-12.79,0-4.35-.03-8.7.01-12.79.02-4.08.08-7.89.13-11.16.08-6.53.21-10.89.21-10.89l.52-.02Z"/>
    <path class="cls-13" d="m49.3,25.78l1.22.48,1.21.6,1.15.68,1.1.75c1.44,1.04,2.74,2.26,4,3.48,2.5,2.45,4.85,5.02,7.58,6.92,1.36.98,2.82,1.7,4.39,2.51,1.54.81,3.15,1.65,4.67,2.79l.28.22.29.23c.17.14.33.27.52.44.38.33.71.64,1.04.98.66.67,1.27,1.37,1.84,2.08,1.15,1.45,2.12,2.89,3.13,4.39.27.45.7,1.1.72,2.16.01.95-.41,1.75-.74,2.24-.35.52-.69.89-.95,1.21-.27.32-.6.68-.91,1.03-1.25,1.37-2.58,2.59-3.92,3.77-1.34,1.19-2.7,2.31-4.04,3.42-1.33,1.1-2.64,2.22-3.85,3.35-.66.61-1.23,1.17-1.82,1.76-.6.59-1.19,1.19-1.78,1.79-1.18,1.2-2.34,2.45-3.51,3.68l-3.51,3.75-3.58,3.77-.44-3.51c1.38,1.07,2.73,2.18,4.09,3.26,1.36,1.09,2.68,2.23,4.03,3.35,1.32,1.15,2.65,2.28,3.94,3.47,1.31,1.17,2.58,2.38,3.84,3.62l-.3.43c-1.6-.75-3.17-1.53-4.72-2.36-1.56-.8-3.08-1.67-4.61-2.51-1.51-.88-3.04-1.73-4.53-2.63-1.49-.91-2.99-1.79-4.47-2.72l-2.14-1.35,1.7-2.16,3.25-4.12c1.13-1.35,2.25-2.71,3.47-4.01,1.19-1.31,2.46-2.58,3.76-3.8.66-.61,1.33-1.2,2.01-1.79.69-.58,1.42-1.18,2.09-1.7,1.44-1.13,2.88-2.15,4.29-3.18,1.42-1.02,2.82-2.02,4.16-3.05,1.33-1.03,2.63-2.1,3.81-3.24.28-.28.57-.54.87-.87.31-.33.58-.59.72-.79.16-.21.15-.23.15-.16.03.18.05.02-.13-.27-.84-1.44-1.73-2.95-2.67-4.28-.47-.67-.97-1.32-1.5-1.92-.26-.3-.55-.6-.81-.86-.12-.13-.29-.28-.45-.43l-.21-.19-.23-.19c-1.21-1.03-2.64-1.91-4.13-2.8-.74-.46-1.5-.92-2.25-1.41-.37-.25-.76-.51-1.13-.78-.34-.25-.73-.55-1.07-.84-2.83-2.33-4.99-5.13-7.26-7.72-1.14-1.3-2.31-2.55-3.59-3.68-1.3-1.13-2.65-2.08-4.27-2.81l.21-.48Z"/>
  </g>
  <g class="cls-16">
    <path class="cls-12" d="m62.85,5.8S20.64,3.43,19.14,54.03c0,0,6.68-36.61,43.71-48.23Z"/>
  </g>
  <g class="cls-21">
    <path class="cls-6" d="m73.83,4.94s17.44-3.88,20.67,18.09c0,0-7.32-18.73-20.67-18.09Z"/>
  </g>
  <g class="cls-22">
    <path class="cls-7" d="m60.05,112.17s32.52,29.29,37.47-20.67c0,0-6.24,40.05-37.47,20.67Z"/>
  </g>
  <path class="cls-5" d="m28.86,25.16c-.64-1.56-.21-.2-.3-1.82-.17-3.18,1.88-5.87,4.4-7.65.71-.5,1.47-.96,2.33-1.21,1.76-.51,3.8-.13,5.61.68,1.81.8,3.43,2,5.03,3.18.4.3.83.62,1.02,1.07.2.48.08,1-.04,1.47-.7,2.69-1.43,5.44-3.11,7.6-1.09,1.4-2.54,2.49-3.8,3.75-1.09,1.09-2.72.4-5.06-.54-4.23-1.69-4.96-3.84-6.07-6.54Z"/>
  <path class="cls-5" d="m27.15,39.49c-.34-.83-.11-.1-.16-.97-.09-1.69,1-3.13,2.34-4.07.38-.27.78-.51,1.24-.64.94-.27,2.03-.07,2.99.36s1.83,1.06,2.68,1.69c.22.16.44.33.54.57.11.26.04.53-.02.78-.37,1.43-.76,2.9-1.66,4.05-.58.75-1.36,1.33-2.03,2-.58.58-1.45.21-2.7-.29-2.25-.9-2.65-2.05-3.24-3.48Z"/>
</svg>