<?xml version="1.0" encoding="UTF-8"?>
<svg id="Layer_1" data-name="Layer 1" xmlns="http://www.w3.org/2000/svg" viewBox="0 0 128 128">
  <defs>
    <style>
      .cls-1 {
        stroke-width: 0px;
      }
    </style>
  </defs>
  <g id="NewGroupe1">
    <g id="NewGroup55-3">
      <g>
        <path class="cls-1" d="m2.76,54.91s0,0,0,0c0,0,0,0,0,0,.51-1.03,1.86-1.51,3.01-1.07.73.28,1.46.48,2.11.66l13.49,3.72c.47.13.97-.02,1.3-.39l.6-.68c1.99-2.25,3.97-4.5,5.96-6.75.07-.08.12-.16.17-.25.92-1.74,2.22-3.25,3.77-4.37,2.77-2.01,5.75-2.43,7.76-2.41.82,0,1.67-.03,2.53-.1l6.35-.53c1.42-.12,2.72-.32,3.96-.63,1.03-.25,2.06-.27,3.07-.05,2.49.54,3.89,2.33,4.38,3.07.01.02.02.04.04.06,2.32,4.56,4.63,9.12,6.95,13.68.02.05.05.1.08.14.92,1.35.59,3.06-.33,3.69-.47.32-1.16.4-1.84.21-.86-.23-1.57-.84-1.95-1.67-.01-.03-.03-.06-.05-.09l-6.99-12.43c-.79-1.4-2.33-2.17-3.93-1.95l-5.67.78c-1.26.17-2.36.95-2.94,2.08-.58,1.13-.58,2.47.01,3.6l11.5,21.91c.39.74.86,1.44,1.39,2.09l5.05,6.13c2.41,2.93,5.96,4.6,9.75,4.6h3.73c.35,0,.64.29.64.64v6.22c0,.35-.29.64-.64.64h-8.6s-.02,0-.04,0c-1.96-.11-3.84-.59-5.59-1.41-1.2-.56-2.31-1.28-3.32-2.13-.02-.02-.05-.04-.07-.07l-5.23-5.93c-2.01-2.29-5.02-3.41-8.04-3.01l-14,1.87c-1.41.19-2.59,1.14-3.07,2.48l-2.43,6.83c-.09.25-.33.42-.6.42h-7.24c-.21,0-.41-.11-.53-.29-.12-.18-.14-.4-.06-.6l1.49-3.51c1.59-3.74,2.69-7.14,3.34-10.38.07-.36.18-.67.34-.97.72-1.36,2.38-2.25,4.32-2.33,2.58-.1,4.68-.32,6.62-.67l7.39-1.37c.4-.07.75-.34.92-.71.17-.37.16-.81-.04-1.16l-8.52-15.29c-.19-.35-.54-.59-.94-.64-.4-.06-.8.08-1.08.36l-3.71,3.71c-.06.06-.12.14-.17.21-.51.8-1.44,1.9-2.95,2.59-2.57,1.16-5.05.28-5.75-.01-.02,0-.04-.02-.06-.02l-14.22-5.25c-.92-.32-1.32-1.03-1.48-1.42-.25-.62-.25-1.29.02-1.84h0Zm76.53,33.69c0-.35.29-.64.64-.64h5.95c1.45,0,2.8.66,3.61,1.77.67.92.93,2.03.7,2.98-.19.76-.7,1.47-1.44,1.99-.71.5-1.58.76-2.53.76h-6.29c-.35,0-.64-.29-.64-.64v-6.22h0Zm-55.09,9.46l-.82,2.36-.04.11c-.64,1.82-1.29,3.71-1.67,4.78-.02.05-.04.09-.06.13-.8,1.27-2.06,2.18-3.45,2.5-.37.08-.73.13-1.09.13-.78,0-1.5-.2-2.08-.58-1.29-.86-1.97-2.71-1.67-4.61,0-.05.02-.1.04-.15.24-.56.7-1.69,1.21-2.9l.92-2.21c.1-.24.33-.39.59-.39h7.52c.21,0,.4.1.52.27.12.17.15.38.08.58h0ZM3.36,60.57s0,0,0,0l14.15,5.23s.02,0,.03,0c1.2.5,4.37,1.51,7.76-.03,1.99-.9,3.24-2.33,3.93-3.36.02-.03.05-.07.08-.1l1.78-1.78c.12-.12.28-.19.45-.19.03,0,.06,0,.09,0,.2.03.37.15.47.32l5.99,10.75c.1.18.11.4.02.58-.09.19-.26.32-.46.36l-4.77.88c-1.81.33-3.8.54-6.25.63-2.85.11-5.34,1.52-6.48,3.68-.27.51-.47,1.07-.59,1.66-.62,3.07-1.66,6.31-3.19,9.89l-.35.82c-.7,1.65-1.41,3.31-2.11,4.96-.02.05-.05.09-.08.13-.06.08-.11.17-.15.26-.2.47-.77,1.86-1.39,3.33-.62,1.49-1.19,2.86-1.37,3.3-.04.08-.06.17-.08.26-.57,2.98.53,5.96,2.73,7.42.99.66,2.2,1.01,3.5,1.01.55,0,1.11-.06,1.65-.19,2.14-.49,4.02-1.9,5.17-3.86.04-.07.08-.14.1-.22.37-1.05,1.09-3.1,1.78-5.09.58-1.66,1.17-3.37,1.57-4.49.02-.05.04-.09.07-.14.06-.09.1-.18.14-.27l2.93-8.24c.15-.44.54-.75,1-.81l14-1.87c2.17-.29,4.34.52,5.79,2.17l5.32,6.04s.08.09.13.12c1.21,1.04,2.56,1.91,4.01,2.59,2.07.97,4.28,1.52,6.59,1.65.02,0,.05,0,.07,0h18.83c1.47,0,2.85-.42,3.99-1.22,1.24-.87,2.11-2.1,2.45-3.47.42-1.7.01-3.56-1.11-5.1-1.29-1.76-3.41-2.82-5.67-2.82h-13.57c-3.02,0-5.86-1.34-7.78-3.67l-5.05-6.13c-.42-.52-.8-1.07-1.1-1.66l-11.5-21.91c-.21-.39-.21-.85,0-1.24.2-.39.57-.66,1.01-.72l5.67-.78c.55-.08,1.08.19,1.36.67l6.96,12.37s.01.02.02.04c.71,1.48,2.01,2.57,3.57,2.99,1.43.39,2.87.18,3.96-.58,2.13-1.47,2.61-4.74,1.05-7.13-.01-.02-.02-.04-.03-.06-2.31-4.56-4.63-9.11-6.94-13.67-.02-.04-.04-.07-.06-.11-.66-1.04-2.56-3.53-6.05-4.28-1.39-.3-2.8-.28-4.21.07-1.11.27-2.28.45-3.57.56l-6.36.53c-.78.07-1.55.1-2.3.09-.03,0-.06,0-.09,0-2.39,0-5.88.51-9.18,2.9-1.8,1.31-3.33,3.05-4.43,5.05-.02.04-.05.08-.08.12-1.87,2.12-3.75,4.25-5.62,6.37-.16.18-.41.26-.65.19l-12.34-3.4c-.62-.17-1.27-.35-1.88-.58-2.39-.91-5.12.12-6.21,2.35-.59,1.2-.62,2.63-.09,3.93.55,1.33,1.63,2.37,2.99,2.86h0Z"/>
        <path class="cls-1" d="m105.54,28.68h-46.07c-1.1,0-2-.9-2-2s.9-2,2-2h46.07c1.1,0,2,.9,2,2s-.9,2-2,2h0Zm0-6.55h-46.07c-2.51,0-4.55,2.04-4.55,4.55s2.04,4.55,4.55,4.55h46.07c2.51,0,4.55-2.04,4.55-4.55s-2.04-4.55-4.55-4.55h0Z"/>
        <path class="cls-1" d="m83.68,42.5c0-1.1.9-2,2-2h37.77c1.1,0,2,.9,2,2s-.9,2-2,2h-37.77c-1.1,0-2-.9-2-2h0Zm44.32,0c0-2.51-2.04-4.55-4.55-4.55h-37.77c-2.51,0-4.55,2.04-4.55,4.55s2.04,4.55,4.55,4.55h37.77c2.51,0,4.55-2.04,4.55-4.55h0Z"/>
        <path class="cls-1" d="m118.8,60.09c0,1.1-.9,2-2,2h-31.73c-1.1,0-2-.9-2-2s.9-2,2-2h31.73c1.1,0,2,.9,2,2h0Zm-33.73-4.55c-2.51,0-4.55,2.04-4.55,4.55s2.04,4.55,4.55,4.55h31.73c2.51,0,4.55-2.04,4.55-4.55s-2.04-4.55-4.55-4.55h-31.73Z"/>
        <path class="cls-1" d="m18.51,29.06c0-5.03,4.09-9.12,9.12-9.12s9.12,4.09,9.12,9.12-4.09,9.12-9.12,9.12-9.12-4.09-9.12-9.12h0Zm20.79,0c0-6.43-5.23-11.67-11.67-11.67s-11.67,5.23-11.67,11.67,5.23,11.67,11.67,11.67,11.67-5.23,11.67-11.67h0Z"/>
      </g>
    </g>
  </g>
</svg>