<?xml version="1.0" encoding="utf-8"?>
<!-- Generator: Adobe Illustrator 24.3.0, SVG Export Plug-In . SVG Version: 6.00 Build 0)  -->
<svg version="1.1" id="Layer_1" xmlns="http://www.w3.org/2000/svg" xmlns:xlink="http://www.w3.org/1999/xlink" x="0px" y="0px"
	 viewBox="0 0 64 64" enable-background="new 0 0 64 64" xml:space="preserve">
<path d="M56.6,24.8c0.2-0.1,0.3-0.3,0.4-0.6l5-21c0.1-0.3,0-0.7-0.3-0.9C61.5,2,61.1,1.9,60.8,2l-21,5c-0.2,0.1-0.4,0.2-0.6,0.4
	L32,16.6l-7.2-9.2c-0.1-0.2-0.3-0.3-0.6-0.4l-21-5C2.9,1.9,2.5,2,2.3,2.3C2.1,2.5,2,2.9,2,3.2l5,21c0.1,0.2,0.2,0.4,0.4,0.6
	l11.2,8.8l-0.7,0.9l-3.2-3.2c-0.3-0.3-0.7-0.4-1-0.2c-0.4,0.1-0.6,0.4-0.7,0.8l-1,7c0,0.3,0.1,0.6,0.3,0.8l2.3,2.3L3.7,52.9
	c-0.6,0.6-0.9,1.3-0.9,2.1s0.3,1.6,0.9,2.1l3.2,3.2c0.6,0.6,1.4,0.9,2.1,0.9c0.8,0,1.5-0.3,2.1-0.9L22,49.4l2.3,2.3
	c0.2,0.2,0.4,0.3,0.7,0.3c0,0,0.1,0,0.1,0l6.9-1l6.9,1c0,0,0.1,0,0.1,0c0.3,0,0.5-0.1,0.7-0.3l2.3-2.3l10.9,10.9
	c0.6,0.6,1.3,0.9,2.1,0.9c0.8,0,1.6-0.3,2.1-0.9l3.2-3.2c1.2-1.2,1.2-3.1,0-4.2L49.4,42l2.3-2.3c0.2-0.2,0.3-0.5,0.3-0.8l-1-7
	c-0.1-0.4-0.3-0.7-0.7-0.8c-0.4-0.1-0.8,0-1,0.2l-3.2,3.2l-0.7-0.9L56.6,24.8z M40.6,8.9l19.1-4.5l-4.5,19.1L44.2,32L33.3,18.2
	L40.6,8.9z M4.8,6.2L39.6,41l-3.7,3.7l-27-21.2L4.8,6.2z M32,48.6l-2.5-2.5l2.5-2l2.5,2L32,48.6z M30.4,42.9l-2.3,1.8L24.4,41
	l1.6-1.6L30.4,42.9z M20.2,34.8l4.2,3.3L23,39.6l-3.7-3.7L20.2,34.8z M9.7,58.9c-0.4,0.4-1,0.4-1.4,0l-3.2-3.2c0,0,0,0,0,0
	c-0.2-0.2-0.3-0.4-0.3-0.7s0.1-0.5,0.3-0.7l6.9-6.9l4.6,4.6L9.7,58.9z M18,50.6L13.4,46l2.6-2.6l4.6,4.6L18,50.6z M25.4,49.9
	l-2.6-2.6l-6-6l-2.6-2.6l0.6-4.5l15.2,15.2L25.4,49.9z M43.4,48l4.6-4.6l2.6,2.6L46,50.6L43.4,48z M58.9,55.7l-3.2,3.2
	c-0.4,0.4-1,0.4-1.4,0L47.4,52l4.6-4.6l6.9,6.9C59.3,54.7,59.3,55.3,58.9,55.7z M49.9,38.6l-2.6,2.6l-6,6l-2.6,2.6l-4.5-0.6
	l15.2-15.2L49.9,38.6z M41,39.6L21.4,20H28v-2h-8.6l-2-2H26v-2H15.4L6.2,4.8l17.2,4.1l21.2,27L41,39.6z"/>
<rect x="38" y="14" width="11" height="2"/>
<rect x="36" y="18" width="9" height="2"/>
</svg>
